<?xml version="1.0" standalone="no"?>
<!DOCTYPE svg PUBLIC "-//W3C//DTD SVG 1.1//EN" "http://www.w3.org/Graphics/SVG/1.1/DTD/svg11.dtd" >
<svg>
<metadata>
Created by FontForge 20120731 at Tue Jan 29 15:55:22 2019
 By www-data
Copyright 2016 Google Inc. All Rights Reserved.
</metadata>
<defs>
<font id="SpaceMono-Regular" horiz-adv-x="612" >
  <font-face 
    font-family="Space Mono"
    font-weight="400"
    font-stretch="normal"
    units-per-em="1000"
    panose-1="2 0 5 9 4 0 0 2 0 4"
    ascent="800"
    descent="-200"
    x-height="496"
    cap-height="700"
    bbox="4 -309 624 1089.99"
    underline-thickness="50"
    underline-position="-50"
    unicode-range="U+0020-FB02"
  />
<missing-glyph 
 />
    <glyph glyph-name="fi" unicode="fi" 
d="M384 644q0 29 20.5 49.5t49.5 20.5t49.5 -20.5t20.5 -49.5t-20.5 -49.5t-49.5 -20.5t-49.5 20.5t-20.5 49.5zM416 0v424h-173v-424h-78v424h-117v72h117v106q0 34 21.5 56t55.5 22h106v-72h-78q-27 0 -27 -30v-82h251v-496h-78z" />
    <glyph glyph-name="fl" unicode="fl" 
d="M416 628h-146q-27 0 -27 -30v-102h125v-72h-125v-424h-78v424h-117v72h117v126q0 34 21.5 56t55.5 22h252v-700h-78v628z" />
    <glyph glyph-name=".notdef" 
 />
    <glyph glyph-name="NULL" 
 />
    <glyph glyph-name="NULL" 
 />
    <glyph glyph-name="CR" 
 />
    <glyph glyph-name="space" unicode=" " 
 />
    <glyph glyph-name="A" unicode="A" 
d="M456 174h-300l-51 -174h-90l212 700h158l212 -700h-90zM300 664l-121 -412h254l-121 412h-12z" />
    <glyph glyph-name="B" unicode="B" 
d="M57 78h60v544h-60v78h283q50 0 88.5 -14t65 -38t40 -57.5t13.5 -72.5v-12q0 -29 -9 -53t-25 -43t-37.5 -32.5t-46.5 -20.5v-12q50 -14 84 -53.5t34 -96.5v-12q0 -39 -13.5 -72.5t-40 -58t-65 -38.5t-88.5 -14h-283v78zM201 78h133q59 0 96 29.5t37 81.5v6q0 54 -35 85.5
t-95 31.5h-136v-234zM201 390h136q60 0 95 31t35 85v6q0 51 -37 80.5t-96 29.5h-133v-232z" />
    <glyph glyph-name="C" unicode="C" 
d="M310 64q43 0 73.5 14.5t50 39t29 56t9.5 66.5v12h84v-12q0 -53 -16 -99.5t-47 -81t-77 -54t-106 -19.5q-116 0 -181 73t-65 213v156q0 136 65 211t181 75q60 0 106 -19.5t77 -54t47 -81t16 -99.5v-12h-84v12q-1 34 -10.5 66t-29 56.5t-49.5 39t-73 14.5q-81 0 -121.5 -59
t-40.5 -155v-144q0 -103 40.5 -158.5t121.5 -55.5z" />
    <glyph glyph-name="D" unicode="D" 
d="M73 700h230q130 0 190 -62t60 -198v-180q0 -136 -60 -198t-190 -62h-230v79h60v543h-60v78zM291 78q46 0 79.5 9t55.5 30.5t32.5 57.5t10.5 91v168q0 55 -10.5 91t-32.5 57.5t-55.5 30.5t-79.5 9h-74v-544h74z" />
    <glyph glyph-name="E" unicode="E" 
d="M94 700h424v-78h-340v-232h334v-78h-334v-234h346v-78h-430v700z" />
    <glyph glyph-name="F" unicode="F" 
d="M95 700h430v-78h-346v-232h340v-78h-340v-312h-84v700z" />
    <glyph glyph-name="G" unicode="G" 
d="M239 336h312v-336h-78v84h-12q-17 -44 -60 -71t-100 -27q-113 0 -177.5 73t-64.5 213v156q0 136 65 211t181 75q60 0 106 -19.5t77 -54t47 -81t16 -99.5v-12h-84v12q0 34 -9.5 66t-29 56.5t-50 39t-73.5 14.5q-81 0 -121.5 -59t-40.5 -155v-144q0 -103 40.5 -158.5
t123.5 -55.5q75 0 117.5 48t42.5 134v12h-228v78z" />
    <glyph glyph-name="H" unicode="H" 
d="M73 700h84v-310h298v310h84v-700h-84v312h-298v-312h-84v700z" />
    <glyph glyph-name="I" unicode="I" 
d="M84 700h444v-78h-180v-544h180v-78h-444v78h180v544h-180v78z" />
    <glyph glyph-name="J" unicode="J" 
d="M505 210q0 -109 -53.5 -166.5t-156.5 -57.5t-162.5 57.5t-59.5 166.5v54h84v-54q0 -66 34 -106t104 -40t98 40t28 106v412h-72v78h216v-78h-60v-412z" />
    <glyph glyph-name="K" unicode="K" 
d="M173 0h-84v700h84v-310h23l269 310h104v-6l-290 -338v-12l302 -338v-6h-106l-279 312h-23v-312z" />
    <glyph glyph-name="L" unicode="L" 
d="M87 700h84v-622h366v-78h-450v700z" />
    <glyph glyph-name="M" unicode="M" 
d="M46 700h160l94 -664h12l94 664h160v-700h-78v664h-12l-94 -664h-152l-94 664h-12v-664h-78v700z" />
    <glyph glyph-name="N" unicode="N" 
d="M443 36h12v664h84v-700h-168l-202 664h-12v-664h-84v700h168z" />
    <glyph glyph-name="O" unicode="O" 
d="M60 428q0 136 65 211t181 75t181 -75t65 -211v-156q0 -140 -65 -213t-181 -73t-181 73t-65 213v156zM306 64q81 0 121.5 55.5t40.5 158.5v144q0 96 -40.5 155t-121.5 59t-121.5 -59t-40.5 -155v-144q0 -103 40.5 -158.5t121.5 -55.5z" />
    <glyph glyph-name="P" unicode="P" 
d="M169 288v-288h-84v700h250q54 0 94 -15.5t66.5 -41.5t40 -60.5t13.5 -72.5v-30q0 -38 -13.5 -73t-40.5 -61.5t-67 -42t-93 -15.5h-166zM169 366h156q140 0 140 120v18q0 53 -34.5 85.5t-105.5 32.5h-156v-256z" />
    <glyph glyph-name="Q" unicode="Q" 
d="M60 428q0 136 65 211t181 75t181 -75t65 -211v-156q0 -128 -54.5 -200.5t-152.5 -83.5v-42q0 -30 27 -30h84v-72h-112q-34 0 -55.5 22t-21.5 56v66q-99 12 -153 84t-54 200v156zM306 64q81 0 121.5 55.5t40.5 158.5v144q0 96 -40.5 155t-121.5 59t-121.5 -59t-40.5 -155
v-144q0 -103 40.5 -158.5t121.5 -55.5z" />
    <glyph glyph-name="R" unicode="R" 
d="M525 0h-84v234q0 26 -12 40t-42 14h-218v-288h-84v700h250q54 0 94 -15.5t66.5 -41.5t40 -60.5t13.5 -72.5v-30q0 -39 -21.5 -78t-66.5 -60v-12q30 -5 47 -24t17 -54v-252zM169 366h156q71 0 105.5 30.5t34.5 89.5v18q0 53 -34.5 85.5t-105.5 32.5h-156v-256z" />
    <glyph glyph-name="S" unicode="S" 
d="M471 498q0 34 -13.5 60t-36.5 43t-53 26t-63 9q-29 0 -55 -7.5t-46.5 -21.5t-32.5 -34.5t-12 -47.5v-6q0 -29 12 -49.5t35.5 -35t58.5 -24t82 -16.5q110 -17 162 -64.5t52 -127.5v-12q0 -45 -15.5 -82.5t-46 -64.5t-75.5 -42t-104 -15q-67 0 -118.5 19.5t-86 54t-52.5 81
t-18 101.5v30h84v-24q0 -92 50.5 -138t140.5 -46q78 0 117.5 34.5t39.5 91.5v6q0 55 -40.5 84t-131.5 42q-53 7 -95.5 21.5t-72.5 38t-46 56.5t-16 78v12q0 41 17 75t47.5 59t73 38.5t93.5 13.5q59 0 105.5 -17t78.5 -45.5t48.5 -67t16.5 -80.5v-42h-84v36z" />
    <glyph glyph-name="T" unicode="T" 
d="M60 700h492v-78h-204v-622h-84v622h-204v78z" />
    <glyph glyph-name="U" unicode="U" 
d="M150 700v-464q0 -85 39.5 -128.5t116.5 -43.5t116.5 43.5t39.5 128.5v464h84v-464q0 -122 -64 -186t-176 -64t-176 64t-64 186v464h84z" />
    <glyph glyph-name="V" unicode="V" 
d="M27 700h90l183 -664h12l183 664h90l-198 -700h-162z" />
    <glyph glyph-name="W" unicode="W" 
d="M530 0h-153l-65 664h-12l-65 -664h-153l-71 700h76l67 -664h12l63 664h154l63 -664h12l67 664h76z" />
    <glyph glyph-name="X" unicode="X" 
d="M140 700l157 -310h18l157 310h92l-175 -343v-12l175 -345h-92l-157 312h-18l-157 -312h-92l175 345v12l-175 343h92z" />
    <glyph glyph-name="Y" unicode="Y" 
d="M264 246h-18l-219 454h94l179 -382h12l179 382h94l-219 -454h-18v-246h-84v246z" />
    <glyph glyph-name="Z" unicode="Z" 
d="M77 700h468v-126l-420 -484v-12h432v-78h-504v126l420 484v12h-396v78z" />
    <glyph glyph-name="a" unicode="a" 
d="M447 84h-12q-24 -50 -66.5 -74t-89.5 -24q-49 0 -91 16.5t-73.5 49t-49.5 79.5t-18 109v16q0 61 18 108t49.5 79.5t73.5 49.5t89 17q51 0 92.5 -22.5t65.5 -69.5h12v78h78v-394q0 -30 27 -30h25v-72h-53q-34 0 -55.5 22t-21.5 56v6zM287 60q35 0 64.5 13t50.5 37t33 57.5
t12 74.5v12q0 40 -12 73.5t-33.5 57.5t-51 37.5t-63.5 13.5q-35 0 -64 -13t-50.5 -36.5t-33.5 -57t-12 -73.5v-16q0 -85 44.5 -132.5t115.5 -47.5z" />
    <glyph glyph-name="b" unicode="b" 
d="M147 0h-78v700h78v-282h12q26 45 72 68.5t100 23.5q46 0 87 -17t72.5 -49t50 -79t18.5 -107v-20q0 -61 -18 -108t-49.5 -79t-73.5 -48.5t-89 -16.5q-24 0 -49 5.5t-47.5 17t-41.5 28t-32 39.5h-12v-76zM313 60q36 0 66 12.5t52.5 35.5t35 56t12.5 74v20q0 40 -12.5 72.5
t-35 56t-53 36.5t-65.5 13t-65 -13.5t-52.5 -37.5t-35.5 -57.5t-13 -73.5v-12q0 -41 13 -74.5t35.5 -57.5t52.5 -37t65 -13z" />
    <glyph glyph-name="c" unicode="c" 
d="M551 176q-8 -41 -27.5 -76t-49.5 -60.5t-70 -39.5t-89 -14q-52 0 -98.5 17t-81.5 49.5t-55.5 79.5t-20.5 108v12q0 60 20.5 108t55.5 81t81.5 51t98.5 18q47 0 87 -14t70.5 -39.5t50 -60.5t26.5 -76l-78 -18q-3 26 -14.5 50.5t-31 43t-47.5 29.5t-65 11
q-36 0 -67.5 -13.5t-55.5 -38t-37.5 -58.5t-13.5 -74v-12q0 -42 13.5 -75.5t37.5 -56.5t56 -35.5t69 -12.5t64.5 11.5t47 30t31 42.5t15.5 50z" />
    <glyph glyph-name="d" unicode="d" 
d="M471 76h-12q-12 -23 -30.5 -40t-40 -28t-45.5 -16.5t-46 -5.5q-50 0 -93 17t-75.5 49t-51 79.5t-18.5 108.5v16q0 60 19 107.5t51 80t75 49.5t91 17q51 0 95.5 -22.5t68.5 -69.5h12v282h78v-700h-78v76zM305 60q35 0 65 13t52.5 37t35.5 57.5t13 74.5v12q0 40 -13 73.5
t-35.5 57.5t-53 37.5t-64.5 13.5q-35 0 -65.5 -13t-53 -37t-35 -57t-12.5 -73v-16q0 -42 12.5 -75t35 -56.5t52.5 -36t66 -12.5z" />
    <glyph glyph-name="e" unicode="e" 
d="M144 224q3 -74 46 -119t120 -45q35 0 61 8t44.5 22t30 32.5t18.5 39.5l74 -20q-21 -69 -77.5 -112.5t-152.5 -43.5q-53 0 -97.5 18.5t-76.5 52.5t-50 81t-18 104v24q0 52 18.5 97t51.5 77.5t77.5 51t96.5 18.5q61 0 105.5 -22.5t73 -55.5t42 -72t13.5 -72v-64h-400z
M310 436q-33 0 -61.5 -10.5t-50 -29.5t-35 -44.5t-17.5 -55.5h320q-2 32 -15.5 58t-35 44t-49 28t-56.5 10z" />
    <glyph glyph-name="f" unicode="f" 
d="M82 496h153v126q0 34 21.5 56t55.5 22h196v-72h-168q-27 0 -27 -30v-102h207v-72h-207v-424h-78v424h-153v72z" />
    <glyph glyph-name="g" unicode="g" 
d="M464 76h-12q-24 -45 -65.5 -67.5t-90.5 -22.5q-50 0 -94 17t-77.5 49t-53 79.5t-19.5 108.5v16q0 60 20 107.5t53 80t77 49.5t92 17q54 0 94.5 -23.5t63.5 -68.5h12v78h78v-618q0 -34 -21.5 -56t-55.5 -22h-323v72h295q27 0 27 30v174zM298 60q35 0 65 13t52.5 37
t35.5 57.5t13 74.5v12q0 40 -13 73.5t-35.5 57.5t-53 37.5t-64.5 13.5q-35 0 -65.5 -13t-53 -37t-35 -57t-12.5 -73v-16q0 -42 12.5 -75t35 -56.5t52.5 -36t66 -12.5z" />
    <glyph glyph-name="h" unicode="h" 
d="M165 0h-78v700h78v-294h12q23 48 64.5 76t101.5 28q81 0 131.5 -53.5t50.5 -160.5v-296h-78v280q0 78 -35 117t-95 39q-71 0 -111.5 -48.5t-40.5 -129.5v-258z" />
    <glyph glyph-name="i" unicode="i" 
d="M241 644q0 29 20.5 49.5t49.5 20.5t49.5 -20.5t20.5 -49.5t-20.5 -49.5t-49.5 -20.5t-49.5 20.5t-20.5 49.5zM99 72h174v352h-156v72h234v-424h162v-72h-414v72z" />
    <glyph glyph-name="j" unicode="j" 
d="M307 644q0 29 20.5 49.5t49.5 20.5t49.5 -20.5t20.5 -49.5t-20.5 -49.5t-49.5 -20.5t-49.5 20.5t-20.5 49.5zM141 496h276v-618q0 -34 -21.5 -56t-55.5 -22h-223v72h195q27 0 27 30v522h-198v72z" />
    <glyph glyph-name="k" unicode="k" 
d="M215 290h17l189 206h96v-6l-206 -227v-18l230 -239v-6h-96l-211 218h-19v-218h-78v700h78v-410z" />
    <glyph glyph-name="l" unicode="l" 
d="M87 72h180v556h-174v72h252v-628h180v-72h-438v72z" />
    <glyph glyph-name="m" unicode="m" 
d="M564 0h-78v356q0 35 -16 57.5t-51 22.5q-33 0 -53.5 -24.5t-20.5 -75.5v-336h-78v360q0 33 -18 54.5t-48 21.5q-36 0 -55.5 -26t-19.5 -68v-342h-78v496h78v-54h12q13 35 38 51.5t59 16.5q36 0 59.5 -19t32.5 -49h12q34 68 108 68q56 0 86.5 -35.5t30.5 -92.5v-382z" />
    <glyph glyph-name="n" unicode="n" 
d="M165 0h-78v496h78v-84h12q46 98 160 98q86 0 137 -53.5t51 -160.5v-296h-78v280q0 78 -35 117t-95 39q-71 0 -111.5 -48.5t-40.5 -129.5v-258z" />
    <glyph glyph-name="o" unicode="o" 
d="M555 242q0 -62 -20.5 -109.5t-54.5 -80t-79.5 -49.5t-94.5 -17q-50 0 -95 17t-79 49.5t-54.5 80t-20.5 109.5v12q0 61 20.5 108.5t55 80.5t79.5 50t94 17t94 -17t79.5 -50t55 -80.5t20.5 -108.5v-12zM306 60q36 0 66.5 12.5t53.5 36.5t36 57.5t13 75.5v12q0 40 -13 73.5
t-36 57.5t-54 37.5t-66 13.5t-66 -13.5t-54 -37.5t-36 -57.5t-13 -73.5v-12q0 -42 13 -75.5t36 -57.5t53.5 -36.5t66.5 -12.5z" />
    <glyph glyph-name="p" unicode="p" 
d="M147 -200h-78v696h78v-78h12q26 45 72 68.5t100 23.5q46 0 87 -17t72.5 -49t50 -79t18.5 -107v-20q0 -61 -18 -108t-49.5 -79t-73.5 -48.5t-89 -16.5q-24 0 -49 5.5t-47.5 17t-41.5 28t-32 39.5h-12v-276zM313 60q36 0 66 12.5t52.5 35.5t35 56t12.5 74v20
q0 40 -12.5 72.5t-35 56t-53 36.5t-65.5 13t-65 -13.5t-52.5 -37.5t-35.5 -57.5t-13 -73.5v-12q0 -41 13 -74.5t35.5 -57.5t52.5 -37t65 -13z" />
    <glyph glyph-name="q" unicode="q" 
d="M467 76h-12q-13 -23 -31.5 -39.5t-40 -28t-45 -17t-45.5 -5.5q-50 0 -93 17t-75.5 49t-51 79.5t-18.5 108.5v16q0 60 19 107.5t51 80t75 49.5t91 17q51 0 94.5 -23.5t69.5 -68.5h12v78h78v-696h-78v276zM301 60q35 0 65 13t52.5 37t35.5 57.5t13 74.5v12q0 40 -13 73.5
t-35.5 57.5t-53 37.5t-64.5 13.5q-35 0 -65.5 -13t-53 -37t-35 -57t-12.5 -73v-16q0 -42 12.5 -75t35 -56.5t52.5 -36t66 -12.5z" />
    <glyph glyph-name="r" unicode="r" 
d="M59 496h180v-66h12q19 41 54 60.5t80 19.5q75 0 121 -49t49 -143l-82 -12q0 69 -33 99.5t-81 30.5q-31 0 -53.5 -12t-37.5 -33t-22 -49t-7 -60v-210h126v-72h-318v72h114v352h-102v72z" />
    <glyph glyph-name="s" unicode="s" 
d="M190 368q0 -36 30.5 -55t111.5 -25q87 -7 132.5 -41.5t45.5 -100.5v-6q0 -36 -14.5 -64.5t-40 -48.5t-62 -30.5t-79.5 -10.5q-58 0 -99.5 15.5t-69 41t-41.5 58t-16 65.5l74 18q5 -57 44 -91.5t104 -34.5q55 0 88.5 21.5t33.5 60.5q0 42 -33 60t-107 23q-86 6 -132 40
t-46 99v6q0 35 15 61.5t40.5 44.5t57.5 27t67 9q49 0 86 -13.5t62 -35t38.5 -49.5t17.5 -56l-74 -18q-5 48 -38.5 75t-87.5 27q-21 0 -40.5 -4.5t-34.5 -13.5t-24 -22.5t-9 -31.5z" />
    <glyph glyph-name="t" unicode="t" 
d="M70 496h156v204h78v-204h192v-72h-192v-322q0 -30 27 -30h141v-72h-169q-34 0 -55.5 22t-21.5 56v346h-156v72z" />
    <glyph glyph-name="u" unicode="u" 
d="M441 496h78v-496h-78v90h-12q-24 -48 -63 -76t-99 -28q-41 0 -75.5 13.5t-59 40.5t-38 67t-13.5 93v296h78v-286q0 -78 32 -114t98 -36q71 0 111.5 48.5t40.5 129.5v258z" />
    <glyph glyph-name="v" unicode="v" 
d="M382 0h-154l-173 496h92l152 -460h12l152 460h92z" />
    <glyph glyph-name="w" unicode="w" 
d="M516 0h-144l-60 460h-12l-60 -460h-144l-78 496h80l66 -460h12l58 460h144l58 -460h12l66 460h80z" />
    <glyph glyph-name="x" unicode="x" 
d="M440 496h89l-146 -236v-12l158 -248h-91l-135 218h-18l-135 -218h-91l158 248v12l-146 236h89l125 -206h18z" />
    <glyph glyph-name="y" unicode="y" 
d="M447 90h-12q-24 -48 -63 -76t-99 -28q-41 0 -75.5 13.5t-59 40.5t-38 67t-13.5 93v296h78v-286q0 -78 32 -114t98 -36q71 0 111.5 48.5t40.5 129.5v258h78v-618q0 -34 -21.5 -56t-55.5 -22h-283v72h255q27 0 27 30v188z" />
    <glyph glyph-name="z" unicode="z" 
d="M523 72v-72h-432v124l354 288v12h-348v72h414v-120l-356 -292v-12h368z" />
    <glyph glyph-name="zero" unicode="0" 
d="M60 428q0 136 65 211t181 75t181 -75t65 -211v-156q0 -140 -65 -213t-181 -73t-181 73t-65 213v156zM306 62q81 0 121.5 56.5t40.5 159.5v144q0 48 -10 87.5t-30.5 68t-51 44.5t-70.5 16q-41 0 -71 -16t-50.5 -44.5t-30.5 -68t-10 -87.5v-144q0 -103 40.5 -159.5
t121.5 -56.5zM242 350q0 26 19 45t45 19t45 -19t19 -45t-19 -45t-45 -19t-45 19t-19 45z" />
    <glyph glyph-name="one" unicode="1" 
d="M269 78v585h-12l-115 -263h-83v6l131 294h163v-622h198v-78h-480v78h198z" />
    <glyph glyph-name="two" unicode="2" 
d="M544 78v-78h-474v120q0 48 16 83.5t45.5 61t71.5 42.5t95 29q89 20 128.5 57t39.5 91v6q0 27 -9 53t-28 47t-48.5 33.5t-70.5 12.5q-77 0 -119.5 -47t-42.5 -125v-44h-84v50q0 48 16 92t47 78t77 54t106 20q61 0 106 -18.5t75 -49t44.5 -69t14.5 -78.5v-18
q0 -80 -50 -136.5t-160 -80.5q-96 -21 -141 -55.5t-45 -100.5v-30h390z" />
    <glyph glyph-name="three" unicode="3" 
d="M237 348v116l228 146v12h-396v78h468v-128l-228 -146v-12h40q40 0 77 -13t65.5 -38t46 -61.5t17.5 -84.5v-18q0 -45 -18 -84t-50 -67.5t-75.5 -45t-94.5 -16.5q-59 0 -106 18t-80 49.5t-50.5 74t-17.5 90.5v54h84v-48q0 -38 12.5 -67.5t35 -50t53.5 -31.5t67 -11
q33 0 61.5 11t49.5 30.5t33 46t12 56.5v6q0 63 -40 98.5t-100 35.5h-94z" />
    <glyph glyph-name="four" unicode="4" 
d="M294 700h163v-490h108v-78h-108v-132h-84v132h-324v116zM121 222v-12h252v454h-12z" />
    <glyph glyph-name="five" unicode="5" 
d="M78 330v370h438v-78h-356v-250h12q10 20 26 38.5t37.5 32.5t48.5 22.5t60 8.5q48 0 88.5 -16t69.5 -45t45.5 -70t16.5 -91v-18q0 -50 -16 -94.5t-47 -79t-77 -54.5t-106 -20q-61 0 -108 18t-79 50t-48.5 75.5t-16.5 94.5v28h84v-22q0 -83 46.5 -124.5t121.5 -41.5
q40 0 70.5 14.5t51 39t30.5 57t10 67.5v6q0 31 -10.5 58t-29 47t-45 31.5t-57.5 11.5q-21 0 -38.5 -6t-30.5 -15.5t-21.5 -21.5t-11.5 -23h-158z" />
    <glyph glyph-name="six" unicode="6" 
d="M453 496q0 65 -40 104.5t-111 39.5q-34 0 -62.5 -12t-49 -34.5t-32 -53.5t-11.5 -68v-104h12q24 44 68.5 69t99.5 25q48 0 89 -15.5t70.5 -45.5t46 -72.5t16.5 -96.5v-12q0 -52 -18.5 -95t-51 -74t-77 -48t-96.5 -17t-96.5 17t-77 47.5t-51 73t-18.5 93.5v255
q0 55 19 100t52 76.5t76.5 48.5t93.5 17t93 -15t74 -43.5t48.5 -69t17.5 -90.5h-84zM306 60q36 0 65.5 11.5t50.5 32.5t32 50t11 64v12q0 35 -12 64t-33 50t-50.5 32.5t-63.5 11.5t-63 -12t-50.5 -33t-33.5 -49t-12 -60v-19q0 -33 11 -61.5t32 -49.5t50.5 -32.5t65.5 -11.5z
" />
    <glyph glyph-name="seven" unicode="7" 
d="M72 700h468v-122l-295 -446q-21 -32 -32 -55t-11 -47v-30h-82v36q0 18 3.5 34t11 32.5t19 35t27.5 42.5l287 430v12h-396v78z" />
    <glyph glyph-name="eight" unicode="8" 
d="M297 -14q-53 0 -96 14.5t-74 40t-47.5 60t-16.5 75.5v12q0 36 11 64t29 49t41.5 35t48.5 21v12q-23 7 -43 21t-35.5 33t-24.5 43.5t-9 53.5v12q0 40 16 73.5t45.5 57.5t70 37.5t90.5 13.5h6q49 0 90 -13.5t70.5 -37.5t45.5 -57.5t16 -73.5v-12q0 -29 -9 -53.5
t-24.5 -43.5t-36 -33t-42.5 -21v-12q25 -7 48.5 -21t41.5 -35t29 -49t11 -64v-12q0 -41 -16.5 -75.5t-47.5 -60t-74 -40t-96 -14.5h-18zM312 62q68 0 110.5 35t42.5 91v6q0 62 -43.5 96t-112.5 34h-6q-69 0 -112.5 -34t-43.5 -96v-6q0 -56 42.5 -91t110.5 -35h12zM306 402
q63 0 102 33t39 83v6q0 51 -38.5 82.5t-102.5 31.5t-102.5 -31.5t-38.5 -82.5v-6q0 -50 39 -83t102 -33z" />
    <glyph glyph-name="nine" unicode="9" 
d="M159 204q0 -65 40 -104.5t111 -39.5q34 0 62.5 12t49 34.5t32 53t11.5 68.5v104h-12q-23 -44 -66 -69t-100 -25q-49 0 -90 15t-71 44.5t-46.5 71.5t-16.5 96v12q0 52 18 95.5t50.5 75t77 49t97.5 17.5t97.5 -17.5t77 -48.5t50.5 -74t18 -94v-252q0 -56 -18.5 -100.5
t-51 -76t-76.5 -48.5t-95 -17t-94 15t-74 43.5t-48 69t-17 90.5h84zM306 640q-36 0 -65.5 -12t-50.5 -34t-32 -51.5t-11 -63.5v-12q0 -35 12 -63.5t33 -49t50 -31.5t64 -11q34 0 63 11.5t50.5 31.5t33.5 48t12 60v19q0 33 -11 62t-32 50.5t-50.5 33.5t-65.5 12z" />
    <glyph glyph-name="bracketleft" unicode="[" 
d="M264 778q0 34 21.5 56t55.5 22h97v-72h-69q-27 0 -27 -30v-808q0 -30 27 -30h69v-72h-97q-34 0 -55.5 22t-21.5 56v856z" />
    <glyph glyph-name="bracketright" unicode="]" 
d="M348 -78q0 -34 -21.5 -56t-55.5 -22h-97v72h69q27 0 27 30v808q0 30 -27 30h-69v72h97q34 0 55.5 -22t21.5 -56v-856z" />
    <glyph glyph-name="braceleft" unicode="{" 
d="M278 778q0 34 21.5 56t55.5 22h97v-72h-69q-27 0 -27 -30v-320q0 -34 -21.5 -56t-56.5 -22h-12v-12h12q35 0 56.5 -22t21.5 -56v-320q0 -30 27 -30h69v-72h-97q-34 0 -55.5 22t-21.5 56v345q0 29 -27 29h-51v108h51q27 0 27 29v345z" />
    <glyph glyph-name="braceright" unicode="}" 
d="M334 433q0 -29 27 -29h51v-108h-51q-27 0 -27 -29v-345q0 -34 -21.5 -56t-55.5 -22h-97v72h69q27 0 27 30v320q0 34 21.5 56t56.5 22h12v12h-12q-35 0 -56.5 22t-21.5 56v320q0 30 -27 30h-69v72h97q34 0 55.5 -22t21.5 -56v-345z" />
    <glyph glyph-name="parenleft" unicode="(" 
d="M546 -82v-74h-36q-70 0 -134 26t-113 75.5t-78 119.5t-29 159v252q0 88 29 158.5t78 120t113 75.5t134 26h36v-74h-36q-54 0 -104 -21.5t-88 -61.5t-61 -97.5t-23 -129.5v-244q0 -72 23 -129.5t61 -97.5t88 -61.5t104 -21.5h36z" />
    <glyph glyph-name="parenright" unicode=")" 
d="M102 -82q54 0 104 21.5t88 61.5t61 97.5t23 129.5v244q0 72 -23 129.5t-61 97.5t-88 61.5t-104 21.5h-36v74h36q70 0 134 -26t113 -75.5t78 -120t29 -158.5v-252q0 -89 -29 -159t-78 -119.5t-113 -75.5t-134 -26h-36v74h36z" />
    <glyph glyph-name="slash" unicode="/" 
d="M417 806l70 -22l-291 -890l-71 22z" />
    <glyph glyph-name="bar" unicode="|" 
d="M342 -156h-72v1012h72v-1012z" />
    <glyph glyph-name="brokenbar" unicode="&#xa6;" 
d="M342 314v-470h-72v470h72zM270 386v470h72v-470h-72z" />
    <glyph glyph-name="backslash" unicode="\" 
d="M487 -84l-71 -22l-291 890l70 22z" />
    <glyph glyph-name="quotesingle" unicode="'" 
d="M236 644q0 29 20.5 49.5t49.5 20.5t49.5 -20.5t20.5 -49.5q0 -22 -12 -39.5t-31 -25.5v-111h-54v111q-19 8 -31 25.5t-12 39.5z" />
    <glyph glyph-name="quotedbl" unicode="&#x22;" 
d="M327 644q0 29 20.5 49.5t49.5 20.5t49.5 -20.5t20.5 -49.5q0 -22 -12 -39.5t-31 -25.5v-111h-54v111q-19 8 -31 25.5t-12 39.5zM145 644q0 29 20.5 49.5t49.5 20.5t49.5 -20.5t20.5 -49.5q0 -22 -12 -39.5t-31 -25.5v-111h-54v111q-19 8 -31 25.5t-12 39.5z" />
    <glyph glyph-name="quoteleft" unicode="&#x2018;" 
d="M376 538q0 -29 -20.5 -49.5t-49.5 -20.5t-49.5 20.5t-20.5 49.5v98q0 34 21.5 56t55.5 22h51v-54h-47q-27 0 -27 -30v-25q7 3 17 3q28 0 48.5 -20.5t20.5 -49.5z" />
    <glyph glyph-name="quoteright" unicode="&#x2019;" 
d="M236 644q0 29 20.5 49.5t49.5 20.5t49.5 -20.5t20.5 -49.5v-98q0 -34 -21.5 -56t-55.5 -22h-51v54h47q27 0 27 30v25q-8 -3 -17 -3q-28 0 -48.5 20.5t-20.5 49.5z" />
    <glyph glyph-name="quotedblleft" unicode="&#x201c;" 
d="M285 538q0 -29 -20.5 -49.5t-49.5 -20.5t-49.5 20.5t-20.5 49.5v98q0 34 21.5 56t55.5 22h51v-54h-47q-27 0 -27 -30v-25q7 3 17 3q28 0 48.5 -20.5t20.5 -49.5zM467 538q0 -29 -20.5 -49.5t-49.5 -20.5t-49.5 20.5t-20.5 49.5v98q0 34 21.5 56t55.5 22h51v-54h-47
q-27 0 -27 -30v-25q7 3 17 3q28 0 48.5 -20.5t20.5 -49.5z" />
    <glyph glyph-name="quotedblright" unicode="&#x201d;" 
d="M327 644q0 29 20.5 49.5t49.5 20.5t49.5 -20.5t20.5 -49.5v-98q0 -34 -21.5 -56t-55.5 -22h-51v54h47q27 0 27 30v25q-8 -3 -17 -3q-28 0 -48.5 20.5t-20.5 49.5zM145 644q0 29 20.5 49.5t49.5 20.5t49.5 -20.5t20.5 -49.5v-98q0 -34 -21.5 -56t-55.5 -22h-51v54h47
q27 0 27 30v25q-8 -3 -17 -3q-28 0 -48.5 20.5t-20.5 49.5z" />
    <glyph glyph-name="quotesinglbase" unicode="&#x201a;" 
d="M236 70q0 29 20.5 49.5t49.5 20.5t49.5 -20.5t20.5 -49.5v-98q0 -34 -21.5 -56t-55.5 -22h-51v54h47q27 0 27 30v25q-8 -3 -17 -3q-28 0 -48.5 20.5t-20.5 49.5z" />
    <glyph glyph-name="quotedblbase" unicode="&#x201e;" 
d="M327 70q0 29 20.5 49.5t49.5 20.5t49.5 -20.5t20.5 -49.5v-98q0 -34 -21.5 -56t-55.5 -22h-51v54h47q27 0 27 30v25q-8 -3 -17 -3q-28 0 -48.5 20.5t-20.5 49.5zM145 70q0 29 20.5 49.5t49.5 20.5t49.5 -20.5t20.5 -49.5v-98q0 -34 -21.5 -56t-55.5 -22h-51v54h47
q27 0 27 30v25q-8 -3 -17 -3q-28 0 -48.5 20.5t-20.5 49.5z" />
    <glyph glyph-name="period" unicode="." 
d="M236 56q0 29 20.5 49.5t49.5 20.5t49.5 -20.5t20.5 -49.5t-20.5 -49.5t-49.5 -20.5t-49.5 20.5t-20.5 49.5z" />
    <glyph glyph-name="comma" unicode="," 
d="M236 56q0 29 20.5 49.5t49.5 20.5t49.5 -20.5t20.5 -49.5v-98q0 -34 -21.5 -56t-55.5 -22h-51v54h47q27 0 27 30v25q-8 -3 -17 -3q-28 0 -48.5 20.5t-20.5 49.5z" />
    <glyph glyph-name="colon" unicode=":" 
d="M236 56q0 29 20.5 49.5t49.5 20.5t49.5 -20.5t20.5 -49.5t-20.5 -49.5t-49.5 -20.5t-49.5 20.5t-20.5 49.5zM236 440q0 29 20.5 49.5t49.5 20.5t49.5 -20.5t20.5 -49.5t-20.5 -49.5t-49.5 -20.5t-49.5 20.5t-20.5 49.5z" />
    <glyph glyph-name="semicolon" unicode=";" 
d="M236 56q0 29 20.5 49.5t49.5 20.5t49.5 -20.5t20.5 -49.5v-98q0 -34 -21.5 -56t-55.5 -22h-51v54h47q27 0 27 30v25q-8 -3 -17 -3q-28 0 -48.5 20.5t-20.5 49.5zM236 440q0 29 20.5 49.5t49.5 20.5t49.5 -20.5t20.5 -49.5t-20.5 -49.5t-49.5 -20.5t-49.5 20.5t-20.5 49.5
z" />
    <glyph glyph-name="ellipsis" unicode="&#x2026;" 
d="M60 56q0 29 20.5 49.5t49.5 20.5t49.5 -20.5t20.5 -49.5t-20.5 -49.5t-49.5 -20.5t-49.5 20.5t-20.5 49.5zM236 56q0 29 20.5 49.5t49.5 20.5t49.5 -20.5t20.5 -49.5t-20.5 -49.5t-49.5 -20.5t-49.5 20.5t-20.5 49.5zM412 56q0 29 20.5 49.5t49.5 20.5t49.5 -20.5
t20.5 -49.5t-20.5 -49.5t-49.5 -20.5t-49.5 20.5t-20.5 49.5z" />
    <glyph glyph-name="exclam" unicode="!" 
d="M236 56q0 29 20.5 49.5t49.5 20.5t49.5 -20.5t20.5 -49.5t-20.5 -49.5t-49.5 -20.5t-49.5 20.5t-20.5 49.5zM346 700v-514h-80v514h80z" />
    <glyph glyph-name="exclamdown" unicode="&#xa1;" 
d="M236 444.004q0 -28.999 20.5 -49.4971q20.5 -20.499 49.5 -20.499t49.5 20.499q20.5 20.498 20.5 49.4971q0 28.998 -20.5 49.4961q-20.5 20.499 -49.5 20.499t-49.5 -20.499q-20.5 -20.498 -20.5 -49.4961zM346 -199.957v513.969h-80v-513.969h80z" />
    <glyph glyph-name="question" unicode="?" 
d="M352 366q45 0 74.5 33t29.5 87v6q0 30 -10.5 56t-29.5 45.5t-46 31t-60 11.5q-72 0 -113 -44t-41 -116v-42h-84v48q0 46 15.5 88t45.5 74t75 51t104 19q50 0 92 -17t72 -46.5t47 -68t17 -81.5v-18q0 -39 -13.5 -74.5t-37.5 -61.5t-56.5 -41.5t-70.5 -15.5h-14
q-28 0 -28 -30v-74h-80v94q0 38 24 62t62 24h26zM211 56q0 29 20.5 49.5t49.5 20.5t49.5 -20.5t20.5 -49.5t-20.5 -49.5t-49.5 -20.5t-49.5 20.5t-20.5 49.5z" />
    <glyph glyph-name="questiondown" unicode="&#xbf;" 
d="M260.021 136.022q-44.9971 0 -74.4951 -32.998q-29.499 -32.998 -29.499 -86.9951v-5.99902q0 -29.998 10.5 -55.9971q10.499 -25.998 29.498 -45.4971t45.9971 -30.998t59.9961 -11.499q71.9961 0 112.993 43.9971q40.998 43.9971 40.998 115.993v41.9971h83.9941
v-47.9971q0 -45.9971 -15.498 -87.9941q-15.5 -41.998 -45.498 -73.9961t-74.9951 -50.9971q-44.9971 -18.998 -103.993 -18.998q-49.9971 0 -91.9951 16.999q-41.9971 16.998 -71.9951 46.4971q-29.998 29.498 -46.9971 67.9951q-16.999 38.498 -16.999 81.4951v17.999
q0 38.998 13.499 74.4961q13.499 35.4971 37.498 61.4961q23.998 25.998 56.4961 41.4971t70.4961 15.499h13.999q27.998 0 27.998 29.998v73.9961h79.9951v-93.9941q0 -37.998 -23.999 -61.9971q-23.998 -23.998 -61.9961 -23.998h-25.998zM401.013 446.004
q0 -28.999 -20.499 -49.4971q-20.498 -20.499 -49.4961 -20.499q-28.999 0 -49.4971 20.499q-20.499 20.498 -20.499 49.4971q0 28.998 20.499 49.4961q20.498 20.499 49.4971 20.499q28.998 0 49.4961 -20.499q20.499 -20.498 20.499 -49.4961z" />
    <glyph glyph-name="guilsinglleft" unicode="&#x2039;" 
d="M420 12l-234 158v156l234 158h6v-88l-210 -142v-12l210 -142v-88h-6z" />
    <glyph glyph-name="guilsinglright" unicode="&#x203a;" 
d="M186 12v88l210 142v12l-210 142v88h6l234 -158v-156l-234 -158h-6z" />
    <glyph glyph-name="guillemotleft" unicode="&#xab;" 
d="M312 12l-234 158v156l234 158h6v-88l-210 -142v-12l210 -142v-88h-6zM528 12l-234 158v156l234 158h6v-88l-210 -142v-12l210 -142v-88h-6z" />
    <glyph glyph-name="guillemotright" unicode="&#xbb;" 
d="M294 12v88l210 142v12l-210 142v88h6l234 -158v-156l-234 -158h-6zM78 12v88l210 142v12l-210 142v88h6l234 -158v-156l-234 -158h-6z" />
    <glyph glyph-name="hyphen" unicode="-" 
d="M156 296h300v-72h-300v72z" />
    <glyph glyph-name="endash" unicode="&#x2013;" 
d="M73 296h466v-72h-466v72z" />
    <glyph glyph-name="emdash" unicode="&#x2014;" 
d="M12 296h588v-72h-588v72z" />
    <glyph glyph-name="periodcentered" unicode="&#xb7;" 
d="M236 350q0 29 20.5 49.5t49.5 20.5t49.5 -20.5t20.5 -49.5t-20.5 -49.5t-49.5 -20.5t-49.5 20.5t-20.5 49.5z" />
    <glyph glyph-name="bullet" unicode="&#x2022;" 
d="M188 350q0 24 9.5 45.5t25.5 37.5t37.5 25.5t45.5 9.5t45.5 -9.5t37.5 -25.5t25.5 -37.5t9.5 -45.5t-9.5 -45.5t-25.5 -37.5t-37.5 -25.5t-45.5 -9.5t-45.5 9.5t-37.5 25.5t-25.5 37.5t-9.5 45.5z" />
    <glyph glyph-name="underscore" unicode="_" 
d="M73 -48h466v-72h-466v72z" />
    <glyph glyph-name="at" unicode="@" 
d="M78 510v72h290q92 0 144 -48t52 -148v-308q0 -34 -21.5 -56t-55.5 -22h-80q-37 0 -54 19.5t-17 46.5h-12q-12 -38 -40.5 -59t-75.5 -21q-37 0 -68 15t-53.5 43t-35.5 68.5t-13 90.5v18q0 50 13 90t35.5 68.5t53.5 43.5t66 15q46 0 70.5 -17.5t41.5 -50.5h12v54h78v-322
q0 -30 27 -30h24q27 0 27 30v276q0 65 -30.5 98.5t-95.5 33.5h-282zM223 60q30 0 50.5 11t33 30.5t18 45.5t5.5 56v18q0 28 -5.5 54t-18 46t-33 31.5t-50.5 11.5q-25 0 -45 -11t-33.5 -30.5t-21 -45.5t-7.5 -56v-18q0 -63 28 -103t79 -40z" />
    <glyph glyph-name="ampersand" unicode="&#x26;" 
d="M580 312h-97v-312h-224q-50 0 -89 14t-65 38.5t-39.5 58t-13.5 72.5v12q0 57 34 96.5t84 53.5v12q-50 13 -84 52.5t-34 96.5v12q0 39 13.5 72.5t39.5 57.5t65 38t89 14h128v-78h-122q-59 0 -96 -29.5t-37 -80.5v-6q0 -54 35 -85t95 -31h137v106h84v-106h97v-78zM399 78
v234h-137q-60 0 -95 -31.5t-35 -85.5v-6q0 -52 37 -81.5t96 -29.5h134z" />
    <glyph glyph-name="asterisk" unicode="*" 
d="M507 500l-88 -88l-50 -28l5 -12l45 14h135v-72h-135l-45 14l-5 -12l50 -28l88 -88l-51 -51l-88 88l-28 50l-12 -5l14 -45v-135h-72v135l14 45l-12 5l-28 -50l-88 -88l-51 51l88 88l50 28l-5 12l-45 -14h-135v72h135l45 -14l5 12l-50 28l-88 88l51 51l88 -88l28 -50l12 5
l-14 45v135h72v-135l-14 -45l12 -5l28 50l88 88z" />
    <glyph glyph-name="Agrave" unicode="&#xc0;" 
d="M456 174h-300l-51 -174h-90l212 700h158l212 -700h-90zM300 664l-121 -412h254l-121 412h-12zM271 892l66 -118h-72l-84 118h90z" />
    <glyph glyph-name="Aacute" unicode="&#xc1;" 
d="M456 174h-300l-51 -174h-90l212 700h158l212 -700h-90zM300 664l-121 -412h254l-121 412h-12zM431 892l-84 -118h-72l66 118h90z" />
    <glyph glyph-name="Acircumflex" unicode="&#xc2;" 
d="M456 174h-300l-51 -174h-90l212 700h158l212 -700h-90zM300 664l-121 -412h254l-121 412h-12zM364 774l-52 88h-12l-52 -88h-84l80 118h124l80 -118h-84z" />
    <glyph glyph-name="Atilde" unicode="&#xc3;" 
d="M456 174h-300l-51 -174h-90l212 700h158l212 -700h-90zM300 664l-121 -412h254l-121 412h-12zM337 846q5 -10 10 -15t14 -5q10 0 19 10l48 55l49 -42l-41 -49q-14 -17 -33 -29.5t-45 -12.5q-31 0 -47.5 14t-33.5 45q-7 12 -11.5 17t-12.5 5q-11 0 -22 -12l-46 -53l-49 42
l41 49q14 17 33 29.5t46 12.5q29 0 46 -14.5t35 -46.5z" />
    <glyph glyph-name="Adieresis" unicode="&#xc4;" 
d="M456 174h-300l-51 -174h-90l212 700h158l212 -700h-90zM300 664l-121 -412h254l-121 412h-12zM136 848q0 29 20.5 49.5t49.5 20.5t49.5 -20.5t20.5 -49.5t-20.5 -49.5t-49.5 -20.5t-49.5 20.5t-20.5 49.5zM336 848q0 29 20.5 49.5t49.5 20.5t49.5 -20.5t20.5 -49.5
t-20.5 -49.5t-49.5 -20.5t-49.5 20.5t-20.5 49.5z" />
    <glyph glyph-name="Amacron" unicode="&#x100;" 
d="M456 174h-300l-51 -174h-90l212 700h158l212 -700h-90zM300 664l-121 -412h254l-121 412h-12zM447 774h-282v66h282v-66z" />
    <glyph glyph-name="Abreve" unicode="&#x102;" 
d="M456 174h-300l-51 -174h-90l212 700h158l212 -700h-90zM300 664l-121 -412h254l-121 412h-12zM414 892v-10q0 -48 -29 -78t-79 -30t-79 30t-29 78v10h69v-12q0 -16 10 -27.5t29 -11.5t29 11.5t10 27.5v12h69z" />
    <glyph glyph-name="Aring" unicode="&#xc5;" 
d="M456 174h-300l-51 -174h-90l212 700h158l212 -700h-90zM300 664l-121 -412h254l-121 412h-12zM204 874q0 43 29.5 72.5t72.5 29.5t72.5 -29.5t29.5 -72.5t-29.5 -72.5t-72.5 -29.5t-72.5 29.5t-29.5 72.5zM264 874q0 -18 12 -30t30 -12t30 12t12 30t-12 30t-30 12
t-30 -12t-12 -30z" />
    <glyph glyph-name="uni01CD" unicode="&#x1cd;" 
d="M456 174h-300l-51 -174h-90l212 700h158l212 -700h-90zM300 664l-121 -412h254l-121 412h-12zM448 892l-80 -118h-124l-80 118h84l52 -88h12l52 88h84z" />
    <glyph glyph-name="Aogonek" unicode="&#x104;" 
d="M456 174h-300l-51 -174h-90l212 700h158l212 -700h-21l-16 -68q-1 -5 -1 -8q0 -22 23 -22h42v-66h-56q-29 0 -53.5 18.5t-24.5 55.5q0 9 3 24l14 66zM300 664l-121 -412h254l-121 412h-12z" />
    <glyph glyph-name="uni1EA0" unicode="&#x1ea0;" 
d="M456 174h-300l-51 -174h-90l212 700h158l212 -700h-90zM300 664l-121 -412h254l-121 412h-12zM236 -133q0 29 20.5 49.5t49.5 20.5t49.5 -20.5t20.5 -49.5t-20.5 -49.5t-49.5 -20.5t-49.5 20.5t-20.5 49.5z" />
    <glyph glyph-name="uni1EA2" unicode="&#x1ea2;" 
d="M272 750l-20 92v6h76q7 -14 25 -14q14 0 24.5 10t10.5 28q0 22 -12.5 32t-27.5 10q-22 0 -33.5 -12.5t-14.5 -27.5l-48 18q8 30 31 50t66 20q39 0 66 -24.5t27 -66.5q0 -35 -20.5 -60t-55.5 -25q-41 0 -54 32h-6l15 -68h-49zM456 174h-300l-51 -174h-90l212 700h158
l212 -700h-90zM300 664l-121 -412h254l-121 412h-12z" />
    <glyph glyph-name="uni1EA4" unicode="&#x1ea4;" 
d="M456 174h-300l-51 -174h-90l212 700h158l212 -700h-90zM300 664l-121 -412h254l-121 412h-12zM580 980l-84 -118h-72l66 118h90zM364 774l-52 88h-12l-52 -88h-84l80 118h124l80 -118h-84z" />
    <glyph glyph-name="uni1EA6" unicode="&#x1ea6;" 
d="M456 174h-300l-51 -174h-90l212 700h158l212 -700h-90zM300 664l-121 -412h254l-121 412h-12zM364 774l-52 88h-12l-52 -88h-84l80 118h124l80 -118h-84zM123 980l66 -118h-72l-84 118h90z" />
    <glyph glyph-name="uni1EA8" unicode="&#x1ea8;" 
d="M424 858l-20 92v6h76q7 -14 25 -14q14 0 24.5 10t10.5 28q0 22 -12.5 32t-27.5 10q-22 0 -33.5 -12.5t-14.5 -27.5l-48 18q8 30 31 50t66 20q39 0 66 -24.5t27 -66.5q0 -35 -20.5 -60t-55.5 -25q-41 0 -54 32h-6l15 -68h-49zM456 174h-300l-51 -174h-90l212 700h158
l212 -700h-90zM300 664l-121 -412h254l-121 412h-12zM364 774l-52 88h-12l-52 -88h-84l80 118h124l80 -118h-84z" />
    <glyph glyph-name="uni1EAA" unicode="&#x1eaa;" 
d="M456 174h-300l-51 -174h-90l212 700h158l212 -700h-90zM300 664l-121 -412h254l-121 412h-12zM364 730l-52 88h-12l-52 -88h-84l80 118h124l80 -118h-84zM337 966q5 -10 10 -15t14 -5q10 0 19 10l48 55l49 -42l-41 -49q-14 -17 -33 -29.5t-45 -12.5q-31 0 -47.5 14
t-33.5 45q-7 12 -11.5 17t-12.5 5q-11 0 -22 -12l-46 -53l-49 42l41 49q14 17 33 29.5t46 12.5q29 0 46 -14.5t35 -46.5z" />
    <glyph glyph-name="uni1EAC" unicode="&#x1eac;" 
d="M456 174h-300l-51 -174h-90l212 700h158l212 -700h-90zM300 664l-121 -412h254l-121 412h-12zM364 774l-52 88h-12l-52 -88h-84l80 118h124l80 -118h-84zM236 -133q0 29 20.5 49.5t49.5 20.5t49.5 -20.5t20.5 -49.5t-20.5 -49.5t-49.5 -20.5t-49.5 20.5t-20.5 49.5z" />
    <glyph glyph-name="uni1EAE" unicode="&#x1eae;" 
d="M456 174h-300l-51 -174h-90l212 700h158l212 -700h-90zM300 664l-121 -412h254l-121 412h-12zM414 848v-10q0 -48 -29 -78t-79 -30t-79 30t-29 78v10h69v-12q0 -16 10 -27.5t29 -11.5t29 11.5t10 27.5v12h69zM426 996l-84 -118h-72l66 118h90z" />
    <glyph glyph-name="uni1EB0" unicode="&#x1eb0;" 
d="M456 174h-300l-51 -174h-90l212 700h158l212 -700h-90zM300 664l-121 -412h254l-121 412h-12zM414 848v-10q0 -48 -29 -78t-79 -30t-79 30t-29 78v10h69v-12q0 -16 10 -27.5t29 -11.5t29 11.5t10 27.5v12h69zM277 996l66 -118h-72l-84 118h90z" />
    <glyph glyph-name="uni1EB2" unicode="&#x1eb2;" 
d="M456 174h-300l-51 -174h-90l212 700h158l212 -700h-90zM300 664l-121 -412h254l-121 412h-12zM414 848v-10q0 -48 -29 -78t-79 -30t-79 30t-29 78v10h69v-12q0 -16 10 -27.5t29 -11.5t29 11.5t10 27.5v12h69zM330 878l-15 67.9961h6q13 -31.998 54 -31.998
q35 0 55.5 24.998q20.5 24.999 20.5 59.9961q0 41.998 -27 66.4961q-27 24.499 -66 24.499q-43 0 -66 -19.999t-31 -49.9971l48 -17.999q3 14.999 14.5 27.498q11.5 12.5 33.5 12.5q15 0 27.5 -10q12.5 -9.99902 12.5 -31.998q0 -17.998 -10.5 -27.998
q-10.5 -9.99902 -24.5 -9.99902q-18 0 -25 13.999h-76v-6l20 -91.9941h49z" />
    <glyph glyph-name="uni1EB4" unicode="&#x1eb4;" 
d="M456 174h-300l-51 -174h-90l212 700h158l212 -700h-90zM300 664l-121 -412h254l-121 412h-12zM414 848v-10q0 -48 -29 -78t-79 -30t-79 30t-29 78v10h69v-12q0 -16 10 -27.5t29 -11.5t29 11.5t10 27.5v12h69zM337 966q5 -10 10 -15t14 -5q10 0 19 10l48 55l49 -42
l-41 -49q-14 -17 -33 -29.5t-45 -12.5q-31 0 -47.5 14t-33.5 45q-7 12 -11.5 17t-12.5 5q-11 0 -22 -12l-46 -53l-49 42l41 49q14 17 33 29.5t46 12.5q29 0 46 -14.5t35 -46.5z" />
    <glyph glyph-name="uni1EB6" unicode="&#x1eb6;" 
d="M456 174h-300l-51 -174h-90l212 700h158l212 -700h-90zM300 664l-121 -412h254l-121 412h-12zM414 892v-10q0 -48 -29 -78t-79 -30t-79 30t-29 78v10h69v-12q0 -16 10 -27.5t29 -11.5t29 11.5t10 27.5v12h69zM236 -133q0 29 20.5 49.5t49.5 20.5t49.5 -20.5t20.5 -49.5
t-20.5 -49.5t-49.5 -20.5t-49.5 20.5t-20.5 49.5z" />
    <glyph glyph-name="AE" unicode="&#xc6;" 
d="M300 174h-144l-51 -174h-90l212 700h313v-78h-156v-232h150v-78h-150v-234h162v-78h-246v174zM179 252h121v370h-12z" />
    <glyph glyph-name="uni0243" unicode="&#x243;" 
d="M57 234h60v388h-60v78h283q50 0 88.5 -14t65 -38t40 -57.5t13.5 -72.5v-12q0 -29 -9 -53t-25 -43t-37.5 -32.5t-46.5 -20.5v-12q50 -14 84 -53.5t34 -96.5v-12q0 -39 -13.5 -72.5t-40 -58t-65 -38.5t-88.5 -14h-283v78h60v78h-60v78zM201 390h136q60 0 95 31t35 85v6
q0 51 -37 80.5t-96 29.5h-133v-232zM201 234h108v-78h-108v-78h133q59 0 96 29.5t37 81.5v6q0 54 -35 85.5t-95 31.5h-136v-78z" />
    <glyph glyph-name="Ccedilla" unicode="&#xc7;" 
d="M310 64q43 0 73.5 14.5t50 39t29 56t9.5 66.5v12h84v-12q0 -53 -16 -99.5t-47 -81t-77 -54t-106 -19.5h-8l-12 -54h6q13 32 54 32q35 0 55.5 -25t20.5 -60q0 -42 -27 -66.5t-66 -24.5q-43 0 -66 20t-31 50l48 18q3 -15 14.5 -27.5t33.5 -12.5q15 0 27.5 10t12.5 32
q0 18 -10.5 28t-24.5 10q-18 0 -25 -14h-76v6l18 83q-91 16 -140.5 87t-49.5 194v156q0 136 65 211t181 75q60 0 106 -19.5t77 -54t47 -81t16 -99.5v-12h-84v12q-1 34 -10.5 66t-29 56.5t-49.5 39t-73 14.5q-81 0 -121.5 -59t-40.5 -155v-144q0 -103 40.5 -158.5
t121.5 -55.5z" />
    <glyph glyph-name="Cacute" unicode="&#x106;" 
d="M310 64q43 0 73.5 14.5t50 39t29 56t9.5 66.5v12h84v-12q0 -53 -16 -99.5t-47 -81t-77 -54t-106 -19.5q-116 0 -181 73t-65 213v156q0 136 65 211t181 75q60 0 106 -19.5t77 -54t47 -81t16 -99.5v-12h-84v12q-1 34 -10.5 66t-29 56.5t-49.5 39t-73 14.5q-81 0 -121.5 -59
t-40.5 -155v-144q0 -103 40.5 -158.5t121.5 -55.5zM432 892l-84 -118h-72l66 118h90z" />
    <glyph glyph-name="Ccircumflex" unicode="&#x108;" 
d="M310 64q43 0 73.5 14.5t50 39t29 56t9.5 66.5v12h84v-12q0 -53 -16 -99.5t-47 -81t-77 -54t-106 -19.5q-116 0 -181 73t-65 213v156q0 136 65 211t181 75q60 0 106 -19.5t77 -54t47 -81t16 -99.5v-12h-84v12q-1 34 -10.5 66t-29 56.5t-49.5 39t-73 14.5q-81 0 -121.5 -59
t-40.5 -155v-144q0 -103 40.5 -158.5t121.5 -55.5zM368 774l-52 88h-12l-52 -88h-84l80 118h124l80 -118h-84z" />
    <glyph glyph-name="Ccaron" unicode="&#x10c;" 
d="M310 64q43 0 73.5 14.5t50 39t29 56t9.5 66.5v12h84v-12q0 -53 -16 -99.5t-47 -81t-77 -54t-106 -19.5q-116 0 -181 73t-65 213v156q0 136 65 211t181 75q60 0 106 -19.5t77 -54t47 -81t16 -99.5v-12h-84v12q-1 34 -10.5 66t-29 56.5t-49.5 39t-73 14.5q-81 0 -121.5 -59
t-40.5 -155v-144q0 -103 40.5 -158.5t121.5 -55.5zM452 892l-80 -118h-124l-80 118h84l52 -88h12l52 88h84z" />
    <glyph glyph-name="Cdotaccent" unicode="&#x10a;" 
d="M310 64q43 0 73.5 14.5t50 39t29 56t9.5 66.5v12h84v-12q0 -53 -16 -99.5t-47 -81t-77 -54t-106 -19.5q-116 0 -181 73t-65 213v156q0 136 65 211t181 75q60 0 106 -19.5t77 -54t47 -81t16 -99.5v-12h-84v12q-1 34 -10.5 66t-29 56.5t-49.5 39t-73 14.5q-81 0 -121.5 -59
t-40.5 -155v-144q0 -103 40.5 -158.5t121.5 -55.5zM240 848q0 29 20.5 49.5t49.5 20.5t49.5 -20.5t20.5 -49.5t-20.5 -49.5t-49.5 -20.5t-49.5 20.5t-20.5 49.5z" />
    <glyph glyph-name="Eth" unicode="&#xd0;" 
d="M73 389h60v233h-60v78h230q130 0 190 -62t60 -198v-180q0 -136 -60 -198t-190 -62h-230v78h60v233h-60v78zM291 78q46 0 79.5 9t55.5 30.5t32.5 57.5t10.5 91v168q0 55 -10.5 91t-32.5 57.5t-55.5 30.5t-79.5 9h-74v-233h108v-78h-108v-233h74z" />
    <glyph glyph-name="Dcaron" unicode="&#x10e;" 
d="M73 700h230q130 0 190 -62t60 -198v-180q0 -136 -60 -198t-190 -62h-230v79h60v543h-60v78zM291 78q46 0 79.5 9t55.5 30.5t32.5 57.5t10.5 91v168q0 55 -10.5 91t-32.5 57.5t-55.5 30.5t-79.5 9h-74v-544h74zM449 892l-80 -118h-124l-80 118h84l52 -88h12l52 88h84z" />
    <glyph glyph-name="uni1E0C" unicode="&#x1e0c;" 
d="M73 700h230q130 0 190 -62t60 -198v-180q0 -136 -60 -198t-190 -62h-230v79h60v543h-60v78zM291 78q46 0 79.5 9t55.5 30.5t32.5 57.5t10.5 91v168q0 55 -10.5 91t-32.5 57.5t-55.5 30.5t-79.5 9h-74v-544h74zM236 -133q0 29 20.5 49.5t49.5 20.5t49.5 -20.5t20.5 -49.5
t-20.5 -49.5t-49.5 -20.5t-49.5 20.5t-20.5 49.5z" />
    <glyph glyph-name="uni1E0E" unicode="&#x1e0e;" 
d="M73 700h230q130 0 190 -62t60 -198v-180q0 -136 -60 -198t-190 -62h-230v79h60v543h-60v78zM291 78q46 0 79.5 9t55.5 30.5t32.5 57.5t10.5 91v168q0 55 -10.5 91t-32.5 57.5t-55.5 30.5t-79.5 9h-74v-544h74zM457 -129h-282v66h282v-66z" />
    <glyph glyph-name="Dcroat" unicode="&#x110;" 
d="M73 389h60v233h-60v78h230q130 0 190 -62t60 -198v-180q0 -136 -60 -198t-190 -62h-230v78h60v233h-60v78zM291 78q46 0 79.5 9t55.5 30.5t32.5 57.5t10.5 91v168q0 55 -10.5 91t-32.5 57.5t-55.5 30.5t-79.5 9h-74v-233h108v-78h-108v-233h74z" />
    <glyph glyph-name="Egrave" unicode="&#xc8;" 
d="M94 700h424v-78h-340v-232h334v-78h-334v-234h346v-78h-430v700zM292 892l66 -118h-72l-84 118h90z" />
    <glyph glyph-name="Eacute" unicode="&#xc9;" 
d="M94 700h424v-78h-340v-232h334v-78h-334v-234h346v-78h-430v700zM435 892l-84 -118h-72l66 118h90z" />
    <glyph glyph-name="Ecircumflex" unicode="&#xca;" 
d="M94 700h424v-78h-340v-232h334v-78h-334v-234h346v-78h-430v700zM366 774l-52 88h-12l-52 -88h-84l80 118h124l80 -118h-84z" />
    <glyph glyph-name="Ecaron" unicode="&#x11a;" 
d="M94 700h424v-78h-340v-232h334v-78h-334v-234h346v-78h-430v700zM451 892l-80 -118h-124l-80 118h84l52 -88h12l52 88h84z" />
    <glyph glyph-name="Edieresis" unicode="&#xcb;" 
d="M94 700h424v-78h-340v-232h334v-78h-334v-234h346v-78h-430v700zM140 848q0 29 20.5 49.5t49.5 20.5t49.5 -20.5t20.5 -49.5t-20.5 -49.5t-49.5 -20.5t-49.5 20.5t-20.5 49.5zM340 848q0 29 20.5 49.5t49.5 20.5t49.5 -20.5t20.5 -49.5t-20.5 -49.5t-49.5 -20.5
t-49.5 20.5t-20.5 49.5z" />
    <glyph glyph-name="Emacron" unicode="&#x112;" 
d="M94 700h424v-78h-340v-232h334v-78h-334v-234h346v-78h-430v700zM456 774h-282v66h282v-66z" />
    <glyph glyph-name="Ebreve" unicode="&#x114;" 
d="M94 700h424v-78h-340v-232h334v-78h-334v-234h346v-78h-430v700zM417 892v-10q0 -48 -29 -78t-79 -30t-79 30t-29 78v10h69v-12q0 -16 10 -27.5t29 -11.5t29 11.5t10 27.5v12h69z" />
    <glyph glyph-name="Edotaccent" unicode="&#x116;" 
d="M94 700h424v-78h-340v-232h334v-78h-334v-234h346v-78h-430v700zM239 848q0 29 20.5 49.5t49.5 20.5t49.5 -20.5t20.5 -49.5t-20.5 -49.5t-49.5 -20.5t-49.5 20.5t-20.5 49.5z" />
    <glyph glyph-name="Eogonek" unicode="&#x118;" 
d="M94 700h424v-78h-340v-232h334v-78h-334v-234h346v-78l-16 -68q-1 -5 -1 -8q0 -22 23 -22h42v-66h-56q-30 0 -54 18.5t-24 55.5q0 9 3 24l14 66h-361v700z" />
    <glyph glyph-name="uni1EB8" unicode="&#x1eb8;" 
d="M94 700h424v-78h-340v-232h334v-78h-334v-234h346v-78h-430v700zM239 -133q0 29 20.5 49.5t49.5 20.5t49.5 -20.5t20.5 -49.5t-20.5 -49.5t-49.5 -20.5t-49.5 20.5t-20.5 49.5z" />
    <glyph glyph-name="uni1EBA" unicode="&#x1eba;" 
d="M253 750l-20 92v6h76q7 -14 25 -14q14 0 24.5 10t10.5 28q0 22 -12.5 32t-27.5 10q-22 0 -33.5 -12.5t-14.5 -27.5l-48 18q8 30 31 50t66 20q39 0 66 -24.5t27 -66.5q0 -35 -20.5 -60t-55.5 -25q-41 0 -54 32h-6l15 -68h-49zM94 700h424v-78h-340v-232h334v-78h-334v-234
h346v-78h-430v700z" />
    <glyph glyph-name="uni1EBC" unicode="&#x1ebc;" 
d="M94 700h424v-78h-340v-232h334v-78h-334v-234h346v-78h-430v700zM353 846q5 -10 10 -15t14 -5q10 0 19 10l48 55l49 -42l-41 -49q-14 -17 -33 -29.5t-45 -12.5q-31 0 -47.5 14t-33.5 45q-7 12 -11.5 17t-12.5 5q-11 0 -22 -12l-46 -53l-49 42l41 49q14 17 33 29.5
t46 12.5q29 0 46 -14.5t35 -46.5z" />
    <glyph glyph-name="uni1EBE" unicode="&#x1ebe;" 
d="M94 700h424v-78h-340v-232h334v-78h-334v-234h346v-78h-430v700zM367 774l-52 88h-12l-52 -88h-84l80 118h124l80 -118h-84zM583 980l-84 -118h-72l66 118h90z" />
    <glyph glyph-name="uni1EC0" unicode="&#x1ec0;" 
d="M94 700h424v-78h-340v-232h334v-78h-334v-234h346v-78h-430v700zM367 774l-52 88h-12l-52 -88h-84l80 118h124l80 -118h-84zM123 980l66 -118h-72l-84 118h90z" />
    <glyph glyph-name="uni1EC2" unicode="&#x1ec2;" 
d="M430 858l-20 92v6h76q7 -14 25 -14q14 0 24.5 10t10.5 28q0 22 -12.5 32t-27.5 10q-22 0 -33.5 -12.5t-14.5 -27.5l-48 18q8 30 31 50t66 20q39 0 66 -24.5t27 -66.5q0 -35 -20.5 -60t-55.5 -25q-41 0 -54 32h-6l15 -68h-49zM94 700h424v-78h-340v-232h334v-78h-334v-234
h346v-78h-430v700zM367 774l-52 88h-12l-52 -88h-84l80 118h124l80 -118h-84z" />
    <glyph glyph-name="uni1EC4" unicode="&#x1ec4;" 
d="M94 700h424v-78h-340v-232h334v-78h-334v-234h346v-78h-430v700zM367 730l-52 88h-12l-52 -88h-84l80 118h124l80 -118h-84zM340 966q5 -10 10 -15t14 -5q10 0 19 10l48 55l49 -42l-41 -49q-14 -17 -33 -29.5t-45 -12.5q-31 0 -47.5 14t-33.5 45q-7 12 -11.5 17t-12.5 5
q-11 0 -22 -12l-46 -53l-49 42l41 49q14 17 33 29.5t46 12.5q29 0 46 -14.5t35 -46.5z" />
    <glyph glyph-name="uni1EC6" unicode="&#x1ec6;" 
d="M94 700h424v-78h-340v-232h334v-78h-334v-234h346v-78h-430v700zM367 774l-52 88h-12l-52 -88h-84l80 118h124l80 -118h-84zM239 -133q0 29 20.5 49.5t49.5 20.5t49.5 -20.5t20.5 -49.5t-20.5 -49.5t-49.5 -20.5t-49.5 20.5t-20.5 49.5z" />
    <glyph glyph-name="Gcircumflex" unicode="&#x11c;" 
d="M239 336h312v-336h-78v84h-12q-17 -44 -60 -71t-100 -27q-113 0 -177.5 73t-64.5 213v156q0 136 65 211t181 75q60 0 106 -19.5t77 -54t47 -81t16 -99.5v-12h-84v12q0 34 -9.5 66t-29 56.5t-50 39t-73.5 14.5q-81 0 -121.5 -59t-40.5 -155v-144q0 -103 40.5 -158.5
t123.5 -55.5q75 0 117.5 48t42.5 134v12h-228v78zM364 774l-52 88h-12l-52 -88h-84l80 118h124l80 -118h-84z" />
    <glyph glyph-name="Gbreve" unicode="&#x11e;" 
d="M239 336h312v-336h-78v84h-12q-17 -44 -60 -71t-100 -27q-113 0 -177.5 73t-64.5 213v156q0 136 65 211t181 75q60 0 106 -19.5t77 -54t47 -81t16 -99.5v-12h-84v12q0 34 -9.5 66t-29 56.5t-50 39t-73.5 14.5q-81 0 -121.5 -59t-40.5 -155v-144q0 -103 40.5 -158.5
t123.5 -55.5q75 0 117.5 48t42.5 134v12h-228v78zM414 892v-10q0 -48 -29 -78t-79 -30t-79 30t-29 78v10h69v-12q0 -16 10 -27.5t29 -11.5t29 11.5t10 27.5v12h69z" />
    <glyph glyph-name="Gdotaccent" unicode="&#x120;" 
d="M239 336h312v-336h-78v84h-12q-17 -44 -60 -71t-100 -27q-113 0 -177.5 73t-64.5 213v156q0 136 65 211t181 75q60 0 106 -19.5t77 -54t47 -81t16 -99.5v-12h-84v12q0 34 -9.5 66t-29 56.5t-50 39t-73.5 14.5q-81 0 -121.5 -59t-40.5 -155v-144q0 -103 40.5 -158.5
t123.5 -55.5q75 0 117.5 48t42.5 134v12h-228v78zM236 848q0 29 20.5 49.5t49.5 20.5t49.5 -20.5t20.5 -49.5t-20.5 -49.5t-49.5 -20.5t-49.5 20.5t-20.5 49.5z" />
    <glyph glyph-name="uni0122" unicode="&#x122;" 
d="M239 336h312v-336h-78v84h-12q-17 -44 -60 -71t-100 -27q-113 0 -177.5 73t-64.5 213v156q0 136 65 211t181 75q60 0 106 -19.5t77 -54t47 -81t16 -99.5v-12h-84v12q0 34 -9.5 66t-29 56.5t-50 39t-73.5 14.5q-81 0 -121.5 -59t-40.5 -155v-144q0 -103 40.5 -158.5
t123.5 -55.5q75 0 117.5 48t42.5 134v12h-228v78zM232 -113q0 29 20.5 49.5t49.5 20.5t49.5 -20.5t20.5 -49.5v-98q0 -34 -21.5 -56t-55.5 -22h-51v54h47q27 0 27 30v25q-8 -3 -17 -3q-28 0 -48.5 20.5t-20.5 49.5z" />
    <glyph glyph-name="uni1E20" unicode="&#x1e20;" 
d="M239 336h312v-336h-78v84h-12q-17 -44 -60 -71t-100 -27q-113 0 -177.5 73t-64.5 213v156q0 136 65 211t181 75q60 0 106 -19.5t77 -54t47 -81t16 -99.5v-12h-84v12q0 34 -9.5 66t-29 56.5t-50 39t-73.5 14.5q-81 0 -121.5 -59t-40.5 -155v-144q0 -103 40.5 -158.5
t123.5 -55.5q75 0 117.5 48t42.5 134v12h-228v78zM447 774h-282v66h282v-66z" />
    <glyph glyph-name="uni01E6" unicode="&#x1e6;" 
d="M239 336h312v-336h-78v84h-12q-17 -44 -60 -71t-100 -27q-113 0 -177.5 73t-64.5 213v156q0 136 65 211t181 75q60 0 106 -19.5t77 -54t47 -81t16 -99.5v-12h-84v12q0 34 -9.5 66t-29 56.5t-50 39t-73.5 14.5q-81 0 -121.5 -59t-40.5 -155v-144q0 -103 40.5 -158.5
t123.5 -55.5q75 0 117.5 48t42.5 134v12h-228v78zM448 892l-80 -118h-124l-80 118h84l52 -88h12l52 88h84z" />
    <glyph glyph-name="Hcircumflex" unicode="&#x124;" 
d="M73 700h84v-310h298v310h84v-700h-84v312h-298v-312h-84v700zM364 774l-52 88h-12l-52 -88h-84l80 118h124l80 -118h-84z" />
    <glyph glyph-name="uni1E24" unicode="&#x1e24;" 
d="M73 700h84v-310h298v310h84v-700h-84v312h-298v-312h-84v700zM236 -133q0 29 20.5 49.5t49.5 20.5t49.5 -20.5t20.5 -49.5t-20.5 -49.5t-49.5 -20.5t-49.5 20.5t-20.5 49.5z" />
    <glyph glyph-name="uni1E2A" unicode="&#x1e2a;" 
d="M73 700h84v-310h298v310h84v-700h-84v312h-298v-312h-84v700zM414 -63v-10q0 -48 -29 -78t-79 -30t-79 30t-29 78v10h69v-12q0 -16 10 -27.5t29 -11.5t29 11.5t10 27.5v12h69z" />
    <glyph glyph-name="Hbar" unicode="&#x126;" 
d="M73 496h-60v78h60v126h84v-126h298v126h84v-126h60v-78h-60v-496h-84v312h-298v-312h-84v496zM455 390v106h-298v-106h298z" />
    <glyph glyph-name="Igrave" unicode="&#xcc;" 
d="M84 700h444v-78h-180v-544h180v-78h-444v78h180v544h-180v78zM275 892l66 -118h-72l-84 118h90z" />
    <glyph glyph-name="Iacute" unicode="&#xcd;" 
d="M84 700h444v-78h-180v-544h180v-78h-444v78h180v544h-180v78zM426 892l-84 -118h-72l66 118h90z" />
    <glyph glyph-name="Icircumflex" unicode="&#xce;" 
d="M84 700h444v-78h-180v-544h180v-78h-444v78h180v544h-180v78zM364 774l-52 88h-12l-52 -88h-84l80 118h124l80 -118h-84z" />
    <glyph glyph-name="Itilde" unicode="&#x128;" 
d="M84 700h444v-78h-180v-544h180v-78h-444v78h180v544h-180v78zM337 846q5 -10 10 -15t14 -5q10 0 19 10l48 55l49 -42l-41 -49q-14 -17 -33 -29.5t-45 -12.5q-31 0 -47.5 14t-33.5 45q-7 12 -11.5 17t-12.5 5q-11 0 -22 -12l-46 -53l-49 42l41 49q14 17 33 29.5t46 12.5
q29 0 46 -14.5t35 -46.5z" />
    <glyph glyph-name="Idieresis" unicode="&#xcf;" 
d="M84 700h444v-78h-180v-544h180v-78h-444v78h180v544h-180v78zM136 848q0 29 20.5 49.5t49.5 20.5t49.5 -20.5t20.5 -49.5t-20.5 -49.5t-49.5 -20.5t-49.5 20.5t-20.5 49.5zM336 848q0 29 20.5 49.5t49.5 20.5t49.5 -20.5t20.5 -49.5t-20.5 -49.5t-49.5 -20.5t-49.5 20.5
t-20.5 49.5z" />
    <glyph glyph-name="Imacron" unicode="&#x12a;" 
d="M84 700h444v-78h-180v-544h180v-78h-444v78h180v544h-180v78zM447 774h-282v66h282v-66z" />
    <glyph glyph-name="Idotaccent" unicode="&#x130;" 
d="M84 700h444v-78h-180v-544h180v-78h-444v78h180v544h-180v78zM236 848q0 29 20.5 49.5t49.5 20.5t49.5 -20.5t20.5 -49.5t-20.5 -49.5t-49.5 -20.5t-49.5 20.5t-20.5 49.5z" />
    <glyph glyph-name="uni01CF" unicode="&#x1cf;" 
d="M84 700h444v-78h-180v-544h180v-78h-444v78h180v544h-180v78zM448 892l-80 -118h-124l-80 118h84l52 -88h12l52 88h84z" />
    <glyph glyph-name="Iogonek" unicode="&#x12e;" 
d="M84 700h444v-78h-180v-544h180v-78l-16 -68q-1 -5 -1 -8q0 -22 23 -22h42v-66h-56q-30 0 -54 18.5t-24 55.5q0 9 3 24l14 66h-375v78h180v544h-180v78z" />
    <glyph glyph-name="uni1EC8" unicode="&#x1ec8;" 
d="M84 700h444v-78h-180v-544h180v-78h-444v78h180v544h-180v78zM321 750l-15 67.9961h6q13 -31.998 54 -31.998q35 0 55.5 24.998q20.5 24.999 20.5 59.9961q0 41.998 -27 66.4961q-27 24.499 -66 24.499q-43 0 -66 -19.999t-31 -49.9971l48 -17.999q3 14.999 14.5 27.498
q11.5 12.5 33.5 12.5q15 0 27.5 -10q12.5 -9.99902 12.5 -31.998q0 -17.998 -10.5 -27.998q-10.5 -9.99902 -24.5 -9.99902q-18 0 -25 13.999h-76v-6l20 -91.9941h49z" />
    <glyph glyph-name="uni1ECA" unicode="&#x1eca;" 
d="M84 700h444v-78h-180v-544h180v-78h-444v78h180v544h-180v78zM236 -133q0 29 20.5 49.5t49.5 20.5t49.5 -20.5t20.5 -49.5t-20.5 -49.5t-49.5 -20.5t-49.5 20.5t-20.5 49.5z" />
    <glyph glyph-name="Ibreve" unicode="&#x12c;" 
d="M84 700h444v-78h-180v-544h180v-78h-444v78h180v544h-180v78zM414 892v-10q0 -48 -29 -78t-79 -30t-79 30t-29 78v10h69v-12q0 -16 10 -27.5t29 -11.5t29 11.5t10 27.5v12h69z" />
    <glyph glyph-name="Jcircumflex" unicode="&#x134;" 
d="M515 774l-52 88h-12l-52 -88h-84l80 118h124l80 -118h-84zM505 210q0 -109 -53.5 -166.5t-156.5 -57.5t-162.5 57.5t-59.5 166.5v54h84v-54q0 -66 34 -106t104 -40t98 40t28 106v412h-72v78h216v-78h-60v-412z" />
    <glyph glyph-name="uni0136" unicode="&#x136;" 
d="M173 0h-84v700h84v-310h23l269 310h104v-6l-290 -338v-12l302 -338v-6h-106l-279 312h-23v-312zM247 -113q0 29 20.5 49.5t49.5 20.5t49.5 -20.5t20.5 -49.5v-98q0 -34 -21.5 -56t-55.5 -22h-51v54h47q27 0 27 30v25q-8 -3 -17 -3q-28 0 -48.5 20.5t-20.5 49.5z" />
    <glyph glyph-name="Lacute" unicode="&#x139;" 
d="M87 700h84v-622h366v-78h-450v700zM252 892l-84 -118h-72l66 118h90z" />
    <glyph glyph-name="Lcaron" unicode="&#x13d;" 
d="M87 700h84v-622h366v-78h-450v700zM397 631q0 29 20.5 49.5t49.5 20.5t49.5 -20.5t20.5 -49.5v-98q0 -34 -21.5 -56t-55.5 -22h-51v54h47q27 0 27 30v25q-8 -3 -17 -3q-28 0 -48.5 20.5t-20.5 49.5z" />
    <glyph glyph-name="uni013B" unicode="&#x13b;" 
d="M87 700h84v-622h366v-78h-450v700zM243 -113q0 29 20.5 49.5t49.5 20.5t49.5 -20.5t20.5 -49.5v-98q0 -34 -21.5 -56t-55.5 -22h-51v54h47q27 0 27 30v25q-8 -3 -17 -3q-28 0 -48.5 20.5t-20.5 49.5z" />
    <glyph glyph-name="uni1E36" unicode="&#x1e36;" 
d="M87 700h84v-622h366v-78h-450v700zM243 -133q0 29 20.5 49.5t49.5 20.5t49.5 -20.5t20.5 -49.5t-20.5 -49.5t-49.5 -20.5t-49.5 20.5t-20.5 49.5z" />
    <glyph glyph-name="uni1E38" unicode="&#x1e38;" 
d="M87 700h84v-622h366v-78h-450v700zM453 774h-282v66h282v-66zM243 -133q0 29 20.5 49.5t49.5 20.5t49.5 -20.5t20.5 -49.5t-20.5 -49.5t-49.5 -20.5t-49.5 20.5t-20.5 49.5z" />
    <glyph glyph-name="uni1E3A" unicode="&#x1e3a;" 
d="M87 700h84v-622h366v-78h-450v700zM453 -129h-282v66h282v-66z" />
    <glyph glyph-name="Lslash" unicode="&#x141;" 
d="M120 359v341h84v-298l61 31l34 -67l-95 -49v-239h348v-78h-432v274l-61 -31l-35 68z" />
    <glyph glyph-name="Ldot" unicode="&#x13f;" 
d="M87 700h84v-622h366v-78h-450v700zM397 350q0 29 20.5 49.5t49.5 20.5t49.5 -20.5t20.5 -49.5t-20.5 -49.5t-49.5 -20.5t-49.5 20.5t-20.5 49.5z" />
    <glyph glyph-name="uni1E42" unicode="&#x1e42;" 
d="M46 700h160l94 -664h12l94 664h160v-700h-78v664h-12l-94 -664h-152l-94 664h-12v-664h-78v700zM236 -133q0 29 20.5 49.5t49.5 20.5t49.5 -20.5t20.5 -49.5t-20.5 -49.5t-49.5 -20.5t-49.5 20.5t-20.5 49.5z" />
    <glyph glyph-name="Nacute" unicode="&#x143;" 
d="M443 36h12v664h84v-700h-168l-202 664h-12v-664h-84v700h168zM472 892l-84 -118h-72l66 118h90z" />
    <glyph glyph-name="Ncaron" unicode="&#x147;" 
d="M443 36h12v664h84v-700h-168l-202 664h-12v-664h-84v700h168zM488 892l-80 -118h-124l-80 118h84l52 -88h12l52 88h84z" />
    <glyph glyph-name="Ntilde" unicode="&#xd1;" 
d="M443 36h12v664h84v-700h-168l-202 664h-12v-664h-84v700h168zM344 846q5 -10 10 -15t14 -5q10 0 19 10l48 55l49 -42l-41 -49q-14 -17 -33 -29.5t-45 -12.5q-31 0 -47.5 14t-33.5 45q-7 12 -11.5 17t-12.5 5q-11 0 -22 -12l-46 -53l-49 42l41 49q14 17 33 29.5t46 12.5
q29 0 46 -14.5t35 -46.5z" />
    <glyph glyph-name="uni0145" unicode="&#x145;" 
d="M443 36h12v664h84v-700h-168l-202 664h-12v-664h-84v700h168zM197 -113q0 29 20.5 49.5t49.5 20.5t49.5 -20.5t20.5 -49.5v-98q0 -34 -21.5 -56t-55.5 -22h-51v54h47q27 0 27 30v25q-8 -3 -17 -3q-28 0 -48.5 20.5t-20.5 49.5z" />
    <glyph glyph-name="uni1E44" unicode="&#x1e44;" 
d="M443 36h12v664h84v-700h-168l-202 664h-12v-664h-84v700h168zM278 848q0 29 20.5 49.5t49.5 20.5t49.5 -20.5t20.5 -49.5t-20.5 -49.5t-49.5 -20.5t-49.5 20.5t-20.5 49.5z" />
    <glyph glyph-name="uni1E46" unicode="&#x1e46;" 
d="M443 36h12v664h84v-700h-168l-202 664h-12v-664h-84v700h168zM236 -133q0 29 20.5 49.5t49.5 20.5t49.5 -20.5t20.5 -49.5t-20.5 -49.5t-49.5 -20.5t-49.5 20.5t-20.5 49.5z" />
    <glyph glyph-name="uni1E48" unicode="&#x1e48;" 
d="M443 36h12v664h84v-700h-168l-202 664h-12v-664h-84v700h168zM447 -129h-282v66h282v-66z" />
    <glyph glyph-name="Ograve" unicode="&#xd2;" 
d="M60 428q0 136 65 211t181 75t181 -75t65 -211v-156q0 -140 -65 -213t-181 -73t-181 73t-65 213v156zM306 64q81 0 121.5 55.5t40.5 158.5v144q0 96 -40.5 155t-121.5 59t-121.5 -59t-40.5 -155v-144q0 -103 40.5 -158.5t121.5 -55.5zM279 892l66 -118h-72l-84 118h90z
" />
    <glyph glyph-name="Oacute" unicode="&#xd3;" 
d="M60 428q0 136 65 211t181 75t181 -75t65 -211v-156q0 -140 -65 -213t-181 -73t-181 73t-65 213v156zM306 64q81 0 121.5 55.5t40.5 158.5v144q0 96 -40.5 155t-121.5 59t-121.5 -59t-40.5 -155v-144q0 -103 40.5 -158.5t121.5 -55.5zM430 892l-84 -118h-72l66 118h90z
" />
    <glyph glyph-name="Ocircumflex" unicode="&#xd4;" 
d="M60 428q0 136 65 211t181 75t181 -75t65 -211v-156q0 -140 -65 -213t-181 -73t-181 73t-65 213v156zM306 64q81 0 121.5 55.5t40.5 158.5v144q0 96 -40.5 155t-121.5 59t-121.5 -59t-40.5 -155v-144q0 -103 40.5 -158.5t121.5 -55.5zM364 774l-52 88h-12l-52 -88h-84
l80 118h124l80 -118h-84z" />
    <glyph glyph-name="Otilde" unicode="&#xd5;" 
d="M60 428q0 136 65 211t181 75t181 -75t65 -211v-156q0 -140 -65 -213t-181 -73t-181 73t-65 213v156zM306 64q81 0 121.5 55.5t40.5 158.5v144q0 96 -40.5 155t-121.5 59t-121.5 -59t-40.5 -155v-144q0 -103 40.5 -158.5t121.5 -55.5zM337 846q5 -10 10 -15t14 -5
q10 0 19 10l48 55l49 -42l-41 -49q-14 -17 -33 -29.5t-45 -12.5q-31 0 -47.5 14t-33.5 45q-7 12 -11.5 17t-12.5 5q-11 0 -22 -12l-46 -53l-49 42l41 49q14 17 33 29.5t46 12.5q29 0 46 -14.5t35 -46.5z" />
    <glyph glyph-name="Odieresis" unicode="&#xd6;" 
d="M60 428q0 136 65 211t181 75t181 -75t65 -211v-156q0 -140 -65 -213t-181 -73t-181 73t-65 213v156zM306 64q81 0 121.5 55.5t40.5 158.5v144q0 96 -40.5 155t-121.5 59t-121.5 -59t-40.5 -155v-144q0 -103 40.5 -158.5t121.5 -55.5zM136 848q0 29 20.5 49.5t49.5 20.5
t49.5 -20.5t20.5 -49.5t-20.5 -49.5t-49.5 -20.5t-49.5 20.5t-20.5 49.5zM336 848q0 29 20.5 49.5t49.5 20.5t49.5 -20.5t20.5 -49.5t-20.5 -49.5t-49.5 -20.5t-49.5 20.5t-20.5 49.5z" />
    <glyph glyph-name="Omacron" unicode="&#x14c;" 
d="M60 428q0 136 65 211t181 75t181 -75t65 -211v-156q0 -140 -65 -213t-181 -73t-181 73t-65 213v156zM306 64q81 0 121.5 55.5t40.5 158.5v144q0 96 -40.5 155t-121.5 59t-121.5 -59t-40.5 -155v-144q0 -103 40.5 -158.5t121.5 -55.5zM447 774h-282v66h282v-66z" />
    <glyph glyph-name="Ohungarumlaut" unicode="&#x150;" 
d="M60 428q0 136 65 211t181 75t181 -75t65 -211v-156q0 -140 -65 -213t-181 -73t-181 73t-65 213v156zM306 64q81 0 121.5 55.5t40.5 158.5v144q0 96 -40.5 155t-121.5 59t-121.5 -59t-40.5 -155v-144q0 -103 40.5 -158.5t121.5 -55.5zM348 892l-84 -118h-72l66 118h90z
M492 892l-84 -118h-72l66 118h90z" />
    <glyph glyph-name="Obreve" unicode="&#x14e;" 
d="M60 428q0 136 65 211t181 75t181 -75t65 -211v-156q0 -140 -65 -213t-181 -73t-181 73t-65 213v156zM306 64q81 0 121.5 55.5t40.5 158.5v144q0 96 -40.5 155t-121.5 59t-121.5 -59t-40.5 -155v-144q0 -103 40.5 -158.5t121.5 -55.5zM414 892v-10q0 -48 -29 -78t-79 -30
t-79 30t-29 78v10h69v-12q0 -16 10 -27.5t29 -11.5t29 11.5t10 27.5v12h69z" />
    <glyph glyph-name="uni01D1" unicode="&#x1d1;" 
d="M60 428q0 136 65 211t181 75t181 -75t65 -211v-156q0 -140 -65 -213t-181 -73t-181 73t-65 213v156zM306 64q81 0 121.5 55.5t40.5 158.5v144q0 96 -40.5 155t-121.5 59t-121.5 -59t-40.5 -155v-144q0 -103 40.5 -158.5t121.5 -55.5zM448 892l-80 -118h-124l-80 118h84
l52 -88h12l52 88h84z" />
    <glyph glyph-name="uni01EA" unicode="&#x1ea;" 
d="M60 428q0 136 65 211t181 75t181 -75t65 -211v-156q0 -131 -56.5 -203t-157.5 -81l-13 -56q-1 -5 -1 -8q0 -22 23 -22h42v-66h-56q-29 0 -53.5 18.5t-24.5 55.5q0 9 3 24l12 54q-100 11 -155 83t-55 201v156zM306 64q81 0 121.5 55.5t40.5 158.5v144q0 96 -40.5 155
t-121.5 59t-121.5 -59t-40.5 -155v-144q0 -103 40.5 -158.5t121.5 -55.5z" />
    <glyph glyph-name="uni1ECC" unicode="&#x1ecc;" 
d="M60 428q0 136 65 211t181 75t181 -75t65 -211v-156q0 -140 -65 -213t-181 -73t-181 73t-65 213v156zM306 64q81 0 121.5 55.5t40.5 158.5v144q0 96 -40.5 155t-121.5 59t-121.5 -59t-40.5 -155v-144q0 -103 40.5 -158.5t121.5 -55.5zM236 -133q0 29 20.5 49.5t49.5 20.5
t49.5 -20.5t20.5 -49.5t-20.5 -49.5t-49.5 -20.5t-49.5 20.5t-20.5 49.5z" />
    <glyph glyph-name="uni1ECE" unicode="&#x1ece;" 
d="M272 750l-20 92v6h76q7 -14 25 -14q14 0 24.5 10t10.5 28q0 22 -12.5 32t-27.5 10q-22 0 -33.5 -12.5t-14.5 -27.5l-48 18q8 30 31 50t66 20q39 0 66 -24.5t27 -66.5q0 -35 -20.5 -60t-55.5 -25q-41 0 -54 32h-6l15 -68h-49zM60 428q0 136 65 211t181 75t181 -75t65 -211
v-156q0 -140 -65 -213t-181 -73t-181 73t-65 213v156zM306 64q81 0 121.5 55.5t40.5 158.5v144q0 96 -40.5 155t-121.5 59t-121.5 -59t-40.5 -155v-144q0 -103 40.5 -158.5t121.5 -55.5z" />
    <glyph glyph-name="uni1ED0" unicode="&#x1ed0;" 
d="M60 428q0 136 65 211t181 75t181 -75t65 -211v-156q0 -140 -65 -213t-181 -73t-181 73t-65 213v156zM306 64q81 0 121.5 55.5t40.5 158.5v144q0 96 -40.5 155t-121.5 59t-121.5 -59t-40.5 -155v-144q0 -103 40.5 -158.5t121.5 -55.5zM364 774l-52 88h-12l-52 -88h-84
l80 118h124l80 -118h-84zM580 980l-84 -118h-72l66 118h90z" />
    <glyph glyph-name="uni1ED2" unicode="&#x1ed2;" 
d="M60 428q0 136 65 211t181 75t181 -75t65 -211v-156q0 -140 -65 -213t-181 -73t-181 73t-65 213v156zM306 64q81 0 121.5 55.5t40.5 158.5v144q0 96 -40.5 155t-121.5 59t-121.5 -59t-40.5 -155v-144q0 -103 40.5 -158.5t121.5 -55.5zM364 774l-52 88h-12l-52 -88h-84
l80 118h124l80 -118h-84zM120 980l66 -118h-72l-84 118h90z" />
    <glyph glyph-name="uni1ED4" unicode="&#x1ed4;" 
d="M60 428q0 136 65 211t181 75t181 -75t65 -211v-156q0 -140 -65 -213t-181 -73t-181 73t-65 213v156zM306 64q81 0 121.5 55.5t40.5 158.5v144q0 96 -40.5 155t-121.5 59t-121.5 -59t-40.5 -155v-144q0 -103 40.5 -158.5t121.5 -55.5zM364 774l-52 88h-12l-52 -88h-84
l80 118h124l80 -118h-84zM476 858l-15 67.9961h6q13 -31.998 54 -31.998q35 0 55.5 24.998q20.5 24.999 20.5 59.9961q0 41.998 -27 66.4961q-27 24.499 -66 24.499q-43 0 -66 -19.999t-31 -49.9971l48 -17.999q3 14.999 14.5 27.498q11.5 12.5 33.5 12.5q15 0 27.5 -10
q12.5 -9.99902 12.5 -31.998q0 -17.998 -10.5 -27.998q-10.5 -9.99902 -24.5 -9.99902q-18 0 -25 13.999h-76v-6l20 -91.9941h49z" />
    <glyph glyph-name="uni1ED6" unicode="&#x1ed6;" 
d="M60 428q0 136 65 211t181 75t181 -75t65 -211v-156q0 -140 -65 -213t-181 -73t-181 73t-65 213v156zM306 64q81 0 121.5 55.5t40.5 158.5v144q0 96 -40.5 155t-121.5 59t-121.5 -59t-40.5 -155v-144q0 -103 40.5 -158.5t121.5 -55.5zM364 730l-52 88h-12l-52 -88h-84
l80 118h124l80 -118h-84zM337 966q5 -10 10 -15t14 -5q10 0 19 10l48 55l49 -42l-41 -49q-14 -17 -33 -29.5t-45 -12.5q-31 0 -47.5 14t-33.5 45q-7 12 -11.5 17t-12.5 5q-11 0 -22 -12l-46 -53l-49 42l41 49q14 17 33 29.5t46 12.5q29 0 46 -14.5t35 -46.5z" />
    <glyph glyph-name="uni1ED8" unicode="&#x1ed8;" 
d="M60 428q0 136 65 211t181 75t181 -75t65 -211v-156q0 -140 -65 -213t-181 -73t-181 73t-65 213v156zM306 64q81 0 121.5 55.5t40.5 158.5v144q0 96 -40.5 155t-121.5 59t-121.5 -59t-40.5 -155v-144q0 -103 40.5 -158.5t121.5 -55.5zM364 774l-52 88h-12l-52 -88h-84
l80 118h124l80 -118h-84zM236 -133q0 29 20.5 49.5t49.5 20.5t49.5 -20.5t20.5 -49.5t-20.5 -49.5t-49.5 -20.5t-49.5 20.5t-20.5 49.5z" />
    <glyph glyph-name="uni01A0" unicode="&#x1a0;" 
d="M38 476q0 113 53 175.5t151 62.5q91 0 143 -54t60 -152h67q27 0 27 30v25q-8 -3 -17 -3q-28 0 -48.5 20.5t-20.5 49.5t20.5 49.5t49.5 20.5t49.5 -20.5t20.5 -49.5v-98q0 -34 -21.5 -56t-55.5 -22h-70v-236q0 -116 -53.5 -174t-150.5 -58t-150.5 58t-53.5 174v258z
M242 62q62 0 91 39.5t29 122.5v252q0 77 -28.5 119.5t-91.5 42.5t-91.5 -42.5t-28.5 -119.5v-252q0 -83 29 -122.5t91 -39.5z" />
    <glyph glyph-name="uni1EDA" unicode="&#x1eda;" 
d="M360 892l-84 -118h-72l66 118h90zM38 476q0 113 53 175.5t151 62.5q91 0 143 -54t60 -152h67q27 0 27 30v25q-8 -3 -17 -3q-28 0 -48.5 20.5t-20.5 49.5t20.5 49.5t49.5 20.5t49.5 -20.5t20.5 -49.5v-98q0 -34 -21.5 -56t-55.5 -22h-70v-236q0 -116 -53.5 -174
t-150.5 -58t-150.5 58t-53.5 174v258zM242 62q62 0 91 39.5t29 122.5v252q0 77 -28.5 119.5t-91.5 42.5t-91.5 -42.5t-28.5 -119.5v-252q0 -83 29 -122.5t91 -39.5z" />
    <glyph glyph-name="uni1EDC" unicode="&#x1edc;" 
d="M213 892l66 -118h-72l-84 118h90zM38 476q0 113 53 175.5t151 62.5q91 0 143 -54t60 -152h67q27 0 27 30v25q-8 -3 -17 -3q-28 0 -48.5 20.5t-20.5 49.5t20.5 49.5t49.5 20.5t49.5 -20.5t20.5 -49.5v-98q0 -34 -21.5 -56t-55.5 -22h-70v-236q0 -116 -53.5 -174
t-150.5 -58t-150.5 58t-53.5 174v258zM242 62q62 0 91 39.5t29 122.5v252q0 77 -28.5 119.5t-91.5 42.5t-91.5 -42.5t-28.5 -119.5v-252q0 -83 29 -122.5t91 -39.5z" />
    <glyph glyph-name="uni1EDE" unicode="&#x1ede;" 
d="M38 476q0 113 53 175.5t151 62.5q91 0 143 -54t60 -152h67q27 0 27 30v25q-8 -3 -17 -3q-28 0 -48.5 20.5t-20.5 49.5t20.5 49.5t49.5 20.5t49.5 -20.5t20.5 -49.5v-98q0 -34 -21.5 -56t-55.5 -22h-70v-236q0 -116 -53.5 -174t-150.5 -58t-150.5 58t-53.5 174v258z
M242 62q62 0 91 39.5t29 122.5v252q0 77 -28.5 119.5t-91.5 42.5t-91.5 -42.5t-28.5 -119.5v-252q0 -83 29 -122.5t91 -39.5zM258 750l-15 67.9961h6q13 -31.998 54 -31.998q35 0 55.5 24.998q20.5 24.999 20.5 59.9961q0 41.998 -27 66.4961q-27 24.499 -66 24.499
q-43 0 -66 -19.999t-31 -49.9971l48 -17.999q3 14.999 14.5 27.498q11.5 12.5 33.5 12.5q15 0 27.5 -10q12.5 -9.99902 12.5 -31.998q0 -17.998 -10.5 -27.998q-10.5 -9.99902 -24.5 -9.99902q-18 0 -25 13.999h-76v-6l20 -91.9941h49z" />
    <glyph glyph-name="uni1EE0" unicode="&#x1ee0;" 
d="M38 476q0 113 53 175.5t151 62.5q91 0 143 -54t60 -152h67q27 0 27 30v25q-8 -3 -17 -3q-28 0 -48.5 20.5t-20.5 49.5t20.5 49.5t49.5 20.5t49.5 -20.5t20.5 -49.5v-98q0 -34 -21.5 -56t-55.5 -22h-70v-236q0 -116 -53.5 -174t-150.5 -58t-150.5 58t-53.5 174v258z
M242 62q62 0 91 39.5t29 122.5v252q0 77 -28.5 119.5t-91.5 42.5t-91.5 -42.5t-28.5 -119.5v-252q0 -83 29 -122.5t91 -39.5zM274 846q5 -10 10 -15t14 -5q10 0 19 10l48 55l49 -42l-41 -49q-14 -17 -33 -29.5t-45 -12.5q-31 0 -47.5 14t-33.5 45q-7 12 -11.5 17t-12.5 5
q-11 0 -22 -12l-46 -53l-49 42l41 49q14 17 33 29.5t46 12.5q29 0 46 -14.5t35 -46.5z" />
    <glyph glyph-name="uni1EE2" unicode="&#x1ee2;" 
d="M38 476q0 113 53 175.5t151 62.5q91 0 143 -54t60 -152h67q27 0 27 30v25q-8 -3 -17 -3q-28 0 -48.5 20.5t-20.5 49.5t20.5 49.5t49.5 20.5t49.5 -20.5t20.5 -49.5v-98q0 -34 -21.5 -56t-55.5 -22h-70v-236q0 -116 -53.5 -174t-150.5 -58t-150.5 58t-53.5 174v258z
M242 62q62 0 91 39.5t29 122.5v252q0 77 -28.5 119.5t-91.5 42.5t-91.5 -42.5t-28.5 -119.5v-252q0 -83 29 -122.5t91 -39.5zM173 -133q0 29 20.5 49.5t49.5 20.5t49.5 -20.5t20.5 -49.5t-20.5 -49.5t-49.5 -20.5t-49.5 20.5t-20.5 49.5z" />
    <glyph glyph-name="Oslash" unicode="&#xd8;" 
d="M161 27q-49 34 -75 95.5t-26 149.5v156q0 136 65 211t181 75q40 0 78 -11l23 71l70 -22l-27 -81q49 -35 75.5 -96.5t26.5 -146.5v-156q0 -140 -65 -213t-181 -73q-44 0 -77 10l-27 -82l-71 22zM144 278q0 -110 45 -165l170 515q-26 8 -53 8q-81 0 -121.5 -59t-40.5 -155
v-144zM306 64q81 0 121.5 55.5t40.5 158.5v144q0 104 -46 162l-168 -513q21 -7 52 -7z" />
    <glyph glyph-name="OE" unicode="&#x152;" 
d="M300 0q-116 0 -181 73t-65 213v128q0 136 65 211t181 75h240v-78h-156v-232h150v-78h-150v-234h162v-78h-246zM300 622q-81 0 -121.5 -59t-40.5 -155v-116q0 -103 40.5 -158.5t121.5 -55.5v544z" />
    <glyph glyph-name="Racute" unicode="&#x154;" 
d="M525 0h-84v234q0 26 -12 40t-42 14h-218v-288h-84v700h250q54 0 94 -15.5t66.5 -41.5t40 -60.5t13.5 -72.5v-30q0 -39 -21.5 -78t-66.5 -60v-12q30 -5 47 -24t17 -54v-252zM169 366h156q71 0 105.5 30.5t34.5 89.5v18q0 53 -34.5 85.5t-105.5 32.5h-156v-256zM408 892
l-84 -118h-72l66 118h90z" />
    <glyph glyph-name="Rcaron" unicode="&#x158;" 
d="M525 0h-84v234q0 26 -12 40t-42 14h-218v-288h-84v700h250q54 0 94 -15.5t66.5 -41.5t40 -60.5t13.5 -72.5v-30q0 -39 -21.5 -78t-66.5 -60v-12q30 -5 47 -24t17 -54v-252zM169 366h156q71 0 105.5 30.5t34.5 89.5v18q0 53 -34.5 85.5t-105.5 32.5h-156v-256zM420 892
l-80 -118h-124l-80 118h84l52 -88h12l52 88h84z" />
    <glyph glyph-name="uni0156" unicode="&#x156;" 
d="M525 0h-84v234q0 26 -12 40t-42 14h-218v-288h-84v700h250q54 0 94 -15.5t66.5 -41.5t40 -60.5t13.5 -72.5v-30q0 -39 -21.5 -78t-66.5 -60v-12q30 -5 47 -24t17 -54v-252zM169 366h156q71 0 105.5 30.5t34.5 89.5v18q0 53 -34.5 85.5t-105.5 32.5h-156v-256zM241 -113
q0 29 20.5 49.5t49.5 20.5t49.5 -20.5t20.5 -49.5v-98q0 -34 -21.5 -56t-55.5 -22h-51v54h47q27 0 27 30v25q-8 -3 -17 -3q-28 0 -48.5 20.5t-20.5 49.5z" />
    <glyph glyph-name="uni1E5A" unicode="&#x1e5a;" 
d="M525 0h-84v234q0 26 -12 40t-42 14h-218v-288h-84v700h250q54 0 94 -15.5t66.5 -41.5t40 -60.5t13.5 -72.5v-30q0 -39 -21.5 -78t-66.5 -60v-12q30 -5 47 -24t17 -54v-252zM169 366h156q71 0 105.5 30.5t34.5 89.5v18q0 53 -34.5 85.5t-105.5 32.5h-156v-256zM236 -133
q0 29 20.5 49.5t49.5 20.5t49.5 -20.5t20.5 -49.5t-20.5 -49.5t-49.5 -20.5t-49.5 20.5t-20.5 49.5z" />
    <glyph glyph-name="uni1E5C" unicode="&#x1e5c;" 
d="M525 0h-84v234q0 26 -12 40t-42 14h-218v-288h-84v700h250q54 0 94 -15.5t66.5 -41.5t40 -60.5t13.5 -72.5v-30q0 -39 -21.5 -78t-66.5 -60v-12q30 -5 47 -24t17 -54v-252zM169 366h156q71 0 105.5 30.5t34.5 89.5v18q0 53 -34.5 85.5t-105.5 32.5h-156v-256zM451 774
h-282v66h282v-66zM236 -133q0 29 20.5 49.5t49.5 20.5t49.5 -20.5t20.5 -49.5t-20.5 -49.5t-49.5 -20.5t-49.5 20.5t-20.5 49.5z" />
    <glyph glyph-name="uni1E5E" unicode="&#x1e5e;" 
d="M525 0h-84v234q0 26 -12 40t-42 14h-218v-288h-84v700h250q54 0 94 -15.5t66.5 -41.5t40 -60.5t13.5 -72.5v-30q0 -39 -21.5 -78t-66.5 -60v-12q30 -5 47 -24t17 -54v-252zM169 366h156q71 0 105.5 30.5t34.5 89.5v18q0 53 -34.5 85.5t-105.5 32.5h-156v-256zM447 -129
h-282v66h282v-66z" />
    <glyph glyph-name="Sacute" unicode="&#x15a;" 
d="M471 498q0 34 -13.5 60t-36.5 43t-53 26t-63 9q-29 0 -55 -7.5t-46.5 -21.5t-32.5 -34.5t-12 -47.5v-6q0 -29 12 -49.5t35.5 -35t58.5 -24t82 -16.5q110 -17 162 -64.5t52 -127.5v-12q0 -45 -15.5 -82.5t-46 -64.5t-75.5 -42t-104 -15q-67 0 -118.5 19.5t-86 54t-52.5 81
t-18 101.5v30h84v-24q0 -92 50.5 -138t140.5 -46q78 0 117.5 34.5t39.5 91.5v6q0 55 -40.5 84t-131.5 42q-53 7 -95.5 21.5t-72.5 38t-46 56.5t-16 78v12q0 41 17 75t47.5 59t73 38.5t93.5 13.5q59 0 105.5 -17t78.5 -45.5t48.5 -67t16.5 -80.5v-42h-84v36zM414 892
l-84 -118h-72l66 118h90z" />
    <glyph glyph-name="Scircumflex" unicode="&#x15c;" 
d="M471 498q0 34 -13.5 60t-36.5 43t-53 26t-63 9q-29 0 -55 -7.5t-46.5 -21.5t-32.5 -34.5t-12 -47.5v-6q0 -29 12 -49.5t35.5 -35t58.5 -24t82 -16.5q110 -17 162 -64.5t52 -127.5v-12q0 -45 -15.5 -82.5t-46 -64.5t-75.5 -42t-104 -15q-67 0 -118.5 19.5t-86 54t-52.5 81
t-18 101.5v30h84v-24q0 -92 50.5 -138t140.5 -46q78 0 117.5 34.5t39.5 91.5v6q0 55 -40.5 84t-131.5 42q-53 7 -95.5 21.5t-72.5 38t-46 56.5t-16 78v12q0 41 17 75t47.5 59t73 38.5t93.5 13.5q59 0 105.5 -17t78.5 -45.5t48.5 -67t16.5 -80.5v-42h-84v36zM364 774l-52 88
h-12l-52 -88h-84l80 118h124l80 -118h-84z" />
    <glyph glyph-name="Scaron" unicode="&#x160;" 
d="M471 498q0 34 -13.5 60t-36.5 43t-53 26t-63 9q-29 0 -55 -7.5t-46.5 -21.5t-32.5 -34.5t-12 -47.5v-6q0 -29 12 -49.5t35.5 -35t58.5 -24t82 -16.5q110 -17 162 -64.5t52 -127.5v-12q0 -45 -15.5 -82.5t-46 -64.5t-75.5 -42t-104 -15q-67 0 -118.5 19.5t-86 54t-52.5 81
t-18 101.5v30h84v-24q0 -92 50.5 -138t140.5 -46q78 0 117.5 34.5t39.5 91.5v6q0 55 -40.5 84t-131.5 42q-53 7 -95.5 21.5t-72.5 38t-46 56.5t-16 78v12q0 41 17 75t47.5 59t73 38.5t93.5 13.5q59 0 105.5 -17t78.5 -45.5t48.5 -67t16.5 -80.5v-42h-84v36zM450 892
l-80 -118h-124l-80 118h84l52 -88h12l52 88h84z" />
    <glyph glyph-name="uni0218" unicode="&#x218;" 
d="M471 498q0 34 -13.5 60t-36.5 43t-53 26t-63 9q-29 0 -55 -7.5t-46.5 -21.5t-32.5 -34.5t-12 -47.5v-6q0 -29 12 -49.5t35.5 -35t58.5 -24t82 -16.5q110 -17 162 -64.5t52 -127.5v-12q0 -45 -15.5 -82.5t-46 -64.5t-75.5 -42t-104 -15q-67 0 -118.5 19.5t-86 54t-52.5 81
t-18 101.5v30h84v-24q0 -92 50.5 -138t140.5 -46q78 0 117.5 34.5t39.5 91.5v6q0 55 -40.5 84t-131.5 42q-53 7 -95.5 21.5t-72.5 38t-46 56.5t-16 78v12q0 41 17 75t47.5 59t73 38.5t93.5 13.5q59 0 105.5 -17t78.5 -45.5t48.5 -67t16.5 -80.5v-42h-84v36zM250 -113
q0 29 20.5 49.5t49.5 20.5t49.5 -20.5t20.5 -49.5v-98q0 -34 -21.5 -56t-55.5 -22h-51v54h47q27 0 27 30v25q-8 -3 -17 -3q-28 0 -48.5 20.5t-20.5 49.5z" />
    <glyph glyph-name="Scedilla" unicode="&#x15e;" 
d="M471 498q0 34 -13.5 60t-36.5 43t-53 26t-63 9q-29 0 -55 -7.5t-46.5 -21.5t-32.5 -34.5t-12 -47.5v-6q0 -29 12 -49.5t35.5 -35t58.5 -24t82 -16.5q110 -17 162 -64.5t52 -127.5v-12q0 -45 -15.5 -82.5t-46 -64.5t-75.5 -42t-104 -15h-8l-12 -54h6q13 32 54 32
q35 0 55.5 -25t20.5 -60q0 -42 -27 -66.5t-66 -24.5q-43 0 -66 20t-31 50l48 18q3 -15 14.5 -27.5t33.5 -12.5q15 0 27.5 10t12.5 32q0 18 -10.5 28t-24.5 10q-18 0 -25 -14h-76v6l18 82q-54 8 -94.5 30t-68.5 55t-42 75.5t-14 91.5v30h84v-24q0 -92 50.5 -138t140.5 -46
q78 0 117.5 34.5t39.5 91.5v6q0 55 -40.5 84t-131.5 42q-53 7 -95.5 21.5t-72.5 38t-46 56.5t-16 78v12q0 41 17 75t47.5 59t73 38.5t93.5 13.5q59 0 105.5 -17t78.5 -45.5t48.5 -67t16.5 -80.5v-42h-84v36z" />
    <glyph glyph-name="uni1E60" unicode="&#x1e60;" 
d="M471 498q0 34 -13.5 60t-36.5 43t-53 26t-63 9q-29 0 -55 -7.5t-46.5 -21.5t-32.5 -34.5t-12 -47.5v-6q0 -29 12 -49.5t35.5 -35t58.5 -24t82 -16.5q110 -17 162 -64.5t52 -127.5v-12q0 -45 -15.5 -82.5t-46 -64.5t-75.5 -42t-104 -15q-67 0 -118.5 19.5t-86 54t-52.5 81
t-18 101.5v30h84v-24q0 -92 50.5 -138t140.5 -46q78 0 117.5 34.5t39.5 91.5v6q0 55 -40.5 84t-131.5 42q-53 7 -95.5 21.5t-72.5 38t-46 56.5t-16 78v12q0 41 17 75t47.5 59t73 38.5t93.5 13.5q59 0 105.5 -17t78.5 -45.5t48.5 -67t16.5 -80.5v-42h-84v36zM236 844
q0 29 20.5 49.5t49.5 20.5t49.5 -20.5t20.5 -49.5t-20.5 -49.5t-49.5 -20.5t-49.5 20.5t-20.5 49.5z" />
    <glyph glyph-name="uni1E62" unicode="&#x1e62;" 
d="M471 498q0 34 -13.5 60t-36.5 43t-53 26t-63 9q-29 0 -55 -7.5t-46.5 -21.5t-32.5 -34.5t-12 -47.5v-6q0 -29 12 -49.5t35.5 -35t58.5 -24t82 -16.5q110 -17 162 -64.5t52 -127.5v-12q0 -45 -15.5 -82.5t-46 -64.5t-75.5 -42t-104 -15q-67 0 -118.5 19.5t-86 54t-52.5 81
t-18 101.5v30h84v-24q0 -92 50.5 -138t140.5 -46q78 0 117.5 34.5t39.5 91.5v6q0 55 -40.5 84t-131.5 42q-53 7 -95.5 21.5t-72.5 38t-46 56.5t-16 78v12q0 41 17 75t47.5 59t73 38.5t93.5 13.5q59 0 105.5 -17t78.5 -45.5t48.5 -67t16.5 -80.5v-42h-84v36zM250 -133
q0 29 20.5 49.5t49.5 20.5t49.5 -20.5t20.5 -49.5t-20.5 -49.5t-49.5 -20.5t-49.5 20.5t-20.5 49.5z" />
    <glyph glyph-name="uni1E9E" unicode="&#x1e9e;" 
d="M249 348v118l192 144v12h-138q-55 0 -89 -30.5t-34 -95.5v-496h-84v418h-60v78h60q0 49 14.5 87.5t41 64t63.5 39t82 13.5h216v-130l-192 -144v-12h40q41 0 78 -12.5t65.5 -37t45.5 -60.5t17 -82v-12q0 -44 -18 -82t-50 -66.5t-75.5 -45t-94.5 -16.5h-80v78h78
q33 0 61.5 10.5t49.5 28.5t33 43t12 55v6q0 30 -10.5 53.5t-29.5 40t-44.5 25t-55.5 8.5h-94z" />
    <glyph glyph-name="Tcaron" unicode="&#x164;" 
d="M60 700h492v-78h-204v-622h-84v622h-204v78zM448 892l-80 -118h-124l-80 118h84l52 -88h12l52 88h84z" />
    <glyph glyph-name="uni0162" unicode="&#x162;" 
d="M264 0v622h-204v78h492v-78h-204v-622h-17l-15 -68h6q13 32 54 32q35 0 55.5 -25t20.5 -60q0 -42 -27 -66.5t-66 -24.5q-43 0 -66 20t-31 50l48 18q3 -15 14.5 -27.5t33.5 -12.5q15 0 27.5 10t12.5 32q0 18 -10.5 28t-24.5 10q-18 0 -25 -14h-76v6l20 92h-18z" />
    <glyph glyph-name="uni021A" unicode="&#x21a;" 
d="M60 700h492v-78h-204v-622h-84v622h-204v78zM236 -113q0 29 20.5 49.5t49.5 20.5t49.5 -20.5t20.5 -49.5v-98q0 -34 -21.5 -56t-55.5 -22h-51v54h47q27 0 27 30v25q-8 -3 -17 -3q-28 0 -48.5 20.5t-20.5 49.5z" />
    <glyph glyph-name="uni1E6C" unicode="&#x1e6c;" 
d="M60 700h492v-78h-204v-622h-84v622h-204v78zM236 -133q0 29 20.5 49.5t49.5 20.5t49.5 -20.5t20.5 -49.5t-20.5 -49.5t-49.5 -20.5t-49.5 20.5t-20.5 49.5z" />
    <glyph glyph-name="uni1E6E" unicode="&#x1e6e;" 
d="M60 700h492v-78h-204v-622h-84v622h-204v78zM447 -129h-282v66h282v-66z" />
    <glyph glyph-name="Tbar" unicode="&#x166;" 
d="M60 700h492v-78h-204v-194h156v-78h-156v-350h-84v350h-156v78h156v194h-204v78z" />
    <glyph glyph-name="Ugrave" unicode="&#xd9;" 
d="M150 700v-464q0 -85 39.5 -128.5t116.5 -43.5t116.5 43.5t39.5 128.5v464h84v-464q0 -122 -64 -186t-176 -64t-176 64t-64 186v464h84zM287 892l66 -118h-72l-84 118h90z" />
    <glyph glyph-name="Uacute" unicode="&#xda;" 
d="M150 700v-464q0 -85 39.5 -128.5t116.5 -43.5t116.5 43.5t39.5 128.5v464h84v-464q0 -122 -64 -186t-176 -64t-176 64t-64 186v464h84zM431 892l-84 -118h-72l66 118h90z" />
    <glyph glyph-name="Ucircumflex" unicode="&#xdb;" 
d="M150 700v-464q0 -85 39.5 -128.5t116.5 -43.5t116.5 43.5t39.5 128.5v464h84v-464q0 -122 -64 -186t-176 -64t-176 64t-64 186v464h84zM364 774l-52 88h-12l-52 -88h-84l80 118h124l80 -118h-84z" />
    <glyph glyph-name="Utilde" unicode="&#x168;" 
d="M150 700v-464q0 -85 39.5 -128.5t116.5 -43.5t116.5 43.5t39.5 128.5v464h84v-464q0 -122 -64 -186t-176 -64t-176 64t-64 186v464h84zM373 846q5 -10 10 -15t14 -5q10 0 19 10l48 55l49 -42l-41 -49q-14 -17 -33 -29.5t-45 -12.5q-31 0 -47.5 14t-33.5 45
q-7 12 -11.5 17t-12.5 5q-11 0 -22 -12l-46 -53l-49 42l41 49q14 17 33 29.5t46 12.5q29 0 46 -14.5t35 -46.5z" />
    <glyph glyph-name="Udieresis" unicode="&#xdc;" 
d="M150 700v-464q0 -85 39.5 -128.5t116.5 -43.5t116.5 43.5t39.5 128.5v464h84v-464q0 -122 -64 -186t-176 -64t-176 64t-64 186v464h84zM136 848q0 29 20.5 49.5t49.5 20.5t49.5 -20.5t20.5 -49.5t-20.5 -49.5t-49.5 -20.5t-49.5 20.5t-20.5 49.5zM336 848q0 29 20.5 49.5
t49.5 20.5t49.5 -20.5t20.5 -49.5t-20.5 -49.5t-49.5 -20.5t-49.5 20.5t-20.5 49.5z" />
    <glyph glyph-name="Umacron" unicode="&#x16a;" 
d="M150 700v-464q0 -85 39.5 -128.5t116.5 -43.5t116.5 43.5t39.5 128.5v464h84v-464q0 -122 -64 -186t-176 -64t-176 64t-64 186v464h84zM447 774h-282v66h282v-66z" />
    <glyph glyph-name="Ubreve" unicode="&#x16c;" 
d="M150 700v-464q0 -85 39.5 -128.5t116.5 -43.5t116.5 43.5t39.5 128.5v464h84v-464q0 -122 -64 -186t-176 -64t-176 64t-64 186v464h84zM414 892v-10q0 -48 -29 -78t-79 -30t-79 30t-29 78v10h69v-12q0 -16 10 -27.5t29 -11.5t29 11.5t10 27.5v12h69z" />
    <glyph glyph-name="Uring" unicode="&#x16e;" 
d="M150 700v-464q0 -85 39.5 -128.5t116.5 -43.5t116.5 43.5t39.5 128.5v464h84v-464q0 -122 -64 -186t-176 -64t-176 64t-64 186v464h84zM204 872q0 43 29.5 72.5t72.5 29.5t72.5 -29.5t29.5 -72.5t-29.5 -72.5t-72.5 -29.5t-72.5 29.5t-29.5 72.5zM264 872q0 -18 12 -30
t30 -12t30 12t12 30t-12 30t-30 12t-30 -12t-12 -30z" />
    <glyph glyph-name="Uhungarumlaut" unicode="&#x170;" 
d="M150 700v-464q0 -85 39.5 -128.5t116.5 -43.5t116.5 43.5t39.5 128.5v464h84v-464q0 -122 -64 -186t-176 -64t-176 64t-64 186v464h84zM344 892l-84 -118h-72l66 118h90zM488 892l-84 -118h-72l66 118h90z" />
    <glyph glyph-name="uni01D3" unicode="&#x1d3;" 
d="M150 700v-464q0 -85 39.5 -128.5t116.5 -43.5t116.5 43.5t39.5 128.5v464h84v-464q0 -122 -64 -186t-176 -64t-176 64t-64 186v464h84zM448 892l-80 -118h-124l-80 118h84l52 -88h12l52 88h84z" />
    <glyph glyph-name="Uogonek" unicode="&#x172;" 
d="M150 700v-464q0 -85 39.5 -128.5t116.5 -43.5t116.5 43.5t39.5 128.5v464h84v-464q0 -113 -55.5 -176t-152.5 -72l-13 -56q-1 -5 -1 -8q0 -22 23 -22h42v-66h-56q-29 0 -53.5 18.5t-24.5 55.5q0 9 3 24l12 54q-96 10 -150 73t-54 175v464h84z" />
    <glyph glyph-name="uni01D5" unicode="&#x1d5;" 
d="M476 900h-340v66h340v-66zM150 700v-464q0 -85 39.5 -128.5t116.5 -43.5t116.5 43.5t39.5 128.5v464h84v-464q0 -122 -64 -186t-176 -64t-176 64t-64 186v464h84zM136 800q0 29 20.5 49.5t49.5 20.5t49.5 -20.5t20.5 -49.5t-20.5 -49.5t-49.5 -20.5t-49.5 20.5
t-20.5 49.5zM336 800q0 29 20.5 49.5t49.5 20.5t49.5 -20.5t20.5 -49.5t-20.5 -49.5t-49.5 -20.5t-49.5 20.5t-20.5 49.5z" />
    <glyph glyph-name="uni01D7" unicode="&#x1d7;" 
d="M150 700v-464q0 -85 39.5 -128.5t116.5 -43.5t116.5 43.5t39.5 128.5v464h84v-464q0 -122 -64 -186t-176 -64t-176 64t-64 186v464h84zM136 800q0 29 20.5 49.5t49.5 20.5t49.5 -20.5t20.5 -49.5t-20.5 -49.5t-49.5 -20.5t-49.5 20.5t-20.5 49.5zM336 800q0 29 20.5 49.5
t49.5 20.5t49.5 -20.5t20.5 -49.5t-20.5 -49.5t-49.5 -20.5t-49.5 20.5t-20.5 49.5zM426 1018l-84 -118h-72l66 118h90z" />
    <glyph glyph-name="uni01D9" unicode="&#x1d9;" 
d="M150 700v-464q0 -85 39.5 -128.5t116.5 -43.5t116.5 43.5t39.5 128.5v464h84v-464q0 -122 -64 -186t-176 -64t-176 64t-64 186v464h84zM136 800q0 29 20.5 49.5t49.5 20.5t49.5 -20.5t20.5 -49.5t-20.5 -49.5t-49.5 -20.5t-49.5 20.5t-20.5 49.5zM336 800q0 29 20.5 49.5
t49.5 20.5t49.5 -20.5t20.5 -49.5t-20.5 -49.5t-49.5 -20.5t-49.5 20.5t-20.5 49.5zM448 1018l-80 -118h-124l-80 118h84l52 -88h12l52 88h84z" />
    <glyph glyph-name="uni01DB" unicode="&#x1db;" 
d="M150 700v-464q0 -85 39.5 -128.5t116.5 -43.5t116.5 43.5t39.5 128.5v464h84v-464q0 -122 -64 -186t-176 -64t-176 64t-64 186v464h84zM277 1018l66 -118h-72l-84 118h90zM136 800q0 29 20.5 49.5t49.5 20.5t49.5 -20.5t20.5 -49.5t-20.5 -49.5t-49.5 -20.5t-49.5 20.5
t-20.5 49.5zM336 800q0 29 20.5 49.5t49.5 20.5t49.5 -20.5t20.5 -49.5t-20.5 -49.5t-49.5 -20.5t-49.5 20.5t-20.5 49.5z" />
    <glyph glyph-name="uni1EE4" unicode="&#x1ee4;" 
d="M150 700v-464q0 -85 39.5 -128.5t116.5 -43.5t116.5 43.5t39.5 128.5v464h84v-464q0 -122 -64 -186t-176 -64t-176 64t-64 186v464h84zM236 -133q0 29 20.5 49.5t49.5 20.5t49.5 -20.5t20.5 -49.5t-20.5 -49.5t-49.5 -20.5t-49.5 20.5t-20.5 49.5z" />
    <glyph glyph-name="uni1EE6" unicode="&#x1ee6;" 
d="M266 750l-20 92v6h76q7 -14 25 -14q14 0 24.5 10t10.5 28q0 22 -12.5 32t-27.5 10q-22 0 -33.5 -12.5t-14.5 -27.5l-48 18q8 30 31 50t66 20q39 0 66 -24.5t27 -66.5q0 -35 -20.5 -60t-55.5 -25q-41 0 -54 32h-6l15 -68h-49zM150 700v-464q0 -85 39.5 -128.5t116.5 -43.5
t116.5 43.5t39.5 128.5v464h84v-464q0 -122 -64 -186t-176 -64t-176 64t-64 186v464h84z" />
    <glyph glyph-name="uni01AF" unicode="&#x1af;" 
d="M124 700v-494q0 -77 29 -110.5t85 -33.5t85 33.5t29 110.5v494h84v-192h95q27 0 27 30v25q-8 -3 -17 -3q-28 0 -48.5 20.5t-20.5 49.5t20.5 49.5t49.5 20.5t49.5 -20.5t20.5 -49.5v-98q0 -34 -21.5 -56t-55.5 -22h-99v-252q0 -110 -51.5 -163t-146.5 -53t-146.5 53
t-51.5 163v498h84z" />
    <glyph glyph-name="uni1EE8" unicode="&#x1ee8;" 
d="M359 892l-84 -118h-72l66 118h90zM124 700v-494q0 -77 29 -110.5t85 -33.5t85 33.5t29 110.5v494h84v-192h95q27 0 27 30v25q-8 -3 -17 -3q-28 0 -48.5 20.5t-20.5 49.5t20.5 49.5t49.5 20.5t49.5 -20.5t20.5 -49.5v-98q0 -34 -21.5 -56t-55.5 -22h-99v-252
q0 -110 -51.5 -163t-146.5 -53t-146.5 53t-51.5 163v498h84z" />
    <glyph glyph-name="uni1EEA" unicode="&#x1eea;" 
d="M209 892l66 -118h-72l-84 118h90zM124 700v-494q0 -77 29 -110.5t85 -33.5t85 33.5t29 110.5v494h84v-192h95q27 0 27 30v25q-8 -3 -17 -3q-28 0 -48.5 20.5t-20.5 49.5t20.5 49.5t49.5 20.5t49.5 -20.5t20.5 -49.5v-98q0 -34 -21.5 -56t-55.5 -22h-99v-252
q0 -110 -51.5 -163t-146.5 -53t-146.5 53t-51.5 163v498h84z" />
    <glyph glyph-name="uni1EEC" unicode="&#x1eec;" 
d="M210 750l-20 92v6h76q7 -14 25 -14q14 0 24.5 10t10.5 28q0 22 -12.5 32t-27.5 10q-22 0 -33.5 -12.5t-14.5 -27.5l-48 18q8 30 31 50t66 20q39 0 66 -24.5t27 -66.5q0 -35 -20.5 -60t-55.5 -25q-41 0 -54 32h-6l15 -68h-49zM124 700v-494q0 -77 29 -110.5t85 -33.5
t85 33.5t29 110.5v494h84v-192h95q27 0 27 30v25q-8 -3 -17 -3q-28 0 -48.5 20.5t-20.5 49.5t20.5 49.5t49.5 20.5t49.5 -20.5t20.5 -49.5v-98q0 -34 -21.5 -56t-55.5 -22h-99v-252q0 -110 -51.5 -163t-146.5 -53t-146.5 53t-51.5 163v498h84z" />
    <glyph glyph-name="uni1EEE" unicode="&#x1eee;" 
d="M270 846q5 -10 10 -15t14 -5q10 0 19 10l48 55l49 -42l-41 -49q-14 -17 -33 -29.5t-45 -12.5q-31 0 -47.5 14t-33.5 45q-7 12 -11.5 17t-12.5 5q-11 0 -22 -12l-46 -53l-49 42l41 49q14 17 33 29.5t46 12.5q29 0 46 -14.5t35 -46.5zM124 700v-494q0 -77 29 -110.5
t85 -33.5t85 33.5t29 110.5v494h84v-192h95q27 0 27 30v25q-8 -3 -17 -3q-28 0 -48.5 20.5t-20.5 49.5t20.5 49.5t49.5 20.5t49.5 -20.5t20.5 -49.5v-98q0 -34 -21.5 -56t-55.5 -22h-99v-252q0 -110 -51.5 -163t-146.5 -53t-146.5 53t-51.5 163v498h84z" />
    <glyph glyph-name="uni1EF0" unicode="&#x1ef0;" 
d="M124 700v-494q0 -77 29 -110.5t85 -33.5t85 33.5t29 110.5v494h84v-192h95q27 0 27 30v25q-8 -3 -17 -3q-28 0 -48.5 20.5t-20.5 49.5t20.5 49.5t49.5 20.5t49.5 -20.5t20.5 -49.5v-98q0 -34 -21.5 -56t-55.5 -22h-99v-252q0 -110 -51.5 -163t-146.5 -53t-146.5 53
t-51.5 163v498h84zM169 -133q0 29 20.5 49.5t49.5 20.5t49.5 -20.5t20.5 -49.5t-20.5 -49.5t-49.5 -20.5t-49.5 20.5t-20.5 49.5z" />
    <glyph glyph-name="Wcircumflex" unicode="&#x174;" 
d="M530 0h-153l-65 664h-12l-65 -664h-153l-71 700h76l67 -664h12l63 664h154l63 -664h12l67 664h76zM364 774l-52 88h-12l-52 -88h-84l80 118h124l80 -118h-84z" />
    <glyph glyph-name="uni1E80" unicode="&#x1e80;" 
d="M530 0h-153l-65 664h-12l-65 -664h-153l-71 700h76l67 -664h12l63 664h154l63 -664h12l67 664h76zM277 892l66 -118h-72l-84 118h90z" />
    <glyph glyph-name="uni1E82" unicode="&#x1e82;" 
d="M530 0h-153l-65 664h-12l-65 -664h-153l-71 700h76l67 -664h12l63 664h154l63 -664h12l67 664h76zM426 892l-84 -118h-72l66 118h90z" />
    <glyph glyph-name="uni1E84" unicode="&#x1e84;" 
d="M530 0h-153l-65 664h-12l-65 -664h-153l-71 700h76l67 -664h12l63 664h154l63 -664h12l67 664h76zM136 848q0 29 20.5 49.5t49.5 20.5t49.5 -20.5t20.5 -49.5t-20.5 -49.5t-49.5 -20.5t-49.5 20.5t-20.5 49.5zM336 848q0 29 20.5 49.5t49.5 20.5t49.5 -20.5t20.5 -49.5
t-20.5 -49.5t-49.5 -20.5t-49.5 20.5t-20.5 49.5z" />
    <glyph glyph-name="Yacute" unicode="&#xdd;" 
d="M264 246h-18l-219 454h94l179 -382h12l179 382h94l-219 -454h-18v-246h-84v246zM426 892l-84 -118h-72l66 118h90z" />
    <glyph glyph-name="uni1EF2" unicode="&#x1ef2;" 
d="M264 246h-18l-219 454h94l179 -382h12l179 382h94l-219 -454h-18v-246h-84v246zM277 892l66 -118h-72l-84 118h90z" />
    <glyph glyph-name="Ycircumflex" unicode="&#x176;" 
d="M264 246h-18l-219 454h94l179 -382h12l179 382h94l-219 -454h-18v-246h-84v246zM364 774l-52 88h-12l-52 -88h-84l80 118h124l80 -118h-84z" />
    <glyph glyph-name="Ydieresis" unicode="&#x178;" 
d="M264 246h-18l-219 454h94l179 -382h12l179 382h94l-219 -454h-18v-246h-84v246zM136 848q0 29 20.5 49.5t49.5 20.5t49.5 -20.5t20.5 -49.5t-20.5 -49.5t-49.5 -20.5t-49.5 20.5t-20.5 49.5zM336 848q0 29 20.5 49.5t49.5 20.5t49.5 -20.5t20.5 -49.5t-20.5 -49.5
t-49.5 -20.5t-49.5 20.5t-20.5 49.5z" />
    <glyph glyph-name="uni1E8E" unicode="&#x1e8e;" 
d="M264 246h-18l-219 454h94l179 -382h12l179 382h94l-219 -454h-18v-246h-84v246zM236 844q0 29 20.5 49.5t49.5 20.5t49.5 -20.5t20.5 -49.5t-20.5 -49.5t-49.5 -20.5t-49.5 20.5t-20.5 49.5z" />
    <glyph glyph-name="uni1EF4" unicode="&#x1ef4;" 
d="M264 246h-18l-219 454h94l179 -382h12l179 382h94l-219 -454h-18v-246h-84v246zM236 -133q0 29 20.5 49.5t49.5 20.5t49.5 -20.5t20.5 -49.5t-20.5 -49.5t-49.5 -20.5t-49.5 20.5t-20.5 49.5z" />
    <glyph glyph-name="uni1EF6" unicode="&#x1ef6;" 
d="M278 750l-20 92v6h76q7 -14 25 -14q14 0 24.5 10t10.5 28q0 22 -12.5 32t-27.5 10q-22 0 -33.5 -12.5t-14.5 -27.5l-48 18q8 30 31 50t66 20q39 0 66 -24.5t27 -66.5q0 -35 -20.5 -60t-55.5 -25q-41 0 -54 32h-6l15 -68h-49zM264 246h-18l-219 454h94l179 -382h12
l179 382h94l-219 -454h-18v-246h-84v246z" />
    <glyph glyph-name="uni1EF8" unicode="&#x1ef8;" 
d="M264 246h-18l-219 454h94l179 -382h12l179 382h94l-219 -454h-18v-246h-84v246zM337 846q5 -10 10 -15t14 -5q10 0 19 10l48 55l49 -42l-41 -49q-14 -17 -33 -29.5t-45 -12.5q-31 0 -47.5 14t-33.5 45q-7 12 -11.5 17t-12.5 5q-11 0 -22 -12l-46 -53l-49 42l41 49
q14 17 33 29.5t46 12.5q29 0 46 -14.5t35 -46.5z" />
    <glyph glyph-name="Zacute" unicode="&#x179;" 
d="M77 700h468v-126l-420 -484v-12h432v-78h-504v126l420 484v12h-396v78zM423 892l-84 -118h-72l66 118h90z" />
    <glyph glyph-name="Zcaron" unicode="&#x17d;" 
d="M77 700h468v-126l-420 -484v-12h432v-78h-504v126l420 484v12h-396v78zM459 892l-80 -118h-124l-80 118h84l52 -88h12l52 88h84z" />
    <glyph glyph-name="Zdotaccent" unicode="&#x17b;" 
d="M77 700h468v-126l-420 -484v-12h432v-78h-504v126l420 484v12h-396v78zM248 848q0 29 20.5 49.5t49.5 20.5t49.5 -20.5t20.5 -49.5t-20.5 -49.5t-49.5 -20.5t-49.5 20.5t-20.5 49.5z" />
    <glyph glyph-name="uni1E92" unicode="&#x1e92;" 
d="M77 700h468v-126l-420 -484v-12h432v-78h-504v126l420 484v12h-396v78zM236 -133q0 29 20.5 49.5t49.5 20.5t49.5 -20.5t20.5 -49.5t-20.5 -49.5t-49.5 -20.5t-49.5 20.5t-20.5 49.5z" />
    <glyph glyph-name="Thorn" unicode="&#xde;" 
d="M169 150v-150h-84v700h84v-138h166q54 0 94 -15.5t66.5 -41.5t40 -60.5t13.5 -72.5v-30q0 -38 -13.5 -73t-40.5 -61.5t-67 -42t-93 -15.5h-166zM169 228h156q140 0 140 120v18q0 53 -34.5 85.5t-105.5 32.5h-156v-256z" />
    <glyph glyph-name="uni018F" unicode="&#x18f;" 
d="M60 362h408v60q0 48 -10 87.5t-30.5 68t-51 44.5t-70.5 16q-43 0 -73.5 -15t-50 -39.5t-28.5 -57t-10 -66.5v-12h-84v12q0 53 16 99.5t47 81t77 54t106 19.5q116 0 181 -75t65 -211v-156q0 -140 -65 -213t-181 -73q-60 0 -106 19.5t-77 54t-47 81t-16 99.5v122zM306 62
q81 0 121.5 56.5t40.5 159.5v6h-324v-44q0 -35 9.5 -67t29 -56.5t50 -39.5t73.5 -15z" />
    <glyph glyph-name="Eng" unicode="&#x14a;" 
d="M443 36h12v664h84v-780q0 -59 -30.5 -89.5t-89.5 -30.5h-178v78h160q30 0 42 14t12 40v68h-84l-202 664h-12v-664h-84v700h168z" />
    <glyph glyph-name="IJ" unicode="&#x132;" 
d="M73 700h84v-358h-84v358zM505 210q0 -109 -53.5 -166.5t-156.5 -57.5t-162.5 57.5t-59.5 166.5v54h84v-54q0 -66 34 -106t104 -40t98 40t28 106v412h-72v78h216v-78h-60v-412z" />
    <glyph glyph-name="IJacute" 
d="M73 700h84v-358h-84v358zM505 210q0 -109 -53.5 -166.5t-156.5 -57.5t-162.5 57.5t-59.5 166.5v54h84v-54q0 -66 34 -106t104 -40t98 40t28 106v412h-72v78h216v-78h-60v-412zM235 892l-84 -118h-72l66 118h90zM583 892l-84 -118h-72l66 118h90z" />
    <glyph glyph-name="agrave" unicode="&#xe0;" 
d="M447 84h-12q-24 -50 -66.5 -74t-89.5 -24q-49 0 -91 16.5t-73.5 49t-49.5 79.5t-18 109v16q0 61 18 108t49.5 79.5t73.5 49.5t89 17q51 0 92.5 -22.5t65.5 -69.5h12v78h78v-394q0 -30 27 -30h25v-72h-53q-34 0 -55.5 22t-21.5 56v6zM287 60q35 0 64.5 13t50.5 37t33 57.5
t12 74.5v12q0 40 -12 73.5t-33.5 57.5t-51 37.5t-63.5 13.5q-35 0 -64 -13t-50.5 -36.5t-33.5 -57t-12 -73.5v-16q0 -85 44.5 -132.5t115.5 -47.5zM247 688l66 -118h-72l-84 118h90z" />
    <glyph glyph-name="aacute" unicode="&#xe1;" 
d="M447 84h-12q-24 -50 -66.5 -74t-89.5 -24q-49 0 -91 16.5t-73.5 49t-49.5 79.5t-18 109v16q0 61 18 108t49.5 79.5t73.5 49.5t89 17q51 0 92.5 -22.5t65.5 -69.5h12v78h78v-394q0 -30 27 -30h25v-72h-53q-34 0 -55.5 22t-21.5 56v6zM287 60q35 0 64.5 13t50.5 37t33 57.5
t12 74.5v12q0 40 -12 73.5t-33.5 57.5t-51 37.5t-63.5 13.5q-35 0 -64 -13t-50.5 -36.5t-33.5 -57t-12 -73.5v-16q0 -85 44.5 -132.5t115.5 -47.5zM394 688l-84 -118h-72l66 118h90z" />
    <glyph glyph-name="acircumflex" unicode="&#xe2;" 
d="M447 84h-12q-24 -50 -66.5 -74t-89.5 -24q-49 0 -91 16.5t-73.5 49t-49.5 79.5t-18 109v16q0 61 18 108t49.5 79.5t73.5 49.5t89 17q51 0 92.5 -22.5t65.5 -69.5h12v78h78v-394q0 -30 27 -30h25v-72h-53q-34 0 -55.5 22t-21.5 56v6zM287 60q35 0 64.5 13t50.5 37t33 57.5
t12 74.5v12q0 40 -12 73.5t-33.5 57.5t-51 37.5t-63.5 13.5q-35 0 -64 -13t-50.5 -36.5t-33.5 -57t-12 -73.5v-16q0 -85 44.5 -132.5t115.5 -47.5zM336 570l-52 88h-12l-52 -88h-84l80 118h124l80 -118h-84z" />
    <glyph glyph-name="atilde" unicode="&#xe3;" 
d="M447 84h-12q-24 -50 -66.5 -74t-89.5 -24q-49 0 -91 16.5t-73.5 49t-49.5 79.5t-18 109v16q0 61 18 108t49.5 79.5t73.5 49.5t89 17q51 0 92.5 -22.5t65.5 -69.5h12v78h78v-394q0 -30 27 -30h25v-72h-53q-34 0 -55.5 22t-21.5 56v6zM287 60q35 0 64.5 13t50.5 37t33 57.5
t12 74.5v12q0 40 -12 73.5t-33.5 57.5t-51 37.5t-63.5 13.5q-35 0 -64 -13t-50.5 -36.5t-33.5 -57t-12 -73.5v-16q0 -85 44.5 -132.5t115.5 -47.5zM333 642q5 -10 10 -15t14 -5q10 0 19 10l48 55l49 -42l-41 -49q-14 -17 -33 -29.5t-45 -12.5q-31 0 -47.5 14t-33.5 45
q-7 12 -11.5 17t-12.5 5q-11 0 -22 -12l-46 -53l-49 42l41 49q14 17 33 29.5t46 12.5q29 0 46 -14.5t35 -46.5z" />
    <glyph glyph-name="adieresis" unicode="&#xe4;" 
d="M447 84h-12q-24 -50 -66.5 -74t-89.5 -24q-49 0 -91 16.5t-73.5 49t-49.5 79.5t-18 109v16q0 61 18 108t49.5 79.5t73.5 49.5t89 17q51 0 92.5 -22.5t65.5 -69.5h12v78h78v-394q0 -30 27 -30h25v-72h-53q-34 0 -55.5 22t-21.5 56v6zM287 60q35 0 64.5 13t50.5 37t33 57.5
t12 74.5v12q0 40 -12 73.5t-33.5 57.5t-51 37.5t-63.5 13.5q-35 0 -64 -13t-50.5 -36.5t-33.5 -57t-12 -73.5v-16q0 -85 44.5 -132.5t115.5 -47.5zM113 644q0 29 20.5 49.5t49.5 20.5t49.5 -20.5t20.5 -49.5t-20.5 -49.5t-49.5 -20.5t-49.5 20.5t-20.5 49.5zM313 644
q0 29 20.5 49.5t49.5 20.5t49.5 -20.5t20.5 -49.5t-20.5 -49.5t-49.5 -20.5t-49.5 20.5t-20.5 49.5z" />
    <glyph glyph-name="amacron" unicode="&#x101;" 
d="M447 84h-12q-24 -50 -66.5 -74t-89.5 -24q-49 0 -91 16.5t-73.5 49t-49.5 79.5t-18 109v16q0 61 18 108t49.5 79.5t73.5 49.5t89 17q51 0 92.5 -22.5t65.5 -69.5h12v78h78v-394q0 -30 27 -30h25v-72h-53q-34 0 -55.5 22t-21.5 56v6zM287 60q35 0 64.5 13t50.5 37t33 57.5
t12 74.5v12q0 40 -12 73.5t-33.5 57.5t-51 37.5t-63.5 13.5q-35 0 -64 -13t-50.5 -36.5t-33.5 -57t-12 -73.5v-16q0 -85 44.5 -132.5t115.5 -47.5zM419 570h-282v66h282v-66z" />
    <glyph glyph-name="abreve" unicode="&#x103;" 
d="M447 84h-12q-24 -50 -66.5 -74t-89.5 -24q-49 0 -91 16.5t-73.5 49t-49.5 79.5t-18 109v16q0 61 18 108t49.5 79.5t73.5 49.5t89 17q51 0 92.5 -22.5t65.5 -69.5h12v78h78v-394q0 -30 27 -30h25v-72h-53q-34 0 -55.5 22t-21.5 56v6zM287 60q35 0 64.5 13t50.5 37t33 57.5
t12 74.5v12q0 40 -12 73.5t-33.5 57.5t-51 37.5t-63.5 13.5q-35 0 -64 -13t-50.5 -36.5t-33.5 -57t-12 -73.5v-16q0 -85 44.5 -132.5t115.5 -47.5zM386 688v-10q0 -48 -29 -78t-79 -30t-79 30t-29 78v10h69v-12q0 -16 10 -27.5t29 -11.5t29 11.5t10 27.5v12h69z" />
    <glyph glyph-name="aring" unicode="&#xe5;" 
d="M447 84h-12q-24 -50 -66.5 -74t-89.5 -24q-49 0 -91 16.5t-73.5 49t-49.5 79.5t-18 109v16q0 61 18 108t49.5 79.5t73.5 49.5t89 17q51 0 92.5 -22.5t65.5 -69.5h12v78h78v-394q0 -30 27 -30h25v-72h-53q-34 0 -55.5 22t-21.5 56v6zM287 60q35 0 64.5 13t50.5 37t33 57.5
t12 74.5v12q0 40 -12 73.5t-33.5 57.5t-51 37.5t-63.5 13.5q-35 0 -64 -13t-50.5 -36.5t-33.5 -57t-12 -73.5v-16q0 -85 44.5 -132.5t115.5 -47.5zM176 672q0 43 29.5 72.5t72.5 29.5t72.5 -29.5t29.5 -72.5t-29.5 -72.5t-72.5 -29.5t-72.5 29.5t-29.5 72.5zM236 672
q0 -18 12 -30t30 -12t30 12t12 30t-12 30t-30 12t-30 -12t-12 -30z" />
    <glyph glyph-name="uni01CE" unicode="&#x1ce;" 
d="M447 84h-12q-24 -50 -66.5 -74t-89.5 -24q-49 0 -91 16.5t-73.5 49t-49.5 79.5t-18 109v16q0 61 18 108t49.5 79.5t73.5 49.5t89 17q51 0 92.5 -22.5t65.5 -69.5h12v78h78v-394q0 -30 27 -30h25v-72h-53q-34 0 -55.5 22t-21.5 56v6zM287 60q35 0 64.5 13t50.5 37t33 57.5
t12 74.5v12q0 40 -12 73.5t-33.5 57.5t-51 37.5t-63.5 13.5q-35 0 -64 -13t-50.5 -36.5t-33.5 -57t-12 -73.5v-16q0 -85 44.5 -132.5t115.5 -47.5zM420 688l-80 -118h-124l-80 118h84l52 -88h12l52 88h84z" />
    <glyph glyph-name="aogonek" unicode="&#x105;" 
d="M447 84h-12q-24 -50 -66.5 -74t-89.5 -24q-49 0 -91 16.5t-73.5 49t-49.5 79.5t-18 109v16q0 61 18 108t49.5 79.5t73.5 49.5t89 17q51 0 92.5 -22.5t65.5 -69.5h12v78h78v-394q0 -30 27 -30h25v-72h-48l-16 -68q-1 -5 -1 -8q0 -22 23 -22h42v-66h-56q-29 0 -53.5 18.5
t-24.5 55.5q0 9 3 24l20 91q-19 21 -19 53v6zM287 60q35 0 64.5 13t50.5 37t33 57.5t12 74.5v12q0 40 -12 73.5t-33.5 57.5t-51 37.5t-63.5 13.5q-35 0 -64 -13t-50.5 -36.5t-33.5 -57t-12 -73.5v-16q0 -85 44.5 -132.5t115.5 -47.5z" />
    <glyph glyph-name="uni1EA1" unicode="&#x1ea1;" 
d="M447 84h-12q-24 -50 -66.5 -74t-89.5 -24q-49 0 -91 16.5t-73.5 49t-49.5 79.5t-18 109v16q0 61 18 108t49.5 79.5t73.5 49.5t89 17q51 0 92.5 -22.5t65.5 -69.5h12v78h78v-394q0 -30 27 -30h25v-72h-53q-34 0 -55.5 22t-21.5 56v6zM287 60q35 0 64.5 13t50.5 37t33 57.5
t12 74.5v12q0 40 -12 73.5t-33.5 57.5t-51 37.5t-63.5 13.5q-35 0 -64 -13t-50.5 -36.5t-33.5 -57t-12 -73.5v-16q0 -85 44.5 -132.5t115.5 -47.5zM210 -133q0 29 20.5 49.5t49.5 20.5t49.5 -20.5t20.5 -49.5t-20.5 -49.5t-49.5 -20.5t-49.5 20.5t-20.5 49.5z" />
    <glyph glyph-name="uni1EA3" unicode="&#x1ea3;" 
d="M243 546l-20 92v6h76q7 -14 25 -14q14 0 24.5 10t10.5 28q0 22 -12.5 32t-27.5 10q-22 0 -33.5 -12.5t-14.5 -27.5l-48 18q8 30 31 50t66 20q39 0 66 -24.5t27 -66.5q0 -35 -20.5 -60t-55.5 -25q-41 0 -54 32h-6l15 -68h-49zM447 84h-12q-24 -50 -66.5 -74t-89.5 -24
q-49 0 -91 16.5t-73.5 49t-49.5 79.5t-18 109v16q0 61 18 108t49.5 79.5t73.5 49.5t89 17q51 0 92.5 -22.5t65.5 -69.5h12v78h78v-394q0 -30 27 -30h25v-72h-53q-34 0 -55.5 22t-21.5 56v6zM287 60q35 0 64.5 13t50.5 37t33 57.5t12 74.5v12q0 40 -12 73.5t-33.5 57.5
t-51 37.5t-63.5 13.5q-35 0 -64 -13t-50.5 -36.5t-33.5 -57t-12 -73.5v-16q0 -85 44.5 -132.5t115.5 -47.5z" />
    <glyph glyph-name="uni1EA5" unicode="&#x1ea5;" 
d="M447 84h-12q-24 -50 -66.5 -74t-89.5 -24q-49 0 -91 16.5t-73.5 49t-49.5 79.5t-18 109v16q0 61 18 108t49.5 79.5t73.5 49.5t89 17q51 0 92.5 -22.5t65.5 -69.5h12v78h78v-394q0 -30 27 -30h25v-72h-53q-34 0 -55.5 22t-21.5 56v6zM287 60q35 0 64.5 13t50.5 37t33 57.5
t12 74.5v12q0 40 -12 73.5t-33.5 57.5t-51 37.5t-63.5 13.5q-35 0 -64 -13t-50.5 -36.5t-33.5 -57t-12 -73.5v-16q0 -85 44.5 -132.5t115.5 -47.5zM336 570l-52 88h-12l-52 -88h-84l80 118h124l80 -118h-84zM551 776l-84 -118h-72l66 118h90z" />
    <glyph glyph-name="uni1EA7" unicode="&#x1ea7;" 
d="M447 84h-12q-24 -50 -66.5 -74t-89.5 -24q-49 0 -91 16.5t-73.5 49t-49.5 79.5t-18 109v16q0 61 18 108t49.5 79.5t73.5 49.5t89 17q51 0 92.5 -22.5t65.5 -69.5h12v78h78v-394q0 -30 27 -30h25v-72h-53q-34 0 -55.5 22t-21.5 56v6zM287 60q35 0 64.5 13t50.5 37t33 57.5
t12 74.5v12q0 40 -12 73.5t-33.5 57.5t-51 37.5t-63.5 13.5q-35 0 -64 -13t-50.5 -36.5t-33.5 -57t-12 -73.5v-16q0 -85 44.5 -132.5t115.5 -47.5zM336 570l-52 88h-12l-52 -88h-84l80 118h124l80 -118h-84zM94 776l66 -118h-72l-84 118h90z" />
    <glyph glyph-name="uni1EA9" unicode="&#x1ea9;" 
d="M396 658l-20 92v6h76q7 -14 25 -14q14 0 24.5 10t10.5 28q0 22 -12.5 32t-27.5 10q-22 0 -33.5 -12.5t-14.5 -27.5l-48 18q8 30 31 50t66 20q39 0 66 -24.5t27 -66.5q0 -35 -20.5 -60t-55.5 -25q-41 0 -54 32h-6l15 -68h-49zM447 84h-12q-24 -50 -66.5 -74t-89.5 -24
q-49 0 -91 16.5t-73.5 49t-49.5 79.5t-18 109v16q0 61 18 108t49.5 79.5t73.5 49.5t89 17q51 0 92.5 -22.5t65.5 -69.5h12v78h78v-394q0 -30 27 -30h25v-72h-53q-34 0 -55.5 22t-21.5 56v6zM287 60q35 0 64.5 13t50.5 37t33 57.5t12 74.5v12q0 40 -12 73.5t-33.5 57.5
t-51 37.5t-63.5 13.5q-35 0 -64 -13t-50.5 -36.5t-33.5 -57t-12 -73.5v-16q0 -85 44.5 -132.5t115.5 -47.5zM335 570l-52 88h-12l-52 -88h-84l80 118h124l80 -118h-84z" />
    <glyph glyph-name="uni1EAB" unicode="&#x1eab;" 
d="M447 84h-12q-24 -50 -66.5 -74t-89.5 -24q-49 0 -91 16.5t-73.5 49t-49.5 79.5t-18 109v16q0 61 18 108t49.5 79.5t73.5 49.5t89 17q51 0 92.5 -22.5t65.5 -69.5h12v78h78v-394q0 -30 27 -30h25v-72h-53q-34 0 -55.5 22t-21.5 56v6zM287 60q35 0 64.5 13t50.5 37t33 57.5
t12 74.5v12q0 40 -12 73.5t-33.5 57.5t-51 37.5t-63.5 13.5q-35 0 -64 -13t-50.5 -36.5t-33.5 -57t-12 -73.5v-16q0 -85 44.5 -132.5t115.5 -47.5zM336 570l-52 88h-12l-52 -88h-84l80 118h124l80 -118h-84zM309 806q5 -10 10 -15t14 -5q10 0 19 10l48 55l49 -42l-41 -49
q-14 -17 -33 -29.5t-45 -12.5q-31 0 -47.5 14t-33.5 45q-7 12 -11.5 17t-12.5 5q-11 0 -22 -12l-46 -53l-49 42l41 49q14 17 33 29.5t46 12.5q29 0 46 -14.5t35 -46.5z" />
    <glyph glyph-name="uni1EAD" unicode="&#x1ead;" 
d="M447 84h-12q-24 -50 -66.5 -74t-89.5 -24q-49 0 -91 16.5t-73.5 49t-49.5 79.5t-18 109v16q0 61 18 108t49.5 79.5t73.5 49.5t89 17q51 0 92.5 -22.5t65.5 -69.5h12v78h78v-394q0 -30 27 -30h25v-72h-53q-34 0 -55.5 22t-21.5 56v6zM287 60q35 0 64.5 13t50.5 37t33 57.5
t12 74.5v12q0 40 -12 73.5t-33.5 57.5t-51 37.5t-63.5 13.5q-35 0 -64 -13t-50.5 -36.5t-33.5 -57t-12 -73.5v-16q0 -85 44.5 -132.5t115.5 -47.5zM336 570l-52 88h-12l-52 -88h-84l80 118h124l80 -118h-84zM210 -133q0 29 20.5 49.5t49.5 20.5t49.5 -20.5t20.5 -49.5
t-20.5 -49.5t-49.5 -20.5t-49.5 20.5t-20.5 49.5z" />
    <glyph glyph-name="uni1EAF" unicode="&#x1eaf;" 
d="M447 84h-12q-24 -50 -66.5 -74t-89.5 -24q-49 0 -91 16.5t-73.5 49t-49.5 79.5t-18 109v16q0 61 18 108t49.5 79.5t73.5 49.5t89 17q51 0 92.5 -22.5t65.5 -69.5h12v78h78v-394q0 -30 27 -30h25v-72h-53q-34 0 -55.5 22t-21.5 56v6zM287 60q35 0 64.5 13t50.5 37t33 57.5
t12 74.5v12q0 40 -12 73.5t-33.5 57.5t-51 37.5t-63.5 13.5q-35 0 -64 -13t-50.5 -36.5t-33.5 -57t-12 -73.5v-16q0 -85 44.5 -132.5t115.5 -47.5zM386 688v-10q0 -48 -29 -78t-79 -30t-79 30t-29 78v10h69v-12q0 -16 10 -27.5t29 -11.5t29 11.5t10 27.5v12h69zM397 836
l-84 -118h-72l66 118h90z" />
    <glyph glyph-name="uni1EB1" unicode="&#x1eb1;" 
d="M447 84h-12q-24 -50 -66.5 -74t-89.5 -24q-49 0 -91 16.5t-73.5 49t-49.5 79.5t-18 109v16q0 61 18 108t49.5 79.5t73.5 49.5t89 17q51 0 92.5 -22.5t65.5 -69.5h12v78h78v-394q0 -30 27 -30h25v-72h-53q-34 0 -55.5 22t-21.5 56v6zM287 60q35 0 64.5 13t50.5 37t33 57.5
t12 74.5v12q0 40 -12 73.5t-33.5 57.5t-51 37.5t-63.5 13.5q-35 0 -64 -13t-50.5 -36.5t-33.5 -57t-12 -73.5v-16q0 -85 44.5 -132.5t115.5 -47.5zM386 688v-10q0 -48 -29 -78t-79 -30t-79 30t-29 78v10h69v-12q0 -16 10 -27.5t29 -11.5t29 11.5t10 27.5v12h69zM248 836
l66 -118h-72l-84 118h90z" />
    <glyph glyph-name="uni1EB3" unicode="&#x1eb3;" 
d="M252 718l-20 92v6h76q7 -14 25 -14q14 0 24.5 10t10.5 28q0 22 -12.5 32t-27.5 10q-22 0 -33.5 -12.5t-14.5 -27.5l-48 18q8 30 31 50t66 20q39 0 66 -24.5t27 -66.5q0 -35 -20.5 -60t-55.5 -25q-41 0 -54 32h-6l15 -68h-49zM447 84h-12q-24 -50 -66.5 -74t-89.5 -24
q-49 0 -91 16.5t-73.5 49t-49.5 79.5t-18 109v16q0 61 18 108t49.5 79.5t73.5 49.5t89 17q51 0 92.5 -22.5t65.5 -69.5h12v78h78v-394q0 -30 27 -30h25v-72h-53q-34 0 -55.5 22t-21.5 56v6zM287 60q35 0 64.5 13t50.5 37t33 57.5t12 74.5v12q0 40 -12 73.5t-33.5 57.5
t-51 37.5t-63.5 13.5q-35 0 -64 -13t-50.5 -36.5t-33.5 -57t-12 -73.5v-16q0 -85 44.5 -132.5t115.5 -47.5zM385 688v-10q0 -48 -29 -78t-79 -30t-79 30t-29 78v10h69v-12q0 -16 10 -27.5t29 -11.5t29 11.5t10 27.5v12h69z" />
    <glyph glyph-name="uni1EB5" unicode="&#x1eb5;" 
d="M447 84h-12q-24 -50 -66.5 -74t-89.5 -24q-49 0 -91 16.5t-73.5 49t-49.5 79.5t-18 109v16q0 61 18 108t49.5 79.5t73.5 49.5t89 17q51 0 92.5 -22.5t65.5 -69.5h12v78h78v-394q0 -30 27 -30h25v-72h-53q-34 0 -55.5 22t-21.5 56v6zM287 60q35 0 64.5 13t50.5 37t33 57.5
t12 74.5v12q0 40 -12 73.5t-33.5 57.5t-51 37.5t-63.5 13.5q-35 0 -64 -13t-50.5 -36.5t-33.5 -57t-12 -73.5v-16q0 -85 44.5 -132.5t115.5 -47.5zM386 688v-10q0 -48 -29 -78t-79 -30t-79 30t-29 78v10h69v-12q0 -16 10 -27.5t29 -11.5t29 11.5t10 27.5v12h69zM309 806
q5 -10 10 -15t14 -5q10 0 19 10l48 55l49 -42l-41 -49q-14 -17 -33 -29.5t-45 -12.5q-31 0 -47.5 14t-33.5 45q-7 12 -11.5 17t-12.5 5q-11 0 -22 -12l-46 -53l-49 42l41 49q14 17 33 29.5t46 12.5q29 0 46 -14.5t35 -46.5z" />
    <glyph glyph-name="uni1EB7" unicode="&#x1eb7;" 
d="M447 84h-12q-24 -50 -66.5 -74t-89.5 -24q-49 0 -91 16.5t-73.5 49t-49.5 79.5t-18 109v16q0 61 18 108t49.5 79.5t73.5 49.5t89 17q51 0 92.5 -22.5t65.5 -69.5h12v78h78v-394q0 -30 27 -30h25v-72h-53q-34 0 -55.5 22t-21.5 56v6zM287 60q35 0 64.5 13t50.5 37t33 57.5
t12 74.5v12q0 40 -12 73.5t-33.5 57.5t-51 37.5t-63.5 13.5q-35 0 -64 -13t-50.5 -36.5t-33.5 -57t-12 -73.5v-16q0 -85 44.5 -132.5t115.5 -47.5zM386 688v-10q0 -48 -29 -78t-79 -30t-79 30t-29 78v10h69v-12q0 -16 10 -27.5t29 -11.5t29 11.5t10 27.5v12h69zM208 -133
q0 29 20.5 49.5t49.5 20.5t49.5 -20.5t20.5 -49.5t-20.5 -49.5t-49.5 -20.5t-49.5 20.5t-20.5 49.5z" />
    <glyph glyph-name="ae" unicode="&#xe6;" 
d="M306 510q61 0 105.5 -22.5t73 -55.5t42 -72t13.5 -72v-64h-199v-162q53 8 80 35.5t39 64.5l74 -20q-21 -69 -77 -112.5t-151 -43.5h-60q-41 0 -73.5 11.5t-55 31.5t-34 47t-11.5 58v12q0 35 13.5 63t37 47.5t55.5 29.5t70 10h15v141q-44 -5 -70.5 -32t-34.5 -75l-74 18
q6 33 21 62t40 51.5t59.5 35.5t78.5 13h23zM149 140q0 -37 27 -59.5t77 -22.5h10v166h-6q-51 0 -79.5 -20t-28.5 -64zM462 296q-3 55 -38 90.5t-83 45.5v-136h121z" />
    <glyph glyph-name="uni0180" unicode="&#x180;" 
d="M9 634h60v66h78v-66h178v-72h-178v-144h12q26 45 72 68.5t100 23.5q46 0 87 -17t72.5 -49t50 -79t18.5 -107v-20q0 -61 -18 -108t-49.5 -79t-73.5 -48.5t-89 -16.5q-24 0 -49 5.5t-47.5 17t-41.5 28t-32 39.5h-12v-76h-78v562h-60v72zM313 60q36 0 66 12.5t52.5 35.5
t35 56t12.5 74v20q0 40 -12.5 72.5t-35 56t-53 36.5t-65.5 13t-65 -13.5t-52.5 -37.5t-35.5 -57.5t-13 -73.5v-12q0 -41 13 -74.5t35.5 -57.5t52.5 -37t65 -13z" />
    <glyph glyph-name="ccedilla" unicode="&#xe7;" 
d="M551 176q-8 -41 -27.5 -76t-49.5 -60.5t-70 -39.5t-89 -14h-8l-12 -54h6q13 32 54 32q35 0 55.5 -25t20.5 -60q0 -42 -27 -66.5t-66 -24.5q-43 0 -66 20t-31 50l48 18q3 -15 14.5 -27.5t33.5 -12.5q15 0 27.5 10t12.5 32q0 18 -10.5 28t-24.5 10q-18 0 -25 -14h-76v6
l18 83q-42 8 -78.5 28t-63.5 51.5t-42.5 74t-15.5 95.5v12q0 60 20.5 108t55.5 81t81.5 51t98.5 18q47 0 87 -14t70.5 -39.5t50 -60.5t26.5 -76l-78 -18q-3 26 -14.5 50.5t-31 43t-47.5 29.5t-65 11q-36 0 -67.5 -13.5t-55.5 -38t-37.5 -58.5t-13.5 -74v-12
q0 -42 13.5 -75.5t37.5 -56.5t56 -35.5t69 -12.5t64.5 11.5t47 30t31 42.5t15.5 50z" />
    <glyph glyph-name="cacute" unicode="&#x107;" 
d="M551 176q-8 -41 -27.5 -76t-49.5 -60.5t-70 -39.5t-89 -14q-52 0 -98.5 17t-81.5 49.5t-55.5 79.5t-20.5 108v12q0 60 20.5 108t55.5 81t81.5 51t98.5 18q47 0 87 -14t70.5 -39.5t50 -60.5t26.5 -76l-78 -18q-3 26 -14.5 50.5t-31 43t-47.5 29.5t-65 11
q-36 0 -67.5 -13.5t-55.5 -38t-37.5 -58.5t-13.5 -74v-12q0 -42 13.5 -75.5t37.5 -56.5t56 -35.5t69 -12.5t64.5 11.5t47 30t31 42.5t15.5 50zM437 688l-84 -118h-72l66 118h90z" />
    <glyph glyph-name="ccircumflex" unicode="&#x109;" 
d="M551 176q-8 -41 -27.5 -76t-49.5 -60.5t-70 -39.5t-89 -14q-52 0 -98.5 17t-81.5 49.5t-55.5 79.5t-20.5 108v12q0 60 20.5 108t55.5 81t81.5 51t98.5 18q47 0 87 -14t70.5 -39.5t50 -60.5t26.5 -76l-78 -18q-3 26 -14.5 50.5t-31 43t-47.5 29.5t-65 11
q-36 0 -67.5 -13.5t-55.5 -38t-37.5 -58.5t-13.5 -74v-12q0 -42 13.5 -75.5t37.5 -56.5t56 -35.5t69 -12.5t64.5 11.5t47 30t31 42.5t15.5 50zM367 570l-52 88h-12l-52 -88h-84l80 118h124l80 -118h-84z" />
    <glyph glyph-name="ccaron" unicode="&#x10d;" 
d="M551 176q-8 -41 -27.5 -76t-49.5 -60.5t-70 -39.5t-89 -14q-52 0 -98.5 17t-81.5 49.5t-55.5 79.5t-20.5 108v12q0 60 20.5 108t55.5 81t81.5 51t98.5 18q47 0 87 -14t70.5 -39.5t50 -60.5t26.5 -76l-78 -18q-3 26 -14.5 50.5t-31 43t-47.5 29.5t-65 11
q-36 0 -67.5 -13.5t-55.5 -38t-37.5 -58.5t-13.5 -74v-12q0 -42 13.5 -75.5t37.5 -56.5t56 -35.5t69 -12.5t64.5 11.5t47 30t31 42.5t15.5 50zM451 688l-80 -118h-124l-80 118h84l52 -88h12l52 88h84z" />
    <glyph glyph-name="cdotaccent" unicode="&#x10b;" 
d="M551 176q-8 -41 -27.5 -76t-49.5 -60.5t-70 -39.5t-89 -14q-52 0 -98.5 17t-81.5 49.5t-55.5 79.5t-20.5 108v12q0 60 20.5 108t55.5 81t81.5 51t98.5 18q47 0 87 -14t70.5 -39.5t50 -60.5t26.5 -76l-78 -18q-3 26 -14.5 50.5t-31 43t-47.5 29.5t-65 11
q-36 0 -67.5 -13.5t-55.5 -38t-37.5 -58.5t-13.5 -74v-12q0 -42 13.5 -75.5t37.5 -56.5t56 -35.5t69 -12.5t64.5 11.5t47 30t31 42.5t15.5 50zM239 644q0 29 20.5 49.5t49.5 20.5t49.5 -20.5t20.5 -49.5t-20.5 -49.5t-49.5 -20.5t-49.5 20.5t-20.5 49.5z" />
    <glyph glyph-name="eth" unicode="&#xf0;" 
d="M265 616q-50 18 -105 24l18 74q62 -9 120 -29l18 37l63 -29l-18 -37q51 -28 88 -69t60.5 -91t34.5 -107.5t11 -117.5q0 -72 -19.5 -125.5t-53.5 -89t-79 -53t-97 -17.5q-50 0 -95 17t-79 49.5t-54.5 80t-20.5 109.5v12q0 61 20 108.5t53.5 80.5t76 50t87.5 17
q51 0 87.5 -20t54.5 -50h12q-14 49 -45.5 85.5t-73.5 61.5l-19 -40l-64 29zM306 60q36 0 66.5 13t53.5 37.5t36 60.5t13 83q0 40 -13 73.5t-36 57.5t-54 37.5t-66 13.5t-66 -13.5t-54 -37.5t-36 -57.5t-13 -73.5v-12q0 -42 13 -75.5t36 -57.5t53.5 -36.5t66.5 -12.5z" />
    <glyph glyph-name="dcaron" unicode="&#x10f;" 
d="M340 58h-12q-11 -32 -39 -52t-79 -20q-40 0 -74 16.5t-59 48.5t-39 79.5t-14 109.5v16q0 64 14.5 111.5t40 79t59.5 47.5t72 16q47 0 75.5 -19t42.5 -49h12v258h78v-700h-78v58zM220 60q34 0 57 14t37 38t20 57.5t6 72.5v12q0 37 -5.5 70.5t-19 58t-36.5 39t-57 14.5
q-55 0 -86.5 -45.5t-31.5 -134.5v-16q0 -88 30.5 -134t85.5 -46zM454 630q0 29 20.5 49.5t49.5 20.5t49.5 -20.5t20.5 -49.5v-98q0 -34 -21.5 -56t-55.5 -22h-51v54h47q27 0 27 30v25q-8 -3 -17 -3q-28 0 -48.5 20.5t-20.5 49.5z" />
    <glyph glyph-name="uni1E0D" unicode="&#x1e0d;" 
d="M471 76h-12q-12 -23 -30.5 -40t-40 -28t-45.5 -16.5t-46 -5.5q-50 0 -93 17t-75.5 49t-51 79.5t-18.5 108.5v16q0 60 19 107.5t51 80t75 49.5t91 17q51 0 95.5 -22.5t68.5 -69.5h12v282h78v-700h-78v76zM305 60q35 0 65 13t52.5 37t35.5 57.5t13 74.5v12q0 40 -13 73.5
t-35.5 57.5t-53 37.5t-64.5 13.5q-35 0 -65.5 -13t-53 -37t-35 -57t-12.5 -73v-16q0 -42 12.5 -75t35 -56.5t52.5 -36t66 -12.5zM228 -133q0 29 20.5 49.5t49.5 20.5t49.5 -20.5t20.5 -49.5t-20.5 -49.5t-49.5 -20.5t-49.5 20.5t-20.5 49.5z" />
    <glyph glyph-name="uni1E0F" unicode="&#x1e0f;" 
d="M471 76h-12q-12 -23 -30.5 -40t-40 -28t-45.5 -16.5t-46 -5.5q-50 0 -93 17t-75.5 49t-51 79.5t-18.5 108.5v16q0 60 19 107.5t51 80t75 49.5t91 17q51 0 95.5 -22.5t68.5 -69.5h12v282h78v-700h-78v76zM305 60q35 0 65 13t52.5 37t35.5 57.5t13 74.5v12q0 40 -13 73.5
t-35.5 57.5t-53 37.5t-64.5 13.5q-35 0 -65.5 -13t-53 -37t-35 -57t-12.5 -73v-16q0 -42 12.5 -75t35 -56.5t52.5 -36t66 -12.5zM439 -129h-282v66h282v-66z" />
    <glyph glyph-name="dcroat" unicode="&#x111;" 
d="M295 634h176v66h78v-66h60v-72h-60v-562h-78v76h-12q-12 -23 -30.5 -40t-40 -28t-45.5 -16.5t-46 -5.5q-50 0 -93 17t-75.5 49t-51 79.5t-18.5 108.5v16q0 60 19 107.5t51 80t75 49.5t91 17q51 0 95.5 -22.5t68.5 -69.5h12v144h-176v72zM305 60q35 0 65 13t52.5 37
t35.5 57.5t13 74.5v12q0 40 -13 73.5t-35.5 57.5t-53 37.5t-64.5 13.5q-35 0 -65.5 -13t-53 -37t-35 -57t-12.5 -73v-16q0 -42 12.5 -75t35 -56.5t52.5 -36t66 -12.5z" />
    <glyph glyph-name="egrave" unicode="&#xe8;" 
d="M144 224q3 -74 46 -119t120 -45q35 0 61 8t44.5 22t30 32.5t18.5 39.5l74 -20q-21 -69 -77.5 -112.5t-152.5 -43.5q-53 0 -97.5 18.5t-76.5 52.5t-50 81t-18 104v24q0 52 18.5 97t51.5 77.5t77.5 51t96.5 18.5q61 0 105.5 -22.5t73 -55.5t42 -72t13.5 -72v-64h-400z
M310 436q-33 0 -61.5 -10.5t-50 -29.5t-35 -44.5t-17.5 -55.5h320q-2 32 -15.5 58t-35 44t-49 28t-56.5 10zM280 688l66 -118h-72l-84 118h90z" />
    <glyph glyph-name="eacute" unicode="&#xe9;" 
d="M144 224q3 -74 46 -119t120 -45q35 0 61 8t44.5 22t30 32.5t18.5 39.5l74 -20q-21 -69 -77.5 -112.5t-152.5 -43.5q-53 0 -97.5 18.5t-76.5 52.5t-50 81t-18 104v24q0 52 18.5 97t51.5 77.5t77.5 51t96.5 18.5q61 0 105.5 -22.5t73 -55.5t42 -72t13.5 -72v-64h-400z
M310 436q-33 0 -61.5 -10.5t-50 -29.5t-35 -44.5t-17.5 -55.5h320q-2 32 -15.5 58t-35 44t-49 28t-56.5 10zM429 688l-84 -118h-72l66 118h90z" />
    <glyph glyph-name="ecircumflex" unicode="&#xea;" 
d="M144 224q3 -74 46 -119t120 -45q35 0 61 8t44.5 22t30 32.5t18.5 39.5l74 -20q-21 -69 -77.5 -112.5t-152.5 -43.5q-53 0 -97.5 18.5t-76.5 52.5t-50 81t-18 104v24q0 52 18.5 97t51.5 77.5t77.5 51t96.5 18.5q61 0 105.5 -22.5t73 -55.5t42 -72t13.5 -72v-64h-400z
M310 436q-33 0 -61.5 -10.5t-50 -29.5t-35 -44.5t-17.5 -55.5h320q-2 32 -15.5 58t-35 44t-49 28t-56.5 10zM365 570l-52 88h-12l-52 -88h-84l80 118h124l80 -118h-84z" />
    <glyph glyph-name="ecaron" unicode="&#x11b;" 
d="M144 224q3 -74 46 -119t120 -45q35 0 61 8t44.5 22t30 32.5t18.5 39.5l74 -20q-21 -69 -77.5 -112.5t-152.5 -43.5q-53 0 -97.5 18.5t-76.5 52.5t-50 81t-18 104v24q0 52 18.5 97t51.5 77.5t77.5 51t96.5 18.5q61 0 105.5 -22.5t73 -55.5t42 -72t13.5 -72v-64h-400z
M310 436q-33 0 -61.5 -10.5t-50 -29.5t-35 -44.5t-17.5 -55.5h320q-2 32 -15.5 58t-35 44t-49 28t-56.5 10zM451 688l-80 -118h-124l-80 118h84l52 -88h12l52 88h84z" />
    <glyph glyph-name="edieresis" unicode="&#xeb;" 
d="M144 224q3 -74 46 -119t120 -45q35 0 61 8t44.5 22t30 32.5t18.5 39.5l74 -20q-21 -69 -77.5 -112.5t-152.5 -43.5q-53 0 -97.5 18.5t-76.5 52.5t-50 81t-18 104v24q0 52 18.5 97t51.5 77.5t77.5 51t96.5 18.5q61 0 105.5 -22.5t73 -55.5t42 -72t13.5 -72v-64h-400z
M310 436q-33 0 -61.5 -10.5t-50 -29.5t-35 -44.5t-17.5 -55.5h320q-2 32 -15.5 58t-35 44t-49 28t-56.5 10zM137 644q0 29 20.5 49.5t49.5 20.5t49.5 -20.5t20.5 -49.5t-20.5 -49.5t-49.5 -20.5t-49.5 20.5t-20.5 49.5zM337 644q0 29 20.5 49.5t49.5 20.5t49.5 -20.5
t20.5 -49.5t-20.5 -49.5t-49.5 -20.5t-49.5 20.5t-20.5 49.5z" />
    <glyph glyph-name="emacron" unicode="&#x113;" 
d="M144 224q3 -74 46 -119t120 -45q35 0 61 8t44.5 22t30 32.5t18.5 39.5l74 -20q-21 -69 -77.5 -112.5t-152.5 -43.5q-53 0 -97.5 18.5t-76.5 52.5t-50 81t-18 104v24q0 52 18.5 97t51.5 77.5t77.5 51t96.5 18.5q61 0 105.5 -22.5t73 -55.5t42 -72t13.5 -72v-64h-400z
M310 436q-33 0 -61.5 -10.5t-50 -29.5t-35 -44.5t-17.5 -55.5h320q-2 32 -15.5 58t-35 44t-49 28t-56.5 10zM450 570h-282v66h282v-66z" />
    <glyph glyph-name="ebreve" unicode="&#x115;" 
d="M144 224q3 -74 46 -119t120 -45q35 0 61 8t44.5 22t30 32.5t18.5 39.5l74 -20q-21 -69 -77.5 -112.5t-152.5 -43.5q-53 0 -97.5 18.5t-76.5 52.5t-50 81t-18 104v24q0 52 18.5 97t51.5 77.5t77.5 51t96.5 18.5q61 0 105.5 -22.5t73 -55.5t42 -72t13.5 -72v-64h-400z
M310 436q-33 0 -61.5 -10.5t-50 -29.5t-35 -44.5t-17.5 -55.5h320q-2 32 -15.5 58t-35 44t-49 28t-56.5 10zM417 688v-10q0 -48 -29 -78t-79 -30t-79 30t-29 78v10h69v-12q0 -16 10 -27.5t29 -11.5t29 11.5t10 27.5v12h69z" />
    <glyph glyph-name="eogonek" unicode="&#x119;" 
d="M143 224q3 -74 46 -119t120 -45q35 0 61 8t44.5 22t30 32.5t18.5 39.5l74 -20q-20 -63 -68.5 -104.5t-129.5 -49.5l-13 -56q-1 -5 -1 -8q0 -22 23 -22h42v-66h-56q-29 0 -53.5 18.5t-24.5 55.5q0 9 3 24l12 54q-46 6 -84 27t-65 54t-42 77t-15 96v24q0 52 18.5 97
t51.5 77.5t77.5 51t96.5 18.5q61 0 105.5 -22.5t73 -55.5t42 -72t13.5 -72v-64h-400zM309 436q-33 0 -61.5 -10.5t-50 -29.5t-35 -44.5t-17.5 -55.5h320q-2 32 -15.5 58t-35 44t-49 28t-56.5 10z" />
    <glyph glyph-name="edotaccent" unicode="&#x117;" 
d="M144 224q3 -74 46 -119t120 -45q35 0 61 8t44.5 22t30 32.5t18.5 39.5l74 -20q-21 -69 -77.5 -112.5t-152.5 -43.5q-53 0 -97.5 18.5t-76.5 52.5t-50 81t-18 104v24q0 52 18.5 97t51.5 77.5t77.5 51t96.5 18.5q61 0 105.5 -22.5t73 -55.5t42 -72t13.5 -72v-64h-400z
M310 436q-33 0 -61.5 -10.5t-50 -29.5t-35 -44.5t-17.5 -55.5h320q-2 32 -15.5 58t-35 44t-49 28t-56.5 10zM239 644q0 29 20.5 49.5t49.5 20.5t49.5 -20.5t20.5 -49.5t-20.5 -49.5t-49.5 -20.5t-49.5 20.5t-20.5 49.5z" />
    <glyph glyph-name="uni1EB9" unicode="&#x1eb9;" 
d="M144 224q3 -74 46 -119t120 -45q35 0 61 8t44.5 22t30 32.5t18.5 39.5l74 -20q-21 -69 -77.5 -112.5t-152.5 -43.5q-53 0 -97.5 18.5t-76.5 52.5t-50 81t-18 104v24q0 52 18.5 97t51.5 77.5t77.5 51t96.5 18.5q61 0 105.5 -22.5t73 -55.5t42 -72t13.5 -72v-64h-400z
M310 436q-33 0 -61.5 -10.5t-50 -29.5t-35 -44.5t-17.5 -55.5h320q-2 32 -15.5 58t-35 44t-49 28t-56.5 10zM237 -133q0 29 20.5 49.5t49.5 20.5t49.5 -20.5t20.5 -49.5t-20.5 -49.5t-49.5 -20.5t-49.5 20.5t-20.5 49.5z" />
    <glyph glyph-name="uni1EBB" unicode="&#x1ebb;" 
d="M260 546l-20 92v6h76q7 -14 25 -14q14 0 24.5 10t10.5 28q0 22 -12.5 32t-27.5 10q-22 0 -33.5 -12.5t-14.5 -27.5l-48 18q8 30 31 50t66 20q39 0 66 -24.5t27 -66.5q0 -35 -20.5 -60t-55.5 -25q-41 0 -54 32h-6l15 -68h-49zM143 224q3 -74 46 -119t120 -45q35 0 61 8
t44.5 22t30 32.5t18.5 39.5l74 -20q-21 -69 -77.5 -112.5t-152.5 -43.5q-53 0 -97.5 18.5t-76.5 52.5t-50 81t-18 104v24q0 52 18.5 97t51.5 77.5t77.5 51t96.5 18.5q61 0 105.5 -22.5t73 -55.5t42 -72t13.5 -72v-64h-400zM309 436q-33 0 -61.5 -10.5t-50 -29.5t-35 -44.5
t-17.5 -55.5h320q-2 32 -15.5 58t-35 44t-49 28t-56.5 10z" />
    <glyph glyph-name="uni1EBD" unicode="&#x1ebd;" 
d="M144 224q3 -74 46 -119t120 -45q35 0 61 8t44.5 22t30 32.5t18.5 39.5l74 -20q-21 -69 -77.5 -112.5t-152.5 -43.5q-53 0 -97.5 18.5t-76.5 52.5t-50 81t-18 104v24q0 52 18.5 97t51.5 77.5t77.5 51t96.5 18.5q61 0 105.5 -22.5t73 -55.5t42 -72t13.5 -72v-64h-400z
M310 436q-33 0 -61.5 -10.5t-50 -29.5t-35 -44.5t-17.5 -55.5h320q-2 32 -15.5 58t-35 44t-49 28t-56.5 10zM376 639q5 -10 10 -15t14 -5q10 0 19 10l48 55l49 -42l-41 -49q-14 -17 -33 -29.5t-45 -12.5q-31 0 -47.5 14t-33.5 45q-7 12 -11.5 17t-12.5 5q-11 0 -22 -12
l-46 -53l-49 42l41 49q14 17 33 29.5t46 12.5q29 0 46 -14.5t35 -46.5z" />
    <glyph glyph-name="uni1EBF" unicode="&#x1ebf;" 
d="M144 224q3 -74 46 -119t120 -45q35 0 61 8t44.5 22t30 32.5t18.5 39.5l74 -20q-21 -69 -77.5 -112.5t-152.5 -43.5q-53 0 -97.5 18.5t-76.5 52.5t-50 81t-18 104v24q0 52 18.5 97t51.5 77.5t77.5 51t96.5 18.5q61 0 105.5 -22.5t73 -55.5t42 -72t13.5 -72v-64h-400z
M310 436q-33 0 -61.5 -10.5t-50 -29.5t-35 -44.5t-17.5 -55.5h320q-2 32 -15.5 58t-35 44t-49 28t-56.5 10zM367 570l-52 88h-12l-52 -88h-84l80 118h124l80 -118h-84zM583 776l-84 -118h-72l66 118h90z" />
    <glyph glyph-name="uni1EC1" unicode="&#x1ec1;" 
d="M144 224q3 -74 46 -119t120 -45q35 0 61 8t44.5 22t30 32.5t18.5 39.5l74 -20q-21 -69 -77.5 -112.5t-152.5 -43.5q-53 0 -97.5 18.5t-76.5 52.5t-50 81t-18 104v24q0 52 18.5 97t51.5 77.5t77.5 51t96.5 18.5q61 0 105.5 -22.5t73 -55.5t42 -72t13.5 -72v-64h-400z
M310 436q-33 0 -61.5 -10.5t-50 -29.5t-35 -44.5t-17.5 -55.5h320q-2 32 -15.5 58t-35 44t-49 28t-56.5 10zM367 570l-52 88h-12l-52 -88h-84l80 118h124l80 -118h-84zM126 776l66 -118h-72l-84 118h90z" />
    <glyph glyph-name="uni1EC3" unicode="&#x1ec3;" 
d="M427 658l-20 92v6h76q7 -14 25 -14q14 0 24.5 10t10.5 28q0 22 -12.5 32t-27.5 10q-22 0 -33.5 -12.5t-14.5 -27.5l-48 18q8 30 31 50t66 20q39 0 66 -24.5t27 -66.5q0 -35 -20.5 -60t-55.5 -25q-41 0 -54 32h-6l15 -68h-49zM143 224q3 -74 46 -119t120 -45q35 0 61 8
t44.5 22t30 32.5t18.5 39.5l74 -20q-21 -69 -77.5 -112.5t-152.5 -43.5q-53 0 -97.5 18.5t-76.5 52.5t-50 81t-18 104v24q0 52 18.5 97t51.5 77.5t77.5 51t96.5 18.5q61 0 105.5 -22.5t73 -55.5t42 -72t13.5 -72v-64h-400zM309 436q-33 0 -61.5 -10.5t-50 -29.5t-35 -44.5
t-17.5 -55.5h320q-2 32 -15.5 58t-35 44t-49 28t-56.5 10zM367 570l-52 88h-12l-52 -88h-84l80 118h124l80 -118h-84z" />
    <glyph glyph-name="uni1EC5" unicode="&#x1ec5;" 
d="M144 224q3 -74 46 -119t120 -45q35 0 61 8t44.5 22t30 32.5t18.5 39.5l74 -20q-21 -69 -77.5 -112.5t-152.5 -43.5q-53 0 -97.5 18.5t-76.5 52.5t-50 81t-18 104v24q0 52 18.5 97t51.5 77.5t77.5 51t96.5 18.5q61 0 105.5 -22.5t73 -55.5t42 -72t13.5 -72v-64h-400z
M310 436q-33 0 -61.5 -10.5t-50 -29.5t-35 -44.5t-17.5 -55.5h320q-2 32 -15.5 58t-35 44t-49 28t-56.5 10zM367 570l-52 88h-12l-52 -88h-84l80 118h124l80 -118h-84zM340 806q5 -10 10 -15t14 -5q10 0 19 10l48 55l49 -42l-41 -49q-14 -17 -33 -29.5t-45 -12.5
q-31 0 -47.5 14t-33.5 45q-7 12 -11.5 17t-12.5 5q-11 0 -22 -12l-46 -53l-49 42l41 49q14 17 33 29.5t46 12.5q29 0 46 -14.5t35 -46.5z" />
    <glyph glyph-name="uni1EC7" unicode="&#x1ec7;" 
d="M144 224q3 -74 46 -119t120 -45q35 0 61 8t44.5 22t30 32.5t18.5 39.5l74 -20q-21 -69 -77.5 -112.5t-152.5 -43.5q-53 0 -97.5 18.5t-76.5 52.5t-50 81t-18 104v24q0 52 18.5 97t51.5 77.5t77.5 51t96.5 18.5q61 0 105.5 -22.5t73 -55.5t42 -72t13.5 -72v-64h-400z
M310 436q-33 0 -61.5 -10.5t-50 -29.5t-35 -44.5t-17.5 -55.5h320q-2 32 -15.5 58t-35 44t-49 28t-56.5 10zM367 570l-52 88h-12l-52 -88h-84l80 118h124l80 -118h-84zM237 -133q0 29 20.5 49.5t49.5 20.5t49.5 -20.5t20.5 -49.5t-20.5 -49.5t-49.5 -20.5t-49.5 20.5
t-20.5 49.5z" />
    <glyph glyph-name="gcircumflex" unicode="&#x11d;" 
d="M464 76h-12q-24 -45 -65.5 -67.5t-90.5 -22.5q-50 0 -94 17t-77.5 49t-53 79.5t-19.5 108.5v16q0 60 20 107.5t53 80t77 49.5t92 17q54 0 94.5 -23.5t63.5 -68.5h12v78h78v-618q0 -34 -21.5 -56t-55.5 -22h-323v72h295q27 0 27 30v174zM298 60q35 0 65 13t52.5 37
t35.5 57.5t13 74.5v12q0 40 -13 73.5t-35.5 57.5t-53 37.5t-64.5 13.5q-35 0 -65.5 -13t-53 -37t-35 -57t-12.5 -73v-16q0 -42 12.5 -75t35 -56.5t52.5 -36t66 -12.5zM347 570l-52 88h-12l-52 -88h-84l80 118h124l80 -118h-84z" />
    <glyph glyph-name="gbreve" unicode="&#x11f;" 
d="M464 76h-12q-24 -45 -65.5 -67.5t-90.5 -22.5q-50 0 -94 17t-77.5 49t-53 79.5t-19.5 108.5v16q0 60 20 107.5t53 80t77 49.5t92 17q54 0 94.5 -23.5t63.5 -68.5h12v78h78v-618q0 -34 -21.5 -56t-55.5 -22h-323v72h295q27 0 27 30v174zM298 60q35 0 65 13t52.5 37
t35.5 57.5t13 74.5v12q0 40 -13 73.5t-35.5 57.5t-53 37.5t-64.5 13.5q-35 0 -65.5 -13t-53 -37t-35 -57t-12.5 -73v-16q0 -42 12.5 -75t35 -56.5t52.5 -36t66 -12.5zM403 688v-10q0 -48 -29 -78t-79 -30t-79 30t-29 78v10h69v-12q0 -16 10 -27.5t29 -11.5t29 11.5t10 27.5
v12h69z" />
    <glyph glyph-name="gdotaccent" unicode="&#x121;" 
d="M464 76h-12q-24 -45 -65.5 -67.5t-90.5 -22.5q-50 0 -94 17t-77.5 49t-53 79.5t-19.5 108.5v16q0 60 20 107.5t53 80t77 49.5t92 17q54 0 94.5 -23.5t63.5 -68.5h12v78h78v-618q0 -34 -21.5 -56t-55.5 -22h-323v72h295q27 0 27 30v174zM298 60q35 0 65 13t52.5 37
t35.5 57.5t13 74.5v12q0 40 -13 73.5t-35.5 57.5t-53 37.5t-64.5 13.5q-35 0 -65.5 -13t-53 -37t-35 -57t-12.5 -73v-16q0 -42 12.5 -75t35 -56.5t52.5 -36t66 -12.5zM225 644q0 29 20.5 49.5t49.5 20.5t49.5 -20.5t20.5 -49.5t-20.5 -49.5t-49.5 -20.5t-49.5 20.5
t-20.5 49.5z" />
    <glyph glyph-name="uni0123" unicode="&#x123;" 
d="M464 76h-12q-24 -45 -65.5 -67.5t-90.5 -22.5q-50 0 -94 17t-77.5 49t-53 79.5t-19.5 108.5v16q0 60 20 107.5t53 80t77 49.5t92 17q54 0 94.5 -23.5t63.5 -68.5h12v78h78v-618q0 -34 -21.5 -56t-55.5 -22h-323v72h295q27 0 27 30v174zM298 60q35 0 65 13t52.5 37
t35.5 57.5t13 74.5v12q0 40 -13 73.5t-35.5 57.5t-53 37.5t-64.5 13.5q-35 0 -65.5 -13t-53 -37t-35 -57t-12.5 -73v-16q0 -42 12.5 -75t35 -56.5t52.5 -36t66 -12.5zM365 644q0 -29 -20.5 -49.5t-49.5 -20.5t-49.5 20.5t-20.5 49.5v98q0 34 21.5 56t55.5 22h51v-54h-47
q-27 0 -27 -30v-25q7 3 17 3q28 0 48.5 -20.5t20.5 -49.5z" />
    <glyph glyph-name="uni1E21" unicode="&#x1e21;" 
d="M464 76h-12q-24 -45 -65.5 -67.5t-90.5 -22.5q-50 0 -94 17t-77.5 49t-53 79.5t-19.5 108.5v16q0 60 20 107.5t53 80t77 49.5t92 17q54 0 94.5 -23.5t63.5 -68.5h12v78h78v-618q0 -34 -21.5 -56t-55.5 -22h-323v72h295q27 0 27 30v174zM298 60q35 0 65 13t52.5 37
t35.5 57.5t13 74.5v12q0 40 -13 73.5t-35.5 57.5t-53 37.5t-64.5 13.5q-35 0 -65.5 -13t-53 -37t-35 -57t-12.5 -73v-16q0 -42 12.5 -75t35 -56.5t52.5 -36t66 -12.5zM436 570h-282v66h282v-66z" />
    <glyph glyph-name="uni01E7" unicode="&#x1e7;" 
d="M464 76h-12q-24 -45 -65.5 -67.5t-90.5 -22.5q-50 0 -94 17t-77.5 49t-53 79.5t-19.5 108.5v16q0 60 20 107.5t53 80t77 49.5t92 17q54 0 94.5 -23.5t63.5 -68.5h12v78h78v-618q0 -34 -21.5 -56t-55.5 -22h-323v72h295q27 0 27 30v174zM298 60q35 0 65 13t52.5 37
t35.5 57.5t13 74.5v12q0 40 -13 73.5t-35.5 57.5t-53 37.5t-64.5 13.5q-35 0 -65.5 -13t-53 -37t-35 -57t-12.5 -73v-16q0 -42 12.5 -75t35 -56.5t52.5 -36t66 -12.5zM436 688l-80 -118h-124l-80 118h84l52 -88h12l52 88h84z" />
    <glyph glyph-name="hcircumflex" unicode="&#x125;" 
d="M165 0h-78v700h78v-294h12q23 48 64.5 76t101.5 28q81 0 131.5 -53.5t50.5 -160.5v-296h-78v280q0 78 -35 117t-95 39q-71 0 -111.5 -48.5t-40.5 -129.5v-258zM287 774l-52 88h-12l-52 -88h-84l80 118h124l80 -118h-84z" />
    <glyph glyph-name="uni1E25" unicode="&#x1e25;" 
d="M165 0h-78v700h78v-294h12q23 48 64.5 76t101.5 28q81 0 131.5 -53.5t50.5 -160.5v-296h-78v280q0 78 -35 117t-95 39q-71 0 -111.5 -48.5t-40.5 -129.5v-258zM236 -133q0 29 20.5 49.5t49.5 20.5t49.5 -20.5t20.5 -49.5t-20.5 -49.5t-49.5 -20.5t-49.5 20.5t-20.5 49.5z
" />
    <glyph glyph-name="uni1E2B" unicode="&#x1e2b;" 
d="M165 0h-78v700h78v-294h12q23 48 64.5 76t101.5 28q81 0 131.5 -53.5t50.5 -160.5v-296h-78v280q0 78 -35 117t-95 39q-71 0 -111.5 -48.5t-40.5 -129.5v-258zM414 -63v-10q0 -48 -29 -78t-79 -30t-79 30t-29 78v10h69v-12q0 -16 10 -27.5t29 -11.5t29 11.5t10 27.5v12
h69z" />
    <glyph glyph-name="hbar" unicode="&#x127;" 
d="M27 634h60v66h78v-66h178v-72h-178v-156h12q23 48 64.5 76t101.5 28q81 0 131.5 -53.5t50.5 -160.5v-296h-78v280q0 78 -35 117t-95 39q-71 0 -111.5 -48.5t-40.5 -129.5v-258h-78v562h-60v72z" />
    <glyph glyph-name="igrave" unicode="&#xec;" 
d="M99 72h174v352h-156v72h234v-424h162v-72h-414v72zM281 688l66 -118h-72l-84 118h90z" />
    <glyph glyph-name="iacute" unicode="&#xed;" 
d="M99 72h174v352h-156v72h234v-424h162v-72h-414v72zM434 688l-84 -118h-72l66 118h90z" />
    <glyph glyph-name="icircumflex" unicode="&#xee;" 
d="M99 72h174v352h-156v72h234v-424h162v-72h-414v72zM370 570l-52 88h-12l-52 -88h-84l80 118h124l80 -118h-84z" />
    <glyph glyph-name="itilde" unicode="&#x129;" 
d="M99 72h174v352h-156v72h234v-424h162v-72h-414v72zM299 639q5 -10 10 -15t14 -5q10 0 19 10l48 55l49 -42l-41 -49q-14 -17 -33 -29.5t-45 -12.5q-31 0 -47.5 14t-33.5 45q-7 12 -11.5 17t-12.5 5q-11 0 -22 -12l-46 -53l-49 42l41 49q14 17 33 29.5t46 12.5
q29 0 46 -14.5t35 -46.5z" />
    <glyph glyph-name="idieresis" unicode="&#xef;" 
d="M99 72h174v352h-156v72h234v-424h162v-72h-414v72zM142 644q0 29 20.5 49.5t49.5 20.5t49.5 -20.5t20.5 -49.5t-20.5 -49.5t-49.5 -20.5t-49.5 20.5t-20.5 49.5zM342 644q0 29 20.5 49.5t49.5 20.5t49.5 -20.5t20.5 -49.5t-20.5 -49.5t-49.5 -20.5t-49.5 20.5t-20.5 49.5
z" />
    <glyph glyph-name="imacron" unicode="&#x12b;" 
d="M351 570h-234v66h234v-66zM99 72h174v352h-156v72h234v-424h162v-72h-414v72z" />
    <glyph glyph-name="uni01D0" unicode="&#x1d0;" 
d="M99 72h174v352h-156v72h234v-424h162v-72h-414v72zM432 688l-80 -118h-124l-80 118h84l52 -88h12l52 88h84z" />
    <glyph glyph-name="iogonek" unicode="&#x12f;" 
d="M99 72h174v352h-156v72h234v-424h162v-72l-16 -68q-1 -5 -1 -8q0 -22 23 -22h42v-66h-56q-30 0 -54 18.5t-24 55.5q0 9 3 24l14 66h-345v72zM241 644q0 29 20.5 49.5t49.5 20.5t49.5 -20.5t20.5 -49.5t-20.5 -49.5t-49.5 -20.5t-49.5 20.5t-20.5 49.5z" />
    <glyph glyph-name="uni1EC9" unicode="&#x1ec9;" 
d="M281 546l-20 92v6h76q7 -14 25 -14q14 0 24.5 10t10.5 28q0 22 -12.5 32t-27.5 10q-22 0 -33.5 -12.5t-14.5 -27.5l-48 18q8 30 31 50t66 20q39 0 66 -24.5t27 -66.5q0 -35 -20.5 -60t-55.5 -25q-41 0 -54 32h-6l15 -68h-49zM99 72h174v352h-156v72h234v-424h162v-72
h-414v72z" />
    <glyph glyph-name="uni1ECB" unicode="&#x1ecb;" 
d="M241 644q0 29 20.5 49.5t49.5 20.5t49.5 -20.5t20.5 -49.5t-20.5 -49.5t-49.5 -20.5t-49.5 20.5t-20.5 49.5zM99 72h174v352h-156v72h234v-424h162v-72h-414v72zM241 -133q0 29 20.5 49.5t49.5 20.5t49.5 -20.5t20.5 -49.5t-20.5 -49.5t-49.5 -20.5t-49.5 20.5
t-20.5 49.5z" />
    <glyph glyph-name="ibreve" unicode="&#x12d;" 
d="M99 72h174v352h-156v72h234v-424h162v-72h-414v72zM419 688v-10q0 -48 -29 -78t-79 -30t-79 30t-29 78v10h69v-12q0 -16 10 -27.5t29 -11.5t29 11.5t10 27.5v12h69z" />
    <glyph glyph-name="dotlessi" unicode="&#x131;" 
d="M99 72h174v352h-156v72h234v-424h162v-72h-414v72z" />
    <glyph glyph-name="jcircumflex" unicode="&#x135;" 
d="M158 496h276v-618q0 -34 -21.5 -56t-55.5 -22h-223v72h195q27 0 27 30v522h-198v72zM354 570l-52 88h-12l-52 -88h-84l80 118h124l80 -118h-84z" />
    <glyph glyph-name="uni0137" unicode="&#x137;" 
d="M215 290h17l189 206h96v-6l-206 -227v-18l230 -239v-6h-96l-211 218h-19v-218h-78v700h78v-410zM256 -113q0 29 20.5 49.5t49.5 20.5t49.5 -20.5t20.5 -49.5v-98q0 -34 -21.5 -56t-55.5 -22h-51v54h47q27 0 27 30v25q-8 -3 -17 -3q-28 0 -48.5 20.5t-20.5 49.5z" />
    <glyph glyph-name="kgreenlandic" unicode="&#x138;" 
d="M215 290h17l189 206h96v-6l-206 -227v-18l230 -239v-6h-96l-211 218h-19v-218h-78v496h78v-206z" />
    <glyph glyph-name="lacute" unicode="&#x13a;" 
d="M87 72h180v556h-174v72h252v-628h180v-72h-438v72zM428 896l-84 -118h-72l66 118h90z" />
    <glyph glyph-name="lcaron" unicode="&#x13e;" 
d="M87 72h180v556h-174v72h252v-628h180v-72h-438v72zM385 631q0 29 20.5 49.5t49.5 20.5t49.5 -20.5t20.5 -49.5v-98q0 -34 -21.5 -56t-55.5 -22h-51v54h47q27 0 27 30v25q-8 -3 -17 -3q-28 0 -48.5 20.5t-20.5 49.5z" />
    <glyph glyph-name="uni013C" unicode="&#x13c;" 
d="M87 72h180v556h-174v72h252v-628h180v-72h-438v72zM236 -113q0 29 20.5 49.5t49.5 20.5t49.5 -20.5t20.5 -49.5v-98q0 -34 -21.5 -56t-55.5 -22h-51v54h47q27 0 27 30v25q-8 -3 -17 -3q-28 0 -48.5 20.5t-20.5 49.5z" />
    <glyph glyph-name="uni1E37" unicode="&#x1e37;" 
d="M87 72h180v556h-174v72h252v-628h180v-72h-438v72zM236 -133q0 29 20.5 49.5t49.5 20.5t49.5 -20.5t20.5 -49.5t-20.5 -49.5t-49.5 -20.5t-49.5 20.5t-20.5 49.5z" />
    <glyph glyph-name="uni1E39" unicode="&#x1e39;" 
d="M345 774h-252v66h252v-66zM87 72h180v556h-174v72h252v-628h180v-72h-438v72zM236 -134q0 29 20.5 49.5t49.5 20.5t49.5 -20.5t20.5 -49.5t-20.5 -49.5t-49.5 -20.5t-49.5 20.5t-20.5 49.5z" />
    <glyph glyph-name="uni1E3B" unicode="&#x1e3b;" 
d="M87 72h180v556h-174v72h252v-628h180v-72h-438v72zM447 -129h-282v66h282v-66z" />
    <glyph glyph-name="lslash" unicode="&#x142;" 
d="M87 72h180v203l-63 -32l-35 68l98 49v268h-174v72h252v-300l65 33l34 -67l-99 -51v-243h180v-72h-438v72z" />
    <glyph glyph-name="ldot" unicode="&#x140;" 
d="M87 72h180v556h-174v72h252v-628h180v-72h-438v72zM385 350q0 29 20.5 49.5t49.5 20.5t49.5 -20.5t20.5 -49.5t-20.5 -49.5t-49.5 -20.5t-49.5 20.5t-20.5 49.5z" />
    <glyph glyph-name="uni1E43" unicode="&#x1e43;" 
d="M564 0h-78v356q0 35 -16 57.5t-51 22.5q-33 0 -53.5 -24.5t-20.5 -75.5v-336h-78v360q0 33 -18 54.5t-48 21.5q-36 0 -55.5 -26t-19.5 -68v-342h-78v496h78v-54h12q13 35 38 51.5t59 16.5q36 0 59.5 -19t32.5 -49h12q34 68 108 68q56 0 86.5 -35.5t30.5 -92.5v-382z
M236 -133q0 29 20.5 49.5t49.5 20.5t49.5 -20.5t20.5 -49.5t-20.5 -49.5t-49.5 -20.5t-49.5 20.5t-20.5 49.5z" />
    <glyph glyph-name="nacute" unicode="&#x144;" 
d="M165 0h-78v496h78v-84h12q46 98 160 98q86 0 137 -53.5t51 -160.5v-296h-78v280q0 78 -35 117t-95 39q-71 0 -111.5 -48.5t-40.5 -129.5v-258zM456 688l-84 -118h-72l66 118h90z" />
    <glyph glyph-name="ncaron" unicode="&#x148;" 
d="M165 0h-78v496h78v-84h12q46 98 160 98q86 0 137 -53.5t51 -160.5v-296h-78v280q0 78 -35 117t-95 39q-71 0 -111.5 -48.5t-40.5 -129.5v-258zM473 688l-80 -118h-124l-80 118h84l52 -88h12l52 88h84z" />
    <glyph glyph-name="ntilde" unicode="&#xf1;" 
d="M165 0h-78v496h78v-84h12q46 98 160 98q86 0 137 -53.5t51 -160.5v-296h-78v280q0 78 -35 117t-95 39q-71 0 -111.5 -48.5t-40.5 -129.5v-258zM379 639q5 -10 10 -15t14 -5q10 0 19 10l48 55l49 -42l-41 -49q-14 -17 -33 -29.5t-45 -12.5q-31 0 -47.5 14t-33.5 45
q-7 12 -11.5 17t-12.5 5q-11 0 -22 -12l-46 -53l-49 42l41 49q14 17 33 29.5t46 12.5q29 0 46 -14.5t35 -46.5z" />
    <glyph glyph-name="uni0146" unicode="&#x146;" 
d="M165 0h-78v496h78v-84h12q46 98 160 98q86 0 137 -53.5t51 -160.5v-296h-78v280q0 78 -35 117t-95 39q-71 0 -111.5 -48.5t-40.5 -129.5v-258zM247 -114q0 29 20.5 49.5t49.5 20.5t49.5 -20.5t20.5 -49.5v-98q0 -34 -21.5 -56t-55.5 -22h-51v54h47q27 0 27 30v25
q-8 -3 -17 -3q-28 0 -48.5 20.5t-20.5 49.5z" />
    <glyph glyph-name="uni1E45" unicode="&#x1e45;" 
d="M165 0h-78v496h78v-84h12q46 98 160 98q86 0 137 -53.5t51 -160.5v-296h-78v280q0 78 -35 117t-95 39q-71 0 -111.5 -48.5t-40.5 -129.5v-258zM267 644q0 29 20.5 49.5t49.5 20.5t49.5 -20.5t20.5 -49.5t-20.5 -49.5t-49.5 -20.5t-49.5 20.5t-20.5 49.5z" />
    <glyph glyph-name="uni1E47" unicode="&#x1e47;" 
d="M165 0h-78v496h78v-84h12q46 98 160 98q86 0 137 -53.5t51 -160.5v-296h-78v280q0 78 -35 117t-95 39q-71 0 -111.5 -48.5t-40.5 -129.5v-258zM236 -133q0 29 20.5 49.5t49.5 20.5t49.5 -20.5t20.5 -49.5t-20.5 -49.5t-49.5 -20.5t-49.5 20.5t-20.5 49.5z" />
    <glyph glyph-name="uni1E49" unicode="&#x1e49;" 
d="M165 0h-78v496h78v-84h12q46 98 160 98q86 0 137 -53.5t51 -160.5v-296h-78v280q0 78 -35 117t-95 39q-71 0 -111.5 -48.5t-40.5 -129.5v-258zM447 -129h-282v66h282v-66z" />
    <glyph glyph-name="napostrophe" unicode="&#x149;" 
d="M75 750q0 29 20.5 49.5t49.5 20.5t49.5 -20.5t20.5 -49.5v-98q0 -34 -21.5 -56t-55.5 -22h-51v54h47q27 0 27 30v25q-8 -3 -17 -3q-28 0 -48.5 20.5t-20.5 49.5zM165 0h-78v496h78v-84h12q46 98 160 98q86 0 137 -53.5t51 -160.5v-296h-78v280q0 78 -35 117t-95 39
q-71 0 -111.5 -48.5t-40.5 -129.5v-258z" />
    <glyph glyph-name="ograve" unicode="&#xf2;" 
d="M555 242q0 -62 -20.5 -109.5t-54.5 -80t-79.5 -49.5t-94.5 -17q-50 0 -95 17t-79 49.5t-54.5 80t-20.5 109.5v12q0 61 20.5 108.5t55 80.5t79.5 50t94 17t94 -17t79.5 -50t55 -80.5t20.5 -108.5v-12zM306 60q36 0 66.5 12.5t53.5 36.5t36 57.5t13 75.5v12q0 40 -13 73.5
t-36 57.5t-54 37.5t-66 13.5t-66 -13.5t-54 -37.5t-36 -57.5t-13 -73.5v-12q0 -42 13 -75.5t36 -57.5t53.5 -36.5t66.5 -12.5zM279 688l66 -118h-72l-84 118h90z" />
    <glyph glyph-name="oacute" unicode="&#xf3;" 
d="M555 242q0 -62 -20.5 -109.5t-54.5 -80t-79.5 -49.5t-94.5 -17q-50 0 -95 17t-79 49.5t-54.5 80t-20.5 109.5v12q0 61 20.5 108.5t55 80.5t79.5 50t94 17t94 -17t79.5 -50t55 -80.5t20.5 -108.5v-12zM306 60q36 0 66.5 12.5t53.5 36.5t36 57.5t13 75.5v12q0 40 -13 73.5
t-36 57.5t-54 37.5t-66 13.5t-66 -13.5t-54 -37.5t-36 -57.5t-13 -73.5v-12q0 -42 13 -75.5t36 -57.5t53.5 -36.5t66.5 -12.5zM428 688l-84 -118h-72l66 118h90z" />
    <glyph glyph-name="ocircumflex" unicode="&#xf4;" 
d="M555 242q0 -62 -20.5 -109.5t-54.5 -80t-79.5 -49.5t-94.5 -17q-50 0 -95 17t-79 49.5t-54.5 80t-20.5 109.5v12q0 61 20.5 108.5t55 80.5t79.5 50t94 17t94 -17t79.5 -50t55 -80.5t20.5 -108.5v-12zM306 60q36 0 66.5 12.5t53.5 36.5t36 57.5t13 75.5v12q0 40 -13 73.5
t-36 57.5t-54 37.5t-66 13.5t-66 -13.5t-54 -37.5t-36 -57.5t-13 -73.5v-12q0 -42 13 -75.5t36 -57.5t53.5 -36.5t66.5 -12.5zM364 570l-52 88h-12l-52 -88h-84l80 118h124l80 -118h-84z" />
    <glyph glyph-name="otilde" unicode="&#xf5;" 
d="M555 242q0 -62 -20.5 -109.5t-54.5 -80t-79.5 -49.5t-94.5 -17q-50 0 -95 17t-79 49.5t-54.5 80t-20.5 109.5v12q0 61 20.5 108.5t55 80.5t79.5 50t94 17t94 -17t79.5 -50t55 -80.5t20.5 -108.5v-12zM306 60q36 0 66.5 12.5t53.5 36.5t36 57.5t13 75.5v12q0 40 -13 73.5
t-36 57.5t-54 37.5t-66 13.5t-66 -13.5t-54 -37.5t-36 -57.5t-13 -73.5v-12q0 -42 13 -75.5t36 -57.5t53.5 -36.5t66.5 -12.5zM337 639q5 -10 10 -15t14 -5q10 0 19 10l48 55l49 -42l-41 -49q-14 -17 -33 -29.5t-45 -12.5q-31 0 -47.5 14t-33.5 45q-7 12 -11.5 17t-12.5 5
q-11 0 -22 -12l-46 -53l-49 42l41 49q14 17 33 29.5t46 12.5q29 0 46 -14.5t35 -46.5z" />
    <glyph glyph-name="odieresis" unicode="&#xf6;" 
d="M555 242q0 -62 -20.5 -109.5t-54.5 -80t-79.5 -49.5t-94.5 -17q-50 0 -95 17t-79 49.5t-54.5 80t-20.5 109.5v12q0 61 20.5 108.5t55 80.5t79.5 50t94 17t94 -17t79.5 -50t55 -80.5t20.5 -108.5v-12zM306 60q36 0 66.5 12.5t53.5 36.5t36 57.5t13 75.5v12q0 40 -13 73.5
t-36 57.5t-54 37.5t-66 13.5t-66 -13.5t-54 -37.5t-36 -57.5t-13 -73.5v-12q0 -42 13 -75.5t36 -57.5t53.5 -36.5t66.5 -12.5zM136 644q0 29 20.5 49.5t49.5 20.5t49.5 -20.5t20.5 -49.5t-20.5 -49.5t-49.5 -20.5t-49.5 20.5t-20.5 49.5zM336 644q0 29 20.5 49.5t49.5 20.5
t49.5 -20.5t20.5 -49.5t-20.5 -49.5t-49.5 -20.5t-49.5 20.5t-20.5 49.5z" />
    <glyph glyph-name="omacron" unicode="&#x14d;" 
d="M555 242q0 -62 -20.5 -109.5t-54.5 -80t-79.5 -49.5t-94.5 -17q-50 0 -95 17t-79 49.5t-54.5 80t-20.5 109.5v12q0 61 20.5 108.5t55 80.5t79.5 50t94 17t94 -17t79.5 -50t55 -80.5t20.5 -108.5v-12zM306 60q36 0 66.5 12.5t53.5 36.5t36 57.5t13 75.5v12q0 40 -13 73.5
t-36 57.5t-54 37.5t-66 13.5t-66 -13.5t-54 -37.5t-36 -57.5t-13 -73.5v-12q0 -42 13 -75.5t36 -57.5t53.5 -36.5t66.5 -12.5zM447 570h-282v66h282v-66z" />
    <glyph glyph-name="ohungarumlaut" unicode="&#x151;" 
d="M555 242q0 -62 -20.5 -109.5t-54.5 -80t-79.5 -49.5t-94.5 -17q-50 0 -95 17t-79 49.5t-54.5 80t-20.5 109.5v12q0 61 20.5 108.5t55 80.5t79.5 50t94 17t94 -17t79.5 -50t55 -80.5t20.5 -108.5v-12zM306 60q36 0 66.5 12.5t53.5 36.5t36 57.5t13 75.5v12q0 40 -13 73.5
t-36 57.5t-54 37.5t-66 13.5t-66 -13.5t-54 -37.5t-36 -57.5t-13 -73.5v-12q0 -42 13 -75.5t36 -57.5t53.5 -36.5t66.5 -12.5zM348 688l-84 -118h-72l66 118h90zM492 688l-84 -118h-72l66 118h90z" />
    <glyph glyph-name="uni01D2" unicode="&#x1d2;" 
d="M555 242q0 -62 -20.5 -109.5t-54.5 -80t-79.5 -49.5t-94.5 -17q-50 0 -95 17t-79 49.5t-54.5 80t-20.5 109.5v12q0 61 20.5 108.5t55 80.5t79.5 50t94 17t94 -17t79.5 -50t55 -80.5t20.5 -108.5v-12zM306 60q36 0 66.5 12.5t53.5 36.5t36 57.5t13 75.5v12q0 40 -13 73.5
t-36 57.5t-54 37.5t-66 13.5t-66 -13.5t-54 -37.5t-36 -57.5t-13 -73.5v-12q0 -42 13 -75.5t36 -57.5t53.5 -36.5t66.5 -12.5zM448 688l-80 -118h-124l-80 118h84l52 -88h12l52 88h84z" />
    <glyph glyph-name="uni01EB" unicode="&#x1eb;" 
d="M555 242q0 -56 -17 -101t-46.5 -77t-69 -51.5t-83.5 -24.5l-13 -56q-1 -5 -1 -8q0 -22 23 -22h42v-66h-56q-29 0 -53.5 18.5t-24.5 55.5q0 9 3 24l12 54q-44 6 -83 25t-68 51.5t-46 77t-17 100.5v12q0 61 20.5 108.5t55 80.5t79.5 50t94 17t94 -17t79.5 -50t55 -80.5
t20.5 -108.5v-12zM306 60q36 0 66.5 12.5t53.5 36.5t36 57.5t13 75.5v12q0 40 -13 73.5t-36 57.5t-54 37.5t-66 13.5t-66 -13.5t-54 -37.5t-36 -57.5t-13 -73.5v-12q0 -42 13 -75.5t36 -57.5t53.5 -36.5t66.5 -12.5z" />
    <glyph glyph-name="uni1ECD" unicode="&#x1ecd;" 
d="M555 242q0 -62 -20.5 -109.5t-54.5 -80t-79.5 -49.5t-94.5 -17q-50 0 -95 17t-79 49.5t-54.5 80t-20.5 109.5v12q0 61 20.5 108.5t55 80.5t79.5 50t94 17t94 -17t79.5 -50t55 -80.5t20.5 -108.5v-12zM306 60q36 0 66.5 12.5t53.5 36.5t36 57.5t13 75.5v12q0 40 -13 73.5
t-36 57.5t-54 37.5t-66 13.5t-66 -13.5t-54 -37.5t-36 -57.5t-13 -73.5v-12q0 -42 13 -75.5t36 -57.5t53.5 -36.5t66.5 -12.5zM236 -133q0 29 20.5 49.5t49.5 20.5t49.5 -20.5t20.5 -49.5t-20.5 -49.5t-49.5 -20.5t-49.5 20.5t-20.5 49.5z" />
    <glyph glyph-name="uni1ECF" unicode="&#x1ecf;" 
d="M272 546l-20 92v6h76q7 -14 25 -14q14 0 24.5 10t10.5 28q0 22 -12.5 32t-27.5 10q-22 0 -33.5 -12.5t-14.5 -27.5l-48 18q8 30 31 50t66 20q39 0 66 -24.5t27 -66.5q0 -35 -20.5 -60t-55.5 -25q-41 0 -54 32h-6l15 -68h-49zM555 242q0 -62 -20.5 -109.5t-54.5 -80
t-79.5 -49.5t-94.5 -17q-50 0 -95 17t-79 49.5t-54.5 80t-20.5 109.5v12q0 61 20.5 108.5t55 80.5t79.5 50t94 17t94 -17t79.5 -50t55 -80.5t20.5 -108.5v-12zM306 60q36 0 66.5 12.5t53.5 36.5t36 57.5t13 75.5v12q0 40 -13 73.5t-36 57.5t-54 37.5t-66 13.5t-66 -13.5
t-54 -37.5t-36 -57.5t-13 -73.5v-12q0 -42 13 -75.5t36 -57.5t53.5 -36.5t66.5 -12.5z" />
    <glyph glyph-name="uni1ED1" unicode="&#x1ed1;" 
d="M555 242q0 -62 -20.5 -109.5t-54.5 -80t-79.5 -49.5t-94.5 -17q-50 0 -95 17t-79 49.5t-54.5 80t-20.5 109.5v12q0 61 20.5 108.5t55 80.5t79.5 50t94 17t94 -17t79.5 -50t55 -80.5t20.5 -108.5v-12zM306 60q36 0 66.5 12.5t53.5 36.5t36 57.5t13 75.5v12q0 40 -13 73.5
t-36 57.5t-54 37.5t-66 13.5t-66 -13.5t-54 -37.5t-36 -57.5t-13 -73.5v-12q0 -42 13 -75.5t36 -57.5t53.5 -36.5t66.5 -12.5zM364 570l-52 88h-12l-52 -88h-84l80 118h124l80 -118h-84zM580 776l-84 -118h-72l66 118h90z" />
    <glyph glyph-name="uni1ED3" unicode="&#x1ed3;" 
d="M555 242q0 -62 -20.5 -109.5t-54.5 -80t-79.5 -49.5t-94.5 -17q-50 0 -95 17t-79 49.5t-54.5 80t-20.5 109.5v12q0 61 20.5 108.5t55 80.5t79.5 50t94 17t94 -17t79.5 -50t55 -80.5t20.5 -108.5v-12zM306 60q36 0 66.5 12.5t53.5 36.5t36 57.5t13 75.5v12q0 40 -13 73.5
t-36 57.5t-54 37.5t-66 13.5t-66 -13.5t-54 -37.5t-36 -57.5t-13 -73.5v-12q0 -42 13 -75.5t36 -57.5t53.5 -36.5t66.5 -12.5zM364 570l-52 88h-12l-52 -88h-84l80 118h124l80 -118h-84zM123 776l66 -118h-72l-84 118h90z" />
    <glyph glyph-name="uni1ED5" unicode="&#x1ed5;" 
d="M424 658l-20 92v6h76q7 -14 25 -14q14 0 24.5 10t10.5 28q0 22 -12.5 32t-27.5 10q-22 0 -33.5 -12.5t-14.5 -27.5l-48 18q8 30 31 50t66 20q39 0 66 -24.5t27 -66.5q0 -35 -20.5 -60t-55.5 -25q-41 0 -54 32h-6l15 -68h-49zM555 242q0 -62 -20.5 -109.5t-54.5 -80
t-79.5 -49.5t-94.5 -17q-50 0 -95 17t-79 49.5t-54.5 80t-20.5 109.5v12q0 61 20.5 108.5t55 80.5t79.5 50t94 17t94 -17t79.5 -50t55 -80.5t20.5 -108.5v-12zM306 60q36 0 66.5 12.5t53.5 36.5t36 57.5t13 75.5v12q0 40 -13 73.5t-36 57.5t-54 37.5t-66 13.5t-66 -13.5
t-54 -37.5t-36 -57.5t-13 -73.5v-12q0 -42 13 -75.5t36 -57.5t53.5 -36.5t66.5 -12.5zM364 570l-52 88h-12l-52 -88h-84l80 118h124l80 -118h-84z" />
    <glyph glyph-name="uni1ED7" unicode="&#x1ed7;" 
d="M555 242q0 -62 -20.5 -109.5t-54.5 -80t-79.5 -49.5t-94.5 -17q-50 0 -95 17t-79 49.5t-54.5 80t-20.5 109.5v12q0 61 20.5 108.5t55 80.5t79.5 50t94 17t94 -17t79.5 -50t55 -80.5t20.5 -108.5v-12zM306 60q36 0 66.5 12.5t53.5 36.5t36 57.5t13 75.5v12q0 40 -13 73.5
t-36 57.5t-54 37.5t-66 13.5t-66 -13.5t-54 -37.5t-36 -57.5t-13 -73.5v-12q0 -42 13 -75.5t36 -57.5t53.5 -36.5t66.5 -12.5zM364 570l-52 88h-12l-52 -88h-84l80 118h124l80 -118h-84zM337 806q5 -10 10 -15t14 -5q10 0 19 10l48 55l49 -42l-41 -49q-14 -17 -33 -29.5
t-45 -12.5q-31 0 -47.5 14t-33.5 45q-7 12 -11.5 17t-12.5 5q-11 0 -22 -12l-46 -53l-49 42l41 49q14 17 33 29.5t46 12.5q29 0 46 -14.5t35 -46.5z" />
    <glyph glyph-name="uni1ED9" unicode="&#x1ed9;" 
d="M555 242q0 -62 -20.5 -109.5t-54.5 -80t-79.5 -49.5t-94.5 -17q-50 0 -95 17t-79 49.5t-54.5 80t-20.5 109.5v12q0 61 20.5 108.5t55 80.5t79.5 50t94 17t94 -17t79.5 -50t55 -80.5t20.5 -108.5v-12zM306 60q36 0 66.5 12.5t53.5 36.5t36 57.5t13 75.5v12q0 40 -13 73.5
t-36 57.5t-54 37.5t-66 13.5t-66 -13.5t-54 -37.5t-36 -57.5t-13 -73.5v-12q0 -42 13 -75.5t36 -57.5t53.5 -36.5t66.5 -12.5zM364 570l-52 88h-12l-52 -88h-84l80 118h124l80 -118h-84zM236 -133q0 29 20.5 49.5t49.5 20.5t49.5 -20.5t20.5 -49.5t-20.5 -49.5t-49.5 -20.5
t-49.5 20.5t-20.5 49.5z" />
    <glyph glyph-name="obreve" unicode="&#x14f;" 
d="M555 242q0 -62 -20.5 -109.5t-54.5 -80t-79.5 -49.5t-94.5 -17q-50 0 -95 17t-79 49.5t-54.5 80t-20.5 109.5v12q0 61 20.5 108.5t55 80.5t79.5 50t94 17t94 -17t79.5 -50t55 -80.5t20.5 -108.5v-12zM306 60q36 0 66.5 12.5t53.5 36.5t36 57.5t13 75.5v12q0 40 -13 73.5
t-36 57.5t-54 37.5t-66 13.5t-66 -13.5t-54 -37.5t-36 -57.5t-13 -73.5v-12q0 -42 13 -75.5t36 -57.5t53.5 -36.5t66.5 -12.5zM414 688v-10q0 -48 -29 -78t-79 -30t-79 30t-29 78v10h69v-12q0 -16 10 -27.5t29 -11.5t29 11.5t10 27.5v12h69z" />
    <glyph glyph-name="uni01A1" unicode="&#x1a1;" 
d="M466 426q0 29 20.5 49.5t49.5 20.5t49.5 -20.5t20.5 -49.5v-98q0 -34 -21.5 -56t-55.5 -22h-63v-8q0 -61 -15.5 -108.5t-43 -80.5t-67 -50t-87.5 -17t-87.5 17t-67 50t-43 80.5t-15.5 108.5v12q0 60 15.5 107.5t43.5 80.5t67 50.5t87 17.5q85 0 141.5 -54t68.5 -152h62
q27 0 27 30v25q-8 -3 -17 -3q-28 0 -48.5 20.5t-20.5 49.5zM253 60q67 0 100 48.5t33 133.5v12q0 81 -33.5 131.5t-99.5 50.5t-99.5 -50.5t-33.5 -131.5v-12q0 -85 33 -133.5t100 -48.5z" />
    <glyph glyph-name="uni1EDB" unicode="&#x1edb;" 
d="M371 688l-84 -118h-72l66 118h90zM466 426q0 29 20.5 49.5t49.5 20.5t49.5 -20.5t20.5 -49.5v-98q0 -34 -21.5 -56t-55.5 -22h-63v-8q0 -61 -15.5 -108.5t-43 -80.5t-67 -50t-87.5 -17t-87.5 17t-67 50t-43 80.5t-15.5 108.5v12q0 60 15.5 107.5t43.5 80.5t67 50.5
t87 17.5q85 0 141.5 -54t68.5 -152h62q27 0 27 30v25q-8 -3 -17 -3q-28 0 -48.5 20.5t-20.5 49.5zM253 60q67 0 100 48.5t33 133.5v12q0 81 -33.5 131.5t-99.5 50.5t-99.5 -50.5t-33.5 -131.5v-12q0 -85 33 -133.5t100 -48.5z" />
    <glyph glyph-name="uni1EDD" unicode="&#x1edd;" 
d="M224 688l66 -118h-72l-84 118h90zM466 426q0 29 20.5 49.5t49.5 20.5t49.5 -20.5t20.5 -49.5v-98q0 -34 -21.5 -56t-55.5 -22h-63v-8q0 -61 -15.5 -108.5t-43 -80.5t-67 -50t-87.5 -17t-87.5 17t-67 50t-43 80.5t-15.5 108.5v12q0 60 15.5 107.5t43.5 80.5t67 50.5
t87 17.5q85 0 141.5 -54t68.5 -152h62q27 0 27 30v25q-8 -3 -17 -3q-28 0 -48.5 20.5t-20.5 49.5zM253 60q67 0 100 48.5t33 133.5v12q0 81 -33.5 131.5t-99.5 50.5t-99.5 -50.5t-33.5 -131.5v-12q0 -85 33 -133.5t100 -48.5z" />
    <glyph glyph-name="uni1EDF" unicode="&#x1edf;" 
d="M466 426q0 29 20.5 49.5t49.5 20.5t49.5 -20.5t20.5 -49.5v-98q0 -34 -21.5 -56t-55.5 -22h-63v-8q0 -61 -15.5 -108.5t-43 -80.5t-67 -50t-87.5 -17t-87.5 17t-67 50t-43 80.5t-15.5 108.5v12q0 60 15.5 107.5t43.5 80.5t67 50.5t87 17.5q85 0 141.5 -54t68.5 -152h62
q27 0 27 30v25q-8 -3 -17 -3q-28 0 -48.5 20.5t-20.5 49.5zM253 60q67 0 100 48.5t33 133.5v12q0 81 -33.5 131.5t-99.5 50.5t-99.5 -50.5t-33.5 -131.5v-12q0 -85 33 -133.5t100 -48.5zM269 546l-15 67.9961h6q13 -31.998 54 -31.998q35 0 55.5 24.998
q20.5 24.999 20.5 59.9961q0 41.998 -27 66.4961q-27 24.499 -66 24.499q-43 0 -66 -19.999t-31 -49.9971l48 -17.999q3 14.999 14.5 27.498q11.5 12.5 33.5 12.5q15 0 27.5 -10q12.5 -9.99902 12.5 -31.998q0 -17.998 -10.5 -27.998q-10.5 -9.99902 -24.5 -9.99902
q-18 0 -25 13.999h-76v-6l20 -91.9941h49z" />
    <glyph glyph-name="uni1EE1" unicode="&#x1ee1;" 
d="M285 639q5 -10 10 -15t14 -5q10 0 19 10l48 55l49 -42l-41 -49q-14 -17 -33 -29.5t-45 -12.5q-31 0 -47.5 14t-33.5 45q-7 12 -11.5 17t-12.5 5q-11 0 -22 -12l-46 -53l-49 42l41 49q14 17 33 29.5t46 12.5q29 0 46 -14.5t35 -46.5zM466 426q0 29 20.5 49.5t49.5 20.5
t49.5 -20.5t20.5 -49.5v-98q0 -34 -21.5 -56t-55.5 -22h-63v-8q0 -61 -15.5 -108.5t-43 -80.5t-67 -50t-87.5 -17t-87.5 17t-67 50t-43 80.5t-15.5 108.5v12q0 60 15.5 107.5t43.5 80.5t67 50.5t87 17.5q85 0 141.5 -54t68.5 -152h62q27 0 27 30v25q-8 -3 -17 -3
q-28 0 -48.5 20.5t-20.5 49.5zM253 60q67 0 100 48.5t33 133.5v12q0 81 -33.5 131.5t-99.5 50.5t-99.5 -50.5t-33.5 -131.5v-12q0 -85 33 -133.5t100 -48.5z" />
    <glyph glyph-name="uni1EE3" unicode="&#x1ee3;" 
d="M466 426q0 29 20.5 49.5t49.5 20.5t49.5 -20.5t20.5 -49.5v-98q0 -34 -21.5 -56t-55.5 -22h-63v-8q0 -61 -15.5 -108.5t-43 -80.5t-67 -50t-87.5 -17t-87.5 17t-67 50t-43 80.5t-15.5 108.5v12q0 60 15.5 107.5t43.5 80.5t67 50.5t87 17.5q85 0 141.5 -54t68.5 -152h62
q27 0 27 30v25q-8 -3 -17 -3q-28 0 -48.5 20.5t-20.5 49.5zM253 60q67 0 100 48.5t33 133.5v12q0 81 -33.5 131.5t-99.5 50.5t-99.5 -50.5t-33.5 -131.5v-12q0 -85 33 -133.5t100 -48.5zM184 -133q0 29 20.5 49.5t49.5 20.5t49.5 -20.5t20.5 -49.5t-20.5 -49.5t-49.5 -20.5
t-49.5 20.5t-20.5 49.5z" />
    <glyph glyph-name="oslash" unicode="&#xf8;" 
d="M555 242q0 -62 -20.5 -109.5t-54.5 -80t-79.5 -49.5t-94.5 -17q-26 0 -45 4l-19 -58l-71 22l19 58q-59 29 -96 87t-37 143v12q0 61 20.5 108.5t55 80.5t79.5 50t94 17q11 0 23 -1t23 -3l17 52l70 -22l-17 -53q58 -29 95.5 -87t37.5 -142v-12zM137 242q0 -54 21 -93.5
t56 -62.5l114 349q-5 1 -11 1h-11q-35 0 -66 -13.5t-54 -37.5t-36 -57.5t-13 -73.5v-12zM306 60q36 0 66.5 12.5t53.5 36.5t36 57.5t13 75.5v12q0 52 -21.5 92t-56.5 63l-113 -348q5 -1 10.5 -1h11.5z" />
    <glyph glyph-name="oe" unicode="&#x153;" 
d="M317 -14q-50 0 -95 17t-79 49.5t-54.5 80t-20.5 109.5v12q0 61 20.5 108.5t55 80.5t79.5 50t94 17q61 0 105.5 -22.5t73 -55.5t42 -72t13.5 -72v-64h-199v-162q53 8 80 35.5t39 64.5l74 -20q-21 -69 -77 -112.5t-151 -43.5zM148 242q0 -72 35 -117.5t91 -59.5v365
q-55 -14 -90.5 -60.5t-35.5 -115.5v-12zM473 296q-3 55 -38 90.5t-83 45.5v-136h121z" />
    <glyph glyph-name="racute" unicode="&#x155;" 
d="M59 496h180v-66h12q19 41 54 60.5t80 19.5q75 0 121 -49t49 -143l-82 -12q0 69 -33 99.5t-81 30.5q-31 0 -53.5 -12t-37.5 -33t-22 -49t-7 -60v-210h126v-72h-318v72h114v352h-102v72zM507 688l-84 -118h-72l66 118h90z" />
    <glyph glyph-name="uni0157" unicode="&#x157;" 
d="M131 -123q0 29 20.5 49.5t49.5 20.5t49.5 -20.5t20.5 -49.5v-98q0 -34 -21.5 -56t-55.5 -22h-51v54h47q27 0 27 30v25q-8 -3 -17 -3q-28 0 -48.5 20.5t-20.5 49.5zM59 496h180v-66h12q19 41 54 60.5t80 19.5q75 0 121 -49t49 -143l-82 -12q0 69 -33 99.5t-81 30.5
q-31 0 -53.5 -12t-37.5 -33t-22 -49t-7 -60v-210h126v-72h-318v72h114v352h-102v72z" />
    <glyph glyph-name="rcaron" unicode="&#x159;" 
d="M59 496h180v-66h12q19 41 54 60.5t80 19.5q75 0 121 -49t49 -143l-82 -12q0 69 -33 99.5t-81 30.5q-31 0 -53.5 -12t-37.5 -33t-22 -49t-7 -60v-210h126v-72h-318v72h114v352h-102v72zM440 688l-80 -118h-124l-80 118h84l52 -88h12l52 88h84z" />
    <glyph glyph-name="uni1E5B" unicode="&#x1e5b;" 
d="M59 496h180v-66h12q19 41 54 60.5t80 19.5q75 0 121 -49t49 -143l-82 -12q0 69 -33 99.5t-81 30.5q-31 0 -53.5 -12t-37.5 -33t-22 -49t-7 -60v-210h126v-72h-318v72h114v352h-102v72zM130 -133q0 29 20.5 49.5t49.5 20.5t49.5 -20.5t20.5 -49.5t-20.5 -49.5t-49.5 -20.5
t-49.5 20.5t-20.5 49.5z" />
    <glyph glyph-name="uni1E5D" unicode="&#x1e5d;" 
d="M59 496h180v-66h12q19 41 54 60.5t80 19.5q75 0 121 -49t49 -143l-82 -12q0 69 -33 99.5t-81 30.5q-31 0 -53.5 -12t-37.5 -33t-22 -49t-7 -60v-210h126v-72h-318v72h114v352h-102v72zM444 570h-282v66h282v-66zM130 -133q0 29 20.5 49.5t49.5 20.5t49.5 -20.5
t20.5 -49.5t-20.5 -49.5t-49.5 -20.5t-49.5 20.5t-20.5 49.5z" />
    <glyph glyph-name="uni1E5F" unicode="&#x1e5f;" 
d="M365 -130h-318v66h318v-66zM59 496h180v-66h12q19 41 54 60.5t80 19.5q75 0 121 -49t49 -143l-82 -12q0 69 -33 99.5t-81 30.5q-31 0 -53.5 -12t-37.5 -33t-22 -49t-7 -60v-210h126v-72h-318v72h114v352h-102v72z" />
    <glyph glyph-name="sacute" unicode="&#x15b;" 
d="M190 368q0 -36 30.5 -55t111.5 -25q87 -7 132.5 -41.5t45.5 -100.5v-6q0 -36 -14.5 -64.5t-40 -48.5t-62 -30.5t-79.5 -10.5q-58 0 -99.5 15.5t-69 41t-41.5 58t-16 65.5l74 18q5 -57 44 -91.5t104 -34.5q55 0 88.5 21.5t33.5 60.5q0 42 -33 60t-107 23q-86 6 -132 40
t-46 99v6q0 35 15 61.5t40.5 44.5t57.5 27t67 9q49 0 86 -13.5t62 -35t38.5 -49.5t17.5 -56l-74 -18q-5 48 -38.5 75t-87.5 27q-21 0 -40.5 -4.5t-34.5 -13.5t-24 -22.5t-9 -31.5zM408 688l-84 -118h-72l66 118h90z" />
    <glyph glyph-name="scircumflex" unicode="&#x15d;" 
d="M190 368q0 -36 30.5 -55t111.5 -25q87 -7 132.5 -41.5t45.5 -100.5v-6q0 -36 -14.5 -64.5t-40 -48.5t-62 -30.5t-79.5 -10.5q-58 0 -99.5 15.5t-69 41t-41.5 58t-16 65.5l74 18q5 -57 44 -91.5t104 -34.5q55 0 88.5 21.5t33.5 60.5q0 42 -33 60t-107 23q-86 6 -132 40
t-46 99v6q0 35 15 61.5t40.5 44.5t57.5 27t67 9q49 0 86 -13.5t62 -35t38.5 -49.5t17.5 -56l-74 -18q-5 48 -38.5 75t-87.5 27q-21 0 -40.5 -4.5t-34.5 -13.5t-24 -22.5t-9 -31.5zM353 570l-52 88h-12l-52 -88h-84l80 118h124l80 -118h-84z" />
    <glyph glyph-name="scaron" unicode="&#x161;" 
d="M190 368q0 -36 30.5 -55t111.5 -25q87 -7 132.5 -41.5t45.5 -100.5v-6q0 -36 -14.5 -64.5t-40 -48.5t-62 -30.5t-79.5 -10.5q-58 0 -99.5 15.5t-69 41t-41.5 58t-16 65.5l74 18q5 -57 44 -91.5t104 -34.5q55 0 88.5 21.5t33.5 60.5q0 42 -33 60t-107 23q-86 6 -132 40
t-46 99v6q0 35 15 61.5t40.5 44.5t57.5 27t67 9q49 0 86 -13.5t62 -35t38.5 -49.5t17.5 -56l-74 -18q-5 48 -38.5 75t-87.5 27q-21 0 -40.5 -4.5t-34.5 -13.5t-24 -22.5t-9 -31.5zM442 688l-80 -118h-124l-80 118h84l52 -88h12l52 88h84z" />
    <glyph glyph-name="uni0219" unicode="&#x219;" 
d="M190 368q0 -36 30.5 -55t111.5 -25q87 -7 132.5 -41.5t45.5 -100.5v-6q0 -36 -14.5 -64.5t-40 -48.5t-62 -30.5t-79.5 -10.5q-58 0 -99.5 15.5t-69 41t-41.5 58t-16 65.5l74 18q5 -57 44 -91.5t104 -34.5q55 0 88.5 21.5t33.5 60.5q0 42 -33 60t-107 23q-86 6 -132 40
t-46 99v6q0 35 15 61.5t40.5 44.5t57.5 27t67 9q49 0 86 -13.5t62 -35t38.5 -49.5t17.5 -56l-74 -18q-5 48 -38.5 75t-87.5 27q-21 0 -40.5 -4.5t-34.5 -13.5t-24 -22.5t-9 -31.5zM244 -123q0 29 20.5 49.5t49.5 20.5t49.5 -20.5t20.5 -49.5v-98q0 -34 -21.5 -56t-55.5 -22
h-51v54h47q27 0 27 30v25q-8 -3 -17 -3q-28 0 -48.5 20.5t-20.5 49.5z" />
    <glyph glyph-name="scedilla" unicode="&#x15f;" 
d="M190 368q0 -36 30.5 -55t111.5 -25q87 -7 132.5 -41.5t45.5 -100.5v-6q0 -36 -14.5 -64.5t-40 -48.5t-62 -30.5t-79.5 -10.5h-8l-12 -54h6q13 32 54 32q35 0 55.5 -25t20.5 -60q0 -42 -27 -66.5t-66 -24.5q-43 0 -66 20t-31 50l48 18q3 -15 14.5 -27.5t33.5 -12.5
q15 0 27.5 10t12.5 32q0 18 -10.5 28t-24.5 10q-18 0 -25 -14h-76v6l18 83q-43 7 -74 24.5t-52 41.5t-31.5 52t-12.5 57l74 18q5 -57 44 -91.5t104 -34.5q55 0 88.5 21.5t33.5 60.5q0 42 -33 60t-107 23q-86 6 -132 40t-46 99v6q0 35 15 61.5t40.5 44.5t57.5 27t67 9
q49 0 86 -13.5t62 -35t38.5 -49.5t17.5 -56l-74 -18q-5 48 -38.5 75t-87.5 27q-21 0 -40.5 -4.5t-34.5 -13.5t-24 -22.5t-9 -31.5z" />
    <glyph glyph-name="uni1E61" unicode="&#x1e61;" 
d="M190 368q0 -36 30.5 -55t111.5 -25q87 -7 132.5 -41.5t45.5 -100.5v-6q0 -36 -14.5 -64.5t-40 -48.5t-62 -30.5t-79.5 -10.5q-58 0 -99.5 15.5t-69 41t-41.5 58t-16 65.5l74 18q5 -57 44 -91.5t104 -34.5q55 0 88.5 21.5t33.5 60.5q0 42 -33 60t-107 23q-86 6 -132 40
t-46 99v6q0 35 15 61.5t40.5 44.5t57.5 27t67 9q49 0 86 -13.5t62 -35t38.5 -49.5t17.5 -56l-74 -18q-5 48 -38.5 75t-87.5 27q-21 0 -40.5 -4.5t-34.5 -13.5t-24 -22.5t-9 -31.5zM230 644q0 29 20.5 49.5t49.5 20.5t49.5 -20.5t20.5 -49.5t-20.5 -49.5t-49.5 -20.5
t-49.5 20.5t-20.5 49.5z" />
    <glyph glyph-name="uni1E63" unicode="&#x1e63;" 
d="M190 368q0 -36 30.5 -55t111.5 -25q87 -7 132.5 -41.5t45.5 -100.5v-6q0 -36 -14.5 -64.5t-40 -48.5t-62 -30.5t-79.5 -10.5q-58 0 -99.5 15.5t-69 41t-41.5 58t-16 65.5l74 18q5 -57 44 -91.5t104 -34.5q55 0 88.5 21.5t33.5 60.5q0 42 -33 60t-107 23q-86 6 -132 40
t-46 99v6q0 35 15 61.5t40.5 44.5t57.5 27t67 9q49 0 86 -13.5t62 -35t38.5 -49.5t17.5 -56l-74 -18q-5 48 -38.5 75t-87.5 27q-21 0 -40.5 -4.5t-34.5 -13.5t-24 -22.5t-9 -31.5zM244 -133q0 29 20.5 49.5t49.5 20.5t49.5 -20.5t20.5 -49.5t-20.5 -49.5t-49.5 -20.5
t-49.5 20.5t-20.5 49.5z" />
    <glyph glyph-name="germandbls" unicode="&#xdf;" 
d="M343 355h25q38 0 73.5 -12t62.5 -35.5t43 -58t16 -79.5v-6q0 -40 -13 -72.5t-36.5 -56t-56 -36.5t-71.5 -13q-44 0 -76.5 14t-54 36.5t-32 51t-11.5 58.5l74 12q0 -46 26 -73t70 -27q45 0 74 26t29 83q0 31 -11.5 53.5t-31 36t-46.5 20t-58 6.5h-54v147h22q51 0 80 27
t29 75v5q0 24 -9 43t-25 33t-37 21.5t-45 7.5q-56 0 -89.5 -37t-33.5 -103v-502h-78v424h-60v72h60v14q0 48 15 86t42 64t63.5 40t80.5 14q42 0 77.5 -12.5t61.5 -35.5t40.5 -55.5t14.5 -73.5v-6q0 -39 -13 -68t-34 -49.5t-48 -32t-55 -14.5v-12z" />
    <glyph glyph-name="longs" unicode="&#x17f;" 
d="M180 496h60v126q0 34 21.5 56t55.5 22h196v-72h-168q-27 0 -27 -30v-598h-78v424h-60v72z" />
    <glyph glyph-name="tcaron" unicode="&#x165;" 
d="M70 496h156v204h78v-204h72v-72h-72v-322q0 -30 27 -30h141v-72h-169q-34 0 -55.5 22t-21.5 56v346h-156v72zM394 630q0 29 20.5 49.5t49.5 20.5t49.5 -20.5t20.5 -49.5v-128q0 -34 -21.5 -56t-55.5 -22h-51v54h47q27 0 27 30v55q-8 -3 -17 -3q-28 0 -48.5 20.5
t-20.5 49.5z" />
    <glyph glyph-name="uni0163" unicode="&#x163;" 
d="M303 0q-34 0 -55.5 22t-21.5 56v346h-156v72h156v204h78v-204h192v-72h-192v-322q0 -30 27 -30h141v-72h-120l-15 -68h6q13 32 54 32q35 0 55.5 -25t20.5 -60q0 -42 -27 -66.5t-66 -24.5q-43 0 -66 20t-31 50l48 18q3 -15 14.5 -27.5t33.5 -12.5q15 0 27.5 10t12.5 32
q0 18 -10.5 28t-24.5 10q-18 0 -25 -14h-76v6z" />
    <glyph glyph-name="uni021B" unicode="&#x21b;" 
d="M70 496h156v204h78v-204h192v-72h-192v-322q0 -30 27 -30h141v-72h-169q-34 0 -55.5 22t-21.5 56v346h-156v72zM227 -123q0 29 20.5 49.5t49.5 20.5t49.5 -20.5t20.5 -49.5v-98q0 -34 -21.5 -56t-55.5 -22h-51v54h47q27 0 27 30v25q-8 -3 -17 -3q-28 0 -48.5 20.5
t-20.5 49.5z" />
    <glyph glyph-name="uni1E6D" unicode="&#x1e6d;" 
d="M70 496h156v204h78v-204h192v-72h-192v-322q0 -30 27 -30h141v-72h-169q-34 0 -55.5 22t-21.5 56v346h-156v72zM196 -133q0 29 20.5 49.5t49.5 20.5t49.5 -20.5t20.5 -49.5t-20.5 -49.5t-49.5 -20.5t-49.5 20.5t-20.5 49.5z" />
    <glyph glyph-name="uni1E6F" unicode="&#x1e6f;" 
d="M472 -130h-246v66h246v-66zM70 496h156v204h78v-204h192v-72h-192v-322q0 -30 27 -30h141v-72h-169q-34 0 -55.5 22t-21.5 56v346h-156v72z" />
    <glyph glyph-name="uni1E97" unicode="&#x1e97;" 
d="M70 496h156v204h78v-204h192v-72h-192v-322q0 -30 27 -30h141v-72h-169q-34 0 -55.5 22t-21.5 56v346h-156v72zM96 844q0 29 20.5 49.5t49.5 20.5t49.5 -20.5t20.5 -49.5t-20.5 -49.5t-49.5 -20.5t-49.5 20.5t-20.5 49.5zM296 844q0 29 20.5 49.5t49.5 20.5t49.5 -20.5
t20.5 -49.5t-20.5 -49.5t-49.5 -20.5t-49.5 20.5t-20.5 49.5z" />
    <glyph glyph-name="tbar" unicode="&#x167;" 
d="M70 496h156v204h78v-204h192v-72h-192v-74h156v-72h-156v-176q0 -30 27 -30h141v-72h-169q-34 0 -55.5 22t-21.5 56v200h-120v72h120v74h-156v72z" />
    <glyph glyph-name="ugrave" unicode="&#xf9;" 
d="M441 496h78v-496h-78v90h-12q-24 -48 -63 -76t-99 -28q-41 0 -75.5 13.5t-59 40.5t-38 67t-13.5 93v296h78v-286q0 -78 32 -114t98 -36q71 0 111.5 48.5t40.5 129.5v258zM277 688l66 -118h-72l-84 118h90z" />
    <glyph glyph-name="uacute" unicode="&#xfa;" 
d="M441 496h78v-496h-78v90h-12q-24 -48 -63 -76t-99 -28q-41 0 -75.5 13.5t-59 40.5t-38 67t-13.5 93v296h78v-286q0 -78 32 -114t98 -36q71 0 111.5 48.5t40.5 129.5v258zM423 688l-84 -118h-72l66 118h90z" />
    <glyph glyph-name="ucircumflex" unicode="&#xfb;" 
d="M441 496h78v-496h-78v90h-12q-24 -48 -63 -76t-99 -28q-41 0 -75.5 13.5t-59 40.5t-38 67t-13.5 93v296h78v-286q0 -78 32 -114t98 -36q71 0 111.5 48.5t40.5 129.5v258zM359 570l-52 88h-12l-52 -88h-84l80 118h124l80 -118h-84z" />
    <glyph glyph-name="utilde" unicode="&#x169;" 
d="M441 496h78v-496h-78v90h-12q-24 -48 -63 -76t-99 -28q-41 0 -75.5 13.5t-59 40.5t-38 67t-13.5 93v296h78v-286q0 -78 32 -114t98 -36q71 0 111.5 48.5t40.5 129.5v258zM338 639q5 -10 10 -15t14 -5q10 0 19 10l48 55l49 -42l-41 -49q-14 -17 -33 -29.5t-45 -12.5
q-31 0 -47.5 14t-33.5 45q-7 12 -11.5 17t-12.5 5q-11 0 -22 -12l-46 -53l-49 42l41 49q14 17 33 29.5t46 12.5q29 0 46 -14.5t35 -46.5z" />
    <glyph glyph-name="udieresis" unicode="&#xfc;" 
d="M441 496h78v-496h-78v90h-12q-24 -48 -63 -76t-99 -28q-41 0 -75.5 13.5t-59 40.5t-38 67t-13.5 93v296h78v-286q0 -78 32 -114t98 -36q71 0 111.5 48.5t40.5 129.5v258zM470.008 644q0 29 -20.498 49.5q-20.499 20.5 -49.4971 20.5t-49.4971 -20.5t-20.499 -49.5
t20.499 -49.5t49.4971 -20.5t49.4971 20.5q20.498 20.5 20.498 49.5zM270.021 644q0 29 -20.499 49.5q-20.498 20.5 -49.4971 20.5q-28.998 0 -49.4971 -20.5q-20.498 -20.5 -20.498 -49.5t20.498 -49.5q20.499 -20.5 49.4971 -20.5q28.999 0 49.4971 20.5
q20.499 20.5 20.499 49.5z" />
    <glyph glyph-name="umacron" unicode="&#x16b;" 
d="M441 496h78v-496h-78v90h-12q-24 -48 -63 -76t-99 -28q-41 0 -75.5 13.5t-59 40.5t-38 67t-13.5 93v296h78v-286q0 -78 32 -114t98 -36q71 0 111.5 48.5t40.5 129.5v258zM442 570h-282v66h282v-66z" />
    <glyph glyph-name="ubreve" unicode="&#x16d;" 
d="M441 496h78v-496h-78v90h-12q-24 -48 -63 -76t-99 -28q-41 0 -75.5 13.5t-59 40.5t-38 67t-13.5 93v296h78v-286q0 -78 32 -114t98 -36q71 0 111.5 48.5t40.5 129.5v258zM409 688v-10q0 -48 -29 -78t-79 -30t-79 30t-29 78v10h69v-12q0 -16 10 -27.5t29 -11.5t29 11.5
t10 27.5v12h69z" />
    <glyph glyph-name="uring" unicode="&#x16f;" 
d="M441 496h78v-496h-78v90h-12q-24 -48 -63 -76t-99 -28q-41 0 -75.5 13.5t-59 40.5t-38 67t-13.5 93v296h78v-286q0 -78 32 -114t98 -36q71 0 111.5 48.5t40.5 129.5v258zM199 672q0 43 29.5 72.5t72.5 29.5t72.5 -29.5t29.5 -72.5t-29.5 -72.5t-72.5 -29.5t-72.5 29.5
t-29.5 72.5zM259 672q0 -18 12 -30t30 -12t30 12t12 30t-12 30t-30 12t-30 -12t-12 -30z" />
    <glyph glyph-name="uhungarumlaut" unicode="&#x171;" 
d="M441 496h78v-496h-78v90h-12q-24 -48 -63 -76t-99 -28q-41 0 -75.5 13.5t-59 40.5t-38 67t-13.5 93v296h78v-286q0 -78 32 -114t98 -36q71 0 111.5 48.5t40.5 129.5v258zM345 688l-84 -118h-72l66 118h90zM489 688l-84 -118h-72l66 118h90z" />
    <glyph glyph-name="uni01D4" unicode="&#x1d4;" 
d="M441 496h78v-496h-78v90h-12q-24 -48 -63 -76t-99 -28q-41 0 -75.5 13.5t-59 40.5t-38 67t-13.5 93v296h78v-286q0 -78 32 -114t98 -36q71 0 111.5 48.5t40.5 129.5v258zM443 688l-80 -118h-124l-80 118h84l52 -88h12l52 88h84z" />
    <glyph glyph-name="uogonek" unicode="&#x173;" 
d="M441 496h78v-496h-29l-16 -68q-1 -5 -1 -8q0 -22 23 -22h42v-66h-56q-29 0 -53.5 18.5t-24.5 55.5q0 9 3 24l34 156h-12q-24 -48 -63 -76t-99 -28q-41 0 -75.5 13.5t-59 40.5t-38 67t-13.5 93v296h78v-286q0 -78 32 -114t98 -36q71 0 111.5 48.5t40.5 129.5v258z" />
    <glyph glyph-name="uni01D6" unicode="&#x1d6;" 
d="M470 744h-340v66h340v-66zM441 496h78v-496h-78v90h-12q-24 -48 -63 -76t-99 -28q-41 0 -75.5 13.5t-59 40.5t-38 67t-13.5 93v296h78v-286q0 -78 32 -114t98 -36q71 0 111.5 48.5t40.5 129.5v258zM130 644q0 29 20.5 49.5t49.5 20.5t49.5 -20.5t20.5 -49.5t-20.5 -49.5
t-49.5 -20.5t-49.5 20.5t-20.5 49.5zM330 644q0 29 20.5 49.5t49.5 20.5t49.5 -20.5t20.5 -49.5t-20.5 -49.5t-49.5 -20.5t-49.5 20.5t-20.5 49.5z" />
    <glyph glyph-name="uni01D8" unicode="&#x1d8;" 
d="M441 496h78v-496h-78v90h-12q-24 -48 -63 -76t-99 -28q-41 0 -75.5 13.5t-59 40.5t-38 67t-13.5 93v296h78v-286q0 -78 32 -114t98 -36q71 0 111.5 48.5t40.5 129.5v258zM131 644q0 29 20.5 49.5t49.5 20.5t49.5 -20.5t20.5 -49.5t-20.5 -49.5t-49.5 -20.5t-49.5 20.5
t-20.5 49.5zM331 644q0 29 20.5 49.5t49.5 20.5t49.5 -20.5t20.5 -49.5t-20.5 -49.5t-49.5 -20.5t-49.5 20.5t-20.5 49.5zM420 862l-84 -118h-72l66 118h90z" />
    <glyph glyph-name="uni01DA" unicode="&#x1da;" 
d="M441 496h78v-496h-78v90h-12q-24 -48 -63 -76t-99 -28q-41 0 -75.5 13.5t-59 40.5t-38 67t-13.5 93v296h78v-286q0 -78 32 -114t98 -36q71 0 111.5 48.5t40.5 129.5v258zM131 644q0 29 20.5 49.5t49.5 20.5t49.5 -20.5t20.5 -49.5t-20.5 -49.5t-49.5 -20.5t-49.5 20.5
t-20.5 49.5zM331 644q0 29 20.5 49.5t49.5 20.5t49.5 -20.5t20.5 -49.5t-20.5 -49.5t-49.5 -20.5t-49.5 20.5t-20.5 49.5zM443 862l-80 -118h-124l-80 118h84l52 -88h12l52 88h84z" />
    <glyph glyph-name="uni01DC" unicode="&#x1dc;" 
d="M441 496h78v-496h-78v90h-12q-24 -48 -63 -76t-99 -28q-41 0 -75.5 13.5t-59 40.5t-38 67t-13.5 93v296h78v-286q0 -78 32 -114t98 -36q71 0 111.5 48.5t40.5 129.5v258zM272 862l66 -118h-72l-84 118h90zM131 644q0 29 20.5 49.5t49.5 20.5t49.5 -20.5t20.5 -49.5
t-20.5 -49.5t-49.5 -20.5t-49.5 20.5t-20.5 49.5zM331 644q0 29 20.5 49.5t49.5 20.5t49.5 -20.5t20.5 -49.5t-20.5 -49.5t-49.5 -20.5t-49.5 20.5t-20.5 49.5z" />
    <glyph glyph-name="uni1EE5" unicode="&#x1ee5;" 
d="M441 496h78v-496h-78v90h-12q-24 -48 -63 -76t-99 -28q-41 0 -75.5 13.5t-59 40.5t-38 67t-13.5 93v296h78v-286q0 -78 32 -114t98 -36q71 0 111.5 48.5t40.5 129.5v258zM220 -133q0 29 20.5 49.5t49.5 20.5t49.5 -20.5t20.5 -49.5t-20.5 -49.5t-49.5 -20.5t-49.5 20.5
t-20.5 49.5z" />
    <glyph glyph-name="uni1EE7" unicode="&#x1ee7;" 
d="M266 546l-20 92v6h76q7 -14 25 -14q14 0 24.5 10t10.5 28q0 22 -12.5 32t-27.5 10q-22 0 -33.5 -12.5t-14.5 -27.5l-48 18q8 30 31 50t66 20q39 0 66 -24.5t27 -66.5q0 -35 -20.5 -60t-55.5 -25q-41 0 -54 32h-6l15 -68h-49zM441 496h78v-496h-78v90h-12q-24 -48 -63 -76
t-99 -28q-41 0 -75.5 13.5t-59 40.5t-38 67t-13.5 93v296h78v-286q0 -78 32 -114t98 -36q71 0 111.5 48.5t40.5 129.5v258z" />
    <glyph glyph-name="uni01B0" unicode="&#x1b0;" 
d="M352 496h78v-192h95q27 0 27 30v25q-8 -3 -17 -3q-28 0 -48.5 20.5t-20.5 49.5t20.5 49.5t49.5 20.5t49.5 -20.5t20.5 -49.5v-98q0 -34 -21.5 -56t-55.5 -22h-99v-250h-78v68h-12q-17 -36 -46.5 -59t-85.5 -23q-78 0 -123 46t-45 134v330h78v-316q0 -63 27.5 -91.5
t80.5 -28.5q65 0 95.5 40t30.5 108v288z" />
    <glyph glyph-name="uni1EE9" unicode="&#x1ee9;" 
d="M347 688l-84 -118h-72l66 118h90zM352 496h78v-192h95q27 0 27 30v25q-8 -3 -17 -3q-28 0 -48.5 20.5t-20.5 49.5t20.5 49.5t49.5 20.5t49.5 -20.5t20.5 -49.5v-98q0 -34 -21.5 -56t-55.5 -22h-99v-250h-78v68h-12q-17 -36 -46.5 -59t-85.5 -23q-78 0 -123 46t-45 134
v330h78v-316q0 -63 27.5 -91.5t80.5 -28.5q65 0 95.5 40t30.5 108v288z" />
    <glyph glyph-name="uni1EEB" unicode="&#x1eeb;" 
d="M197 688l66 -118h-72l-84 118h90zM352 496h78v-192h95q27 0 27 30v25q-8 -3 -17 -3q-28 0 -48.5 20.5t-20.5 49.5t20.5 49.5t49.5 20.5t49.5 -20.5t20.5 -49.5v-98q0 -34 -21.5 -56t-55.5 -22h-99v-250h-78v68h-12q-17 -36 -46.5 -59t-85.5 -23q-78 0 -123 46t-45 134
v330h78v-316q0 -63 27.5 -91.5t80.5 -28.5q65 0 95.5 40t30.5 108v288z" />
    <glyph glyph-name="uni1EED" unicode="&#x1eed;" 
d="M352 496h78v-192h95q27 0 27 30v25q-8 -3 -17 -3q-28 0 -48.5 20.5t-20.5 49.5t20.5 49.5t49.5 20.5t49.5 -20.5t20.5 -49.5v-98q0 -34 -21.5 -56t-55.5 -22h-99v-250h-78v68h-12q-17 -36 -46.5 -59t-85.5 -23q-78 0 -123 46t-45 134v330h78v-316q0 -63 27.5 -91.5
t80.5 -28.5q65 0 95.5 40t30.5 108v288zM248 546l-15 67.9961h6q13 -31.998 54 -31.998q35 0 55.5 24.998q20.5 24.999 20.5 59.9961q0 41.998 -27 66.4961q-27 24.499 -66 24.499q-43 0 -66 -19.999t-31 -49.9971l48 -17.999q3 14.999 14.5 27.498q11.5 12.5 33.5 12.5
q15 0 27.5 -10q12.5 -9.99902 12.5 -31.998q0 -17.998 -10.5 -27.998q-10.5 -9.99902 -24.5 -9.99902q-18 0 -25 13.999h-76v-6l20 -91.9941h49z" />
    <glyph glyph-name="uni1EEF" unicode="&#x1eef;" 
d="M271 639q5 -10 10 -15t14 -5q10 0 19 10l48 55l49 -42l-41 -49q-14 -17 -33 -29.5t-45 -12.5q-31 0 -47.5 14t-33.5 45q-7 12 -11.5 17t-12.5 5q-11 0 -22 -12l-46 -53l-49 42l41 49q14 17 33 29.5t46 12.5q29 0 46 -14.5t35 -46.5zM352 496h78v-192h95q27 0 27 30v25
q-8 -3 -17 -3q-28 0 -48.5 20.5t-20.5 49.5t20.5 49.5t49.5 20.5t49.5 -20.5t20.5 -49.5v-98q0 -34 -21.5 -56t-55.5 -22h-99v-250h-78v68h-12q-17 -36 -46.5 -59t-85.5 -23q-78 0 -123 46t-45 134v330h78v-316q0 -63 27.5 -91.5t80.5 -28.5q65 0 95.5 40t30.5 108v288z" />
    <glyph glyph-name="uni1EF1" unicode="&#x1ef1;" 
d="M352 496h78v-192h95q27 0 27 30v25q-8 -3 -17 -3q-28 0 -48.5 20.5t-20.5 49.5t20.5 49.5t49.5 20.5t49.5 -20.5t20.5 -49.5v-98q0 -34 -21.5 -56t-55.5 -22h-99v-250h-78v68h-12q-17 -36 -46.5 -59t-85.5 -23q-78 0 -123 46t-45 134v330h78v-316q0 -63 27.5 -91.5
t80.5 -28.5q65 0 95.5 40t30.5 108v288zM157 -133q0 29 20.5 49.5t49.5 20.5t49.5 -20.5t20.5 -49.5t-20.5 -49.5t-49.5 -20.5t-49.5 20.5t-20.5 49.5z" />
    <glyph glyph-name="wcircumflex" unicode="&#x175;" 
d="M516 0h-144l-60 460h-12l-60 -460h-144l-78 496h80l66 -460h12l58 460h144l58 -460h12l66 460h80zM364 570l-52 88h-12l-52 -88h-84l80 118h124l80 -118h-84z" />
    <glyph glyph-name="uni1E81" unicode="&#x1e81;" 
d="M516 0h-144l-60 460h-12l-60 -460h-144l-78 496h80l66 -460h12l58 460h144l58 -460h12l66 460h80zM277 688l66 -118h-72l-84 118h90z" />
    <glyph glyph-name="uni1E83" unicode="&#x1e83;" 
d="M516 0h-144l-60 460h-12l-60 -460h-144l-78 496h80l66 -460h12l58 460h144l58 -460h12l66 460h80zM426 688l-84 -118h-72l66 118h90z" />
    <glyph glyph-name="uni1E85" unicode="&#x1e85;" 
d="M516 0h-144l-60 460h-12l-60 -460h-144l-78 496h80l66 -460h12l58 460h144l58 -460h12l66 460h80zM136 644q0 29 20.5 49.5t49.5 20.5t49.5 -20.5t20.5 -49.5t-20.5 -49.5t-49.5 -20.5t-49.5 20.5t-20.5 49.5zM336 644q0 29 20.5 49.5t49.5 20.5t49.5 -20.5t20.5 -49.5
t-20.5 -49.5t-49.5 -20.5t-49.5 20.5t-20.5 49.5z" />
    <glyph glyph-name="yacute" unicode="&#xfd;" 
d="M447 90h-12q-24 -48 -63 -76t-99 -28q-41 0 -75.5 13.5t-59 40.5t-38 67t-13.5 93v296h78v-286q0 -78 32 -114t98 -36q71 0 111.5 48.5t40.5 129.5v258h78v-618q0 -34 -21.5 -56t-55.5 -22h-283v72h255q27 0 27 30v188zM426 688l-84 -118h-72l66 118h90z" />
    <glyph glyph-name="uni1EF3" unicode="&#x1ef3;" 
d="M447 90h-12q-24 -48 -63 -76t-99 -28q-41 0 -75.5 13.5t-59 40.5t-38 67t-13.5 93v296h78v-286q0 -78 32 -114t98 -36q71 0 111.5 48.5t40.5 129.5v258h78v-618q0 -34 -21.5 -56t-55.5 -22h-283v72h255q27 0 27 30v188zM283 688l66 -118h-72l-84 118h90z" />
    <glyph glyph-name="ycircumflex" unicode="&#x177;" 
d="M447 90h-12q-24 -48 -63 -76t-99 -28q-41 0 -75.5 13.5t-59 40.5t-38 67t-13.5 93v296h78v-286q0 -78 32 -114t98 -36q71 0 111.5 48.5t40.5 129.5v258h78v-618q0 -34 -21.5 -56t-55.5 -22h-283v72h255q27 0 27 30v188zM364 570l-52 88h-12l-52 -88h-84l80 118h124
l80 -118h-84z" />
    <glyph glyph-name="ydieresis" unicode="&#xff;" 
d="M447 90h-12q-24 -48 -63 -76t-99 -28q-41 0 -75.5 13.5t-59 40.5t-38 67t-13.5 93v296h78v-286q0 -78 32 -114t98 -36q71 0 111.5 48.5t40.5 129.5v258h78v-618q0 -34 -21.5 -56t-55.5 -22h-283v72h255q27 0 27 30v188zM136 644q0 29 20.5 49.5t49.5 20.5t49.5 -20.5
t20.5 -49.5t-20.5 -49.5t-49.5 -20.5t-49.5 20.5t-20.5 49.5zM336 644q0 29 20.5 49.5t49.5 20.5t49.5 -20.5t20.5 -49.5t-20.5 -49.5t-49.5 -20.5t-49.5 20.5t-20.5 49.5z" />
    <glyph glyph-name="uni1E8F" unicode="&#x1e8f;" 
d="M447 90h-12q-24 -48 -63 -76t-99 -28q-41 0 -75.5 13.5t-59 40.5t-38 67t-13.5 93v296h78v-286q0 -78 32 -114t98 -36q71 0 111.5 48.5t40.5 129.5v258h78v-618q0 -34 -21.5 -56t-55.5 -22h-283v72h255q27 0 27 30v188zM236 644q0 29 20.5 49.5t49.5 20.5t49.5 -20.5
t20.5 -49.5t-20.5 -49.5t-49.5 -20.5t-49.5 20.5t-20.5 49.5z" />
    <glyph glyph-name="uni1EF5" unicode="&#x1ef5;" 
d="M447 90h-12q-24 -48 -63 -76t-99 -28q-41 0 -75.5 13.5t-59 40.5t-38 67t-13.5 93v296h78v-286q0 -78 32 -114t98 -36q71 0 111.5 48.5t40.5 129.5v258h78v-588q0 -34 -21.5 -56t-55.5 -22h-173v72h145q27 0 27 30v158zM87 -134q0 29 20.5 49.5t49.5 20.5t49.5 -20.5
t20.5 -49.5t-20.5 -49.5t-49.5 -20.5t-49.5 20.5t-20.5 49.5z" />
    <glyph glyph-name="uni1EF7" unicode="&#x1ef7;" 
d="M267 546l-20 92v6h76q7 -14 25 -14q14 0 24.5 10t10.5 28q0 22 -12.5 32t-27.5 10q-22 0 -33.5 -12.5t-14.5 -27.5l-48 18q8 30 31 50t66 20q39 0 66 -24.5t27 -66.5q0 -35 -20.5 -60t-55.5 -25q-41 0 -54 32h-6l15 -68h-49zM447 90h-12q-24 -48 -63 -76t-99 -28
q-41 0 -75.5 13.5t-59 40.5t-38 67t-13.5 93v296h78v-286q0 -78 32 -114t98 -36q71 0 111.5 48.5t40.5 129.5v258h78v-618q0 -34 -21.5 -56t-55.5 -22h-283v72h255q27 0 27 30v188z" />
    <glyph glyph-name="uni1EF9" unicode="&#x1ef9;" 
d="M447 90h-12q-24 -48 -63 -76t-99 -28q-41 0 -75.5 13.5t-59 40.5t-38 67t-13.5 93v296h78v-286q0 -78 32 -114t98 -36q71 0 111.5 48.5t40.5 129.5v258h78v-618q0 -34 -21.5 -56t-55.5 -22h-283v72h255q27 0 27 30v188zM337 639q5 -10 10 -15t14 -5q10 0 19 10l48 55
l49 -42l-41 -49q-14 -17 -33 -29.5t-45 -12.5q-31 0 -47.5 14t-33.5 45q-7 12 -11.5 17t-12.5 5q-11 0 -22 -12l-46 -53l-49 42l41 49q14 17 33 29.5t46 12.5q29 0 46 -14.5t35 -46.5z" />
    <glyph glyph-name="zacute" unicode="&#x17a;" 
d="M523 72v-72h-432v124l354 288v12h-348v72h414v-120l-356 -292v-12h368zM419 688l-84 -118h-72l66 118h90z" />
    <glyph glyph-name="zcaron" unicode="&#x17e;" 
d="M523 72v-72h-432v124l354 288v12h-348v72h414v-120l-356 -292v-12h368zM450 688l-80 -118h-124l-80 118h84l52 -88h12l52 88h84z" />
    <glyph glyph-name="zdotaccent" unicode="&#x17c;" 
d="M523 72v-72h-432v124l354 288v12h-348v72h414v-120l-356 -292v-12h368zM236 644q0 29 20.5 49.5t49.5 20.5t49.5 -20.5t20.5 -49.5t-20.5 -49.5t-49.5 -20.5t-49.5 20.5t-20.5 49.5z" />
    <glyph glyph-name="uni1E93" unicode="&#x1e93;" 
d="M523 72v-72h-432v124l354 288v12h-348v72h414v-120l-356 -292v-12h368zM237 -133q0 29 20.5 49.5t49.5 20.5t49.5 -20.5t20.5 -49.5t-20.5 -49.5t-49.5 -20.5t-49.5 20.5t-20.5 49.5z" />
    <glyph glyph-name="thorn" unicode="&#xfe;" 
d="M147 -200h-78v900h78v-282h12q26 45 72 68.5t100 23.5q46 0 87 -17t72.5 -49t50 -79t18.5 -107v-20q0 -61 -18 -108t-49.5 -79t-73.5 -48.5t-89 -16.5q-24 0 -49 5.5t-47.5 17t-41.5 28t-32 39.5h-12v-276zM313 60q36 0 66 12.5t52.5 35.5t35 56t12.5 74v20
q0 40 -12.5 72.5t-35 56t-53 36.5t-65.5 13t-65 -13.5t-52.5 -37.5t-35.5 -57.5t-13 -73.5v-12q0 -41 13 -74.5t35.5 -57.5t52.5 -37t65 -13z" />
    <glyph glyph-name="eng" unicode="&#x14b;" 
d="M165 0h-78v496h78v-84h12q46 98 160 98q86 0 137 -53.5t51 -160.5v-418q0 -34 -21.5 -56t-55.5 -22h-131v72h103q27 0 27 30v378q0 78 -35 117t-95 39q-71 0 -111.5 -48.5t-40.5 -129.5v-258z" />
    <glyph glyph-name="uni0237" unicode="&#x237;" 
d="M141 496h276v-618q0 -34 -21.5 -56t-55.5 -22h-223v72h195q27 0 27 30v522h-198v72z" />
    <glyph glyph-name="ij" unicode="&#x133;" 
d="M416 644q0 29 20.5 49.5t49.5 20.5t49.5 -20.5t20.5 -49.5t-20.5 -49.5t-49.5 -20.5t-49.5 20.5t-20.5 49.5zM56 644q0 29 20.5 49.5t49.5 20.5t49.5 -20.5t20.5 -49.5t-20.5 -49.5t-49.5 -20.5t-49.5 20.5t-20.5 49.5zM447 90h-12q-24 -48 -63 -76t-99 -28
q-41 0 -75.5 13.5t-59 40.5t-38 67t-13.5 93v296h78v-286q0 -78 32 -114t98 -36q71 0 111.5 48.5t40.5 129.5v258h78v-618q0 -34 -21.5 -56t-55.5 -22h-223v72h195q27 0 27 30v188z" />
    <glyph glyph-name="ijacute" 
d="M447 90h-12q-24 -48 -63 -76t-99 -28q-41 0 -75.5 13.5t-59 40.5t-38 67t-13.5 93v296h78v-286q0 -78 32 -114t98 -36q71 0 111.5 48.5t40.5 129.5v258h78v-618q0 -34 -21.5 -56t-55.5 -22h-223v72h195q27 0 27 30v188zM248 688l-84 -118h-72l66 118h90zM608 688
l-84 -118h-72l66 118h90z" />
    <glyph glyph-name="uni0250" unicode="&#x250;" 
d="M192.025 412.005h12q19.998 44.9971 57.9961 71.4961q37.998 26.498 94.9941 26.498q40.9971 0 73.4951 -11.999t54.9971 -32.498q22.498 -20.499 33.998 -47.4971q11.499 -26.998 11.499 -57.9971v-11.999q0 -34.998 -13.499 -63.4961t-36.998 -47.9971
q-23.498 -19.499 -55.4961 -29.998t-69.9961 -10.499h-162.99v-19.999q0 -21.999 7.5 -42.9971q7.49902 -20.999 22.998 -37.498t39.498 -26.998q23.998 -10.5 57.9961 -10.5q51.9971 0 84.4951 27.499q32.498 27.498 40.4971 80.4951l73.9961 -17.999
q-6 -32.998 -20.999 -61.9961q-14.999 -28.999 -39.9971 -51.4971q-24.999 -22.499 -59.4971 -35.498q-34.4971 -12.999 -78.4951 -12.999q-45.9971 0 -83.9941 13.999q-37.998 13.999 -64.9961 39.498q-26.999 25.498 -41.998 59.9961t-14.999 75.4951v218.986
q0 29.998 -26.998 29.998h-24.999v71.9961h52.9971q33.998 0 55.4971 -21.999q21.498 -21.998 21.498 -55.9961v-6zM350.016 438.004q-76.9951 0 -116.992 -43.498q-39.998 -43.4971 -39.998 -114.492v-12h152.991q50.9961 0 79.4951 20.999q28.498 20.999 28.498 64.9961
q0 36.998 -26.998 60.4961q-26.999 23.499 -76.9961 23.499z" />
    <glyph glyph-name="uni0252" unicode="&#x252;" 
d="M177.027 412.005h11.999q23.999 49.9971 66.4961 73.9961q42.4971 23.998 89.4941 23.998q48.9971 0 90.9951 -16.499q41.9971 -16.499 73.4951 -48.9971t49.4971 -79.4951t17.999 -108.993v-15.999q0 -60.9961 -17.999 -107.993t-49.4971 -79.4951t-73.4951 -49.4971
q-41.998 -16.999 -88.9951 -16.999q-50.9971 0 -92.4941 22.498q-41.4971 22.499 -65.4961 69.4961h-11.999v-77.9951h-77.9951v393.976q0 29.998 -26.999 29.998h-24.998v71.9961h52.9971q33.998 0 55.4961 -21.999q21.499 -21.998 21.499 -55.9961v-6zM337.018 436.004
q-34.998 0 -64.4961 -12.999q-29.498 -13 -50.4971 -36.998q-20.999 -23.999 -32.998 -57.4971q-11.999 -33.4971 -11.999 -74.4951v-11.999q0 -39.998 11.999 -73.4961q11.999 -33.4971 33.498 -57.4961q21.499 -23.998 50.9971 -37.498q29.498 -13.499 63.4961 -13.499
q34.998 0 63.9961 12.999q28.998 13 50.4971 36.498q21.498 23.499 33.498 56.9971q11.999 33.4971 11.999 73.4951v15.999q0 84.9951 -44.4971 132.492t-115.493 47.4971z" />
    <glyph glyph-name="uni0254" unicode="&#x254;" 
d="M59.0332 176q8 -41 27.499 -76t49.4971 -60.5t69.9951 -39.5q39.998 -14 88.9951 -14q51.9961 0 98.4941 17q46.4971 17 81.4941 49.5q34.998 32.5 55.4971 79.5t20.499 108v12q0 60 -20.499 108t-55.4971 81q-34.9971 33 -81.4941 51q-46.498 18 -98.4941 18
q-46.9971 0 -86.9951 -14q-39.9971 -14 -70.4951 -39.5q-30.499 -25.5 -49.9971 -60.5q-19.499 -35 -26.499 -76l77.9951 -18q3 26 14.5 50.5q11.499 24.5 30.998 43q19.498 18.5 47.4971 29.5q27.998 11 64.9961 11q35.9971 0 67.4951 -13.5t55.4971 -38
q23.998 -24.5 37.498 -58.5q13.499 -34 13.499 -74v-12q0 -42 -13.499 -75.5q-13.5 -33.5 -37.498 -56.5q-23.999 -23 -55.9971 -35.5t-68.9951 -12.5q-36.998 0 -64.4961 11.5q-27.499 11.5 -46.9971 30q-19.499 18.5 -30.998 42.5q-11.5 24 -15.499 50z" />
    <glyph glyph-name="uni0258" unicode="&#x258;" 
d="M468.009 224q-3 -74 -45.9971 -119t-119.993 -45q-34.9971 0 -60.9961 8q-25.998 8 -44.4971 22t-29.998 32.5t-18.499 39.5l-73.9951 -20q20.998 -69 77.4951 -112.5q56.4961 -43.5 152.49 -43.5q52.9971 0 97.4941 18.5t76.4951 52.5t49.9971 81t17.999 104v24
q0 52 -18.499 97t-51.4971 77.5q-32.9971 32.5 -77.4951 51q-44.4971 18.5 -96.4941 18.5q-60.9961 0 -105.493 -22.5t-72.9951 -55.5q-28.499 -33 -41.998 -72t-13.499 -72v-64h399.976zM302.019 436q32.998 0 61.4971 -10.5q28.498 -10.5 49.9961 -29.5
q21.499 -19 34.998 -44.5t17.499 -55.5h-319.98q2 32 15.499 58t34.998 44t48.9971 28t56.4961 10z" />
    <glyph glyph-name="uni0251" unicode="&#x251;" 
d="M447 84h-12q-24 -50 -66.5 -74t-89.5 -24q-49 0 -91 16.5t-73.5 49t-49.5 79.5t-18 109v16q0 61 18 108t49.5 79.5t73.5 49.5t89 17q51 0 92.5 -22.5t65.5 -69.5h12v78h78v-394q0 -30 27 -30h25v-72h-53q-34 0 -55.5 22t-21.5 56v6zM287 60q35 0 64.5 13t50.5 37t33 57.5
t12 74.5v12q0 40 -12 73.5t-33.5 57.5t-51 37.5t-63.5 13.5q-35 0 -64 -13t-50.5 -36.5t-33.5 -57t-12 -73.5v-16q0 -85 44.5 -132.5t115.5 -47.5z" />
    <glyph glyph-name="uni0259" unicode="&#x259;" 
d="M466 272q-3 74 -47.5 119t-119.5 45q-33 0 -58 -9t-43 -23.5t-30.5 -33.5t-20.5 -38l-70 30q30 69 85.5 108.5t137.5 39.5q52 0 97 -18t77.5 -51t51 -80t18.5 -105v-24q0 -53 -18.5 -98t-51 -78t-77 -51.5t-97.5 -18.5q-62 0 -106 22.5t-72.5 56.5t-42 74t-13.5 75v58
h400zM300 60q33 0 61.5 10.5t50 29.5t35 44.5t17.5 55.5h-320q1 -32 15 -58t35.5 -44t49 -28t56.5 -10z" />
    <glyph glyph-name="uni0261" unicode="&#x261;" 
d="M464 76h-12q-24 -45 -65.5 -67.5t-90.5 -22.5q-50 0 -94 17t-77.5 49t-53 79.5t-19.5 108.5v16q0 60 20 107.5t53 80t77 49.5t92 17q54 0 94.5 -23.5t63.5 -68.5h12v78h78v-618q0 -34 -21.5 -56t-55.5 -22h-323v72h295q27 0 27 30v174zM298 60q35 0 65 13t52.5 37
t35.5 57.5t13 74.5v12q0 40 -13 73.5t-35.5 57.5t-53 37.5t-64.5 13.5q-35 0 -65.5 -13t-53 -37t-35 -57t-12.5 -73v-16q0 -42 12.5 -75t35 -56.5t52.5 -36t66 -12.5z" />
    <glyph glyph-name="uni0265" unicode="&#x265;" 
d="M446 496h78v-696h-78v290h-12q-23 -48 -64.5 -76t-101.5 -28q-81 0 -131.5 53.5t-50.5 160.5v296h78v-280q0 -78 35 -117t95 -39q71 0 111.5 48.5t40.5 129.5v258z" />
    <glyph glyph-name="uni029E" unicode="&#x29e;" 
d="M397 206h-17l-189 -206h-96v6l206 227v18l-230 239v6h96l211 -218h19v218h78v-696h-78v406z" />
    <glyph glyph-name="uni026F" unicode="&#x26f;" 
d="M48.0342 496h77.9951v-355.979q0 -34.998 15.999 -57.4961q15.999 -22.499 50.9971 -22.499q32.998 0 53.4971 24.499q20.499 24.498 20.499 75.4951v335.979h77.9951v-359.979q0 -32.9971 17.999 -54.4961q17.998 -21.499 47.9971 -21.499q35.9971 0 55.4961 25.999
q19.499 25.998 19.499 67.9951v341.979h77.9951v-495.97h-77.9951v53.9971h-11.999q-13 -34.998 -37.998 -51.4971t-58.9961 -16.499q-35.998 0 -59.4971 18.999q-23.498 18.999 -32.498 48.9971h-11.999q-33.998 -67.9961 -107.993 -67.9961q-55.9971 0 -86.4951 35.498
q-30.498 35.4971 -30.498 92.4941v381.977z" />
    <glyph glyph-name="uni0279" unicode="&#x279;" 
d="M553.004 0.0302734h-179.989v65.9961h-11.999q-18.999 -40.998 -53.9971 -60.4961q-34.998 -19.499 -79.9951 -19.499q-74.9951 0 -120.992 48.9971q-45.998 48.9971 -48.9971 142.991l81.9951 11.999q0 -68.9961 32.998 -99.4941q32.9971 -30.498 80.9941 -30.498
q30.998 0 53.4971 11.999q22.499 12 37.498 32.998q14.999 20.999 21.998 48.9971q7 27.999 7 59.9971v209.986h-125.992v71.9961h317.98v-71.9961h-113.993v-351.979h101.994v-71.9951z" />
    <glyph glyph-name="uni0287" unicode="&#x287;" 
d="M528 0h-156v-200h-78v200h-192v72h192v322q0 30 -27 30h-141v72h169q34 0 55.5 -22t21.5 -56v-346h156v-72z" />
    <glyph glyph-name="uni028C" unicode="&#x28c;" 
d="M228.023 496h153.99l172.989 -495.97h-91.9941l-151.99 459.972h-12l-151.99 -459.972h-91.9941z" />
    <glyph glyph-name="uni028D" unicode="&#x28d;" 
d="M96.0312 496h143.991l59.9971 -459.972h11.999l59.9961 459.972h143.991l77.9951 -495.97h-79.9951l-65.9961 459.972h-11.999l-57.9961 -459.972h-143.991l-57.9971 459.972h-11.999l-65.9961 -459.972h-79.9951z" />
    <glyph glyph-name="uni028E" unicode="&#x28e;" 
d="M237 496h30v126q0 34 21.5 56t55.5 22h194v-72h-166q-27 0 -27 -30v-102h30l181 -496h-92l-152 436h-12l-152 -436h-92z" />
    <glyph glyph-name="pi" unicode="&#x3c0;" 
d="M140 0v424h-72v72h478v-72h-72v-322q0 -30 27 -30h45v-72h-73q-34 0 -55.5 22t-21.5 56v346h-178v-424h-78z" />
    <glyph glyph-name="ordfeminine" unicode="&#xaa;" 
d="M373 452q-10 -24 -33.5 -35t-50.5 -11t-51 10t-42 29t-28.5 47t-10.5 64t10.5 63.5t28.5 47t42.5 29.5t52.5 10q59 0 82 -40h6v32h66v-209q0 -17 16 -17h14v-60h-48q-20 0 -33 10t-15 30h-6zM301 466q32 0 55 21.5t23 68.5q0 45 -21.5 67.5t-56.5 22.5q-36 0 -57 -25.5
t-21 -64.5q0 -44 21 -67t57 -23z" />
    <glyph glyph-name="ordmasculine" unicode="&#xba;" 
d="M157 556q0 37 12.5 65t33.5 47t47.5 28.5t55.5 9.5q28 0 55 -9.5t48 -28.5t33.5 -47t12.5 -65t-12.5 -65t-33.5 -47t-48 -28.5t-55 -9.5q-29 0 -55.5 9.5t-47.5 28.5t-33.5 47t-12.5 65zM306 466q34 0 58.5 23t24.5 67t-24.5 67t-58.5 23t-58.5 -23t-24.5 -67t24.5 -67
t58.5 -23z" />
    <glyph glyph-name="dagger" unicode="&#x2020;" 
d="M156 604h114v110h72v-110h114v-70h-114v-316h-72v316h-114v70z" />
    <glyph glyph-name="daggerdbl" unicode="&#x2021;" 
d="M156 398h114v136h-114v70h114v110h72v-110h114v-70h-114v-136h114v-70h-114v-110h-72v110h-114v70z" />
    <glyph glyph-name="section" unicode="&#xa7;" 
d="M184 494q0 16 5 28t13 23q-7 11 -12.5 26t-5.5 33q0 25 10 45.5t27.5 35t40.5 22t50 7.5q31 0 55 -9.5t40 -24.5t24 -35t8 -41v-16h-68v6q0 21 -17 37.5t-46 16.5q-26 0 -40 -12t-14 -31q0 -18 17.5 -30t68.5 -21q52 -9 78.5 -34t26.5 -72q0 -15 -5 -27.5t-12 -25.5
q17 -24 17 -59q0 -51 -36 -84.5t-97 -33.5q-69 0 -104.5 37t-35.5 92v12h68v-6q0 -28 18 -48.5t56 -20.5q35 0 48 15t13 32q0 20 -16.5 33t-64.5 22q-21 4 -40.5 10.5t-35 18.5t-25 31t-9.5 48zM340 441q8 -2 17.5 -4.5t16.5 -4.5q1 2 1 6.5v6.5q0 18 -16.5 31.5t-64.5 22.5
q-9 2 -19 4.5t-19 5.5q-1 -2 -1.5 -7.5t-0.5 -8.5q0 -17 17.5 -30t68.5 -22z" />
    <glyph glyph-name="paragraph" unicode="&#xb6;" 
d="M269 424q-30 0 -56.5 11.5t-46 31t-31 46t-11.5 56.5t11.5 56.5t31 46t46 31t56.5 11.5h180v-496h-72v424h-36v-424h-72v206zM269 642q-30 0 -51.5 -21.5t-21.5 -51.5t21.5 -51.5t51.5 -21.5v146z" />
    <glyph glyph-name="copyright" unicode="&#xa9;" 
d="M58 556q0 51 19.5 96.5t53 79t79 53t96.5 19.5t96.5 -19.5t79 -53t53 -79t19.5 -96.5t-19.5 -96.5t-53 -79t-79 -53t-96.5 -19.5t-96.5 19.5t-79 53t-53 79t-19.5 96.5zM106 556q0 -42 15.5 -78.5t42.5 -63.5t63.5 -42.5t78.5 -15.5t78.5 15.5t63.5 42.5t42.5 63.5
t15.5 78.5t-15.5 78.5t-42.5 63.5t-63.5 42.5t-78.5 15.5t-78.5 -15.5t-63.5 -42.5t-42.5 -63.5t-15.5 -78.5zM306 454q23 0 36 14.5t13 36.5v18h54v-12q0 -46 -26 -75.5t-77 -29.5q-50 0 -77.5 29.5t-27.5 75.5v90q0 46 28 75.5t77 29.5q51 0 77 -29.5t26 -75.5v-12h-54v18
q0 22 -13 36.5t-36 14.5t-37 -14.5t-14 -36.5v-102q0 -22 14 -36.5t37 -14.5z" />
    <glyph glyph-name="registered" unicode="&#xae;" 
d="M58 556q0 51 19.5 96.5t53 79t79 53t96.5 19.5t96.5 -19.5t79 -53t53 -79t19.5 -96.5t-19.5 -96.5t-53 -79t-79 -53t-96.5 -19.5t-96.5 19.5t-79 53t-53 79t-19.5 96.5zM106 556q0 -42 15.5 -78.5t42.5 -63.5t63.5 -42.5t78.5 -15.5t78.5 15.5t63.5 42.5t42.5 63.5
t15.5 78.5t-15.5 78.5t-42.5 63.5t-63.5 42.5t-78.5 15.5t-78.5 -15.5t-63.5 -42.5t-42.5 -63.5t-15.5 -78.5zM402 412h-54v83q0 11 -6.5 18t-18.5 7h-47v-108h-54v288h96q45 0 67.5 -24t22.5 -56q0 -26 -8.5 -43.5t-31.5 -27.5v-6q18 -2 26 -14.5t8 -26.5v-90zM276 568h32
q23 0 34.5 12.5t11.5 31.5t-11.5 30t-34.5 11h-32v-85z" />
    <glyph glyph-name="trademark" unicode="&#x2122;" 
d="M62 700h204v-48h-75v-240h-54v240h-75v48zM290 700h104l15 -252h6l16 252h104v-288h-54v258h-6l-18 -258h-90l-17 258h-6v-258h-54v288z" />
    <glyph glyph-name="uni2120" unicode="&#x2120;" 
d="M304 700h104l15 -252h6l16 252h104v-288h-54v258h-6l-18 -258h-90l-17 258h-6v-258h-54v288zM217 614q0 21 -13 32.5t-34 11.5q-19 0 -30.5 -9.5t-11.5 -24.5q0 -17 11.5 -26t48.5 -16q47 -8 66.5 -29.5t19.5 -56.5q0 -42 -24 -66t-75 -24q-55 0 -84 30.5t-29 75.5v10h54
v-8q0 -27 14 -43.5t44 -16.5q24 0 35 11.5t11 26.5q0 19 -11.5 28.5t-40.5 14.5q-41 7 -67.5 25.5t-26.5 63.5q0 36 26.5 59t68.5 23q50 0 76 -25t26 -63v-14h-54v10z" />
    <glyph glyph-name="uni212E" unicode="&#x212e;" 
d="M158 326v-82q15 -36 53.5 -62t98.5 -26q37 0 64.5 8.5t46.5 23.5t30.5 34t18.5 40l68 -18q-21 -69 -77.5 -112.5t-152.5 -43.5q-53 0 -97.5 18.5t-76.5 52.5t-50 81t-18 104v24q0 52 18.5 97t51.5 77.5t77.5 51t96.5 18.5q61 0 105.5 -22.5t73 -55.5t42 -72t13.5 -72v-64
h-386zM310 544q-29 0 -53.5 -7.5t-44 -20t-33.5 -28.5t-21 -33v-63h296v70q-17 35 -55 58.5t-89 23.5z" />
    <glyph glyph-name="numbersign" unicode="#" 
d="M360 102v122h-108v-122h-72v122h-110v72h110v108h-110v72h110v122h72v-122h108v122h72v-122h110v-72h-110v-108h110v-72h-110v-122h-72zM360 404h-108v-108h108v108z" />
    <glyph glyph-name="currency" unicode="&#xa4;" 
d="M56 350q0 41 12 78t35 68l-59 59l57 57l59 -59q31 22 67.5 34.5t78.5 12.5q41 0 78 -12.5t68 -34.5l59 59l57 -57l-59 -59q22 -31 34.5 -68t12.5 -78q0 -42 -12.5 -78.5t-34.5 -67.5l59 -59l-57 -57l-59 59q-31 -23 -68 -35t-78 -12q-42 0 -78.5 12t-67.5 35l-59 -59
l-57 57l59 59q-23 31 -35 67.5t-12 78.5zM134 350q0 -36 13.5 -67.5t36.5 -54.5t54.5 -36.5t67.5 -13.5t67.5 13.5t54.5 36.5t36.5 54.5t13.5 67.5t-13.5 67.5t-36.5 54.5t-54.5 36.5t-67.5 13.5t-67.5 -13.5t-54.5 -36.5t-36.5 -54.5t-13.5 -67.5z" />
    <glyph glyph-name="dollar" unicode="$" 
d="M334 608q35 -6 63.5 -20.5t48.5 -35.5t31 -46.5t11 -53.5v-18h-76v12q0 33 -21.5 56t-56.5 32v-143q83 -10 126.5 -45.5t43.5 -97.5v-6q0 -67 -46.5 -107.5t-123.5 -45.5v-61h-72v63q-44 7 -75.5 24.5t-52 42t-30.5 53t-10 57.5v24h76v-12q0 -48 24 -77t68 -39v163
q-75 10 -114.5 43.5t-39.5 93.5v6q0 32 12.5 56.5t33.5 42t49 28t59 13.5v62h72v-64zM426 242q0 35 -22 52t-70 25v-158q43 5 67.5 26t24.5 55zM186 470q0 -28 16.5 -45.5t59.5 -25.5v139q-32 -5 -54 -22t-22 -46z" />
    <glyph glyph-name="sterling" unicode="&#xa3;" 
d="M248 366h90v-72h-90v-120h242v-72h-380v72h60v120h-60v72h60v74q0 83 44 127.5t122 44.5q75 0 120.5 -44.5t45.5 -127.5v-24h-78v24q0 51 -25 75.5t-63 24.5t-63 -24.5t-25 -75.5v-74z" />
    <glyph glyph-name="yen" unicode="&#xa5;" 
d="M132 366h86l-122 232h86l118 -232h12l118 232h86l-122 -232h86v-72h-138v-36h138v-72h-138v-84h-72v84h-138v72h138v36h-138v72z" />
    <glyph glyph-name="Euro" unicode="&#x20ac;" 
d="M36 438h60q12 41 36 73t56.5 54.5t71 34.5t80.5 12q47 0 87 -14t70.5 -39.5t50 -60.5t26.5 -76l-78 -18q-3 26 -14.5 50.5t-31 43t-47.5 29.5t-65 11q-52 0 -93.5 -27t-62.5 -73h144v-72h-162v-36h162v-72h-145q22 -46 63.5 -71t95.5 -25q37 0 64.5 11.5t47 30t31 42.5
t15.5 50l78 -18q-8 -41 -27.5 -76t-49.5 -60.5t-70 -39.5t-89 -14q-42 0 -80.5 11t-71 32.5t-56.5 53.5t-36 73h-60v72h48v36h-48v72z" />
    <glyph glyph-name="cent" unicode="&#xa2;" 
d="M351 609q81 -10 133.5 -61t65.5 -126l-78 -18q-5 45 -35 82t-86 48v-369q28 5 49.5 17.5t36.5 30.5t24.5 39t12.5 44l78 -18q-14 -75 -66 -126.5t-135 -61.5v-62h-72v62q-46 6 -86 25t-69.5 51.5t-46.5 76.5t-17 99v12q0 54 17 98.5t46.5 77.5t69.5 53t86 26v63h72v-63z
M140 342q0 -37 10.5 -67t29 -52.5t44 -37t55.5 -20.5v369q-30 -6 -55 -21.5t-44 -39t-29.5 -54t-10.5 -65.5v-12z" />
    <glyph glyph-name="uni20A6" unicode="&#x20a6;" 
d="M80 438h60v160h156l29 -160h67v160h78v-160h60v-72h-60v-36h60v-72h-60v-156h-156l-29 156h-67v-156h-78v156h-60v72h60v36h-60v72zM218 438h34l-22 118h-12v-118zM392 144v114h-33l21 -114h12zM218 330h54l-7 36h-47v-36zM345 330h47v36h-53z" />
    <glyph glyph-name="uni20B1" unicode="&#x20b1;" 
d="M86 479h60v119h172q66 0 105.5 -34.5t47.5 -84.5h63v-72h-63q-2 -11 -10.5 -23.5t-19.5 -17.5v-6h93v-72h-310v-186h-78v186h-60v72h60v47h-60v72zM312 360q61 0 78 47h-166v-47h88zM224 479h166q-17 47 -78 47h-88v-47z" />
    <glyph glyph-name="uni20B2" unicode="&#x20b2;" 
d="M338 609q35 -6 61 -21.5t43.5 -39t26.5 -53.5t9 -63v-12h-78v12q0 34 -15 62.5t-47 39.5v-186h140v-246h-72v56h-12q-11 -43 -56 -62v-68h-72v61q-70 8 -106.5 58.5t-36.5 144.5v116q0 85 37.5 137.5t105.5 63.5v63h72v-63zM201 286q0 -47 16 -78.5t49 -42.5v369
q-35 -11 -50 -42.5t-15 -79.5v-126zM338 276v-111q30 9 48.5 35.5t18.5 69.5v6h-67z" />
    <glyph glyph-name="uni20B5" unicode="&#x20b5;" 
d="M344 609q35 -6 61 -21.5t43.5 -38t26 -51.5t8.5 -60v-18h-78v18q0 33 -15 59.5t-46 37.5v-370q31 10 46 36.5t15 60.5v18h78v-18q0 -32 -8.5 -60.5t-26 -51t-43.5 -38t-61 -21.5v-63h-72v62q-69 11 -106 62t-37 142v112q0 87 37.5 139.5t105.5 63.5v63h72v-63zM206 292
q0 -108 66 -127v369q-66 -23 -66 -126v-116z" />
    <glyph glyph-name="uni20B9" unicode="&#x20b9;" 
d="M128 598h366v-72h-79v-6q14 -14 17 -35h62v-72h-65q-6 -21 -21 -38t-38 -27v-12q21 -3 33.5 -16.5t12.5 -36.5v-181h-78v160q0 18 -8 28t-30 10h-172v72h142q62 0 79 41h-221v72h221q-17 41 -79 41h-142v72z" />
    <glyph glyph-name="fraction" unicode="&#x2044;" 
d="M531 494l24 -46l-473 -241l-24 46z" />
    <glyph glyph-name="uni2215" unicode="&#x2215;" 
d="M485 806l66 -31l-423 -881l-67 31z" />
    <glyph glyph-name="percent" unicode="%" 
d="M346 556q0 -36 -12 -63.5t-32.5 -47t-47 -29.5t-55.5 -10t-55.5 10t-47 29.5t-32.5 47t-12 63.5t12 63.5t32.5 47t47 29.5t55.5 10t55.5 -10t47 -29.5t32.5 -47t12 -63.5zM199 460q39 0 63 26.5t24 69.5t-24 69.5t-63 26.5t-63 -26.5t-24 -69.5q0 -48 24 -72t63 -24z
M561 144q0 -36 -12 -63.5t-32.5 -47t-47 -29.5t-55.5 -10t-55.5 10t-47 29.5t-32.5 47t-12 63.5t12 63.5t32.5 47t47 29.5t55.5 10t55.5 -10t47 -29.5t32.5 -47t12 -63.5zM414 48q39 0 63 26.5t24 69.5t-24 69.5t-63 26.5t-63 -26.5t-24 -69.5q0 -48 24 -72t63 -24zM531 494
l24 -46l-473 -241l-24 46z" />
    <glyph glyph-name="perthousand" unicode="&#x2030;" 
d="M268 198q0 44 22 70t66 26q20 0 36.5 -8t24.5 -22h6q8 14 24 22t37 8q44 0 66 -26t22 -70v-108q0 -44 -22 -70t-66 -26q-21 0 -37 8t-24 22h-6q-8 -14 -24.5 -22t-36.5 -8q-44 0 -66 26t-22 70v108zM359 240q-20 0 -25.5 -13.5t-5.5 -30.5v-104q0 -17 5.5 -30.5
t25.5 -13.5t25.5 13.5t5.5 30.5v104q0 17 -5.5 30.5t-25.5 13.5zM338 556q0 -36 -12 -63.5t-32.5 -47t-47 -29.5t-55.5 -10t-55.5 10t-47 29.5t-32.5 47t-12 63.5t12 63.5t32.5 47t47 29.5t55.5 10t55.5 -10t47 -29.5t32.5 -47t12 -63.5zM191 460q39 0 63 26.5t24 69.5
t-24 69.5t-63 26.5t-63 -26.5t-24 -69.5q0 -48 24 -72t63 -24zM481 240q-20 0 -25.5 -13.5t-5.5 -30.5v-104q0 -17 5.5 -30.5t25.5 -13.5t25.5 13.5t5.5 30.5v104q0 17 -5.5 30.5t-25.5 13.5zM523 494l24 -46l-473 -241l-24 46z" />
    <glyph glyph-name="onequarter" unicode="&#xbc;" 
d="M531 494l24 -46l-473 -241l-24 46zM136 460v210h-9l-22 -93h-53l32 123h106v-240h71v-48h-203v48h78zM410 289h99v-186h40v-48h-40v-54h-54v54h-130v66zM373 109v-6h82v156h-6z" />
    <glyph glyph-name="onehalf" unicode="&#xbd;" 
d="M531 494l24 -46l-473 -241l-24 46zM552 49v-48h-195v54q0 42 24 64.5t72 33.5q33 8 40.5 22t7.5 28q0 17 -11 30.5t-35 13.5q-23 0 -36.5 -14t-13.5 -40v-18h-54v18q0 42 27.5 72t78.5 30q24 0 42.5 -7.5t30.5 -20t18.5 -29t6.5 -33.5q0 -36 -18 -62t-66 -36
q-36 -8 -48 -20t-12 -32v-6h141zM136 460v210h-9l-22 -93h-53l32 123h106v-240h71v-48h-203v48h78z" />
    <glyph glyph-name="threequarters" unicode="&#xbe;" 
d="M531 494l24 -46l-473 -241l-24 46zM410 289h99v-186h40v-48h-40v-54h-54v54h-130v66zM373 109v-6h82v156h-6zM121 542v76l82 28v6h-145v48h187v-84l-82 -28v-6h6q36 0 60 -20.5t24 -59.5q0 -43 -27.5 -69.5t-72.5 -26.5q-48 0 -76 28.5t-28 67.5v16h54v-14
q0 -23 12.5 -36.5t35.5 -13.5t35.5 12t12.5 32q0 24 -14.5 34t-31.5 10h-32z" />
    <glyph glyph-name="onethird" unicode="&#x2153;" 
d="M531 494l24 -46l-473 -241l-24 46zM431 131v76l82 28v6h-145v48h187v-84l-82 -28v-6h6q36 0 60 -20.5t24 -59.5q0 -43 -27.5 -69.5t-72.5 -26.5q-48 0 -76 28.5t-28 67.5v16h54v-14q0 -23 12.5 -36.5t35.5 -13.5t35.5 12t12.5 32q0 24 -14.5 34t-31.5 10h-32zM136 460
v210h-9l-22 -93h-53l32 123h106v-240h71v-48h-203v48h78z" />
    <glyph glyph-name="twothirds" unicode="&#x2154;" 
d="M531 494l24 -46l-473 -241l-24 46zM254 460v-48h-195v54q0 42 24 64.5t72 33.5q33 8 40.5 22t7.5 28q0 17 -11 30.5t-35 13.5q-23 0 -36.5 -14t-13.5 -40v-18h-54v18q0 42 27.5 72t78.5 30q24 0 42.5 -7.5t30.5 -20t18.5 -29t6.5 -33.5q0 -36 -18 -62t-66 -36
q-36 -8 -48 -20t-12 -32v-6h141zM431 131v76l82 28v6h-145v48h187v-84l-82 -28v-6h6q36 0 60 -20.5t24 -59.5q0 -43 -27.5 -69.5t-72.5 -26.5q-48 0 -76 28.5t-28 67.5v16h54v-14q0 -23 12.5 -36.5t35.5 -13.5t35.5 12t12.5 32q0 24 -14.5 34t-31.5 10h-32z" />
    <glyph glyph-name="oneeighth" unicode="&#x215b;" 
d="M531 494l24 -46l-473 -241l-24 46zM136 460v210h-9l-22 -93h-53l32 123h106v-240h71v-48h-203v48h78zM455 -5q-20 0 -38 5t-31.5 15.5t-22 26t-8.5 37.5q0 30 16.5 46.5t36.5 21.5v6q-17 5 -32 20.5t-15 45.5q0 35 26.5 55.5t67.5 20.5t67.5 -20.5t26.5 -55.5
q0 -30 -15 -45.5t-32 -20.5v-6q20 -5 36.5 -21.5t16.5 -46.5q0 -22 -8.5 -37.5t-22 -26t-32 -15.5t-37.5 -5zM455 43q20 0 33 11t13 31t-13 31t-33 11t-33 -11t-13 -31t13 -31t33 -11zM455 175q19 0 32.5 9t13.5 27t-13.5 27t-32.5 9t-32.5 -9t-13.5 -27t13.5 -27t32.5 -9z
" />
    <glyph glyph-name="threeeighths" unicode="&#x215c;" 
d="M531 494l24 -46l-473 -241l-24 46zM122 542v76l82 28v6h-145v48h187v-84l-82 -28v-6h6q36 0 60 -20.5t24 -59.5q0 -43 -27.5 -69.5t-72.5 -26.5q-48 0 -76 28.5t-28 67.5v16h54v-14q0 -23 12.5 -36.5t35.5 -13.5t35.5 12t12.5 32q0 24 -14.5 34t-31.5 10h-32zM455 -5
q-20 0 -38 5t-31.5 15.5t-22 26t-8.5 37.5q0 30 16.5 46.5t36.5 21.5v6q-17 5 -32 20.5t-15 45.5q0 35 26.5 55.5t67.5 20.5t67.5 -20.5t26.5 -55.5q0 -30 -15 -45.5t-32 -20.5v-6q20 -5 36.5 -21.5t16.5 -46.5q0 -22 -8.5 -37.5t-22 -26t-32 -15.5t-37.5 -5zM455 43
q20 0 33 11t13 31t-13 31t-33 11t-33 -11t-13 -31t13 -31t33 -11zM455 175q19 0 32.5 9t13.5 27t-13.5 27t-32.5 9t-32.5 -9t-13.5 -27t13.5 -27t32.5 -9z" />
    <glyph glyph-name="fiveeighths" unicode="&#x215d;" 
d="M531 494l24 -46l-473 -241l-24 46zM455 -5q-20 0 -38 5t-31.5 15.5t-22 26t-8.5 37.5q0 30 16.5 46.5t36.5 21.5v6q-17 5 -32 20.5t-15 45.5q0 35 26.5 55.5t67.5 20.5t67.5 -20.5t26.5 -55.5q0 -30 -15 -45.5t-32 -20.5v-6q20 -5 36.5 -21.5t16.5 -46.5
q0 -22 -8.5 -37.5t-22 -26t-32 -15.5t-37.5 -5zM455 43q20 0 33 11t13 31t-13 31t-33 11t-33 -11t-13 -31t13 -31t33 -11zM455 175q19 0 32.5 9t13.5 27t-13.5 27t-32.5 9t-32.5 -9t-13.5 -27t13.5 -27t32.5 -9zM59 539v161h188v-48h-134v-80h6q17 35 62 35q38 0 61 -24.5
t23 -68.5q0 -47 -26 -77.5t-80 -30.5q-29 0 -49 8t-32.5 21t-18.5 29.5t-6 34.5v6h54q0 -51 54 -51q24 0 37 15.5t13 44.5q0 23 -11.5 34t-26.5 11q-13 0 -20.5 -6t-9.5 -14h-84z" />
    <glyph glyph-name="seveneighths" unicode="&#x215e;" 
d="M531 494l24 -46l-473 -241l-24 46zM455 -5q-20 0 -38 5t-31.5 15.5t-22 26t-8.5 37.5q0 30 16.5 46.5t36.5 21.5v6q-17 5 -32 20.5t-15 45.5q0 35 26.5 55.5t67.5 20.5t67.5 -20.5t26.5 -55.5q0 -30 -15 -45.5t-32 -20.5v-6q20 -5 36.5 -21.5t16.5 -46.5
q0 -22 -8.5 -37.5t-22 -26t-32 -15.5t-37.5 -5zM455 43q20 0 33 11t13 31t-13 31t-33 11t-33 -11t-13 -31t13 -31t33 -11zM455 175q19 0 32.5 9t13.5 27t-13.5 27t-32.5 9t-32.5 -9t-13.5 -27t13.5 -27t32.5 -9zM71 700h192v-88l-98 -149q-8 -11 -12 -19.5t-4 -19.5v-12h-59
v15q0 16 6.5 28.5t18.5 30.5l106 158v6h-150v50z" />
    <glyph glyph-name="plus" unicode="+" 
d="M97 386h173v173h72v-173h173v-72h-173v-173h-72v173h-173v72z" />
    <glyph glyph-name="minus" unicode="&#x2212;" 
d="M97 386h418v-72h-418v72z" />
    <glyph glyph-name="multiply" unicode="&#xd7;" 
d="M453 152l-147 147l-147 -147l-51 51l147 147l-147 147l51 51l147 -147l147 147l51 -51l-147 -147l147 -147z" />
    <glyph glyph-name="divide" unicode="&#xf7;" 
d="M97 386h418v-72h-418v72zM236 184q0 29 20.5 49.5t49.5 20.5t49.5 -20.5t20.5 -49.5t-20.5 -49.5t-49.5 -20.5t-49.5 20.5t-20.5 49.5zM236 516q0 29 20.5 49.5t49.5 20.5t49.5 -20.5t20.5 -49.5t-20.5 -49.5t-49.5 -20.5t-49.5 20.5t-20.5 49.5z" />
    <glyph glyph-name="uni2219" unicode="&#x2219;" 
d="M212 350q0 19 7.5 36t20.5 30t30 20.5t36 7.5t36 -7.5t30 -20.5t20.5 -30t7.5 -36t-7.5 -36t-20.5 -30t-30 -20.5t-36 -7.5t-36 7.5t-30 20.5t-20.5 30t-7.5 36z" />
    <glyph glyph-name="equal" unicode="=" 
d="M97 458h418v-72h-418v72zM97 314h418v-72h-418v72z" />
    <glyph glyph-name="less" unicode="&#x3c;" 
d="M97 274v152l418 144v-84l-388 -130v-12l388 -130v-84z" />
    <glyph glyph-name="greater" unicode="&#x3e;" 
d="M97 130v84l388 130v12l-388 130v84l418 -144v-152z" />
    <glyph glyph-name="lessequal" unicode="&#x2264;" 
d="M97 274v152l418 144v-84l-388 -130v-12l388 -130v-84zM97 72h418v-72h-418v72z" />
    <glyph glyph-name="greaterequal" unicode="&#x2265;" 
d="M97 130v84l388 130v12l-388 130v84l418 -144v-152zM515 0h-418v72h418v-72z" />
    <glyph glyph-name="plusminus" unicode="&#xb1;" 
d="M97 386h173v173h72v-173h173v-72h-173v-173h-72v173h-173v72zM97 72h418v-72h-418v72z" />
    <glyph glyph-name="asciicircum" unicode="^" 
d="M540 424h-92l-136 246h-12l-136 -246h-92l158 276h152z" />
    <glyph glyph-name="notequal" unicode="&#x2260;" 
d="M97 458h206l35 106l70 -22l-28 -84h135v-72h-158l-24 -72h182v-72h-205l-38 -116l-71 22l31 94h-135v72h158l24 72h-182v72z" />
    <glyph glyph-name="asciitilde" unicode="~" 
d="M338 316q2 -8 7 -16.5t16 -8.5q8 0 20 9l129 95l38 -50l-123 -94q-14 -11 -29.5 -19t-38.5 -8q-39 0 -56 20.5t-28 55.5q-2 9 -6.5 18.5t-16.5 9.5q-9 0 -23 -11l-126 -93l-38 50l123 94q15 12 31 19.5t37 7.5q38 0 55.5 -21.5t28.5 -57.5z" />
    <glyph glyph-name="approxequal" unicode="&#x2248;" 
d="M338 252q2 -8 7 -16.5t16 -8.5q8 0 20 9l107 79l39 -50l-102 -78q-14 -11 -29.5 -19t-38.5 -8q-39 0 -56 20.5t-28 55.5q-2 9 -6.5 18.5t-16.5 9.5q-9 0 -23 -11l-103 -76l-39 50l101 77q15 12 31 19.5t37 7.5q38 0 55.5 -21.5t28.5 -57.5zM338 423q2 -8 7 -16.5t16 -8.5
q8 0 20 9l107 79l39 -50l-102 -78q-14 -11 -29.5 -19t-38.5 -8q-39 0 -56 20.5t-28 55.5q-2 9 -6.5 18.5t-16.5 9.5q-9 0 -23 -11l-103 -76l-39 50l101 77q15 12 31 19.5t37 7.5q38 0 55.5 -21.5t28.5 -57.5z" />
    <glyph glyph-name="logicalnot" unicode="&#xac;" 
d="M97 386h418v-156h-72v84h-346v72z" />
    <glyph glyph-name="infinity" unicode="&#x221e;" 
d="M52 350q0 30 11.5 56.5t31 46t45 31t54.5 11.5q35 0 61.5 -15.5t41.5 -38.5h18q15 23 41.5 38.5t61.5 15.5q28 0 54 -11.5t45.5 -31t31 -46t11.5 -56.5t-11.5 -56.5t-31 -46t-45.5 -31t-54 -11.5q-35 0 -61.5 15.5t-41.5 38.5h-18q-15 -23 -41.5 -38.5t-61.5 -15.5
q-29 0 -54.5 11.5t-45 31t-31 46t-11.5 56.5zM270 350q0 30 -21.5 51.5t-51.5 21.5t-51.5 -21.5t-21.5 -51.5t21.5 -51.5t51.5 -21.5t51.5 21.5t21.5 51.5zM342 350q0 -30 21.5 -51.5t51.5 -21.5t51.5 21.5t21.5 51.5t-21.5 51.5t-51.5 21.5t-51.5 -21.5t-21.5 -51.5z" />
    <glyph glyph-name="degree" unicode="&#xb0;" 
d="M161 569q0 30 11.5 56.5t31 46t46 31t56.5 11.5t56.5 -11.5t46 -31t31 -46t11.5 -56.5t-11.5 -56.5t-31 -46t-46 -31t-56.5 -11.5t-56.5 11.5t-46 31t-31 46t-11.5 56.5zM233 569q0 -30 21.5 -51.5t51.5 -21.5t51.5 21.5t21.5 51.5t-21.5 51.5t-51.5 21.5t-51.5 -21.5
t-21.5 -51.5z" />
    <glyph glyph-name="uni2032" unicode="&#x2032;" 
d="M242 644q0 29 20.5 49.5t49.5 20.5t49.5 -20.5t20.5 -49.5q0 -25 -16 -44.5t-40 -24.5l-23 -107l-53 11l24 106q-14 10 -23 25.5t-9 33.5z" />
    <glyph glyph-name="uni2033" unicode="&#x2033;" 
d="M150 644q0 29 20.5 49.5t49.5 20.5t49.5 -20.5t20.5 -49.5q0 -25 -16 -44.5t-40 -24.5l-23 -107l-53 11l24 106q-14 10 -23 25.5t-9 33.5zM332 644q0 29 20.5 49.5t49.5 20.5t49.5 -20.5t20.5 -49.5q0 -25 -16 -44.5t-40 -24.5l-23 -107l-53 11l24 106q-14 10 -23 25.5
t-9 33.5z" />
    <glyph glyph-name="partialdiff" unicode="&#x2202;" 
d="M448 440q-12 46 -41.5 81t-69 60t-86 39.5t-91.5 19.5l18 74q89 -12 159 -46.5t118.5 -90t74 -131.5t25.5 -171q0 -74 -19.5 -128t-53.5 -90t-79 -53.5t-97 -17.5q-50 0 -95 17t-79 49.5t-54.5 80t-20.5 109.5v12q0 61 20 108.5t53.5 80.5t76 50t87.5 17q51 0 87.5 -20
t54.5 -50h12zM306 60q36 0 66.5 13t53.5 37.5t36 60.5t13 83q0 40 -13 73.5t-36 57.5t-54 37.5t-66 13.5t-66 -13.5t-54 -37.5t-36 -57.5t-13 -73.5v-12q0 -42 13 -75.5t36 -57.5t53.5 -36.5t66.5 -12.5z" />
    <glyph glyph-name="lozenge" unicode="&#x25ca;" 
d="M54 350l174 350h156l174 -350l-174 -350h-156zM312 36l156 314l-156 314h-12l-156 -314l156 -314h12z" />
    <glyph glyph-name="integral" unicode="&#x222b;" 
d="M345 -122q0 -34 -21.5 -56t-55.5 -22h-121v72h93q27 0 27 30v720q0 34 21.5 56t55.5 22h121v-72h-93q-27 0 -27 -30v-720z" />
    <glyph glyph-name="radical" unicode="&#x221a;" 
d="M43 386h160l84 -350h12l196 820h81l-205 -856h-156l-76 314h-96v72z" />
    <glyph glyph-name="uni2206" unicode="&#x2206;" 
d="M15 0l212 700h158l212 -700h-582zM128 78h356l-172 585h-12z" />
    <glyph glyph-name="uni2126" unicode="&#x2126;" 
d="M564 0h-216v84q30 10 52.5 25.5t37.5 40t22.5 59t7.5 81.5v136q0 46 -10 84.5t-30.5 66.5t-51 43.5t-70.5 15.5q-41 0 -71 -15.5t-50.5 -43.5t-30.5 -66.5t-10 -84.5v-136q0 -47 7.5 -81.5t22.5 -59t37.5 -40t52.5 -25.5v-84h-216v78h98v12q-39 20 -62.5 68.5
t-23.5 125.5v150q0 65 17.5 117t50 88t77.5 55.5t101 19.5q55 0 100.5 -19.5t78 -55.5t50 -88t17.5 -117v-150q0 -77 -23.5 -125.5t-62.5 -68.5v-12h98v-78z" />
    <glyph glyph-name="summation" unicode="&#x2211;" 
d="M316 356l-244 216v128h468v-78h-396v-12l244 -218v-84l-244 -218v-12h396v-78h-468v128l244 216v12z" />
    <glyph glyph-name="product" unicode="&#x220f;" 
d="M73 700h466v-700h-84v622h-298v-622h-84v700z" />
    <glyph glyph-name="uni2113" unicode="&#x2113;" 
d="M308 102q0 -30 27 -30h153v-72h-181q-34 0 -55.5 22t-21.5 56v132q-17 -2 -35 -3t-37 -1h-84v72h84q19 0 37 1.5t35 3.5v293q0 29 9 54.5t25.5 44t41 29t56.5 10.5q38 0 66.5 -15t47 -40.5t27.5 -61t9 -75.5q0 -58 -14.5 -105t-41.5 -84t-64.5 -63t-83.5 -42v-126z
M308 306q62 28 95 80t33 124q0 68 -19 100t-55 32q-25 0 -39.5 -18t-14.5 -54v-264z" />
    <glyph glyph-name="mu" unicode="&#xb5;" 
d="M447 60h-12q-11 -28 -42 -51t-87 -23t-87 23t-42 51h-12v-260h-78v696h78v-280q0 -78 40.5 -117t100.5 -39t100.5 39t40.5 117v280h78v-496h-78v60z" />
    <glyph glyph-name="arrowup" unicode="&#x2191;" 
d="M507 467l-51 -51l-88 88l-28 50l-12 -5l14 -45v-424h-72v424l14 45l-12 5l-28 -50l-88 -88l-51 51l153 153h96z" />
    <glyph glyph-name="arrowdown" unicode="&#x2193;" 
d="M354 80h-96l-153 153l51 51l88 -88l28 -50l12 5l-14 45v424h72v-424l-14 -45l12 -5l28 50l88 88l51 -51z" />
    <glyph glyph-name="arrowleft" unicode="&#x2190;" 
d="M36 302v96l153 153l51 -51l-88 -88l-50 -28l5 -12l45 14h424v-72h-424l-45 14l-5 -12l50 -28l88 -88l-51 -51z" />
    <glyph glyph-name="arrowright" unicode="&#x2192;" 
d="M423 149l-51 51l88 88l50 28l-5 12l-45 -14h-424v72h424l45 -14l5 12l-50 28l-88 88l51 51l153 -153v-96z" />
    <glyph glyph-name="uni2196" unicode="&#x2196;" 
d="M81 507l68 68h216v-72h-124l-55 15l-5 -12l42 -22l299 -299l-51 -51l-299 299l-22 42l-12 -5l15 -55v-124h-72v216z" />
    <glyph glyph-name="uni2197" unicode="&#x2197;" 
d="M522 291h-72v124l15 55l-12 5l-22 -42l-299 -299l-51 51l299 299l42 22l-5 12l-55 -15h-124v72h216l68 -68v-216z" />
    <glyph glyph-name="uni2198" unicode="&#x2198;" 
d="M522 202l-68 -68h-216v72h124l55 -15l5 12l-42 22l-299 299l51 51l299 -299l22 -42l12 5l-15 55v124h72v-216z" />
    <glyph glyph-name="uni2199" unicode="&#x2199;" 
d="M81 418h72v-124l-15 -55l12 -5l22 42l299 299l51 -51l-299 -299l-42 -22l5 -12l55 15h124v-72h-216l-68 68v216z" />
    <glyph glyph-name="arrowboth" unicode="&#x2194;" 
d="M36 302v96l153 153l51 -51l-88 -88l-50 -28l5 -12l45 14h308l45 -14l5 12l-50 28l-88 88l51 51l153 -153v-96l-153 -153l-51 51l88 88l50 28l-5 12l-45 -14h-308l-45 14l-5 -12l50 -28l88 -88l-51 -51z" />
    <glyph glyph-name="arrowupdn" unicode="&#x2195;" 
d="M354 80h-96l-153 153l51 51l88 -88l28 -50l12 5l-14 45v308l14 45l-12 5l-28 -50l-88 -88l-51 51l153 153h96l153 -153l-51 -51l-88 88l-28 50l-12 -5l14 -45v-308l-14 -45l12 -5l28 50l88 88l51 -51z" />
    <glyph glyph-name="grave" unicode="`" 
d="M316 688l66 -118h-72l-84 118h90z" />
    <glyph glyph-name="acute" unicode="&#xb4;" 
d="M386 688l-84 -118h-72l66 118h90z" />
    <glyph glyph-name="circumflex" unicode="&#x2c6;" 
d="M364 570l-52 88h-12l-52 -88h-84l80 118h124l80 -118h-84z" />
    <glyph glyph-name="caron" unicode="&#x2c7;" 
d="M448 688l-80 -118h-124l-80 118h84l52 -88h12l52 88h84z" />
    <glyph glyph-name="uni02C9" unicode="&#x2c9;" 
d="M447 570h-282v66h282v-66z" />
    <glyph glyph-name="tilde" unicode="&#x2dc;" 
d="M337 639q5 -10 10 -15t14 -5q10 0 19 10l48 55l49 -42l-41 -49q-14 -17 -33 -29.5t-45 -12.5q-31 0 -47.5 14t-33.5 45q-7 12 -11.5 17t-12.5 5q-11 0 -22 -12l-46 -53l-49 42l41 49q14 17 33 29.5t46 12.5q29 0 46 -14.5t35 -46.5z" />
    <glyph glyph-name="dieresis" unicode="&#xa8;" 
d="M136 644q0 29 20.5 49.5t49.5 20.5t49.5 -20.5t20.5 -49.5t-20.5 -49.5t-49.5 -20.5t-49.5 20.5t-20.5 49.5zM336 644q0 29 20.5 49.5t49.5 20.5t49.5 -20.5t20.5 -49.5t-20.5 -49.5t-49.5 -20.5t-49.5 20.5t-20.5 49.5z" />
    <glyph glyph-name="macron" unicode="&#xaf;" 
d="M447 570h-282v66h282v-66z" />
    <glyph glyph-name="breve" unicode="&#x2d8;" 
d="M414 688v-10q0 -48 -29 -78t-79 -30t-79 30t-29 78v10h69v-12q0 -16 10 -27.5t29 -11.5t29 11.5t10 27.5v12h69z" />
    <glyph glyph-name="ring" unicode="&#x2da;" 
d="M204 672q0 43 29.5 72.5t72.5 29.5t72.5 -29.5t29.5 -72.5t-29.5 -72.5t-72.5 -29.5t-72.5 29.5t-29.5 72.5zM264 672q0 -18 12 -30t30 -12t30 12t12 30t-12 30t-30 12t-30 -12t-12 -30z" />
    <glyph glyph-name="hungarumlaut" unicode="&#x2dd;" 
d="M314 688l-84 -118h-72l66 118h90zM458 688l-84 -118h-72l66 118h90z" />
    <glyph glyph-name="dotaccent" unicode="&#x2d9;" 
d="M236 644q0 29 20.5 49.5t49.5 20.5t49.5 -20.5t20.5 -49.5t-20.5 -49.5t-49.5 -20.5t-49.5 20.5t-20.5 49.5z" />
    <glyph glyph-name="cedilla" unicode="&#xb8;" 
d="M281 0l-15 -68h6q13 32 54 32q35 0 55.5 -25t20.5 -60q0 -42 -27 -66.5t-66 -24.5q-43 0 -66 20t-31 50l48 18q3 -15 14.5 -27.5t33.5 -12.5q15 0 27.5 10t12.5 32q0 18 -10.5 28t-24.5 10q-18 0 -25 -14h-76v6l20 92h49z" />
    <glyph glyph-name="ogonek" unicode="&#x2db;" 
d="M349 30l-23 -98q-1 -5 -1 -8q0 -22 23 -22h42v-66h-56q-29 0 -53.5 18.5t-24.5 55.5q0 9 3 24l21 96h69z" />
    <glyph glyph-name="uni0309" unicode="&#x309;" 
d="M231 546l-20 92v6h76q7 -14 25 -14q14 0 24.5 10t10.5 28q0 22 -12.5 32t-27.5 10q-22 0 -33.5 -12.5t-14.5 -27.5l-48 18q8 30 31 50t66 20q39 0 66 -24.5t27 -66.5q0 -35 -20.5 -60t-55.5 -25q-41 0 -54 32h-6l15 -68h-49z" />
    <glyph glyph-name="uni031B" unicode="&#x31b;" 
d="M254 630q0 29 20.5 49.5t49.5 20.5t49.5 -20.5t20.5 -49.5v-98q0 -34 -21.5 -56t-55.5 -22h-99v54h95q27 0 27 30v25q-8 -3 -17 -3q-28 0 -48.5 20.5t-20.5 49.5z" />
    <glyph glyph-name="uni0323" unicode="&#x323;" 
d="M236 -134q0 29 20.5 49.5t49.5 20.5t49.5 -20.5t20.5 -49.5t-20.5 -49.5t-49.5 -20.5t-49.5 20.5t-20.5 49.5z" />
    <glyph glyph-name="uni032E" unicode="&#x32e;" 
d="M414 -63v-10q0 -48 -29 -78t-79 -30t-79 30t-29 78v10h69v-12q0 -16 10 -27.5t29 -11.5t29 11.5t10 27.5v12h69z" />
    <glyph glyph-name="uni0331" unicode="&#x331;" 
d="M447 -129h-282v66h282v-66z" />
    <glyph glyph-name="uni00A0" unicode="&#xa0;" 
 />
    <glyph glyph-name="florin" unicode="&#x192;" 
d="M267 438v82q0 34 21.5 56t55.5 22h142v-72h-114q-27 0 -27 -30v-58h90v-72h-90v-186q0 -34 -21.5 -56t-55.5 -22h-142v72h114q27 0 27 30v162h-90v72h90z" />
    <glyph glyph-name="acutecomb" unicode="&#x301;" 
d="M384 818l-84 -118h-72l66 118h90z" />
    <glyph glyph-name="uni2070" unicode="&#x2070;" 
d="M410 511q0 -46 -26 -75.5t-77 -29.5q-50 0 -77.5 29.5t-27.5 75.5v90q0 46 28 75.5t77 29.5q51 0 77 -29.5t26 -75.5v-90zM307 454q23 0 36 14.5t13 36.5v102q0 22 -13 36.5t-36 14.5t-37 -14.5t-14 -36.5v-102q0 -22 14 -36.5t37 -14.5zM274 556q0 14 9.5 23t22.5 9
q14 0 22.5 -9t8.5 -23t-8.5 -22.5t-22.5 -8.5q-13 0 -22.5 8.5t-9.5 22.5z" />
    <glyph glyph-name="onesuperior" unicode="&#xb9;" 
d="M293 460v210h-9l-22 -93h-53l32 123h106v-240h71v-48h-203v48h78z" />
    <glyph glyph-name="twosuperior" unicode="&#xb2;" 
d="M405 460v-48h-195v54q0 42 24 64.5t72 33.5q33 8 40.5 22t7.5 28q0 17 -11 30.5t-35 13.5q-23 0 -36.5 -14t-13.5 -40v-18h-54v18q0 42 27.5 72t78.5 30q24 0 42.5 -7.5t30.5 -20t18.5 -29t6.5 -33.5q0 -36 -18 -62t-66 -36q-36 -8 -48 -20t-12 -32v-6h141z" />
    <glyph glyph-name="threesuperior" unicode="&#xb3;" 
d="M276 542v76l82 28v6h-145v48h187v-84l-82 -28v-6h6q36 0 60 -20.5t24 -59.5q0 -43 -27.5 -69.5t-72.5 -26.5q-48 0 -76 28.5t-28 67.5v16h54v-14q0 -23 12.5 -36.5t35.5 -13.5t35.5 12t12.5 32q0 24 -14.5 34t-31.5 10h-32z" />
    <glyph glyph-name="uni2074" unicode="&#x2074;" 
d="M287 700h99v-186h40v-48h-40v-54h-54v54h-130v66zM250 520v-6h82v156h-6z" />
    <glyph glyph-name="uni2075" unicode="&#x2075;" 
d="M212 539v161h188v-48h-134v-80h6q17 35 62 35q38 0 61 -24.5t23 -68.5q0 -47 -26 -77.5t-80 -30.5q-29 0 -49 8t-32.5 21t-18.5 29.5t-6 34.5v6h54q0 -51 54 -51q24 0 37 15.5t13 44.5q0 23 -11.5 34t-26.5 11q-13 0 -20.5 -6t-9.5 -14h-84z" />
    <glyph glyph-name="uni2076" unicode="&#x2076;" 
d="M347 616q0 18 -11 30t-33 12q-21 0 -32 -13t-11 -35v-38h6q5 12 17.5 21t37.5 9q39 0 62 -27.5t23 -68.5q0 -47 -28.5 -73.5t-71.5 -26.5q-45 0 -72.5 26t-27.5 70v108q0 45 27.5 70.5t70.5 25.5q44 0 70.5 -24t26.5 -66h-54zM306 554q-21 0 -33.5 -13.5t-12.5 -36.5
t12.5 -36.5t33.5 -13.5t33.5 13.5t12.5 36.5t-12.5 36.5t-33.5 13.5z" />
    <glyph glyph-name="uni2077" unicode="&#x2077;" 
d="M220 700h192v-88l-98 -149q-8 -11 -12 -19.5t-4 -19.5v-12h-59v15q0 16 6.5 28.5t18.5 30.5l106 158v6h-150v50z" />
    <glyph glyph-name="uni2078" unicode="&#x2078;" 
d="M306 406q-20 0 -38 5t-31.5 15.5t-22 26t-8.5 37.5q0 30 16.5 46.5t36.5 21.5v6q-17 5 -32 20.5t-15 45.5q0 35 26.5 55.5t67.5 20.5t67.5 -20.5t26.5 -55.5q0 -30 -15 -45.5t-32 -20.5v-6q20 -5 36.5 -21.5t16.5 -46.5q0 -22 -8.5 -37.5t-22 -26t-32 -15.5t-37.5 -5z
M306 454q20 0 33 11t13 31t-13 31t-33 11t-33 -11t-13 -31t13 -31t33 -11zM306 586q19 0 32.5 9t13.5 27t-13.5 27t-32.5 9t-32.5 -9t-13.5 -27t13.5 -27t32.5 -9z" />
    <glyph glyph-name="uni2079" unicode="&#x2079;" 
d="M265 496q0 -18 11 -30t33 -12q21 0 32 13t11 35v38h-6q-5 -12 -17.5 -21t-37.5 -9q-39 0 -62 27.5t-23 68.5q0 47 28.5 73.5t71.5 26.5q45 0 72.5 -26t27.5 -70v-108q0 -45 -27.5 -70.5t-70.5 -25.5q-44 0 -70.5 24t-26.5 66h54zM306 558q21 0 33.5 13.5t12.5 36.5
t-12.5 36.5t-33.5 13.5t-33.5 -13.5t-12.5 -36.5t12.5 -36.5t33.5 -13.5z" />
    <glyph glyph-name="uni207D" unicode="&#x207d;" 
d="M404 351v-48h-18q-36 0 -68.5 13t-56.5 37.5t-38.5 59.5t-14.5 80v126q0 45 14.5 80t38.5 59.5t56.5 37.5t68.5 13h18v-48h-18q-27 0 -50.5 -10.5t-41.5 -29.5t-28 -45.5t-10 -58.5v-122q0 -32 10 -58.5t28 -45.5t41.5 -29.5t50.5 -10.5h18z" />
    <glyph glyph-name="uni207E" unicode="&#x207e;" 
d="M226 351q27 0 50.5 10.5t41.5 29.5t28 45.5t10 58.5v122q0 32 -10 58.5t-28 45.5t-41.5 29.5t-50.5 10.5h-18v48h18q36 0 68.5 -13t56.5 -37.5t38.5 -59.5t14.5 -80v-126q0 -45 -14.5 -80t-38.5 -59.5t-56.5 -37.5t-68.5 -13h-18v48h18z" />
    <glyph glyph-name="uni2071" unicode="&#x2071;" 
d="M364 785q0 -19 -13 -32t-32 -13t-32 13t-13 32t13 32t32 13t32 -13t13 -32zM196 460h96v192h-88v48h142v-240h90v-48h-240v48z" />
    <glyph glyph-name="uni207F" unicode="&#x207f;" 
d="M240 412h-54v288h54v-40h6q11 21 32.5 33.5t51.5 12.5q51 0 79.5 -30t28.5 -90v-174h-54v164q0 82 -70 82q-39 0 -56.5 -25.5t-17.5 -66.5v-154z" />
    <glyph glyph-name="uni2080" unicode="&#x2080;" 
d="M410 -100q0 -46 -26 -75.5t-77 -29.5q-50 0 -77.5 29.5t-27.5 75.5v90q0 46 28 75.5t77 29.5q51 0 77 -29.5t26 -75.5v-90zM307 -157q23 0 36 14.5t13 36.5v102q0 22 -13 36.5t-36 14.5t-37 -14.5t-14 -36.5v-102q0 -22 14 -36.5t37 -14.5zM274 -55q0 14 9.5 23t22.5 9
q14 0 22.5 -9t8.5 -23t-8.5 -22.5t-22.5 -8.5q-13 0 -22.5 8.5t-9.5 22.5z" />
    <glyph glyph-name="uni2081" unicode="&#x2081;" 
d="M293 -151v210h-9l-22 -93h-53l32 123h106v-240h71v-48h-203v48h78z" />
    <glyph glyph-name="uni2082" unicode="&#x2082;" 
d="M405 -151v-48h-195v54q0 42 24 64.5t72 33.5q33 8 40.5 22t7.5 28q0 17 -11 30.5t-35 13.5q-23 0 -36.5 -14t-13.5 -40v-18h-54v18q0 42 27.5 72t78.5 30q24 0 42.5 -7.5t30.5 -20t18.5 -29t6.5 -33.5q0 -36 -18 -62t-66 -36q-36 -8 -48 -20t-12 -32v-6h141z" />
    </font>
</defs>
</svg>
