<?xml version="1.0" encoding="utf-8"?>
<!-- Generator: Adobe Illustrator 24.0.3, SVG Export Plug-In . SVG Version: 6.00 Build 0)  -->
<svg version="1.1" id="Layer_1" xmlns="http://www.w3.org/2000/svg" xmlns:xlink="http://www.w3.org/1999/xlink" x="0px" y="0px"
	 viewBox="0 0 150 110" style="enable-background:new 0 0 150 110;" xml:space="preserve">
<style type="text/css">
	.st0{enable-background:new    ;}
	.st1{fill:#FFA543;}
	.st2{fill:#FCEFD7;}
	.st3{fill:#FDC078;}
</style>
<title>modular</title>
<desc>Created with Sketch.</desc>
<g id="modular">
	<g>
		<g id="text" transform="translate(48.900000, 10.000000)">
			<g class="st0">
				<path class="st1" d="M13.5,72.5c-0.3-0.3-0.5-0.7-0.5-1.2c0-0.3,0.1-0.6,0.4-1l11.5-15.8c-0.9,0.2-2,0.3-3.3,0.3
					c-3.4-0.1-6.6-1-9.4-2.6c-2.8-1.6-5.1-3.8-6.7-6.6C3.8,42.9,3,39.9,3,36.6c0-3.3,0.8-6.4,2.4-9.2c1.6-2.9,4-5.2,7.2-7
					c3.2-1.8,7-2.7,11.5-2.7c4.5,0,8.4,0.8,11.6,2.5c3.2,1.7,5.7,4,7.3,6.8c1.6,2.8,2.5,5.9,2.5,9.3c0,2.1-0.3,4.1-1,6
					c-0.7,1.9-1.4,3.5-2.3,4.9c-0.9,1.4-2.1,3.2-3.6,5.3l-13.7,19c-0.4,0.5-0.8,0.9-1.2,1.2c-0.4,0.3-0.9,0.4-1.5,0.4h-7.5
					C14.2,73,13.8,72.8,13.5,72.5z M31.3,43.7c1.9-1.8,2.9-4.2,2.9-7.1c0-3-1-5.4-2.9-7.2c-1.9-1.8-4.3-2.7-7.2-2.7
					c-2.8,0-5.2,0.9-7.1,2.7c-1.9,1.8-2.9,4.2-2.9,7.2c0,3,0.9,5.3,2.8,7.1c1.9,1.8,4.3,2.7,7.1,2.7C27,46.4,29.4,45.5,31.3,43.7z"
					/>
			</g>
			<g class="st0">
				<path class="st1" d="M33,72.2c-0.1-0.1-0.1-0.1-0.1-0.2v-8c0-0.1,0-0.2,0.1-0.2c0.1,0,0.1-0.1,0.2-0.1h0.5c0.1,0,0.1,0,0.2,0.1
					C34,63.9,34,64,34,64.1v4.2l2.4-2c0.1-0.1,0.2-0.1,0.3-0.2c0,0,0.1,0,0.2,0h0.6c0.1,0,0.1,0,0.2,0.1s0.1,0.1,0.1,0.2
					c0,0.1,0,0.1-0.1,0.2l-2.8,2.3l3.1,3C38,71.9,38,72,38,72c0,0.1,0,0.1-0.1,0.2s-0.1,0.1-0.2,0.1h-0.6c-0.1,0-0.2,0-0.3,0
					c-0.1,0-0.1-0.1-0.2-0.2L34,69.5V72c0,0.1,0,0.1-0.1,0.2c-0.1,0.1-0.1,0.1-0.2,0.1h-0.5C33.1,72.3,33,72.3,33,72.2z"/>
				<path class="st1" d="M38.9,72.2c0-0.1-0.1-0.1-0.1-0.2v-7.8c0-0.1,0-0.2,0.1-0.2c0-0.1,0.1-0.1,0.2-0.1h3.3
					c0.8,0,1.5,0.2,1.9,0.6c0.4,0.4,0.6,0.9,0.6,1.6c0,0.4-0.1,0.8-0.3,1.1c-0.2,0.3-0.5,0.5-0.7,0.7c0.3,0.2,0.6,0.4,0.9,0.8
					c0.2,0.4,0.3,0.8,0.3,1.2c0,0.4-0.1,0.9-0.3,1.2s-0.5,0.7-0.9,0.9s-0.9,0.3-1.4,0.3h-3.4C39,72.3,38.9,72.3,38.9,72.2z
					 M42.2,67.5c0.5,0,0.9-0.1,1.2-0.4c0.3-0.2,0.4-0.6,0.4-1c0-0.4-0.1-0.7-0.4-0.9c-0.3-0.2-0.7-0.3-1.2-0.3h-2.2v2.6H42.2z
					 M42.3,71.4c0.5,0,0.9-0.1,1.2-0.4c0.3-0.3,0.4-0.6,0.4-1.1c0-0.4-0.1-0.8-0.4-1.1c-0.3-0.3-0.7-0.4-1.2-0.4h-2.4v3H42.3z"/>
			</g>
		</g>
		<g id="shapes">
			<g id="square">
				<path class="st2" d="M88,100c1.1,0,2,0.9,2,2v6c0,1.1-0.9,2-2,2h-6c-1.1,0-2-0.9-2-2v-6c0-1.1,0.9-2,2-2H88z M108,100
					c1.1,0,2,0.9,2,2v6c0,1.1-0.9,2-2,2h-6c-1.1,0-2-0.9-2-2v-6c0-1.1,0.9-2,2-2H108z M148,80c1.1,0,2,0.9,2,2v6c0,1.1-0.9,2-2,2h-6
					c-1.1,0-2-0.9-2-2v-6c0-1.1,0.9-2,2-2H148z M8,60c1.1,0,2,0.9,2,2v6c0,1.1-0.9,2-2,2H2c-1.1,0-2-0.9-2-2v-6c0-1.1,0.9-2,2-2H8z
					 M148,60c1.1,0,2,0.9,2,2v6c0,1.1-0.9,2-2,2h-6c-1.1,0-2-0.9-2-2v-6c0-1.1,0.9-2,2-2H148z M128,40c1.1,0,2,0.9,2,2v6
					c0,1.1-0.9,2-2,2h-6c-1.1,0-2-0.9-2-2v-6c0-1.1,0.9-2,2-2H128z M148,40c1.1,0,2,0.9,2,2v6c0,1.1-0.9,2-2,2h-6c-1.1,0-2-0.9-2-2
					v-6c0-1.1,0.9-2,2-2H148z M8,0c1.1,0,2,0.9,2,2v6c0,1.1-0.9,2-2,2H2c-1.1,0-2-0.9-2-2V2c0-1.1,0.9-2,2-2H8z M28,0
					c1.1,0,2,0.9,2,2v6c0,1.1-0.9,2-2,2h-6c-1.1,0-2-0.9-2-2V2c0-1.1,0.9-2,2-2H28z M48,0c1.1,0,2,0.9,2,2v6c0,1.1-0.9,2-2,2h-6
					c-1.1,0-2-0.9-2-2V2c0-1.1,0.9-2,2-2H48z"/>
			</g>
			<g id="stroke-medium">
				<path class="st3" d="M45,110c-2.8,0-5-2.2-5-5s2.2-5,5-5s5,2.2,5,5S47.8,110,45,110z M45,101c-2.2,0-4,1.8-4,4s1.8,4,4,4
					s4-1.8,4-4S47.2,101,45,101z M125,90c-2.8,0-5-2.2-5-5s2.2-5,5-5s5,2.2,5,5S127.8,90,125,90z M125,81c-2.2,0-4,1.8-4,4
					s1.8,4,4,4s4-1.8,4-4S127.2,81,125,81z M5,90c-2.8,0-5-2.2-5-5s2.2-5,5-5s5,2.2,5,5S7.8,90,5,90z M5,81c-2.2,0-4,1.8-4,4
					s1.8,4,4,4s4-1.8,4-4S7.2,81,5,81z M125,70c-2.8,0-5-2.2-5-5s2.2-5,5-5s5,2.2,5,5S127.8,70,125,70z M125,61c-2.2,0-4,1.8-4,4
					s1.8,4,4,4s4-1.8,4-4S127.2,61,125,61z M25,70c-2.8,0-5-2.2-5-5s2.2-5,5-5s5,2.2,5,5S27.8,70,25,70z M25,61c-2.2,0-4,1.8-4,4
					s1.8,4,4,4s4-1.8,4-4S27.2,61,25,61z M145,30c-2.8,0-5-2.2-5-5s2.2-5,5-5s5,2.2,5,5S147.8,30,145,30z M145,21c-2.2,0-4,1.8-4,4
					s1.8,4,4,4s4-1.8,4-4S147.2,21,145,21z M5,30c-2.8,0-5-2.2-5-5s2.2-5,5-5s5,2.2,5,5S7.8,30,5,30z M5,21c-2.2,0-4,1.8-4,4
					s1.8,4,4,4s4-1.8,4-4S7.2,21,5,21z M145,10c-2.8,0-5-2.2-5-5s2.2-5,5-5s5,2.2,5,5S147.8,10,145,10z M145,1c-2.2,0-4,1.8-4,4
					s1.8,4,4,4s4-1.8,4-4S147.2,1,145,1z M125,10c-2.8,0-5-2.2-5-5s2.2-5,5-5s5,2.2,5,5S127.8,10,125,10z M125,1c-2.2,0-4,1.8-4,4
					s1.8,4,4,4s4-1.8,4-4S127.2,1,125,1z M105,10c-2.8,0-5-2.2-5-5s2.2-5,5-5s5,2.2,5,5S107.8,10,105,10z M105,1c-2.2,0-4,1.8-4,4
					s1.8,4,4,4s4-1.8,4-4S107.2,1,105,1z"/>
			</g>
			<g id="dots">
				<path class="st1" d="M5,102.5c1.4,0,2.5,1.1,2.5,2.5s-1.1,2.5-2.5,2.5s-2.5-1.1-2.5-2.5S3.6,102.5,5,102.5z M25,102.5
					c1.4,0,2.5,1.1,2.5,2.5s-1.1,2.5-2.5,2.5s-2.5-1.1-2.5-2.5S23.6,102.5,25,102.5z M145,102.5c1.4,0,2.5,1.1,2.5,2.5
					s-1.1,2.5-2.5,2.5s-2.5-1.1-2.5-2.5S143.6,102.5,145,102.5z M25,82.5c1.4,0,2.5,1.1,2.5,2.5s-1.1,2.5-2.5,2.5s-2.5-1.1-2.5-2.5
					S23.6,82.5,25,82.5z M5,42.5c1.4,0,2.5,1.1,2.5,2.5S6.4,47.5,5,47.5S2.5,46.4,2.5,45S3.6,42.5,5,42.5z M25,42.5
					c1.4,0,2.5,1.1,2.5,2.5s-1.1,2.5-2.5,2.5s-2.5-1.1-2.5-2.5S23.6,42.5,25,42.5z M25,22.5c1.4,0,2.5,1.1,2.5,2.5s-1.1,2.5-2.5,2.5
					s-2.5-1.1-2.5-2.5S23.6,22.5,25,22.5z M125,22.5c1.4,0,2.5,1.1,2.5,2.5s-1.1,2.5-2.5,2.5s-2.5-1.1-2.5-2.5S123.6,22.5,125,22.5z
					 M65,2.5c1.4,0,2.5,1.1,2.5,2.5S66.4,7.5,65,7.5c-1.4,0-2.5-1.1-2.5-2.5S63.6,2.5,65,2.5z M85,2.5c1.4,0,2.5,1.1,2.5,2.5
					S86.4,7.5,85,7.5S82.5,6.4,82.5,5S83.6,2.5,85,2.5z"/>
				<path class="st1" d="M145,108c-1.7,0-3-1.3-3-3s1.3-3,3-3s3,1.3,3,3S146.7,108,145,108z M145,103c-1.1,0-2,0.9-2,2s0.9,2,2,2
					s2-0.9,2-2S146.1,103,145,103z M25,108c-1.7,0-3-1.3-3-3s1.3-3,3-3s3,1.3,3,3S26.7,108,25,108z M25,103c-1.1,0-2,0.9-2,2
					s0.9,2,2,2s2-0.9,2-2S26.1,103,25,103z M5,108c-1.7,0-3-1.3-3-3s1.3-3,3-3s3,1.3,3,3S6.7,108,5,108z M5,103c-1.1,0-2,0.9-2,2
					s0.9,2,2,2s2-0.9,2-2S6.1,103,5,103z M25,88c-1.7,0-3-1.3-3-3s1.3-3,3-3s3,1.3,3,3S26.7,88,25,88z M25,83c-1.1,0-2,0.9-2,2
					s0.9,2,2,2s2-0.9,2-2S26.1,83,25,83z M25,48c-1.7,0-3-1.3-3-3s1.3-3,3-3s3,1.3,3,3S26.7,48,25,48z M25,43c-1.1,0-2,0.9-2,2
					s0.9,2,2,2s2-0.9,2-2S26.1,43,25,43z M5,48c-1.7,0-3-1.3-3-3s1.3-3,3-3s3,1.3,3,3S6.7,48,5,48z M5,43c-1.1,0-2,0.9-2,2
					s0.9,2,2,2s2-0.9,2-2S6.1,43,5,43z M125,28c-1.7,0-3-1.3-3-3s1.3-3,3-3s3,1.3,3,3S126.7,28,125,28z M125,23c-1.1,0-2,0.9-2,2
					s0.9,2,2,2s2-0.9,2-2S126.1,23,125,23z M25,28c-1.7,0-3-1.3-3-3s1.3-3,3-3s3,1.3,3,3S26.7,28,25,28z M25,23c-1.1,0-2,0.9-2,2
					s0.9,2,2,2s2-0.9,2-2S26.1,23,25,23z M85,8c-1.7,0-3-1.3-3-3s1.3-3,3-3s3,1.3,3,3S86.7,8,85,8z M85,3c-1.1,0-2,0.9-2,2
					s0.9,2,2,2s2-0.9,2-2S86.1,3,85,3z M65,8c-1.7,0-3-1.3-3-3s1.3-3,3-3s3,1.3,3,3S66.7,8,65,8z M65,3c-1.1,0-2,0.9-2,2s0.9,2,2,2
					s2-0.9,2-2S66.1,3,65,3z"/>
			</g>
			<g id="stroke-dark">
				<path class="st1" d="M125,110c-2.8,0-5-2.2-5-5s2.2-5,5-5s5,2.2,5,5S127.8,110,125,110z M125,101c-2.2,0-4,1.8-4,4s1.8,4,4,4
					s4-1.8,4-4S127.2,101,125,101z M65,110c-2.8,0-5-2.2-5-5s2.2-5,5-5s5,2.2,5,5S67.8,110,65,110z M65,101c-2.2,0-4,1.8-4,4
					s1.8,4,4,4s4-1.8,4-4S67.2,101,65,101z"/>
			</g>
		</g>
	</g>
</g>
</svg>
