<?xml version="1.0" encoding="UTF-8"?>
<svg width="36px" height="36px" viewBox="0 0 36 36" version="1.1" xmlns="http://www.w3.org/2000/svg" xmlns:xlink="http://www.w3.org/1999/xlink">
    <!-- Generator: Sketch 60 (88103) - https://sketch.com -->
    <title>wrapper</title>
    <desc>Created with Sketch.</desc>
    <defs>
        <rect id="path-1" x="0.00741251001" y="-0.0072842533" width="15.1578947" height="15.1578947" rx="7.57894737"></rect>
    </defs>
    <g id="wrapper" stroke="none" stroke-width="1" fill="none" fill-rule="evenodd">
        <g id="body" transform="translate(18.595367, 18.010392) rotate(-45.000000) translate(-18.595367, -18.010392) translate(10.595367, 10.010392)">
            <mask id="mask-2" fill="white">
                <use xlink:href="#path-1"></use>
            </mask>
            <use id="bg" fill="#CDF2CE" xlink:href="#path-1"></use>
            <path d="M2.84951777,-1.9020211 L2.84951777,17.9927157 L0.00741251001,17.9927157 L0.00741251001,-1.9020211 L2.84951777,-1.9020211 Z M6.63899146,-1.9020211 L6.63899146,17.9927157 L4.74425462,17.9927157 L4.74425462,-1.9020211 L6.63899146,-1.9020211 Z M10.4284651,-1.9020211 L10.4284651,17.9927157 L8.5337283,17.9927157 L8.5337283,-1.9020211 L10.4284651,-1.9020211 Z M15.1653072,-1.9020211 L15.1653072,17.9927157 L12.323202,17.9927157 L12.323202,-1.9020211 L15.1653072,-1.9020211 Z" id="stripes" fill="#04BF0C" fill-rule="nonzero" mask="url(#mask-2)"></path>
        </g>
        <path d="M12.0580306,24.0290153 L12.0580306,31.5127474 C12.0580306,32.5591816 11.2097281,33.4074842 10.1632938,33.4074842 C9.66077833,33.4074842 9.17884461,33.2078607 8.82351252,32.8525287 L3.23451734,27.2635335 C2.49457658,26.5235927 2.49457658,25.3239117 3.23451734,24.5839709 C3.58984943,24.2286389 4.0717831,24.0290153 4.57429858,24.0290153 L12.0580306,24.0290153 Z M25.9237522,2.67956217 C26.4262677,2.67956215 26.9082013,2.87918568 27.2635334,3.23451777 L32.8525286,8.82351295 C33.5924694,9.56345371 33.5924694,10.7631347 32.8525286,11.5030755 C32.4971966,11.8584075 32.0152629,12.0580311 31.5127474,12.058031 L24.0290153,12.0580311 L24.0290154,4.574299 C24.0290154,3.52786473 24.8773179,2.67956219 25.9237522,2.67956217 Z" id="ends" fill="#04BF0C" fill-rule="nonzero"></path>
    </g>
</svg>