<?xml version="1.0" encoding="UTF-8"?>
<svg width="32px" height="32px" viewBox="0 0 32 32" version="1.1" xmlns="http://www.w3.org/2000/svg" xmlns:xlink="http://www.w3.org/1999/xlink">
    <!-- Generator: Sketch 53 (72520) - https://sketchapp.com -->
    <title>social/twitter</title>
    <desc>Created with Sketch.</desc>
    <g id="social/twitter" stroke="none" stroke-width="1" fill="none" fill-rule="evenodd">
        <path d="M25.654869,12.558997 C25.664333,12.7506439 25.667882,12.9446568 25.667882,13.1363037 C25.667882,19.0395017 21.1760098,25.8441499 12.9624019,25.8441499 C10.4390509,25.8441499 8.09315083,25.1047714 6.11634847,23.8365894 C6.46651812,23.8779946 6.8214198,23.8992887 7.18105351,23.8992887 C9.27497342,23.8992887 11.1997235,23.1847533 12.7269838,21.9887346 C10.7738415,21.9520614 9.1235487,20.6625853 8.55570602,18.8880769 C8.8277973,18.9389462 9.10816963,18.9661553 9.39563999,18.9661553 C9.80377693,18.9661553 10.1989008,18.9129201 10.5727306,18.8111816 C8.52967989,18.3994956 6.9905896,16.5954121 6.9905896,14.4305118 L6.9905896,14.3749106 C7.59273946,14.7097012 8.28243172,14.9108121 9.01352918,14.9344722 C7.81514451,14.1323944 7.02607977,12.767206 7.02607977,11.2162856 C7.02607977,10.3988287 7.24611881,9.63105811 7.63177864,8.97094098 C9.83335207,11.6741088 13.1256567,13.4509832 16.8367452,13.6378981 C16.7610329,13.3102055 16.7219937,12.9706829 16.7219937,12.6193303 C16.7219937,10.1539466 18.7200901,8.15585012 21.1866568,8.15585012 C22.4714009,8.15585012 23.6319294,8.69648368 24.4470203,9.56480979 C25.4632221,9.36369884 26.4190906,8.99223508 27.2826847,8.48117666 C26.9490771,9.5234046 26.2404568,10.3988287 25.3188954,10.9512924 C26.2227117,10.8424558 27.0815737,10.6046717 27.8836515,10.248587 C27.2850507,11.1453053 26.5279271,11.930821 25.654869,12.558997 Z" id="Shape" fill="#0C0C0C" fill-rule="nonzero"></path>
    </g>
</svg>