<?xml version="1.0" encoding="UTF-8"?>
<svg width="50" height="50" viewBox="0 0 50 50" fill="none" xmlns="http://www.w3.org/2000/svg">
<style type="text/css">
	.st0{fill-rule:evenodd;clip-rule:evenodd;fill:#2E5BDC;}
  .st1{fill-rule:evenodd;clip-rule:evenodd;stroke:#2E5BDC;}
	.cross{fill:#FFF;}
</style>
    <path class="st0" d="M25 40C33.2843 40 40 33.2843 40 25C40 16.7157 33.2843 10 25 10C16.7157 10 10 16.7157 10 25C10 33.2843 16.7157 40 25 40Z"/>
    <path class="st1" opacity="0.2" d="M48.5 25C48.5 37.9787 37.9787 48.5 25 48.5C12.0213 48.5 1.5 37.9787 1.5 25C1.5 12.0213 12.0213 1.5 25 1.5C37.9787 1.5 48.5 12.0213 48.5 25Z" stroke-width="3"/>
  <g class="cross">
    <rect x="19" y="24" width="12" height="2" rx="1" fill="white"/>
    <rect x="24" y="19" width="2" height="12" rx="1" fill="white"/>
  </g>
</svg>
