<?xml version="1.0" encoding="UTF-8"?>
<svg width="36px" height="36px" viewBox="0 0 36 36" version="1.1" xmlns="http://www.w3.org/2000/svg" xmlns:xlink="http://www.w3.org/1999/xlink">
    <!-- Generator: Sketch 60 (88103) - https://sketch.com -->
    <title>container</title>
    <desc>Created with Sketch.</desc>
    <g id="container" stroke="none" stroke-width="1" fill="none" fill-rule="evenodd">
        <g id="bg" transform="translate(1.000000, 1.000000)" fill-rule="nonzero">
            <rect id="Rectangle-Copy-3" fill="#69D86D" x="0" y="5" width="34" height="28" rx="4"></rect>
            <rect id="Rectangle-Copy-3" fill="#CDF2CE" x="0" y="0" width="34" height="28" rx="2"></rect>
        </g>
        <g id="discs" transform="translate(3.000000, 4.000000)">
            <path d="M3,16 C4.65685425,16 6,17.3431458 6,19 C6,20.6568542 4.65685425,22 3,22 C1.34314575,22 4.4408921e-16,20.6568542 4.4408921e-16,19 C4.4408921e-16,17.3431458 1.34314575,16 3,16 Z M19,16 C20.6568542,16 22,17.3431458 22,19 C22,20.6568542 20.6568542,22 19,22 C17.3431458,22 16,20.6568542 16,19 C16,17.3431458 17.3431458,16 19,16 Z M27,8 C28.6568542,8 30,9.3431458 30,11 C30,12.6568542 28.6568542,14 27,14 C25.3431458,14 24,12.6568542 24,11 C24,9.3431458 25.3431458,8 27,8 Z M3,0 C4.65685425,0 6,1.34314575 6,3 C6,4.65685425 4.65685425,6 3,6 C1.34314575,6 4.4408921e-16,4.65685425 4.4408921e-16,3 C4.4408921e-16,1.34314575 1.34314575,0 3,0 Z M19,0 C20.6568542,0 22,1.34314575 22,3 C22,4.65685425 20.6568542,6 19,6 C17.3431458,6 16,4.65685425 16,3 C16,1.34314575 17.3431458,0 19,0 Z" id="dark" fill="#04BF0C" fill-rule="nonzero"></path>
            <path d="M11,16.5 C9.61928813,16.5 8.5,17.6192881 8.5,19 C8.5,20.3807119 9.61928813,21.5 11,21.5 C12.3807119,21.5 13.5,20.3807119 13.5,19 C13.5,17.6192881 12.3807119,16.5 11,16.5 Z M3,8.5 C1.61928813,8.5 0.5,9.61928813 0.5,11 C0.5,12.3807119 1.61928813,13.5 3,13.5 C4.38071187,13.5 5.5,12.3807119 5.5,11 C5.5,9.61928813 4.38071187,8.5 3,8.5 Z M19,8.5 C17.6192881,8.5 16.5,9.61928813 16.5,11 C16.5,12.3807119 17.6192881,13.5 19,13.5 C20.3807119,13.5 21.5,12.3807119 21.5,11 C21.5,9.61928813 20.3807119,8.5 19,8.5 Z M11,0.5 C9.61928813,0.5 8.5,1.61928813 8.5,3 C8.5,4.38071187 9.61928813,5.5 11,5.5 C12.3807119,5.5 13.5,4.38071187 13.5,3 C13.5,1.61928813 12.3807119,0.5 11,0.5 Z" id="stroke" stroke="#04BF0C"></path>
            <path d="M27,16 C28.6568542,16 30,17.3431458 30,19 C30,20.6568542 28.6568542,22 27,22 C25.3431458,22 24,20.6568542 24,19 C24,17.3431458 25.3431458,16 27,16 Z M11,8 C12.6568542,8 14,9.3431458 14,11 C14,12.6568542 12.6568542,14 11,14 C9.3431458,14 8,12.6568542 8,11 C8,9.3431458 9.3431458,8 11,8 Z M27,0 C28.6568542,0 30,1.34314575 30,3 C30,4.65685425 28.6568542,6 27,6 C25.3431458,6 24,4.65685425 24,3 C24,1.34314575 25.3431458,0 27,0 Z" id="medium" fill="#81DF85" fill-rule="nonzero"></path>
        </g>
    </g>
</svg>