<?xml version="1.0" encoding="UTF-8"?>
<svg width="120px" height="120px" viewBox="0 0 120 120" version="1.1" xmlns="http://www.w3.org/2000/svg" xmlns:xlink="http://www.w3.org/1999/xlink">
    <!-- Generator: Sketch 60 (88103) - https://sketch.com -->
    <title>extensible</title>
    <desc>Created with Sketch.</desc>
    <defs>
        <circle id="path-1" cx="60" cy="60" r="60"></circle>
        <filter x="-4.6%" y="-4.6%" width="109.2%" height="109.2%" filterUnits="objectBoundingBox" id="filter-2">
            <feMorphology radius="1" operator="erode" in="SourceAlpha" result="shadowSpreadInner1"></feMorphology>
            <feGaussianBlur stdDeviation="5" in="shadowSpreadInner1" result="shadowBlurInner1"></feGaussianBlur>
            <feOffset dx="0" dy="0" in="shadowBlurInner1" result="shadowOffsetInner1"></feOffset>
            <feComposite in="shadowOffsetInner1" in2="SourceAlpha" operator="arithmetic" k2="-1" k3="1" result="shadowInnerInner1"></feComposite>
            <feColorMatrix values="0 0 0 0 1   0 0 0 0 0.741634909   0 0 0 0 0.813664905  0 0 0 0.127649694 0" type="matrix" in="shadowInnerInner1"></feColorMatrix>
        </filter>
        <circle id="path-3" cx="60" cy="60" r="43"></circle>
        <filter x="-6.4%" y="-6.4%" width="112.8%" height="112.8%" filterUnits="objectBoundingBox" id="filter-4">
            <feMorphology radius="1" operator="erode" in="SourceAlpha" result="shadowSpreadInner1"></feMorphology>
            <feGaussianBlur stdDeviation="5" in="shadowSpreadInner1" result="shadowBlurInner1"></feGaussianBlur>
            <feOffset dx="0" dy="0" in="shadowBlurInner1" result="shadowOffsetInner1"></feOffset>
            <feComposite in="shadowOffsetInner1" in2="SourceAlpha" operator="arithmetic" k2="-1" k3="1" result="shadowInnerInner1"></feComposite>
            <feColorMatrix values="0 0 0 0 1   0 0 0 0 0.741634909   0 0 0 0 0.813664905  0 0 0 0.127649694 0" type="matrix" in="shadowInnerInner1"></feColorMatrix>
        </filter>
        <circle id="path-5" cx="60" cy="60" r="25"></circle>
        <filter x="-11.0%" y="-11.0%" width="122.0%" height="122.0%" filterUnits="objectBoundingBox" id="filter-6">
            <feMorphology radius="1" operator="erode" in="SourceAlpha" result="shadowSpreadInner1"></feMorphology>
            <feGaussianBlur stdDeviation="5" in="shadowSpreadInner1" result="shadowBlurInner1"></feGaussianBlur>
            <feOffset dx="0" dy="0" in="shadowBlurInner1" result="shadowOffsetInner1"></feOffset>
            <feComposite in="shadowOffsetInner1" in2="SourceAlpha" operator="arithmetic" k2="-1" k3="1" result="shadowInnerInner1"></feComposite>
            <feColorMatrix values="0 0 0 0 1   0 0 0 0 0.741634909   0 0 0 0 0.813664905  0 0 0 0.127649694 0" type="matrix" in="shadowInnerInner1"></feColorMatrix>
        </filter>
    </defs>
    <g id="extensible" stroke="none" stroke-width="1" fill="none" fill-rule="evenodd">
        <g id="bg">
            <g>
                <use fill-opacity="0.05" fill="#FB97BD" fill-rule="evenodd" xlink:href="#path-1"></use>
                <use fill="black" fill-opacity="1" filter="url(#filter-2)" xlink:href="#path-1"></use>
            </g>
            <g>
                <use fill-opacity="0.08" fill="#FB97BD" fill-rule="evenodd" xlink:href="#path-3"></use>
                <use fill="black" fill-opacity="1" filter="url(#filter-4)" xlink:href="#path-3"></use>
            </g>
            <g>
                <use fill-opacity="0.1" fill="#FB97BD" fill-rule="evenodd" xlink:href="#path-5"></use>
                <use fill="black" fill-opacity="1" filter="url(#filter-6)" xlink:href="#path-5"></use>
            </g>
            <g id="Logo" transform="translate(54.000000, 49.000000)" stroke="#EC4343" stroke-width="2">
                <path d="M1,20 L6,20 L6,1 L1,1 L1,20 Z" id="Color-border"></path>
                <path d="M1,14.5 C1,17.5348715 3.46704206,20 6.5,20 C9.53487149,20 12,17.5329579 12,14.5 C12,11.4651285 9.53295794,9 6.5,9 C3.46512851,9 1,11.4670421 1,14.5 Z" id="Color-border" fill="#FDE9F1"></path>
            </g>
        </g>
        <g id="dots" transform="translate(4.000000, 4.615376)" fill-rule="nonzero">
            <g id="line-gradient__big" transform="translate(9.000000, 0.000000)">
                <g id="line-gradient__big--bottom" transform="translate(77.000000, 105.384624) rotate(-171.000000) translate(-77.000000, -105.384624) translate(65.000000, 95.384624)">
                    <path d="M0.750000158,16.3846241 L3.25000016,16.3846241 C3.66421372,16.3846241 4.00000016,16.7204106 4.00000016,17.1346241 C4.00000016,17.5488377 3.66421372,17.8846241 3.25000016,17.8846241 L0.750000158,17.8846241 C0.335786595,17.8846241 1.57602184e-07,17.5488377 1.57602184e-07,17.1346241 C1.57602184e-07,16.7204106 0.335786595,16.3846241 0.750000158,16.3846241 Z" id="Rectangle" fill="#DE4F4F" transform="translate(2.000000, 17.134624) rotate(-52.000000) translate(-2.000000, -17.134624) "></path>
                    <path d="M3.91940523,12.7240833 L6.41940523,12.7240833 C6.8336188,12.7240833 7.16940523,13.0598698 7.16940523,13.4740833 C7.16940523,13.8882969 6.8336188,14.2240833 6.41940523,14.2240833 L3.91940523,14.2240833 C3.50519167,14.2240833 3.16940523,13.8882969 3.16940523,13.4740833 C3.16940523,13.0598698 3.50519167,12.7240833 3.91940523,12.7240833 Z" id="Rectangle" fill="#F17D7D" transform="translate(5.169405, 13.474083) rotate(-45.000000) translate(-5.169405, -13.474083) "></path>
                    <path d="M7.57107147,9.34818886 L10.0710715,9.34818886 C10.485285,9.34818886 10.8210715,9.68397529 10.8210715,10.0981889 C10.8210715,10.5124024 10.485285,10.8481889 10.0710715,10.8481889 L7.57107147,10.8481889 C7.1568579,10.8481889 6.82107147,10.5124024 6.82107147,10.0981889 C6.82107147,9.68397529 7.1568579,9.34818886 7.57107147,9.34818886 Z" id="Rectangle" fill="#F49393" transform="translate(8.821071, 10.098189) rotate(-40.000000) translate(-8.821071, -10.098189) "></path>
                    <path d="M11.5185472,6.21846582 L14.0185472,6.21846582 C14.4327608,6.21846582 14.7685472,6.55425226 14.7685472,6.96846582 C14.7685472,7.38267938 14.4327608,7.71846582 14.0185472,7.71846582 L11.5185472,7.71846582 C11.1043337,7.71846582 10.7685472,7.38267938 10.7685472,6.96846582 C10.7685472,6.55425226 11.1043337,6.21846582 11.5185472,6.21846582 Z" id="Rectangle" fill="#F6B0B0" transform="translate(12.768547, 6.968466) rotate(-35.000000) translate(-12.768547, -6.968466) "></path>
                    <path d="M15.7500001,3.3846242 L18.2500001,3.3846242 C18.6642137,3.3846242 19.0000001,3.72041064 19.0000001,4.1346242 C19.0000001,4.54883777 18.6642137,4.8846242 18.2500001,4.8846242 L15.7500001,4.8846242 C15.3357866,4.8846242 15.0000001,4.54883777 15.0000001,4.1346242 C15.0000001,3.72041064 15.3357866,3.3846242 15.7500001,3.3846242 Z" id="Rectangle" fill="#F8C9C9" transform="translate(17.000000, 4.134624) rotate(-32.000000) translate(-17.000000, -4.134624) "></path>
                    <path d="M20.1299346,1.00000018 L22.6299346,1.00000018 C23.0441482,1.00000018 23.3799346,1.33578661 23.3799346,1.75000018 C23.3799346,2.16421374 23.0441482,2.50000018 22.6299346,2.50000018 L20.1299346,2.50000018 C19.7157211,2.50000018 19.3799346,2.16421374 19.3799346,1.75000018 C19.3799346,1.33578661 19.7157211,1.00000018 20.1299346,1.00000018 Z" id="Rectangle" fill="#F9DDDD" transform="translate(21.379935, 1.750000) rotate(-26.000000) translate(-21.379935, -1.750000) "></path>
                </g>
                <g id="line-gradient__big--top">
                    <path d="M0.750000158,16.3846241 L3.25000016,16.3846241 C3.66421372,16.3846241 4.00000016,16.7204106 4.00000016,17.1346241 C4.00000016,17.5488377 3.66421372,17.8846241 3.25000016,17.8846241 L0.750000158,17.8846241 C0.335786595,17.8846241 1.57602224e-07,17.5488377 1.57602224e-07,17.1346241 C1.57602224e-07,16.7204106 0.335786595,16.3846241 0.750000158,16.3846241 Z" id="Rectangle" fill="#DE4F4F" transform="translate(2.000000, 17.134624) rotate(-52.000000) translate(-2.000000, -17.134624) "></path>
                    <path d="M3.91940523,12.7240833 L6.41940523,12.7240833 C6.8336188,12.7240833 7.16940523,13.0598698 7.16940523,13.4740833 C7.16940523,13.8882969 6.8336188,14.2240833 6.41940523,14.2240833 L3.91940523,14.2240833 C3.50519167,14.2240833 3.16940523,13.8882969 3.16940523,13.4740833 C3.16940523,13.0598698 3.50519167,12.7240833 3.91940523,12.7240833 Z" id="Rectangle" fill="#F17D7D" transform="translate(5.169405, 13.474083) rotate(-45.000000) translate(-5.169405, -13.474083) "></path>
                    <path d="M7.57107147,9.34818886 L10.0710715,9.34818886 C10.485285,9.34818886 10.8210715,9.68397529 10.8210715,10.0981889 C10.8210715,10.5124024 10.485285,10.8481889 10.0710715,10.8481889 L7.57107147,10.8481889 C7.1568579,10.8481889 6.82107147,10.5124024 6.82107147,10.0981889 C6.82107147,9.68397529 7.1568579,9.34818886 7.57107147,9.34818886 Z" id="Rectangle" fill="#F49393" transform="translate(8.821071, 10.098189) rotate(-40.000000) translate(-8.821071, -10.098189) "></path>
                    <path d="M11.5185472,6.21846582 L14.0185472,6.21846582 C14.4327608,6.21846582 14.7685472,6.55425226 14.7685472,6.96846582 C14.7685472,7.38267938 14.4327608,7.71846582 14.0185472,7.71846582 L11.5185472,7.71846582 C11.1043337,7.71846582 10.7685472,7.38267938 10.7685472,6.96846582 C10.7685472,6.55425226 11.1043337,6.21846582 11.5185472,6.21846582 Z" id="Rectangle" fill="#F6B0B0" transform="translate(12.768547, 6.968466) rotate(-35.000000) translate(-12.768547, -6.968466) "></path>
                    <path d="M15.7500001,3.3846242 L18.2500001,3.3846242 C18.6642137,3.3846242 19.0000001,3.72041064 19.0000001,4.1346242 C19.0000001,4.54883777 18.6642137,4.8846242 18.2500001,4.8846242 L15.7500001,4.8846242 C15.3357866,4.8846242 15.0000001,4.54883777 15.0000001,4.1346242 C15.0000001,3.72041064 15.3357866,3.3846242 15.7500001,3.3846242 Z" id="Rectangle" fill="#F8C9C9" transform="translate(17.000000, 4.134624) rotate(-32.000000) translate(-17.000000, -4.134624) "></path>
                    <path d="M21.1299346,1.00000018 L23.6299346,1.00000018 C24.0441482,1.00000018 24.3799346,1.33578661 24.3799346,1.75000018 C24.3799346,2.16421374 24.0441482,2.50000018 23.6299346,2.50000018 L21.1299346,2.50000018 C20.7157211,2.50000018 20.3799346,2.16421374 20.3799346,1.75000018 C20.3799346,1.33578661 20.7157211,1.00000018 21.1299346,1.00000018 Z" id="Rectangle" fill="#F9DDDD" transform="translate(22.379935, 1.750000) rotate(-26.000000) translate(-22.379935, -1.750000) "></path>
                </g>
            </g>
            <g id="line-gradient__middle" transform="translate(55.552119, 65.205632) rotate(126.000000) translate(-55.552119, -65.205632) translate(13.552119, 27.705632)">
                <g id="line-gradient__middle--right" transform="translate(0.000000, 0.862895)">
                    <path d="M0.750000236,12.5217292 L3.25000024,12.5217292 C3.6642138,12.5217292 4.00000024,12.8575156 4.00000024,13.2717292 C4.00000024,13.6859427 3.6642138,14.0217292 3.25000024,14.0217292 L0.750000236,14.0217292 C0.335786674,14.0217292 2.36403271e-07,13.6859427 2.36403271e-07,13.2717292 C2.36403271e-07,12.8575156 0.335786674,12.5217292 0.750000236,12.5217292 Z" id="Rectangle" fill="#DE4F4F" transform="translate(2.000000, 13.271729) rotate(-52.000000) translate(-2.000000, -13.271729) "></path>
                    <path d="M3.90910878,9.16005781 L6.40910878,9.16005781 C6.82332234,9.16005781 7.15910878,9.49584425 7.15910878,9.91005781 C7.15910878,10.3242714 6.82332234,10.6600578 6.40910878,10.6600578 L3.90910878,10.6600578 C3.49489522,10.6600578 3.15910878,10.3242714 3.15910878,9.91005781 C3.15910878,9.49584425 3.49489522,9.16005781 3.90910878,9.16005781 Z" id="Rectangle" fill="#F17D7D" transform="translate(5.159109, 9.910058) rotate(-41.000000) translate(-5.159109, -9.910058) "></path>
                    <path d="M7.87337686,6.06883552 L10.3733769,6.06883552 C10.7875904,6.06883552 11.1233769,6.40462196 11.1233769,6.81883552 C11.1233769,7.23304909 10.7875904,7.56883552 10.3733769,7.56883552 L7.87337686,7.56883552 C7.4591633,7.56883552 7.12337686,7.23304909 7.12337686,6.81883552 C7.12337686,6.40462196 7.4591633,6.06883552 7.87337686,6.06883552 Z" id="Rectangle" fill="#F49393" transform="translate(9.123377, 6.818836) rotate(-35.000000) translate(-9.123377, -6.818836) "></path>
                    <path d="M11.8778502,3.53431204 L14.3778502,3.53431204 C14.7920638,3.53431204 15.1278502,3.87009848 15.1278502,4.28431204 C15.1278502,4.69852561 14.7920638,5.03431204 14.3778502,5.03431204 L11.8778502,5.03431204 C11.4636367,5.03431204 11.1278502,4.69852561 11.1278502,4.28431204 C11.1278502,3.87009848 11.4636367,3.53431204 11.8778502,3.53431204 Z" id="Rectangle" fill="#F6B0B0" transform="translate(13.127850, 4.284312) rotate(-27.000000) translate(-13.127850, -4.284312) "></path>
                    <path d="M15.7423155,1.58778509 L18.2423155,1.58778509 C18.656529,1.58778509 18.9923155,1.92357153 18.9923155,2.33778509 C18.9923155,2.75199865 18.656529,3.08778509 18.2423155,3.08778509 L15.7423155,3.08778509 C15.3281019,3.08778509 14.9923155,2.75199865 14.9923155,2.33778509 C14.9923155,1.92357153 15.3281019,1.58778509 15.7423155,1.58778509 Z" id="Rectangle" fill="#FAC9CD" transform="translate(16.992315, 2.337785) rotate(-21.000000) translate(-16.992315, -2.337785) "></path>
                </g>
                <g id="line-gradient__middle--left" transform="translate(69.697232, 62.557687) rotate(155.000000) translate(-69.697232, -62.557687) translate(58.697232, 54.057687)">
                    <path d="M1.04089278,13.2630188 L3.54089278,13.2630188 C3.95510634,13.2630188 4.29089278,13.5988052 4.29089278,14.0130188 C4.29089278,14.4272324 3.95510634,14.7630188 3.54089278,14.7630188 L1.04089278,14.7630188 C0.626679214,14.7630188 0.290892776,14.4272324 0.290892776,14.0130188 C0.290892776,13.5988052 0.626679214,13.2630188 1.04089278,13.2630188 Z" id="Rectangle" fill="#DE4F4F" transform="translate(2.290893, 14.013019) rotate(-52.000000) translate(-2.290893, -14.013019) "></path>
                    <path d="M4.39497491,9.55490125 L6.89497491,9.55490125 C7.30918847,9.55490125 7.64497491,9.89068769 7.64497491,10.3049012 C7.64497491,10.7191148 7.30918847,11.0549012 6.89497491,11.0549012 L4.39497491,11.0549012 C3.98076135,11.0549012 3.64497491,10.7191148 3.64497491,10.3049012 C3.64497491,9.89068769 3.98076135,9.55490125 4.39497491,9.55490125 Z" id="Rectangle" fill="#F17D7D" transform="translate(5.644975, 10.304901) rotate(-41.000000) translate(-5.644975, -10.304901) "></path>
                    <path d="M8.73068353,5.65597485 L11.2306835,5.65597485 C11.6448971,5.65597485 11.9806835,5.99176129 11.9806835,6.40597485 C11.9806835,6.82018841 11.6448971,7.15597485 11.2306835,7.15597485 L8.73068353,7.15597485 C8.31646997,7.15597485 7.98068353,6.82018841 7.98068353,6.40597485 C7.98068353,5.99176129 8.31646997,5.65597485 8.73068353,5.65597485 Z" id="Rectangle" fill="#F49393" transform="translate(9.980684, 6.405975) rotate(-35.000000) translate(-9.980684, -6.405975) "></path>
                    <path d="M13.2572018,2.73867541 L15.7572018,2.73867541 C16.1714153,2.73867541 16.5072018,3.07446185 16.5072018,3.48867541 C16.5072018,3.90288898 16.1714153,4.23867541 15.7572018,4.23867541 L13.2572018,4.23867541 C12.8429882,4.23867541 12.5072018,3.90288898 12.5072018,3.48867541 C12.5072018,3.07446185 12.8429882,2.73867541 13.2572018,2.73867541 Z" id="Rectangle" fill="#F6B0B0" transform="translate(14.507202, 3.488675) rotate(-27.000000) translate(-14.507202, -3.488675) "></path>
                    <path d="M17.9745286,0.803003274 L20.4745286,0.803003274 C20.8887421,0.803003274 21.2245286,1.13878971 21.2245286,1.55300327 C21.2245286,1.96721684 20.8887421,2.30300327 20.4745286,2.30300327 L17.9745286,2.30300327 C17.560315,2.30300327 17.2245286,1.96721684 17.2245286,1.55300327 C17.2245286,1.13878971 17.560315,0.803003274 17.9745286,0.803003274 Z" id="Rectangle" fill="#FAC9CD" transform="translate(19.224529, 1.553003) rotate(-21.000000) translate(-19.224529, -1.553003) "></path>
                </g>
            </g>
            <g id="line-gradient__small" transform="translate(67.246947, 34.643284) rotate(65.000000) translate(-67.246947, -34.643284) translate(60.746947, 29.143284)">
                <path d="M1.00169011,8.19798291 L3.50169011,8.19798291 C3.91590367,8.19798291 4.25169011,8.53376934 4.25169011,8.94798291 C4.25169011,9.36219647 3.91590367,9.69798291 3.50169011,9.69798291 L1.00169011,9.69798291 C0.587476547,9.69798291 0.251690109,9.36219647 0.251690109,8.94798291 C0.251690109,8.53376934 0.587476547,8.19798291 1.00169011,8.19798291 Z" id="Rectangle" fill="#F17578" transform="translate(2.251690, 8.947983) rotate(-49.000000) translate(-2.251690, -8.947983) "></path>
                <path d="M4.73068353,4.65597485 L7.23068353,4.65597485 C7.64489709,4.65597485 7.98068353,4.99176129 7.98068353,5.40597485 C7.98068353,5.82018841 7.64489709,6.15597485 7.23068353,6.15597485 L4.73068353,6.15597485 C4.31646997,6.15597485 3.98068353,5.82018841 3.98068353,5.40597485 C3.98068353,4.99176129 4.31646997,4.65597485 4.73068353,4.65597485 Z" id="Rectangle" fill="#F49393" transform="translate(5.980684, 5.405975) rotate(-35.000000) translate(-5.980684, -5.405975) "></path>
                <path d="M9.25720179,1.7386754 L11.7572018,1.7386754 C12.1714154,1.7386754 12.5072018,2.07446184 12.5072018,2.4886754 C12.5072018,2.90288896 12.1714154,3.2386754 11.7572018,3.2386754 L9.25720179,3.2386754 C8.84298823,3.2386754 8.50720179,2.90288896 8.50720179,2.4886754 C8.50720179,2.07446184 8.84298823,1.7386754 9.25720179,1.7386754 Z" id="Rectangle" fill="#FBD3DB" transform="translate(10.507202, 2.488675) rotate(-27.000000) translate(-10.507202, -2.488675) "></path>
            </g>
            <path d="M6.20239258,19.783916 C6.20239258,21.1646279 7.31205464,22.283916 8.70239258,22.283916 L8.70239258,22.283916 C10.0831044,22.283916 11.2023926,21.1742539 11.2023926,19.783916 L11.2023926,19.783916 C11.2023926,18.4032041 10.0927305,17.283916 8.70239258,17.283916 L8.70239258,17.283916 C7.32168071,17.283916 6.20239258,18.3935781 6.20239258,19.783916 L6.20239258,19.783916 Z" id="dot" fill="#EC4343"></path>
            <path d="M56,30.884624 C56,32.2653359 57.1096621,33.384624 58.5,33.384624 L58.5,33.384624 C59.8807119,33.384624 61,32.2749619 61,30.884624 L61,30.884624 C61,29.5039121 59.8903379,28.384624 58.5,28.384624 L58.5,28.384624 C57.1192881,28.384624 56,29.4942861 56,30.884624 L56,30.884624 Z" id="dot" fill="#EC4343"></path>
            <path d="M97,96.884624 C97,98.2653359 98.1096621,99.384624 99.5,99.384624 L99.5,99.384624 C100.880712,99.384624 102,98.2749619 102,96.884624 L102,96.884624 C102,95.5039121 100.890338,94.384624 99.5,94.384624 L99.5,94.384624 C98.1192881,94.384624 97,95.4942861 97,96.884624 L97,96.884624 Z" id="dot" fill="#EC4343"></path>
            <path d="M22,83.884624 C22,85.2653359 23.1096621,86.384624 24.5,86.384624 L24.5,86.384624 C25.8807119,86.384624 27,85.2749619 27,83.884624 L27,83.884624 C27,82.5039121 25.8903379,81.384624 24.5,81.384624 L24.5,81.384624 C23.1192881,81.384624 22,82.4942861 22,83.884624 L22,83.884624 Z" id="dot" fill="#EC4343"></path>
            <path d="M95,44.884624 C95,46.2653359 96.1096621,47.384624 97.5,47.384624 L97.5,47.384624 C98.8807119,47.384624 100,46.2749619 100,44.884624 L100,44.884624 C100,43.5039121 98.8903379,42.384624 97.5,42.384624 L97.5,42.384624 C96.1192881,42.384624 95,43.4942861 95,44.884624 L95,44.884624 Z" id="dot" fill="#EC4343"></path>
        </g>
    </g>
</svg>