<?xml version="1.0" encoding="UTF-8"?>
<svg width="150px" height="110px" viewBox="0 0 150 110" version="1.1" xmlns="http://www.w3.org/2000/svg" xmlns:xlink="http://www.w3.org/1999/xlink">
    <!-- Generator: Sketch 60 (88103) - https://sketch.com -->
    <title>Group 18</title>
    <desc>Created with Sketch.</desc>
    <g id="01-BarbaSite" stroke="none" stroke-width="1" fill="none" fill-rule="evenodd">
        <g id="10-Page-A" transform="translate(-444.000000, -732.000000)">
            <g id="Group-20" transform="translate(414.000000, 702.000000)">
                <g id="Group-19" transform="translate(30.000000, 29.000000)">
                    <g id="Group-18" transform="translate(0.000000, 1.000000)">
                        <rect id="Rectangle" stroke="#979797" fill="#D8D8D8" opacity="0" x="0.5" y="0.5" width="149" height="109"></rect>
                        <g id="Group-14" transform="translate(55.000000, 26.000000)" fill="#04BF0C" fill-rule="nonzero">
                            <path d="M0,0 L40,0 L40,16.48 L19.4308943,46.08 C18.346878,47.680008 17.493228,49.0533276 16.8699187,50.2 C16.2466093,51.3466724 15.9349593,52.6399928 15.9349593,54.08 L15.9349593,56 L4.3902439,56 L4.3902439,53.6 C4.3902439,52.533328 4.4715439,51.5733376 4.63414634,50.72 C4.79674878,49.8666624 5.05419878,49.0133376 5.40650407,48.16 C5.75880935,47.3066624 6.23305935,46.4000048 6.82926829,45.44 C7.42547724,44.4799952 8.15717724,43.3600064 9.02439024,42.08 L30.2439024,11.52 L30.2439024,10.08 L0,10.08 L0,0 Z" id="7"></path>
                            <path d="M26.721789,51.3348571 L27.087844,51.3348571 L29.1011468,48.6308571 L31.2059633,48.6308571 L31.2059633,48.72 L28.7655963,52.0925714 L28.7655963,52.36 L31.45,55.9108571 L31.45,56 L29.2536697,56 L27.087844,53.1177143 L26.721789,53.1177143 L26.721789,56 L24.8,56 L24.8,45.6 L26.721789,45.6 L26.721789,51.3348571 Z M34.255814,55.7960784 L32.4,55.7960784 L32.4,45.6 L34.255814,45.6 L34.255814,49.6201681 L34.5209302,49.6201681 C34.7173136,49.2220335 35.0020653,48.9137266 35.3751938,48.6952381 C35.7483223,48.4767496 36.2245449,48.367507 36.803876,48.367507 C37.2359195,48.367507 37.6458637,48.4500459 38.0337209,48.6151261 C38.4215782,48.7802062 38.7603345,49.02054 39.05,49.3361345 C39.3396655,49.6517289 39.5704126,50.0377195 39.7422481,50.4941176 C39.9140835,50.9505158 40,51.4700251 40,52.0526611 L40,52.3148459 C40,52.9071925 39.9165383,53.431557 39.7496124,53.8879552 C39.5826865,54.3443534 39.356849,54.7303439 39.072093,55.0459384 C38.7873371,55.3615329 38.4510355,55.599439 38.0631783,55.7596639 C37.6753211,55.9198888 37.2555578,56 36.803876,56 C36.4700242,56 36.180363,55.9660134 35.9348837,55.8980392 C35.6894045,55.830065 35.4758407,55.7378157 35.294186,55.6212885 C35.1125314,55.5047613 34.9603365,55.3712426 34.8375969,55.2207283 C34.7148573,55.070214 34.6093028,54.9124191 34.5209302,54.7473389 L34.255814,54.7473389 L34.255814,55.7960784 Z M36.2,54.1090909 C36.7661644,54.1090909 37.2243669,53.947078 37.5746212,53.6230474 C37.9248755,53.2990167 38.1,52.8573652 38.1,52.2980794 L38.1,52.1382843 C38.1,51.5789985 37.9248755,51.1373469 37.5746212,50.8133163 C37.2243669,50.4892856 36.7661644,50.3272727 36.2,50.3272727 C35.6338356,50.3272727 35.1756331,50.4937243 34.8253788,50.8266325 C34.4751245,51.1595407 34.3,51.5967536 34.3,52.1382843 L34.3,52.2980794 C34.3,52.83961 34.4751245,53.2768229 34.8253788,53.6097311 C35.1756331,53.9426393 35.6338356,54.1090909 36.2,54.1090909 Z" id="kb"></path>
                        </g>
                        <g id="Group-16">
                            <rect id="Rectangle" fill="#04BF0C" opacity="0.200000003" x="0" y="0" width="10" height="10" rx="2"></rect>
                            <rect id="Rectangle-Copy-6" stroke="#04BF0C" opacity="0.5" x="0.5" y="20.5" width="9" height="9" rx="4.5"></rect>
                            <rect id="Rectangle-Copy-9" fill="#04BF0C" opacity="0.200000003" x="20" y="0" width="10" height="10" rx="2"></rect>
                            <rect id="Rectangle-Copy-10" stroke="#04BF0C" fill="#04BF0C" x="22.5" y="22.5" width="5" height="5" rx="2.5"></rect>
                            <rect id="Rectangle-Copy" fill="#04BF0C" opacity="0.200000003" x="40" y="0" width="10" height="10" rx="2"></rect>
                            <rect id="Rectangle-Copy-2" stroke="#04BF0C" fill="#04BF0C" x="62.5" y="2.5" width="5" height="5" rx="2.5"></rect>
                            <rect id="Rectangle-Copy-3" stroke="#04BF0C" fill="#04BF0C" x="82.5" y="2.5" width="5" height="5" rx="2.5"></rect>
                            <rect id="Rectangle-Copy-4" stroke="#04BF0C" opacity="0.5" x="100.5" y="0.5" width="9" height="9" rx="4.5"></rect>
                            <rect id="Rectangle-Copy-5" stroke="#04BF0C" opacity="0.5" x="120.5" y="0.5" width="9" height="9" rx="4.5"></rect>
                            <rect id="Rectangle-Copy-14" stroke="#04BF0C" fill="#04BF0C" x="122.5" y="22.5" width="5" height="5" rx="2.5"></rect>
                            <rect id="Rectangle-Copy-8" stroke="#04BF0C" opacity="0.5" x="140.5" y="0.5" width="9" height="9" rx="4.5"></rect>
                            <rect id="Rectangle-Copy-15" stroke="#04BF0C" opacity="0.5" x="140.5" y="20.5" width="9" height="9" rx="4.5"></rect>
                            <rect id="Rectangle-Copy-23" stroke="#04BF0C" fill="#04BF0C" x="2.5" y="42.5" width="5" height="5" rx="2.5"></rect>
                            <rect id="Rectangle-Copy-22" stroke="#04BF0C" fill="#04BF0C" x="22.5" y="42.5" width="5" height="5" rx="2.5"></rect>
                            <rect id="Rectangle-Copy-17" fill="#04BF0C" opacity="0.200000003" x="120" y="40" width="10" height="10" rx="2"></rect>
                            <rect id="Rectangle-Copy-16" fill="#04BF0C" opacity="0.200000003" x="140" y="40" width="10" height="10" rx="2"></rect>
                            <rect id="Rectangle-Copy-31" fill="#04BF0C" opacity="0.200000003" x="0" y="60" width="10" height="10" rx="2"></rect>
                            <rect id="Rectangle-Copy-30" stroke="#04BF0C" opacity="0.5" x="20.5" y="60.5" width="9" height="9" rx="4.5"></rect>
                            <rect id="Rectangle-Copy-25" stroke="#04BF0C" opacity="0.5" x="120.5" y="60.5" width="9" height="9" rx="4.5"></rect>
                            <rect id="Rectangle-Copy-24" fill="#04BF0C" opacity="0.200000003" x="140" y="60" width="10" height="10" rx="2"></rect>
                            <rect id="Rectangle-Copy-39" stroke="#04BF0C" opacity="0.5" x="0.5" y="80.5" width="9" height="9" rx="4.5"></rect>
                            <rect id="Rectangle-Copy-38" stroke="#04BF0C" fill="#04BF0C" x="22.5" y="82.5" width="5" height="5" rx="2.5"></rect>
                            <rect id="Rectangle-Copy-33" stroke="#04BF0C" opacity="0.5" x="120.5" y="80.5" width="9" height="9" rx="4.5"></rect>
                            <rect id="Rectangle-Copy-32" fill="#04BF0C" opacity="0.200000003" x="140" y="80" width="10" height="10" rx="2"></rect>
                            <rect id="Rectangle-Copy-47" stroke="#04BF0C" fill="#04BF0C" x="2.5" y="102.5" width="5" height="5" rx="2.5"></rect>
                            <rect id="Rectangle-Copy-46" stroke="#04BF0C" fill="#04BF0C" x="22.5" y="102.5" width="5" height="5" rx="2.5"></rect>
                            <rect id="Rectangle-Copy-45" stroke="#04BF0C" opacity="0.5" x="40.5" y="100.5" width="9" height="9" rx="4.5"></rect>
                            <rect id="Rectangle-Copy-44" stroke="#04BF0C" x="60.5" y="100.5" width="9" height="9" rx="4.5"></rect>
                            <rect id="Rectangle-Copy-43" fill="#04BF0C" opacity="0.300000012" x="80" y="100" width="10" height="10" rx="2"></rect>
                            <rect id="Rectangle-Copy-42" fill="#04BF0C" opacity="0.300000012" x="100" y="100" width="10" height="10" rx="2"></rect>
                            <rect id="Rectangle-Copy-41" stroke="#04BF0C" x="120.5" y="100.5" width="9" height="9" rx="4.5"></rect>
                            <rect id="Rectangle-Copy-40" stroke="#04BF0C" fill="#04BF0C" x="142.5" y="102.5" width="5" height="5" rx="2.5"></rect>
                        </g>
                    </g>
                </g>
            </g>
        </g>
    </g>
</svg>