<?xml version="1.0" encoding="UTF-8"?>
<svg width="150px" height="110px" viewBox="0 0 150 110" version="1.1" xmlns="http://www.w3.org/2000/svg" xmlns:xlink="http://www.w3.org/1999/xlink">
    <!-- Generator: Sketch 60 (88103) - https://sketch.com -->
    <title>modular</title>
    <desc>Created with Sketch.</desc>
    <g id="modular" stroke="none" stroke-width="1" fill="none" fill-rule="evenodd">
        <g>
            <g id="text" transform="translate(48.900000, 10.000000)" fill="#FFA543">
                <text id="9" font-family="Rubik-Medium, Rubik" font-size="78" font-weight="400">
                    <tspan x="0.398" y="73">9</tspan>
                </text>
                <text id="kB" font-family="Rubik-Regular, Rubik" font-size="12" font-weight="normal" letter-spacing="-0.428571429">
                    <tspan x="32" y="72.3">kB</tspan>
                </text>
            </g>
            <g id="shapes">
                <path d="M88,100 C89.1045695,100 90,100.895431 90,102 L90,108 C90,109.104569 89.1045695,110 88,110 L82,110 C80.8954305,110 80,109.104569 80,108 L80,102 C80,100.895431 80.8954305,100 82,100 L88,100 Z M108,100 C109.104569,100 110,100.895431 110,102 L110,108 C110,109.104569 109.104569,110 108,110 L102,110 C100.895431,110 100,109.104569 100,108 L100,102 C100,100.895431 100.895431,100 102,100 L108,100 Z M148,80 C149.104569,80 150,80.8954305 150,82 L150,88 C150,89.1045695 149.104569,90 148,90 L142,90 C140.895431,90 140,89.1045695 140,88 L140,82 C140,80.8954305 140.895431,80 142,80 L148,80 Z M8,60 C9.1045695,60 10,60.8954305 10,62 L10,68 C10,69.1045695 9.1045695,70 8,70 L2,70 C0.8954305,70 1.3527075e-16,69.1045695 0,68 L0,62 C-1.3527075e-16,60.8954305 0.8954305,60 2,60 L8,60 Z M148,60 C149.104569,60 150,60.8954305 150,62 L150,68 C150,69.1045695 149.104569,70 148,70 L142,70 C140.895431,70 140,69.1045695 140,68 L140,62 C140,60.8954305 140.895431,60 142,60 L148,60 Z M128,40 C129.104569,40 130,40.8954305 130,42 L130,48 C130,49.1045695 129.104569,50 128,50 L122,50 C120.895431,50 120,49.1045695 120,48 L120,42 C120,40.8954305 120.895431,40 122,40 L128,40 Z M148,40 C149.104569,40 150,40.8954305 150,42 L150,48 C150,49.1045695 149.104569,50 148,50 L142,50 C140.895431,50 140,49.1045695 140,48 L140,42 C140,40.8954305 140.895431,40 142,40 L148,40 Z M8,0 C9.1045695,-2.02906125e-16 10,0.8954305 10,2 L10,8 C10,9.1045695 9.1045695,10 8,10 L2,10 C0.8954305,10 1.3527075e-16,9.1045695 0,8 L0,2 C-1.3527075e-16,0.8954305 0.8954305,2.02906125e-16 2,0 L8,0 Z M28,0 C29.1045695,-2.02906125e-16 30,0.8954305 30,2 L30,8 C30,9.1045695 29.1045695,10 28,10 L22,10 C20.8954305,10 20,9.1045695 20,8 L20,2 C20,0.8954305 20.8954305,2.02906125e-16 22,0 L28,0 Z M48,0 C49.1045695,-2.02906125e-16 50,0.8954305 50,2 L50,8 C50,9.1045695 49.1045695,10 48,10 L42,10 C40.8954305,10 40,9.1045695 40,8 L40,2 C40,0.8954305 40.8954305,2.02906125e-16 42,0 L48,0 Z" id="square" fill="#FCEFD7" fill-rule="nonzero"></path>
                <path d="M45,100.5 C47.4852814,100.5 49.5,102.514719 49.5,105 C49.5,107.485281 47.4852814,109.5 45,109.5 C42.5147186,109.5 40.5,107.485281 40.5,105 C40.5,102.514719 42.5147186,100.5 45,100.5 Z M5,80.5 C7.48528137,80.5 9.5,82.5147186 9.5,85 C9.5,87.4852814 7.48528137,89.5 5,89.5 C2.51471863,89.5 0.5,87.4852814 0.5,85 C0.5,82.5147186 2.51471863,80.5 5,80.5 Z M125,80.5 C127.485281,80.5 129.5,82.5147186 129.5,85 C129.5,87.4852814 127.485281,89.5 125,89.5 C122.514719,89.5 120.5,87.4852814 120.5,85 C120.5,82.5147186 122.514719,80.5 125,80.5 Z M25,60.5 C27.4852814,60.5 29.5,62.5147186 29.5,65 C29.5,67.4852814 27.4852814,69.5 25,69.5 C22.5147186,69.5 20.5,67.4852814 20.5,65 C20.5,62.5147186 22.5147186,60.5 25,60.5 Z M125,60.5 C127.485281,60.5 129.5,62.5147186 129.5,65 C129.5,67.4852814 127.485281,69.5 125,69.5 C122.514719,69.5 120.5,67.4852814 120.5,65 C120.5,62.5147186 122.514719,60.5 125,60.5 Z M5,20.5 C7.48528137,20.5 9.5,22.5147186 9.5,25 C9.5,27.4852814 7.48528137,29.5 5,29.5 C2.51471863,29.5 0.5,27.4852814 0.5,25 C0.5,22.5147186 2.51471863,20.5 5,20.5 Z M145,20.5 C147.485281,20.5 149.5,22.5147186 149.5,25 C149.5,27.4852814 147.485281,29.5 145,29.5 C142.514719,29.5 140.5,27.4852814 140.5,25 C140.5,22.5147186 142.514719,20.5 145,20.5 Z M105,0.5 C107.485281,0.5 109.5,2.51471863 109.5,5 C109.5,7.48528137 107.485281,9.5 105,9.5 C102.514719,9.5 100.5,7.48528137 100.5,5 C100.5,2.51471863 102.514719,0.5 105,0.5 Z M125,0.5 C127.485281,0.5 129.5,2.51471863 129.5,5 C129.5,7.48528137 127.485281,9.5 125,9.5 C122.514719,9.5 120.5,7.48528137 120.5,5 C120.5,2.51471863 122.514719,0.5 125,0.5 Z M145,0.5 C147.485281,0.5 149.5,2.51471863 149.5,5 C149.5,7.48528137 147.485281,9.5 145,9.5 C142.514719,9.5 140.5,7.48528137 140.5,5 C140.5,2.51471863 142.514719,0.5 145,0.5 Z" id="stroke-medium" stroke="#FDC078"></path>
                <path d="M5,102.5 C6.38071187,102.5 7.5,103.619288 7.5,105 C7.5,106.380712 6.38071187,107.5 5,107.5 C3.61928813,107.5 2.5,106.380712 2.5,105 C2.5,103.619288 3.61928813,102.5 5,102.5 Z M25,102.5 C26.3807119,102.5 27.5,103.619288 27.5,105 C27.5,106.380712 26.3807119,107.5 25,107.5 C23.6192881,107.5 22.5,106.380712 22.5,105 C22.5,103.619288 23.6192881,102.5 25,102.5 Z M145,102.5 C146.380712,102.5 147.5,103.619288 147.5,105 C147.5,106.380712 146.380712,107.5 145,107.5 C143.619288,107.5 142.5,106.380712 142.5,105 C142.5,103.619288 143.619288,102.5 145,102.5 Z M25,82.5 C26.3807119,82.5 27.5,83.6192881 27.5,85 C27.5,86.3807119 26.3807119,87.5 25,87.5 C23.6192881,87.5 22.5,86.3807119 22.5,85 C22.5,83.6192881 23.6192881,82.5 25,82.5 Z M5,42.5 C6.38071187,42.5 7.5,43.6192881 7.5,45 C7.5,46.3807119 6.38071187,47.5 5,47.5 C3.61928813,47.5 2.5,46.3807119 2.5,45 C2.5,43.6192881 3.61928813,42.5 5,42.5 Z M25,42.5 C26.3807119,42.5 27.5,43.6192881 27.5,45 C27.5,46.3807119 26.3807119,47.5 25,47.5 C23.6192881,47.5 22.5,46.3807119 22.5,45 C22.5,43.6192881 23.6192881,42.5 25,42.5 Z M25,22.5 C26.3807119,22.5 27.5,23.6192881 27.5,25 C27.5,26.3807119 26.3807119,27.5 25,27.5 C23.6192881,27.5 22.5,26.3807119 22.5,25 C22.5,23.6192881 23.6192881,22.5 25,22.5 Z M125,22.5 C126.380712,22.5 127.5,23.6192881 127.5,25 C127.5,26.3807119 126.380712,27.5 125,27.5 C123.619288,27.5 122.5,26.3807119 122.5,25 C122.5,23.6192881 123.619288,22.5 125,22.5 Z M65,2.5 C66.3807119,2.5 67.5,3.61928813 67.5,5 C67.5,6.38071187 66.3807119,7.5 65,7.5 C63.6192881,7.5 62.5,6.38071187 62.5,5 C62.5,3.61928813 63.6192881,2.5 65,2.5 Z M85,2.5 C86.3807119,2.5 87.5,3.61928813 87.5,5 C87.5,6.38071187 86.3807119,7.5 85,7.5 C83.6192881,7.5 82.5,6.38071187 82.5,5 C82.5,3.61928813 83.6192881,2.5 85,2.5 Z" id="dots" stroke="#FFA543" fill="#FFA543" fill-rule="nonzero"></path>
                <path d="M65,100.5 C67.4852814,100.5 69.5,102.514719 69.5,105 C69.5,107.485281 67.4852814,109.5 65,109.5 C62.5147186,109.5 60.5,107.485281 60.5,105 C60.5,102.514719 62.5147186,100.5 65,100.5 Z M125,100.5 C127.485281,100.5 129.5,102.514719 129.5,105 C129.5,107.485281 127.485281,109.5 125,109.5 C122.514719,109.5 120.5,107.485281 120.5,105 C120.5,102.514719 122.514719,100.5 125,100.5 Z" id="stroke-dark" stroke="#FFA543"></path>
            </g>
        </g>
    </g>
</svg>