<?xml version="1.0" encoding="UTF-8"?>
<svg width="36px" height="36px" viewBox="0 0 36 36" version="1.1" xmlns="http://www.w3.org/2000/svg" xmlns:xlink="http://www.w3.org/1999/xlink">
    <!-- Generator: Sketch 60 (88103) - https://sketch.com -->
    <title>prefetch</title>
    <desc>Created with Sketch.</desc>
    <g id="prefetch" stroke="none" stroke-width="1" fill="none" fill-rule="evenodd">
        <rect id="bg" fill="#E8DAF7" fill-rule="nonzero" x="2" y="2" width="32" height="32" rx="16"></rect>
        <path d="M22.051004,9.06998546 L19.5181446,16.2405177 L24.0379585,16.2405177 C24.5316143,16.2405177 24.9318015,16.6446305 24.9318015,17.143129 C24.9318015,17.3851631 24.8355411,17.6170571 24.6646321,17.7867473 L14.7757253,27.6051361 C14.4237178,27.9546335 13.8577879,27.9497993 13.5116857,27.5943387 C13.2629234,27.3388501 13.1873637,26.9589673 13.3191394,26.6262963 L16.2050743,19.3406845 L11.8336513,19.3802283 C11.3400153,19.3846937 10.9362594,18.984217 10.9317668,18.4857386 C10.929723,18.247396 11.0210527,18.017884 11.1858958,17.8472886 L20.5693671,8.13637616 C20.9141259,7.77958677 21.4800334,7.7725757 21.8333569,8.12071648 C22.0833327,8.36702563 22.168343,8.73779843 22.051004,9.06998546 Z" id="zip" fill="#8C44D9" fill-rule="nonzero"></path>
    </g>
</svg>