<?xml version="1.0" encoding="UTF-8"?>
<svg width="600px" height="160px" viewBox="0 0 600 160" version="1.1" xmlns="http://www.w3.org/2000/svg" xmlns:xlink="http://www.w3.org/1999/xlink">
    <!-- Generator: Sketch 53 (72520) - https://sketchapp.com -->
    <title>logo</title>
    <desc>Created with Sketch.</desc>
    <defs>
        <path d="M0.520467836,81.6579322 C21.659525,81.2128763 38.7192982,63.8165217 38.7192982,42.4966667 C38.7192982,21.180102 21.659525,3.78703773 0.520467836,3.34206612 L0.520467836,0 L42.0409357,0 L42.0409357,83.3333333 L0.520467836,83.3333333 L0.520467836,81.6579322 Z" id="path-1"></path>
        <path d="M42.3742778,52.8243042 C41.9023461,52.8072614 41.4283054,52.7986667 40.9523018,52.7986667 C19.4314129,52.7986667 1.92306199,70.367 1.92306199,91.962 C1.92306199,113.560333 19.4314129,131.132 40.9523018,131.132 C41.4283054,131.132 41.9023461,131.123404 42.3742778,131.106358 L42.374269,133 L0.374269006,133 L0.374269006,0 L42.374269,0 L42.374269,52.8243039 Z" id="path-3"></path>
        <path d="M39.0292398,41.6633333 L39.0292398,2.5 L27.3213895,2.5 C31.7511648,0.882396472 36.5330022,0 41.5204678,0 C64.4513918,0 83.0409357,18.6583333 83.0409357,41.6633333 L39.0292398,41.6633333 Z M2.49122807,41.6633333 L0,41.6633333 C0,36.659753 0.879241941,31.8617967 2.49122807,27.4167179 L2.49122807,41.6633333 Z" id="path-5"></path>
        <path d="M0.520467836,80.8316145 C0.643180359,80.8327596 0.766026422,80.8333333 0.889003509,80.8333333 C22.4098924,80.8333333 39.9182433,63.2616667 39.9182433,41.6633333 C39.9182433,20.0683333 22.4098924,2.5 0.889003509,2.5 C0.766026422,2.5 0.643180359,2.50057367 0.520467836,2.50171847 L0.520467836,0 L42.0409357,0 L42.0409357,83.3333333 L0.520467836,83.3333333 L0.520467836,80.8316145 Z" id="path-7"></path>
        <path d="M42,52.5029061 C41.840492,52.5009705 41.6807568,52.5 41.5208,52.5 C19.9999111,52.5 2.49156023,70.0683333 2.49156023,91.6633333 C2.49156023,113.261667 19.9999111,130.833333 41.5208,130.833333 C41.6807568,130.833333 41.840492,130.832363 42,130.830427 L42,133 L0,133 L0,0 L42,0 L42,52.5029061 Z" id="path-9"></path>
    </defs>
    <g id="logo" stroke="none" stroke-width="1" fill="none" fill-rule="evenodd">
        <g id="Logo" transform="translate(18.000000, 11.000000)">
            <g id="Js" transform="translate(484.298246, 50.000000)" fill="#2E5BDC">
                <path d="M41.6131205,0.298666667 C18.6788749,0.298666667 0.0926526316,18.957 0.0926526316,41.962 C0.0926526316,64.9753333 18.6788749,83.632 41.6131205,83.632 C64.5440444,83.632 83.1335883,64.9753333 83.1335883,41.962 C83.1335883,18.957 64.5440444,0.298666667 41.6131205,0.298666667 M41.6131205,5.29866667 C61.7605123,5.29866667 78.1511322,21.7453333 78.1511322,41.962 C78.1511322,62.182 61.7605123,78.632 41.6131205,78.632 C21.4657287,78.632 5.07510877,62.182 5.07510877,41.962 C5.07510877,21.7453333 21.4657287,5.29866667 41.6131205,5.29866667" id="Color-border"></path>
                <path d="M38.3027766,20.6493333 C38.3027766,21.316 38.1782152,21.941 37.9290924,22.5243333 C37.6799696,23.1076667 37.3395018,23.6076667 36.9076889,24.0243333 C36.475876,24.441 35.9693263,24.7743333 35.3880398,25.0243333 C34.808414,25.2743333 34.2005544,25.3993333 33.5694433,25.3993333 C32.9051158,25.3993333 32.2906129,25.2743333 31.7259345,25.0243333 C31.1612561,24.7743333 30.6630105,24.441 30.2328585,24.0243333 C29.7993848,23.6076667 29.458917,23.1076667 29.2097942,22.5243333 C28.9606713,21.941 28.8361099,21.316 28.8361099,20.6493333 C28.8361099,19.9826667 28.9606713,19.3576667 29.2097942,18.7743333 C29.458917,18.191 29.7993848,17.6926667 30.2328585,17.2743333 C30.6630105,16.8576667 31.1612561,16.5243333 31.7259345,16.2743333 C32.2906129,16.0243333 32.9051158,15.8993333 33.5694433,15.8993333 C34.2005544,15.8993333 34.808414,16.0243333 35.3880398,16.2743333 C35.9693263,16.5243333 36.475876,16.8576667 36.9076889,17.2743333 C37.3395018,17.6926667 37.6799696,18.191 37.9290924,18.7743333 C38.1782152,19.3576667 38.3027766,19.9826667 38.3027766,20.6493333 L38.3027766,20.6493333 Z M27.6087649,29.666 L36.8097006,29.666 L36.8097006,59.366 C36.8097006,61.0993333 36.3430105,62.3826667 35.4146129,63.216 C34.4828936,64.0493333 33.2721567,64.466 31.7757591,64.466 L20.068648,64.466 L20.068648,58.466 L29.0354082,58.466 C30.0335602,58.466 30.530145,57.916 30.530145,56.816 L30.530145,35.666 L27.6087649,35.666 L27.6087649,29.666 Z" id="Color-border"></path>
                <path d="M48.6342316,36.6658333 C48.6342316,37.4658333 49.0494363,38.0408333 49.8798456,38.3908333 C50.710255,38.7408333 52.2216,39.0325 54.4122199,39.2658333 C56.9383251,39.5341667 58.9977404,40.2908333 60.5921263,41.5408333 C62.1865123,42.7908333 62.9837053,44.5341667 62.9837053,46.7658333 L62.9837053,47.0658333 C62.9837053,49.5341667 62.0868632,51.4991667 60.2931789,52.9658333 C58.4978339,54.4341667 55.9750503,55.1658333 52.7198456,55.1658333 C50.7932959,55.1658333 49.1490854,54.9158333 47.787214,54.4158333 C46.4253427,53.9158333 45.295986,53.2908333 44.3991439,52.5408333 C43.5023018,51.7908333 42.8114012,50.9591667 42.3314246,50.0408333 C41.8497871,49.1241667 41.5259275,48.2325 41.3598456,47.3658333 L47.1394947,45.4658333 C47.4052257,46.5325 47.9616,47.4658333 48.8069567,48.2658333 C49.6556351,49.0658333 50.957717,49.4658333 52.7198456,49.4658333 C54.2793544,49.4658333 55.3522433,49.2241667 55.9335298,48.7408333 C56.5131556,48.2591667 56.8054596,47.7341667 56.8054596,47.1658333 C56.8054596,46.8341667 56.7307228,46.5258333 56.5812491,46.2408333 C56.4317754,45.9591667 56.1577404,45.6908333 55.7591439,45.4408333 C55.3605474,45.1908333 54.8207813,44.9841667 54.1381848,44.8158333 C53.4572491,44.6508333 52.6035883,44.5158333 51.5738807,44.4158333 C48.7837053,44.1825 46.5665123,43.4591667 44.9223018,42.2408333 C43.2780912,41.0241667 42.455986,39.2341667 42.455986,36.8658333 L42.455986,36.5658333 C42.455986,35.3341667 42.7200561,34.2491667 43.2531789,33.3158333 C43.7846409,32.3841667 44.4821848,31.5908333 45.3458105,30.9408333 C46.2094363,30.2908333 47.2059275,29.7991667 48.3352842,29.4658333 C49.4646409,29.1325 50.627214,28.9658333 51.8230035,28.9658333 C53.3825123,28.9658333 54.7377404,29.1591667 55.8837053,29.5408333 C57.0296702,29.9258333 58.0012491,30.4241667 58.7984421,31.0408333 C59.5956351,31.6591667 60.2433544,32.3408333 60.7416,33.0908333 C61.2398456,33.8408333 61.6201731,34.5658333 61.8859041,35.2658333 L56.2075649,37.5658333 C55.9086175,36.6658333 55.3921029,35.9591667 54.6630035,35.4408333 C53.9305825,34.9258333 52.9855766,34.6658333 51.8230035,34.6658333 C50.7584187,34.6658333 49.9628865,34.8591667 49.4297637,35.2408333 C48.8999626,35.6241667 48.6342316,36.0991667 48.6342316,36.6658333" id="Color-border"></path>
            </g>
            <g id="A" transform="translate(390.292398, 50.000000)">
                <g id="Group-7" transform="translate(41.000000, 0.000000)">
                    <mask id="mask-2" fill="white">
                        <use xlink:href="#path-1"></use>
                    </mask>
                    <g id="Combined-Shape"></g>
                    <path d="M0.520467836,83.3333333 L42.0409357,83.3333333 L42.0409357,0 L0.520467836,0 L0.520467836,83.3333333 Z M5.50292398,78.3333333 L37.0584795,78.3333333 L37.0584795,5 L5.50292398,5 L5.50292398,78.3333333 Z" id="Color-border" fill="#2E5BDC" mask="url(#mask-2)"></path>
                </g>
                <path d="M41.5204678,0 C18.5862222,0 2.27373675e-13,18.6583333 2.27373675e-13,41.6633333 C2.27373675e-13,64.6766667 18.5862222,83.3333333 41.5204678,83.3333333 C64.4513918,83.3333333 83.0409357,64.6766667 83.0409357,41.6633333 C83.0409357,18.6583333 64.4513918,0 41.5204678,0 M41.5204678,5 C61.6678596,5 78.0584795,21.4466667 78.0584795,41.6633333 C78.0584795,61.8833333 61.6678596,78.3333333 41.5204678,78.3333333 C21.373076,78.3333333 4.98245614,61.8833333 4.98245614,41.6633333 C4.98245614,21.4466667 21.373076,5 41.5204678,5" id="Color-border" fill="#2E5BDC"></path>
            </g>
            <g id="B" transform="translate(295.625731, 0.000000)">
                <g id="Group-6">
                    <mask id="mask-4" fill="white">
                        <use xlink:href="#path-3"></use>
                    </mask>
                    <g id="Combined-Shape"></g>
                    <path d="M0.374269006,133 L42.374269,133 L42.374269,0 L0.374269006,0 L0.374269006,133 Z M5.37426901,128 L37.374269,128 L37.374269,5 L5.37426901,5 L5.37426901,128 Z" id="Color-border" fill="#2E5BDC" mask="url(#mask-4)"></path>
                </g>
                <path d="M42.6131205,50.2986667 C19.6788749,50.2986667 1.09265263,68.957 1.09265263,91.962 C1.09265263,114.975333 19.6788749,133.632 42.6131205,133.632 C65.5440444,133.632 84.1335883,114.975333 84.1335883,91.962 C84.1335883,68.957 65.5440444,50.2986667 42.6131205,50.2986667 M42.6131205,55.2986667 C62.7605123,55.2986667 79.1511322,71.7453333 79.1511322,91.962 C79.1511322,112.182 62.7605123,128.632 42.6131205,128.632 C22.4657287,128.632 6.07510877,112.182 6.07510877,91.962 C6.07510877,71.7453333 22.4657287,55.2986667 42.6131205,55.2986667" id="Color-border" fill="#2E5BDC"></path>
            </g>
            <g id="R" transform="translate(199.298246, 50.000000)">
                <g id="Group-4" transform="translate(0.000000, 0.000000)">
                    <mask id="mask-6" fill="white">
                        <use xlink:href="#path-5"></use>
                    </mask>
                    <g id="Combined-Shape"></g>
                    <path d="M41.5204678,0 C18.5862222,0 0,18.6583333 0,41.6633333 L83.0409357,41.6633333 C83.0409357,18.6583333 64.4513918,0 41.5204678,0 M41.5204678,5 C59.978807,5 75.2832515,18.8033333 77.7196725,36.6633333 L5.32126316,36.6633333 C7.75768421,18.8033333 23.0637895,5 41.5204678,5" id="Color-border" fill="#2E5BDC" mask="url(#mask-6)"></path>
                </g>
                <path d="M2.27373675e-13,83.3333333 L41.5204678,83.3333333 L41.5204678,0 L2.27373675e-13,0 L2.27373675e-13,83.3333333 Z M4.98245614,78.3333333 L36.5380117,78.3333333 L36.5380117,5 L4.98245614,5 L4.98245614,78.3333333 Z" id="Color-border" fill="#2E5BDC"></path>
            </g>
            <g id="A" transform="translate(94.666667, 50.000000)">
                <g id="Group-3" transform="translate(41.000000, 0.000000)">
                    <mask id="mask-8" fill="white">
                        <use xlink:href="#path-7"></use>
                    </mask>
                    <g id="Combined-Shape"></g>
                    <path d="M0.520467836,83.3333333 L42.0409357,83.3333333 L42.0409357,0 L0.520467836,0 L0.520467836,83.3333333 Z M5.50292398,78.3333333 L37.0584795,78.3333333 L37.0584795,5 L5.50292398,5 L5.50292398,78.3333333 Z" id="Color-border" fill="#2E5BDC" mask="url(#mask-8)"></path>
                </g>
                <path d="M41.8890035,0 C18.9547579,0 0.368535673,18.6583333 0.368535673,41.6633333 C0.368535673,64.6766667 18.9547579,83.3333333 41.8890035,83.3333333 C64.8199275,83.3333333 83.4094713,64.6766667 83.4094713,41.6633333 C83.4094713,18.6583333 64.8199275,0 41.8890035,0 M41.8890035,5 C62.0363953,5 78.4270152,21.4466667 78.4270152,41.6633333 C78.4270152,61.8833333 62.0363953,78.3333333 41.8890035,78.3333333 C21.7416117,78.3333333 5.35099181,61.8833333 5.35099181,41.6633333 C5.35099181,21.4466667 21.7416117,5 41.8890035,5" id="Color-border" fill="#2E5BDC"></path>
            </g>
            <g id="B">
                <g id="Group">
                    <mask id="mask-10" fill="white">
                        <use xlink:href="#path-9"></use>
                    </mask>
                    <g id="Combined-Shape"></g>
                    <path d="M0,133 L42,133 L42,0 L0,0 L0,133 Z M5,128 L37,128 L37,5 L5,5 L5,128 Z" id="Color-border" fill="#2E5BDC" mask="url(#mask-10)"></path>
                </g>
                <path d="M0.000332163743,91.6633333 C0.000332163743,114.676667 18.5865544,133.333333 41.5208,133.333333 C64.451724,133.333333 83.0412678,114.676667 83.0412678,91.6633333 C83.0412678,68.6583333 64.451724,50 41.5208,50 C18.5865544,50 0.000332163743,68.6583333 0.000332163743,91.6633333 Z M41.5208,55 C61.6681918,55 78.0588117,71.4466667 78.0588117,91.6633333 C78.0588117,111.883333 61.6681918,128.333333 41.5208,128.333333 C21.3734082,128.333333 4.9827883,111.883333 4.9827883,91.6633333 C4.9827883,71.4466667 21.3734082,55 41.5208,55" id="Color-border" fill="#2E5BDC"></path>
            </g>
        </g>
    </g>
</svg>