<?xml version="1.0" encoding="UTF-8"?>
<svg width="32px" height="32px" viewBox="0 0 32 32" version="1.1" xmlns="http://www.w3.org/2000/svg" xmlns:xlink="http://www.w3.org/1999/xlink">
    <!-- Generator: Sketch 53 (72520) - https://sketchapp.com -->
    <title>barba/b</title>
    <desc>Created with Sketch.</desc>
    <defs>
        <path d="M8,10 C3.581722,10 0,13.5907123 0,18 C0,22.418278 3.59071231,26 8,26 L0,26 L0,0 L8,0 L8,10 Z" id="path-1"></path>
    </defs>
    <g id="barba/b" stroke="none" stroke-width="1" fill="none" fill-rule="evenodd">
        <g id="Group-5" transform="translate(9.500000, 3.000000)">
            <g id="Group-8">
                <mask id="mask-2" fill="white">
                    <use xlink:href="#path-1"></use>
                </mask>
                <use id="Combined-Shape" stroke="#5A82F1" stroke-width="2" xlink:href="#path-1"></use>
            </g>
            <path d="M-8.8817842e-16,18 C-8.8817842e-16,22.418278 3.59071231,26 8,26 L8,26 C12.418278,26 16,22.4092877 16,18 L16,18 C16,13.581722 12.4092877,10 8,10 L8,10 C3.581722,10 -8.8817842e-16,13.5907123 -8.8817842e-16,18 L-8.8817842e-16,18 Z" id="Color-border" stroke="#5A82F1" stroke-width="2"></path>
        </g>
    </g>
</svg>