<?xml version="1.0" encoding="utf-8"?>
<!DOCTYPE svg PUBLIC "-//W3C//DTD SVG 1.1//EN" "http://www.w3.org/Graphics/SVG/1.1/DTD/svg11.dtd">
<svg version="1.1" xmlns="http://www.w3.org/2000/svg" xmlns:xlink="http://www.w3.org/1999/xlink" x="0px" y="0px"
	 width="165.501px" height="52.081px" viewBox="0 0 165.501 52.081" enable-background="new 0 0 165.501 52.081"
	 xml:space="preserve">
<g>
	<g>
		<path d="M1.043,47.957c-0.069,0-0.135,0-0.197-0.002l0.027-1c4.373,0.134,27.729-4.432,33.071-10.338
			c0.778-0.859,1.12-1.702,1.017-2.505c-0.344-2.684-4.103-5.68-10.314-8.222c-4.974-2.036-10.172-3.223-12.672-3.29
			c-0.237,0.011-0.458,0.012-0.659,0.011l-0.027-0.999c0.207-0.015,0.44-0.018,0.692-0.013c4.995-0.234,17.292-3.669,18.042-9.131
			c0.49-3.571-0.412-6.422-2.682-8.475c-3.077-2.783-8.102-3.472-11.268-2.708C7.295,3.404,3.347,21.294,2.057,28.888
			c-0.196,1.151-0.312,3.244-0.423,5.269c-0.247,4.467-0.4,6.334-0.938,6.819L0,40.26c0.321-0.472,0.502-3.759,0.635-6.158
			c0.119-2.146,0.23-4.174,0.436-5.382C2.394,20.932,6.481,2.572,15.839,0.313c3.413-0.826,8.841-0.075,12.173,2.938
			c2.495,2.256,3.532,5.49,3.001,9.353c-0.701,5.106-9.273,8.317-15.269,9.498c7.391,1.514,19.488,6.262,20.208,11.883
			c0.142,1.105-0.285,2.217-1.268,3.303C29.13,43.432,6.107,47.957,1.043,47.957z"/>
	</g>
	<g>
		<path d="M40.338,44.582h-1c0-3.151-0.118-6.435-0.231-9.609c-0.232-6.502-0.473-13.224,0.236-19.606
			c0.555-4.991,1.445-7.306,2.975-7.742c1.119-0.32,2.399,0.458,3.906,2.375c3.052,3.886,3.271,10.723,2.966,17.234
			c0.184,3.748,0.236,7.936-0.644,11.773l-0.982,4.282l-0.005-4.393c-0.002-1.938,0.158-4.27,0.328-6.737
			c0.108-1.58,0.223-3.242,0.302-4.923c-0.01-0.202-0.021-0.402-0.031-0.602c-2.597-0.286-5.191,0.388-7.348,1.917l-0.578-0.816
			c2.353-1.668,5.185-2.401,8.021-2.096c0.186-5.839-0.197-11.688-2.815-15.021c-1.194-1.52-2.181-2.221-2.846-2.032
			c-1.02,0.291-1.779,2.609-2.255,6.891c-0.702,6.31-0.462,12.995-0.231,19.46C40.22,38.121,40.338,41.413,40.338,44.582z"/>
	</g>
	<g>
		<path d="M56.461,45.108c0-2.055-0.113-4.174-0.232-6.417c-0.136-2.553-0.274-5.145-0.243-7.69
			c-0.228,0.082-0.458,0.168-0.69,0.257l-1.737,0.666l1.168-1.447c0.417-0.516,0.86-1.005,1.321-1.473
			c0.13-2.496,0.47-4.923,1.187-7.2c0.112-0.354,0.228-0.703,0.349-1.046c-0.106-3.996-0.584-7.775-1.775-10.931l0.936-0.353
			c1.002,2.655,1.516,5.713,1.733,8.956c0.278-0.675,0.562-1.336,0.842-1.989c1.134-2.639,2.205-5.131,2.73-8.143l0.056-0.318
			l0.313-0.08c1.615-0.414,4.65-0.421,6.243-0.013l0.366,0.093l0.01,0.378c0.014,0.542,0.032,1.061,0.05,1.56
			c0.16,4.614,0.266,7.662-3,11.542c-1.468,1.744-3.325,3.211-5.121,4.631c-0.841,0.665-1.694,1.339-2.519,2.049
			c-0.019,0.36-0.04,0.72-0.061,1.079c11.136-2.8,16.246,3.983,21.607,13.054l-0.861,0.51c-5.352-9.055-10.107-15.362-20.812-12.515
			c-0.098,1.521-0.211,3.03-0.321,4.504c-0.278,3.71-0.54,7.213-0.54,10.337H56.461z M56.991,30.658
			c-0.022,1.225-0.004,2.464,0.037,3.706c0.093-1.249,0.188-2.521,0.272-3.803C57.198,30.592,57.095,30.625,56.991,30.658z
			 M57.029,29.437c-0.002,0.055-0.005,0.109-0.007,0.164c0.116-0.036,0.231-0.07,0.346-0.104c0.008-0.136,0.017-0.272,0.024-0.409
			C57.27,29.203,57.149,29.32,57.029,29.437z M57.586,24.481c-0.225,1.137-0.375,2.307-0.469,3.499
			c0.117-0.106,0.234-0.212,0.353-0.316C57.522,26.602,57.563,25.538,57.586,24.481z M58.587,20.917
			c0.046,1.923,0.009,3.891-0.075,5.859c0.608-0.502,1.224-0.989,1.833-1.471c1.837-1.453,3.573-2.825,4.976-4.491
			c3.018-3.585,2.923-6.325,2.765-10.863c-0.013-0.38-0.027-0.772-0.039-1.177c-1.406-0.264-3.679-0.255-5.074,0.023
			c-0.566,2.986-1.669,5.553-2.736,8.038C59.674,18.148,59.095,19.496,58.587,20.917z"/>
	</g>
	<g>
		<path d="M79.488,36.527l-1.061-4.296c-0.898-3.638-3.363-15.304,0.338-20.863c-0.201-1.207-0.512-2.175-0.971-2.788l0.801-0.6
			c0.434,0.58,0.752,1.391,0.981,2.375c0.021-0.021,0.042-0.042,0.062-0.064c1.873-1.882,4.608-2.407,8.143-1.557l0.277,0.067
			l0.084,0.273c0.921,3.003,1.182,6.448,0.717,9.451l-0.061,0.39l-0.393,0.032c-2.933,0.24-5.347,0.787-7.343,2.522
			c0.494-0.024,0.992-0.054,1.489-0.084c4.705-0.285,10.041-0.608,11.198,5.294c0.421,2.146,0.053,3.972-1.094,5.426
			c-1.948,2.472-6,3.804-12.386,4.072l-0.042-1c5.993-0.251,9.911-1.493,11.643-3.691c0.972-1.232,1.266-2.741,0.898-4.614
			c-0.989-5.043-5.439-4.772-10.157-4.488c-0.919,0.056-1.839,0.111-2.735,0.127c-0.056,0.977-0.117,1.951-0.178,2.909
			c-0.163,2.573-0.316,5.003-0.287,6.683L79.488,36.527z M78.967,13.044c-1.84,4.012-1.217,10.417-0.423,14.899
			c0.047-0.83,0.102-1.701,0.158-2.588c0.058-0.918,0.118-1.868,0.173-2.829l-0.191,0.003l0.204-0.231
			C79.069,19.055,79.187,15.703,78.967,13.044z M79.809,11.618c0.376,2.602,0.317,6.022,0.142,9.519
			c2.325-2.275,5.181-2.893,7.976-3.152c0.352-2.672,0.115-5.674-0.659-8.342c-3.032-0.672-5.359-0.216-6.919,1.354
			C80.155,11.19,79.976,11.397,79.809,11.618z"/>
	</g>
	<g>
		<path d="M109.203,45.002c-0.15-1.246-0.285-3.21-0.457-5.695c-0.095-1.368-0.201-2.909-0.327-4.547
			c-0.522-1.646-1.277-2.983-2.272-4.052c-2.138-2.296-5.456-3.419-10.146-3.436l0.004-1c4.981,0.018,8.538,1.245,10.875,3.754
			c0.483,0.52,0.915,1.095,1.295,1.729c-0.801-9.18-2.268-19.945-5.512-21.554c-1.535-0.762-2.794-0.795-3.849-0.102
			c-5.189,3.407-4.184,22.839-3.805,30.155c0.072,1.389,0.124,2.392,0.124,2.957h-1c0-0.539-0.054-1.583-0.122-2.905
			c-0.424-8.176-1.415-27.321,4.253-31.042c1.361-0.891,2.987-0.877,4.844,0.042c4.072,2.021,5.522,15.094,6.302,25.276
			c0.827,2.688,1.079,6.104,0.789,10.396L109.203,45.002z"/>
	</g>
	<g>
		<path d="M131.271,43.755c-2.338,0-4.4-0.394-5.573-1.765c-0.892-1.042-1.181-2.504-0.874-4.447c-0.002,0-0.004,0-0.006,0.001
			l-0.098-0.996c0.104-0.01,0.207-0.02,0.31-0.028c0.014-0.059,0.028-0.117,0.044-0.177l0.085-0.338l0.348-0.036
			c1.173-0.123,2.23,0.078,3.132,0.569c1.665,0.205,2.974,0.718,3.957,1.546c1.306,1.099,2.049,2.771,2.21,4.969l0.035,0.488
			l-0.488,0.046C133.307,43.684,132.264,43.755,131.271,43.755z M125.853,37.464c-0.312,1.741-0.108,3.043,0.605,3.877
			c1.304,1.524,4.237,1.551,7.302,1.295c-0.203-1.693-0.798-2.936-1.81-3.787c-0.478-0.402-1.056-0.719-1.738-0.948
			c0.511,0.657,0.916,1.471,1.2,2.429l-0.959,0.285c-0.288-0.971-0.898-2.344-2.146-3.109
			C127.571,37.43,126.751,37.417,125.853,37.464z"/>
	</g>
	<g>
		<path d="M132.914,52.081c-0.053,0-0.104-0.001-0.155-0.002c-1.562-0.038-2.11-0.653-2.295-1.162l0.939-0.342
			c0.15,0.413,0.929,0.493,1.38,0.504c0.046,0.001,0.093,0.002,0.141,0.002c4.003,0,13.218-3.97,14.706-7.515
			c1.548-3.688,0.784-11.047,0.226-16.421c-0.129-1.243-0.252-2.433-0.337-3.471c-2.356-0.015-4.695-0.134-7.005-0.252
			c-2.499-0.127-5.084-0.259-7.649-0.259v-1c1.41,0,2.827-0.015,4.247-0.03c3.577-0.037,7.283-0.077,10.872,0.135l0.442,0.026
			l0.023,0.387c3.488-0.017,6.935-0.297,10.443-1.187l0.246,0.97c-3.546,0.899-7.099,1.187-10.616,1.211
			c0.083,1.008,0.203,2.163,0.328,3.368c0.601,5.786,1.349,12.987-0.299,16.911C146.908,47.868,137.254,52.081,132.914,52.081z"/>
	</g>
	<g>
		<path d="M155.818,40.974c-1.063,0-2.261-0.229-3.571-0.781l0.389-0.922c3.298,1.389,5.723,0.499,6.894-0.795
			c0.711-0.784,0.944-1.707,0.595-2.351c-0.426-0.786-1.661-1.08-3.39-0.799l-0.517,0.084l-0.061-0.52
			c-0.348-2.996,0.357-5.677,2.037-7.751c1.685-2.08,4.246-3.379,7.214-3.659l0.094,0.995c-2.698,0.254-5.017,1.424-6.53,3.293
			c-1.413,1.744-2.055,3.983-1.869,6.499c2.569-0.269,3.547,0.729,3.9,1.381c0.555,1.021,0.268,2.395-0.732,3.499
			C159.354,40.159,157.823,40.974,155.818,40.974z"/>
	</g>
</g>
</svg>
