<?xml version="1.0" encoding="UTF-8"?>
<svg width="36px" height="36px" viewBox="0 0 36 36" version="1.1" xmlns="http://www.w3.org/2000/svg" xmlns:xlink="http://www.w3.org/1999/xlink">
    <!-- Generator: Sketch 60 (88103) - https://sketch.com -->
    <title>links</title>
    <desc>Created with Sketch.</desc>
    <g id="links" stroke="none" stroke-width="1" fill="none" fill-rule="evenodd">
        <g id="browser" transform="translate(2.000000, 4.000000)">
            <path d="M0,7 L32,7 L32,26 C32,27.1045695 31.1045695,28 30,28 L2,28 C0.8954305,28 0,27.1045695 0,26 L0,7 L0,7 Z" id="bg" fill="#E8DAF7" fill-rule="nonzero"></path>
            <g id="link" transform="translate(7.000000, 14.000000)">
                <path d="M17.5,-0.5 L17.5,4.5625 C17.5,5.57059111 16.559798,6.5 15.5,6.5 L13.5,6.5 C12.440202,6.5 11.5,5.57059111 11.5,4.5625 L11.5,-0.5" id="Path" stroke="#8C44D9" stroke-width="2" transform="translate(14.500000, 3.000000) rotate(-90.000000) translate(-14.500000, -3.000000) "></path>
                <path d="M0.5,6.5 L0.5,1.56666667 C0.5,0.567628673 1.44020203,-0.5 2.5,-0.5 L4.5,-0.5 C5.55979797,-0.5 6.5,0.567628673 6.5,1.56666667 L6.5,6.5" id="Path" stroke="#8C44D9" stroke-width="2" transform="translate(3.500000, 3.000000) rotate(-90.000000) translate(-3.500000, -3.000000) "></path>
                <polygon id="Rectangle" fill="#8C44D9" fill-rule="nonzero" points="5 2 13 2 13 4 5 4"></polygon>
            </g>
            <path d="M2,0 L30,0 C31.1045695,0 32,0.8954305 32,2 L32,7 L32,7 L0,7 L0,2 C0,0.8954305 0.8954305,0 2,0 Z" id="bar" fill="#8C44D9" fill-rule="nonzero"></path>
            <path d="M4.5,2 C5.32842712,2 6,2.67157288 6,3.5 C6,4.32842712 5.32842712,5 4.5,5 C3.67157288,5 3,4.32842712 3,3.5 C3,2.67157288 3.67157288,2 4.5,2 Z M9.5,2 C10.3284271,2 11,2.67157288 11,3.5 C11,4.32842712 10.3284271,5 9.5,5 C8.67157288,5 8,4.32842712 8,3.5 C8,2.67157288 8.67157288,2 9.5,2 Z M14.5,2 C15.3284271,2 16,2.67157288 16,3.5 C16,4.32842712 15.3284271,5 14.5,5 C13.6715729,5 13,4.32842712 13,3.5 C13,2.67157288 13.6715729,2 14.5,2 Z" id="dots" fill="#FFFFFF" fill-rule="nonzero"></path>
        </g>
    </g>
</svg>