<?xml version="1.0" encoding="UTF-8"?>
<svg width="32px" height="32px" viewBox="0 0 32 32" version="1.1" xmlns="http://www.w3.org/2000/svg" xmlns:xlink="http://www.w3.org/1999/xlink">
    <!-- Generator: Sketch 53 (72520) - https://sketchapp.com -->
    <title>social/github</title>
    <desc>Created with Sketch.</desc>
    <g id="social/github" stroke="none" stroke-width="1" fill="none" fill-rule="evenodd">
        <path d="M12.6848814,28.2052891 C13.2408814,28.2052891 13.2155064,27.0845343 13.2155064,26.7120637 C13.2155064,26.3782454 13.2032564,25.4945059 13.1962564,24.3217504 C9.30163136,25.1712295 8.48000636,22.4374355 8.48000636,22.4374355 C7.84388136,20.8140253 6.92600636,20.381819 6.92600636,20.381819 C5.65463136,19.5094995 7.02225636,19.5270689 7.02225636,19.5270689 C8.42663136,19.6263359 9.16600636,20.9756635 9.16600636,20.9756635 C10.4155064,23.1235195 12.4428814,22.5033207 13.2408814,22.1431485 C13.3677564,21.2348122 13.7300064,20.6154919 14.1298814,20.2641041 C11.0210064,19.909203 7.75288136,18.7039441 7.75288136,13.3180531 C7.75288136,11.7833685 8.29800636,10.5289154 9.19400636,9.54590887 C9.04963136,9.19012921 8.56925636,7.76173954 9.33050636,5.82647287 C9.33050636,5.82647287 10.5065064,5.44873187 13.1805064,7.26716154 C14.2978814,6.95530512 15.4948814,6.79981646 16.6857564,6.79366696 C17.8748814,6.79981646 19.0727564,6.95530512 20.1910064,7.26716154 C22.8632564,5.44873187 24.0366314,5.82647287 24.0366314,5.82647287 C24.8005064,7.76173954 24.3201314,9.19012921 24.1757564,9.54590887 C25.0735064,10.5289154 25.6151314,11.7833685 25.6151314,13.3180531 C25.6151314,18.717121 22.3417564,19.905689 19.2232564,20.2535627 C19.7255064,20.687526 20.1735064,21.5449116 20.1735064,22.8564649 C20.1735064,24.7355093 20.1560064,26.2508675 20.1560064,26.7120637 C20.1560064,27.0880483 20.1560064,28.2070461 20.6848814,28.2052891 C20.6848814,28.2070461 12.6848814,28.2052891 12.6848814,28.2052891 Z" id="Github" fill="#000000" fill-rule="nonzero"></path>
    </g>
</svg>