<?xml version="1.0" encoding="utf-8"?>
<!-- Generator: Adobe Illustrator 23.0.3, SVG Export Plug-In . SVG Version: 6.00 Build 0)  -->
<svg version="1.1" id="Layer_1" xmlns="http://www.w3.org/2000/svg" xmlns:xlink="http://www.w3.org/1999/xlink" x="0px" y="0px"
	 viewBox="0 0 37.1 37.1" style="enable-background:new 0 0 37.1 37.1;" xml:space="preserve">
<style type="text/css">
	.st0{fill-rule:evenodd;clip-rule:evenodd;fill:#2E5BDC;}
	.st1{fill:#2E5BDC;}
</style>
<title>Group 7</title>
<desc>Created with Sketch.</desc>
<g>
	<g transform="translate(-463.000000, -796.000000)">
		<g id="Group-17" transform="translate(160.000000, 546.000000)">
			<g id="Group-15" transform="translate(303.000000, 250.000000)">
				<g id="Group-7">
					<path id="Combined-Shape-Copy-2" class="st0" d="M16.5,20.8l-5.3-5.3l-2.9,2.9l7.5,7.5l2.9,2.9l10.5-10.5l-2.9-2.9l-5.6,5.6
						v-17h-4.1V20.8z"/>
					<path id="Oval-4" class="st1" d="M18.6,33c8,0,14.4-6.5,14.4-14.4S26.5,4.1,18.6,4.1S4.1,10.6,4.1,18.6S10.6,33,18.6,33z
						 M18.6,37.1C8.3,37.1,0,28.8,0,18.6S8.3,0,18.6,0s18.6,8.3,18.6,18.6S28.8,37.1,18.6,37.1z"/>
				</g>
			</g>
		</g>
	</g>
</g>
</svg>
