<?xml version="1.0" encoding="utf-8"?>
<!-- Generator: Adobe Illustrator 23.0.3, SVG Export Plug-In . SVG Version: 6.00 Build 0)  -->
<svg version="1.1" id="Layer_1" xmlns="http://www.w3.org/2000/svg" xmlns:xlink="http://www.w3.org/1999/xlink" x="0px" y="0px"
	 viewBox="0 0 30 30" style="enable-background:new 0 0 30 30;" xml:space="preserve">
<style type="text/css">
	.st0{fill:#2E5BDC;}
</style>
<title>Group</title>
<desc>Created with Sketch.</desc>
<g>
	<g transform="translate(-880.000000, -939.000000)">
		<g id="Group-3-Copy" transform="translate(540.000000, 699.000000)">
			<g id="Group-2" transform="translate(5.000000, 240.000000)">
				<g id="Group-4" transform="translate(291.000000, 0.000000)">
					<g id="Group" transform="translate(44.000000, 0.000000)">
						<path id="Rectangle" class="st0" d="M24,26v-6h4v6c0,2.2-1.8,4-4,4H4c-2.2,0-4-1.8-4-4V6c0-2.2,1.8-4,4-4h6v4H4l0,20H24z
							 M10,6L4,6v20h20v-6h4v6c0,2.2-1.8,4-4,4H4c-2.2,0-4-1.8-4-4V6c0-2.2,1.8-4,4-4h6V6z M23.3,4H16V0h14v14h-4V7l-7.3,7.3
							l-2.8-2.8L23.3,4z"/>
					</g>
				</g>
			</g>
		</g>
	</g>
</g>
</svg>
