<?xml version="1.0" encoding="utf-8"?>
<!-- Generator: Adobe Illustrator 23.0.3, SVG Export Plug-In . SVG Version: 6.00 Build 0)  -->
<svg version="1.1" id="Layer_1" xmlns="http://www.w3.org/2000/svg" xmlns:xlink="http://www.w3.org/1999/xlink" x="0px" y="0px"
	 viewBox="0 0 47.7 35.8" style="enable-background:new 0 0 47.7 35.8;" xml:space="preserve">
<style type="text/css">
	.st0{fill:#2E5BDC;}
	.st1{fill-rule:evenodd;clip-rule:evenodd;fill:#2E5BDC;}
</style>
<title>Group 5</title>
<desc>Created with Sketch.</desc>
<g>
	<g transform="translate(-165.000000, -796.000000)">
		<g id="Group-17" transform="translate(160.000000, 546.000000)">
			<g id="Group-6" transform="translate(5.000000, 250.000000)">
				<g id="Group-5">
					<path id="Combined-Shape" class="st0" d="M24.6,31c6.5,0,12.4-3.8,15.1-9.5c-2.7-5.7-8.5-9.5-15.1-9.5s-12.4,3.8-15.1,9.5
						C12.2,27.2,18,31,24.6,31z M24.6,7.2c9.3,0,17.3,6,20.2,14.3c-2.9,8.3-10.9,14.3-20.2,14.3s-17.3-6-20.2-14.3
						C7.3,13.1,15.2,7.2,24.6,7.2z"/>
					<path class="st0" d="M7.1,13.6c2.8-5.7,9-8.8,17.5-8.8S39.2,7.9,42,13.6h5.2C43.9,4.3,35,0,24.6,0S5.2,4.3,1.9,13.6H7.1z
						 M24.6,4.8c8.5,0,14.7,3.1,17.5,8.8h5.2C43.9,4.3,35,0,24.6,0S5.2,4.3,1.9,13.6h5.2C9.9,7.9,16.1,4.8,24.6,4.8z"/>
					<circle id="Oval-3" class="st1" cx="24.6" cy="21.5" r="4.8"/>
				</g>
			</g>
		</g>
	</g>
</g>
</svg>
