<?xml version="1.0" encoding="UTF-8"?>
<svg width="13px" height="15px" viewBox="0 0 13 15" version="1.1" xmlns="http://www.w3.org/2000/svg" xmlns:xlink="http://www.w3.org/1999/xlink">
    <!-- Generator: Sketch 53.2 (72643) - https://sketchapp.com -->
    <title>Group 20</title>
    <desc>Created with Sketch.</desc>
    <g id="01-BarbaSite" stroke="none" stroke-width="1" fill="none" fill-rule="evenodd">
        <g id="16-Example" transform="translate(-258.000000, -797.000000)" fill="#2E5BDC" fill-rule="nonzero">
            <g id="Group-17" transform="translate(160.000000, 546.000000)">
                <g id="Group-16" transform="translate(98.000000, 251.000000)">
                    <g id="Group-20">
                        <path d="M4.25892077,14.9994774 C4.63478667,14.9994774 4.61763272,14.2493785 4.61763272,14.0000913 C4.61763272,13.7766733 4.6093515,13.185204 4.60461938,12.4003021 C1.97178353,12.9688416 1.4163504,11.1391676 1.4163504,11.1391676 C0.986318576,10.0526514 0.365818733,9.7633843 0.365818733,9.7633843 C-0.493653404,9.17955813 0.430885447,9.191317 0.430885447,9.191317 C1.38026795,9.25775443 1.88009862,10.1608326 1.88009862,10.1608326 C2.72478287,11.59835 4.09532446,11.1832632 4.63478667,10.9422071 C4.72055643,10.3342757 4.96544388,9.91977689 5.2357665,9.68460005 C3.13411165,9.44707175 0.924800956,8.64041595 0.924800956,5.0357461 C0.924800956,4.00861214 1.29331516,3.16903161 1.89902712,2.51112489 C1.80142705,2.27300862 1.47668499,1.31701579 1.99130355,0.0217802583 C1.99130355,0.0217802583 2.78630049,-0.231034289 4.5939721,0.986004563 C5.34933749,0.777285259 6.15853081,0.673219783 6.96358351,0.669104045 C7.76745318,0.673219783 8.57723801,0.777285259 9.33319492,0.986004563 C11.1396835,-0.231034289 11.9329059,0.0217802583 11.9329059,0.0217802583 C12.449299,1.31701579 12.1245569,2.27300862 12.0269569,2.51112489 C12.6338519,3.16903161 13,4.00861214 13,5.0357461 C13,8.649235 10.7871402,9.4447199 8.67897869,9.67754489 C9.01850863,9.96798787 9.32136461,10.5418191 9.32136461,11.4196156 C9.32136461,12.6772227 9.3095343,13.6914219 9.3095343,14.0000913 C9.3095343,14.2517303 9.3095343,15.0006533 9.66706322,14.9994774 C9.66706322,15.0006533 4.25892077,14.9994774 4.25892077,14.9994774 Z" id="Github"></path>
                    </g>
                </g>
            </g>
        </g>
    </g>
</svg>