<?xml version="1.0" encoding="UTF-8"?>
<svg width="30px" height="31px" viewBox="0 0 30 31" version="1.1" xmlns="http://www.w3.org/2000/svg" xmlns:xlink="http://www.w3.org/1999/xlink">
    <!-- Generator: Sketch 60 (88103) - https://sketch.com -->
    <title>Group 17</title>
    <desc>Created with Sketch.</desc>
    <g id="01-BarbaSite" stroke="none" stroke-width="1" fill="none" fill-rule="evenodd">
        <g id="09-Page-B" transform="translate(-456.000000, -687.000000)">
            <g id="Group-20" transform="translate(414.000000, 662.000000)">
                <g id="Group-18" transform="translate(38.000000, 24.000000)">
                    <g id="Group-17">
                        <rect id="Rectangle" fill="#D8D8D8" opacity="0" x="0" y="0" width="36" height="36"></rect>
                        <rect id="Rectangle-Copy-3" fill="#2E5BDC" opacity="0.300000012" x="16" y="1" width="18" height="18" rx="9"></rect>
                        <rect id="Rectangle-Copy-3" fill="#2E5BDC" x="22" y="7" width="6" height="6" rx="3"></rect>
                        <rect id="Rectangle" fill="#2E5BDC" x="5" y="7" width="6" height="6" rx="3"></rect>
                        <rect id="Rectangle-Copy" fill="#2E5BDC" x="5" y="25" width="6" height="6" rx="3"></rect>
                        <rect id="Rectangle-Copy-2" fill="#2E5BDC" x="23" y="25" width="6" height="6" rx="3"></rect>
                        <g id="Group-16" transform="translate(6.000000, 17.000000)" stroke="#2E5BDC" stroke-linecap="square" stroke-width="2">
                            <line x1="2" y1="0" x2="2" y2="4" id="Line"></line>
                            <line x1="2" y1="4" x2="0" y2="2" id="Line"></line>
                            <line x1="2" y1="2" x2="4" y2="4" id="Line" transform="translate(3.000000, 3.000000) scale(-1, 1) translate(-3.000000, -3.000000) "></line>
                        </g>
                        <g id="Group-16" transform="translate(17.000000, 28.000000) rotate(-270.000000) translate(-17.000000, -28.000000) translate(15.000000, 26.000000)" stroke="#2E5BDC" stroke-linecap="square" stroke-width="2">
                            <line x1="2" y1="0" x2="2" y2="4" id="Line"></line>
                            <line x1="2" y1="4" x2="0" y2="2" id="Line"></line>
                            <line x1="2" y1="2" x2="4" y2="4" id="Line" transform="translate(3.000000, 3.000000) scale(-1, 1) translate(-3.000000, -3.000000) "></line>
                        </g>
                    </g>
                </g>
            </g>
        </g>
    </g>
</svg>